<svg width="16" height="17" viewBox="0 0 16 17" fill="none" xmlns="http://www.w3.org/2000/svg">
<path d="M13.2591 3.24063C13.2591 3.24063 13.2591 3.24064 13.2591 3.24063C13.5799 3.56149 13.5799 4.0817 13.259 4.40255L12.6781 4.98349L11.5162 3.82157L12.0971 3.24063C12.0971 3.24064 12.0971 3.24063 12.0971 3.24063M12.0971 3.24063C12.418 2.9198 12.9382 2.9198 13.2591 3.24063H12.0971ZM11.971 5.69059L8.83527 8.8263C8.1192 9.54237 7.82517 9.83027 7.47505 10.0259C7.32141 10.1118 7.01879 10.2175 6.59223 10.3362C6.40996 10.3869 6.21445 10.4376 6.01146 10.4882C6.06209 10.2852 6.11274 10.0897 6.16346 9.90743C6.28217 9.48087 6.38789 9.17826 6.47374 9.02462C6.66938 8.67451 6.95731 8.38049 7.67338 7.6644C7.67337 7.6644 7.67338 7.6644 7.67338 7.6644L10.8091 4.52869L11.971 5.69059ZM13.9662 5.10965C14.6775 4.39827 14.6775 3.24491 13.9662 2.53354C13.2548 1.82217 12.1014 1.82215 11.39 2.53351L10.4555 3.46803L6.96626 6.9573C6.94802 6.97554 6.92997 6.99359 6.91211 7.01144C6.26671 7.6567 5.87216 8.05117 5.60079 8.53682C5.44937 8.80778 5.31711 9.21877 5.20007 9.63934C5.07967 10.072 4.96113 10.5699 4.84799 11.0451L4.84661 11.0508C4.8064 11.2198 4.85669 11.3974 4.97946 11.5202C5.10224 11.643 5.27992 11.6933 5.44883 11.6531L5.45424 11.6518C5.92958 11.5386 6.42755 11.42 6.86033 11.2996C7.28091 11.1825 7.6919 11.0503 7.96285 10.8989C8.44863 10.6274 8.84315 10.2328 9.48874 9.58705C9.50642 9.56936 9.5243 9.55148 9.54237 9.53341L13.9662 5.10965Z" fill="black" fill-opacity="0.88"/>
<path d="M4.77481 3.10538C4.01331 3.20776 3.56319 3.40128 3.23223 3.73223C2.90128 4.06319 2.70776 4.51331 2.60538 5.27481C2.50106 6.05069 2.5 7.07165 2.5 8.5C2.5 9.92834 2.50106 10.9493 2.60538 11.7252C2.70776 12.4867 2.90128 12.9368 3.23223 13.2678C3.56319 13.5987 4.01331 13.7922 4.77481 13.8946C5.55069 13.9989 6.57165 14 8 14C9.42834 14 10.4493 13.9989 11.2252 13.8946C11.9867 13.7922 12.4368 13.5987 12.7678 13.2678C13.0987 12.9368 13.2922 12.4867 13.3946 11.7252C13.4989 10.9493 13.5 9.92834 13.5 8.5C13.5 8.22386 13.7239 8 14 8C14.2761 8 14.5 8.22386 14.5 8.5V8.53798C14.5 9.91999 14.5 11.0082 14.3857 11.8584C14.2684 12.7308 14.0226 13.4272 13.4749 13.9749C12.9272 14.5226 12.2308 14.7684 11.3584 14.8857C10.5082 15 9.41999 15 8.03798 15H7.96202C6.58 15 5.49179 15 4.64156 14.8857C3.76918 14.7684 3.07285 14.5226 2.52513 13.9749C1.9774 13.4272 1.73158 12.7308 1.61429 11.8584C1.49998 11.0082 1.49999 9.91998 1.5 8.53796V8.46203C1.49999 7.08001 1.49998 5.99179 1.61429 5.14156C1.73158 4.26918 1.9774 3.57285 2.52513 3.02513C3.07285 2.4774 3.76918 2.23158 4.64156 2.11429C5.49179 1.99998 6.58001 1.99999 7.96203 2L8 2C8.27614 2 8.5 2.22386 8.5 2.5C8.5 2.77614 8.27614 3 8 3C6.57165 3 5.55069 3.00106 4.77481 3.10538Z" fill="black" fill-opacity="0.88"/>
</svg>
