<svg width="20" height="21" viewBox="0 0 20 21" fill="none" xmlns="http://www.w3.org/2000/svg">
<path d="M10 18.7143C8.5119 18.7292 7.12426 18.372 5.83705 17.6429C4.54985 16.9137 3.53423 15.9129 2.79018 14.6406C2.04613 13.3683 1.67411 11.9918 1.67411 10.5112C1.67411 9.03051 2.04613 7.6503 2.79018 6.37054C3.53423 5.09077 4.54985 4.08631 5.83705 3.35714C7.12426 2.62798 8.50818 2.27455 9.98884 2.29688C11.4695 2.3192 12.8348 2.70982 14.0848 3.46875C15.2902 4.19792 16.25 5.17262 16.9643 6.39286C17.6935 7.65774 18.058 9.02679 18.058 10.5C18.058 11.9732 17.6935 13.3423 16.9643 14.6071C16.25 15.8274 15.2902 16.8021 14.0848 17.5312C12.8348 18.2902 11.4732 18.6845 10 18.7143ZM10 20.5C11.8155 20.5 13.497 20.0461 15.0446 19.1384C16.5476 18.2455 17.7455 17.0476 18.6384 15.5446C19.5461 13.997 20 12.3155 20 10.5C20 8.68452 19.5461 7.00298 18.6384 5.45536C17.7455 3.95238 16.5476 2.75446 15.0446 1.86161C13.497 0.953869 11.8155 0.5 10 0.5C8.18452 0.5 6.50298 0.953869 4.95536 1.86161C3.45238 2.75446 2.25446 3.95238 1.36161 5.45536C0.453869 7.00298 0 8.68452 0 10.5C0 12.3155 0.453869 13.997 1.36161 15.5446C2.25446 17.0476 3.45238 18.2455 4.95536 19.1384C6.50298 20.0461 8.18452 20.5 10 20.5ZM8.54911 5.54464C9.24851 5.2619 9.97396 5.19122 10.7254 5.33259C11.4769 5.47396 12.128 5.80134 12.6786 6.31473C13.2292 6.82812 13.5826 7.4494 13.7388 8.17857C13.8951 8.90774 13.8207 9.61086 13.5156 10.2879C13.2106 10.965 12.7307 11.5045 12.0759 11.9062C11.7188 12.1443 11.3244 12.308 10.8929 12.3973V12.5759C10.8929 12.8289 10.8073 13.0409 10.6362 13.2121C10.465 13.3832 10.2567 13.4725 10.0112 13.4799C9.76562 13.4874 9.55357 13.4055 9.375 13.2344C9.19643 13.0632 9.10714 12.8512 9.10714 12.5982L9.08482 11.6384C9.08482 11.3854 9.17411 11.1696 9.35268 10.9911C9.53125 10.8125 9.73958 10.7232 9.97768 10.7232C10.4092 10.7232 10.7961 10.6153 11.1384 10.3996C11.4807 10.1838 11.7262 9.90848 11.875 9.57366C12.0238 9.23884 12.0573 8.89286 11.9754 8.53571C11.8936 8.17857 11.7188 7.87351 11.4509 7.62054C11.1533 7.3378 10.7999 7.15923 10.3906 7.08482C9.9814 7.01042 9.58333 7.04762 9.19643 7.19643C8.80952 7.34524 8.50446 7.57589 8.28125 7.88839C8.17708 8.0372 8.09896 8.18973 8.04688 8.34598C7.99479 8.50223 7.90923 8.63244 7.79018 8.73661C7.67113 8.84077 7.53348 8.91146 7.37723 8.94866C7.22098 8.98586 7.06473 8.97842 6.90848 8.92634C6.75223 8.87426 6.62202 8.78497 6.51786 8.65848C6.41369 8.53199 6.34673 8.39062 6.31696 8.23438C6.2872 8.07812 6.30208 7.9256 6.36161 7.77679C6.46577 7.4494 6.62202 7.14435 6.83036 6.86161C7.27679 6.25149 7.8497 5.8125 8.54911 5.54464ZM10 14.6071C10.253 14.6071 10.465 14.6927 10.6362 14.8638C10.8073 15.035 10.8929 15.247 10.8929 15.5V16.0357C10.8929 16.1994 10.8519 16.3519 10.7701 16.4933C10.6882 16.6347 10.5804 16.7426 10.4464 16.817C10.3125 16.8914 10.1637 16.9286 10 16.9286C9.83631 16.9286 9.6875 16.8914 9.55357 16.817C9.41964 16.7426 9.31176 16.6347 9.22991 16.4933C9.14807 16.3519 9.10714 16.1994 9.10714 16.0357V15.5C9.10714 15.247 9.19271 15.035 9.36384 14.8638C9.53497 14.6927 9.74702 14.6071 10 14.6071Z" fill="#999999"/>
</svg>
