<svg width="14" height="15" viewBox="0 0 14 15" fill="none" xmlns="http://www.w3.org/2000/svg">
<g clip-path="url(#clip0_1005_4578)">
<path d="M2.478 11.1856C3.54768 12.4964 5.176 13.3334 6.99981 13.3334C10.2215 13.3334 12.8331 10.7217 12.8331 7.50008C12.8331 4.27842 10.2215 1.66675 6.99981 1.66675C5.09196 1.66675 3.39803 2.58265 2.33372 3.99874" stroke="#3DCD7F" stroke-linecap="round"/>
<path d="M2.478 11.1856C3.54768 12.4964 5.176 13.3334 6.99981 13.3334C10.2215 13.3334 12.8331 10.7217 12.8331 7.50008C12.8331 4.27842 10.2215 1.66675 6.99981 1.66675C5.09196 1.66675 3.39803 2.58265 2.33372 3.99874" stroke="black" stroke-opacity="0.2" stroke-linecap="round"/>
<path d="M6.99982 4.44971V7.50002L8.59516 9.15073" stroke="#3DCD7F" stroke-linecap="round" stroke-linejoin="round"/>
<path d="M6.99982 4.44971V7.50002L8.59516 9.15073" stroke="black" stroke-opacity="0.2" stroke-linecap="round" stroke-linejoin="round"/>
<path d="M0.767501 5.875C0.771981 5.99936 0.887736 6.08948 1.0094 6.06333L3.94955 5.43134C4.11559 5.39564 4.16439 5.18232 4.03038 5.07799L0.981969 2.70463C0.847964 2.6003 0.65312 2.69992 0.659234 2.86964L0.767501 5.875Z" fill="#3DCD7F"/>
<path d="M0.767501 5.875C0.771981 5.99936 0.887736 6.08948 1.0094 6.06333L3.94955 5.43134C4.11559 5.39564 4.16439 5.18232 4.03038 5.07799L0.981969 2.70463C0.847964 2.6003 0.65312 2.69992 0.659234 2.86964L0.767501 5.875Z" fill="black" fill-opacity="0.2"/>
</g>
<defs>
<clipPath id="clip0_1005_4578">
<rect width="14" height="14" fill="white" transform="translate(-0.000183105 0.5)"/>
</clipPath>
</defs>
</svg>
