<?xml version="1.0" standalone="no"?>
<!DOCTYPE svg PUBLIC "-//W3C//DTD SVG 1.1//EN" "http://www.w3.org/Graphics/SVG/1.1/DTD/svg11.dtd" >
<svg xmlns="http://www.w3.org/2000/svg">
  <metadata>Created by iconfont</metadata>
  <defs>
  <font id="iconfont" horiz-adv-x="1024">
    <font-face
      font-family="iconfont"
      font-weight="400"
      font-stretch="normal"
      units-per-em="1024"
      ascent="896"
      descent="-128"
    />
      <missing-glyph />
      
      <glyph glyph-name="cuowu4" unicode="&#59022;" d="M736 832h-448A224.63488 224.63488 0 0 1 64 608v-448A224.63488 224.63488 0 0 1 288-64h448A224.63488 224.63488 0 0 1 960 160v448A224.63488 224.63488 0 0 1 736 832zM691.33312 264.76544a41.9328 41.9328 0 0 0 0-60.02688 41.92256 41.92256 0 0 0-60.1088 0L512 323.97312 392.76544 204.72832a41.9328 41.9328 0 0 0-60.09856 0 41.91232 41.91232 0 0 0 0 60.02688L451.90144 384 332.66688 503.23456a41.9328 41.9328 0 0 0 0 60.16 41.92256 41.92256 0 0 0 60.1088 0L512 444.02688l119.23456 119.23456a41.94304 41.94304 0 0 0 60.09856 0 41.91232 41.91232 0 0 0 0-60.08832L572.09856 384l119.23456-119.23456z"  horiz-adv-x="1024" />
      
      <glyph glyph-name="zhengque3" unicode="&#59019;" d="M736 832h-448A224.63488 224.63488 0 0 1 64 608v-448a224.63488 224.63488 0 0 1 224-223.93856h448A224.63488 224.63488 0 0 1 960 160.06144v448A224.63488 224.63488 0 0 1 736 832zM709.888 478.72L473.21088 242.05312s0-0.768-0.768-0.768a35.08224 35.08224 0 0 0-36.608-7.49568 26.89024 26.89024 0 0 0-11.19232 7.48544L314.23488 351.744a33.35168 33.35168 0 0 0 0 47.81056c13.44512 13.43488 34.304 13.43488 47.74912 0l87.296-87.36768 213.56544 213.57568c13.44512 13.43488 34.37568 13.43488 47.81056 0 13.44512-13.44512 12.66688-33.60768-0.768-47.04256z"  horiz-adv-x="1024" />
      
      <glyph glyph-name="zhengque2" unicode="&#59015;" d="M736 832h-448A224.64 224.64 0 0 1 64 608v-448a224.64 224.64 0 0 1 224-223.936h448a224.64 224.64 0 0 1 224 224v448A224.64 224.64 0 0 1 736 832zM709.888 478.72l-236.672-236.672s0-0.768-0.768-0.768a35.072 35.072 0 0 0-36.608-7.488 26.88 26.88 0 0 0-11.2 7.488L314.24 351.744a33.344 33.344 0 0 0 0 47.808c13.44 13.44 34.304 13.44 47.744 0L449.28 312.192l213.568 213.568c13.44 13.44 34.368 13.44 47.808 0 13.44-13.44 12.672-33.6-0.768-47.04z"  horiz-adv-x="1024" />
      
      <glyph glyph-name="cuowu3" unicode="&#59016;" d="M736 832h-448A224.64 224.64 0 0 1 64 608v-448A224.64 224.64 0 0 1 288-64h448a224.64 224.64 0 0 1 224 224v448A224.64 224.64 0 0 1 736 832zM691.328 264.768a41.92 41.92 0 0 0 0-60.032 41.92 41.92 0 0 0-60.096 0L512 323.968l-119.232-119.232a41.92 41.92 0 0 0-60.096 0 41.92 41.92 0 0 0 0 60.032L451.904 384 332.672 503.232a41.92 41.92 0 0 0 0 60.16 41.92 41.92 0 0 0 60.096 0L512 444.032l119.232 119.232a41.92 41.92 0 0 0 60.096 0 41.92 41.92 0 0 0 0-60.096L572.096 384l119.232-119.232z"  horiz-adv-x="1024" />
      
      <glyph glyph-name="a-Frame34723" unicode="&#58912;" d="M1024 588.8a307.2 307.2 0 0 1-307.2 307.2H0l1024-1024V588.8zM894.5152 715.3152c13.312-13.312 13.312-34.9184 0-48.2304l-204.8-204.8a34.1504 34.1504 0 0 0-48.2304 0l-102.4 102.4a34.1504 34.1504 0 0 0 48.2304 48.2304L665.6 534.6816l180.6848 180.6336c13.312 13.312 34.9184 13.312 48.2304 0z"  horiz-adv-x="1024" />
      
      <glyph glyph-name="cuowu2" unicode="&#58905;" d="M86.016 896L2.048 825.344c149.504-111.616 288.768-239.616 411.136-367.616C225.792 268.8 78.848 82.944 1.536 8.192L161.28-125.44c56.832 117.248 180.224 294.912 345.6 481.28 165.376-187.392 289.28-366.08 346.112-483.84 0 0 155.648 165.376 169.472 139.776-59.904 67.584-206.336 264.192-402.944 465.408 112.64 115.712 239.104 230.4 374.272 331.264L956.928 877.056c-153.088-76.288-299.008-189.44-430.08-309.76C394.752 692.736 245.248 812.032 86.016 896z"  horiz-adv-x="1024" />
      
      <glyph glyph-name="zhengque1" unicode="&#58908;" d="M997.888 825.856C686.592 634.88 460.8 393.728 358.912 272.896L110.08 467.968 0 379.392l429.568-437.248C503.296 131.584 737.792 501.76 1024 764.928l-26.112 60.928z"  horiz-adv-x="1024" />
      
      <glyph glyph-name="star" unicode="&#58907;" d="M956.742 464.115c-5.241 16.201-19.179 28.055-36.035 30.497l-254.931 44.791-114.003 229.438c-7.445 15.248-22.993 24.898-40.026 24.898-17.036 0-32.523-9.649-40.146-24.898l-113.945-229.438-254.871-46.339c-16.857-2.443-30.853-14.296-36.036-30.497-5.301-16.142-0.893-33.951 11.318-45.804l184.408-170.41-48.186-247.663c-2.859-16.737 3.931-33.834 17.81-43.721 13.245-13.245 40.563-6.908 47.054-3.514l232.595 113.646 231.106-113.646c6.491-3.394 32.167-11.373 47.053 3.514 13.76 9.887 20.787 26.983 17.87 43.721l-46.698 247.663 184.467 172.019c12.152 11.793 16.499 29.602 11.197 45.744z"  horiz-adv-x="1024" />
      
      <glyph glyph-name="drainage" unicode="&#58958;" d="M421.248 896H43.776A43.904 43.904 0 0 1 0 852.224v-377.472a43.904 43.904 0 0 1 43.776-43.712h377.472a43.904 43.904 0 0 1 43.776 43.776V852.224A43.904 43.904 0 0 1 421.248 896z m-49.28-371.968H92.992V803.008h279.04v-279.04zM979.2 896H601.728a43.904 43.904 0 0 1-43.712-43.776v-377.472a43.904 43.904 0 0 1 43.712-43.712H979.2a43.904 43.904 0 0 1 43.84 43.712V852.224A43.904 43.904 0 0 1 979.2 896z m-49.216-371.968h-279.04V803.008h279.04v-279.04zM421.184 337.92H43.84A43.904 43.904 0 0 1 0 294.272v-377.536a43.904 43.904 0 0 1 43.776-43.712h377.472a43.904 43.904 0 0 1 43.776 43.712V294.272a43.904 43.904 0 0 1-43.776 43.712z m-49.216-371.968H92.992v279.04h279.04v-279.04zM929.984-126.976h49.28a43.904 43.904 0 0 1 43.776 43.776v49.216h-93.056v-92.992z m-185.984 92.992h92.992v-92.992h-92.992v92.992zM979.2 337.984h-49.216v-185.984h-92.992V337.984H601.728a43.904 43.904 0 0 1-43.712-43.712v-377.536a43.904 43.904 0 0 1 43.712-43.712h49.28v279.04h92.992v-93.056h279.04V294.272a43.904 43.904 0 0 1-43.776 43.712zM175.04 105.536a57.408 57.408 0 1 1 114.88 0 57.408 57.408 0 0 1-114.88 0z m0 557.952a57.408 57.408 0 1 1 114.88 0 57.408 57.408 0 0 1-114.88 0z m558.016 0a57.408 57.408 0 1 1 114.88 0 57.408 57.408 0 0 1-114.88 0z"  horiz-adv-x="1024" />
      
      <glyph glyph-name="replay" unicode="&#58953;" d="M512 896a512 512 0 1 1 0-1024A512 512 0 1 1 512 896z m0-768a255.872 255.872 0 0 0-256 255.872h76.8c0-98.944 80.32-179.2 179.2-179.2A179.264 179.264 0 0 1 512 563.2a178.176 178.176 0 0 1-112.64-40.832l-54.912 54.848A255.104 255.104 0 0 0 512 640a256 256 0 1 0 0-512zM422.4 377.408c0 25.28 1.6 50.176 4.544 74.496 3.072 25.408 27.136 40.96 48.64 31.744 39.744-17.28 77.056-39.744 110.912-66.816a42.624 42.624 0 0 0 0-65.152 486.4 486.4 0 0 0-112.512-67.456c-22.272-9.472-46.272 7.424-48.64 33.536a559.744 559.744 0 0 0-2.88 59.648H422.4z"  horiz-adv-x="1024" />
      
      <glyph glyph-name="review" unicode="&#58922;" d="M921.6 896H102.4C46.08 896 0 849.92 0 793.6V-128l204.8 204.8h716.8c56.32 0 102.4 46.08 102.4 102.4V793.6C1024 849.92 977.92 896 921.6 896zM358.4 435.2H256V537.6h102.4v-102.4z m204.8 0H460.8V537.6h102.4v-102.4z m204.8 0H665.6V537.6H768v-102.4z"  horiz-adv-x="1024" />
      
      <glyph glyph-name="like" unicode="&#58923;" d="M0-128h192V512H0v-640z m1152 563.2c0 56.32-46.784 102.4-104 102.4H720.384l52.032 235.52v15.36c0 20.48-10.432 40.96-20.8 56.32L694.4 896 351.232 558.08C330.432 542.72 320 517.12 320 486.4v-512c0-56.32 46.784-102.4 104-102.4h467.968c41.6 0 78.08 25.6 93.632 61.44l161.216 363.52C1152 307.2 1152 322.56 1152 332.8V435.2c0-5.12 0 0 0 0z"  horiz-adv-x="1152" />
      
      <glyph glyph-name="subscribed" unicode="&#58901;" d="M766.72 896a172.032 172.032 0 0 0 172.032-172.032V44.48a172.352 172.352 0 0 0-172.032-172.352c-27.904 0-55.36 6.912-80 20.032L592-58.112a171.2 171.2 0 0 1-160 0l-94.72-49.728A171.712 171.712 0 0 0 85.248 44.48V723.968A172.032 172.032 0 0 0 257.28 896zM512 556.8a28.928 28.928 0 0 1-25.92-16l-20.032-40.64a29.12 29.12 0 0 0-21.76-16l-44.8-6.4a28.928 28.928 0 0 1-16-49.28l32-32a29.312 29.312 0 0 0 8.32-25.6L416 326.848a28.8 28.8 0 0 1 41.92-30.336l40 21.12a29.44 29.44 0 0 0 26.88 0l40-21.12a28.8 28.8 0 0 1 43.2 30.4l-7.68 44.608a29.312 29.312 0 0 0 8.32 25.6l32 32A28.992 28.992 0 0 1 624 477.952l-44.8 6.4a29.12 29.12 0 0 0-21.76 16L537.92 540.8a28.928 28.928 0 0 1-25.92 16z"  horiz-adv-x="1024" />
      
      <glyph glyph-name="subscribe" unicode="&#58899;" d="M766.72 896H257.28a172.032 172.032 0 0 1-172.032-172.032v-679.488a171.712 171.712 0 0 1 252.032-152.32l94.72 49.728a171.2 171.2 0 0 0 160 0l94.72-49.728c24.64-13.12 52.096-20.032 80-20.032a172.352 172.352 0 0 1 172.032 172.352V723.968A172.032 172.032 0 0 1 766.72 896z m117.632-851.52a118.08 118.08 0 0 0-117.76-117.952c-19.072 0.064-37.76 4.8-54.592 13.824l-94.72 49.728a225.6 225.6 0 0 1-210.56 0l-94.72-49.728c-16.768-9.024-35.52-13.76-54.592-13.824a118.08 118.08 0 0 0-117.76 117.952V723.968A117.76 117.76 0 0 0 257.28 841.6h509.44a117.76 117.76 0 0 0 117.632-117.568v-679.552zM624 477.952l-44.8 6.4a29.12 29.12 0 0 0-21.76 16l-19.52 40.448a28.928 28.928 0 0 1-51.84 0l-20.032-40.64a29.12 29.12 0 0 0-21.76-16l-44.8-6.4a28.928 28.928 0 0 1-16-49.28l32-32a29.312 29.312 0 0 0 8.32-25.6l-7.808-44.032a28.8 28.8 0 0 1 41.92-30.336l40 21.12a29.44 29.44 0 0 0 26.88 0l40-21.12a28.8 28.8 0 0 1 43.2 30.4l-7.68 44.608a29.312 29.312 0 0 0 8.32 25.6l32 32a28.992 28.992 0 0 1-16.64 48.832z"  horiz-adv-x="1024" />
      
      <glyph glyph-name="people" unicode="&#58881;" d="M682.66 426.686c70.61 0 127.568 57.384 127.568 127.995S753.271 682.676 682.66 682.676s-127.995-57.383-127.995-127.995 57.384-127.995 127.995-127.995z m-341.32 0c70.61 0 127.569 57.384 127.569 127.995S411.95 682.676 341.34 682.676s-127.995-57.383-127.995-127.995S270.73 426.686 341.34 426.686z m0-85.33c-99.623 0-298.654-49.917-298.654-149.326v-106.662h597.308V192.03c0 99.409-199.03 149.327-298.654 149.327z m341.32 0c-12.373 0-26.239-0.853-41.172-2.346 49.491-35.625 83.837-83.623 83.837-146.98v-106.662h255.989V192.03c0 99.409-199.032 149.327-298.654 149.327z"  horiz-adv-x="1024" />
      
      <glyph glyph-name="visibility" unicode="&#58882;" d="M512 704.008c-213.325 0-395.504-132.688-469.314-319.987C116.496 196.723 298.676 64.035 512 64.035c213.537 0 395.504 132.688 469.314 319.986-73.81 187.3-255.777 319.987-469.314 319.987z m0-533.311c-117.755 0-213.325 95.57-213.325 213.324S394.245 597.346 512 597.346s213.325-95.57 213.325-213.325S629.755 170.697 512 170.697z m0 341.319c-70.61 0-127.994-57.384-127.994-127.996S441.39 256.025 512 256.025 639.995 313.41 639.995 384.02 582.61 512.016 512 512.016z"  horiz-adv-x="1024" />
      
      <glyph glyph-name="pinglun" unicode="&#59003;" d="M552.832 74.24a25.6 25.6 0 0 1 25.6-25.6h389.184a25.6 25.6 0 1 1 0 51.2h-389.12a25.6 25.6 0 0 1-25.6-25.6z m414.784-113.152h-574.08a25.6 25.6 0 1 1 0-51.2h574.08a25.6 25.6 0 1 1 0 51.2zM412.672 55.04l0.768 1.024 1.92 1.728 410.688 410.688h0.064l76.608 76.608a168.96 168.96 0 0 1 49.792 120.32 168.96 168.96 0 0 1-49.792 120.192l-22.72 22.72a168.96 168.96 0 0 1-120.32 49.792 168.96 168.96 0 0 1-120.192-49.792L152.192 321.024l-1.728-1.92-1.024-0.832a25.792 25.792 0 0 1-2.752-3.392l-0.32-0.32-0.256-0.384C88.32 242.496 37.056-15.168 31.232-45.248a25.6 25.6 0 0 1 31.232-29.76c28.992 7.04 278.528 69.376 347.392 127.744 0.96 0.768 1.92 1.408 2.816 2.304zM203.712 300.16l377.28 377.216 190.784-190.784-377.216-377.28L203.712 300.16z m471.936 471.936c22.464 22.464 52.352 34.816 84.096 34.816 31.744 0 61.568-12.352 84.032-34.816l22.72-22.72c22.4-22.4 34.816-52.288 34.816-84.032s-12.352-61.568-34.816-84.032l-58.496-58.56L617.152 713.6l58.496 58.496zM171.712 259.84L354.56 76.8c-55.68-30.912-174.4-68.096-264.96-92.096 20.224 94.144 52.736 217.856 82.112 275.008z"  horiz-adv-x="1024" />
      
      <glyph glyph-name="aixin1" unicode="&#59587;" d="M667.786667 778.666667C832.864 778.666667 938.666667 646.293333 938.666667 468.138667c0-138.250667-125.098667-290.506667-371.573334-461.589334a96.768 96.768 0 0 0-110.186666 0C210.432 177.632 85.333333 329.888 85.333333 468.138667 85.333333 646.293333 191.136 778.666667 356.213333 778.666667c59.616 0 100.053333-20.832 155.786667-68.096C567.744 757.824 608.170667 778.666667 667.786667 778.666667z"  horiz-adv-x="1024" />
      
      <glyph glyph-name="aixin" unicode="&#59563;" d="M667.786667 778.666667C832.864 778.666667 938.666667 646.293333 938.666667 468.138667c0-138.250667-125.098667-290.506667-371.573334-461.589334a96.768 96.768 0 0 0-110.186666 0C210.432 177.63199999999995 85.333333 329.88800000000003 85.333333 468.138667 85.333333 646.293333 191.136 778.666667 356.213333 778.666667c59.616 0 100.053333-20.832 155.786667-68.096C567.744 757.8240000000001 608.170667 778.666667 667.786667 778.666667z m0-63.146667c-41.44 0-70.261333-15.189333-116.96-55.04-2.165333-1.845333-14.4-12.373333-17.941334-15.381333a32.32 32.32 0 0 0-41.770666 0c-3.541333 3.018667-15.776 13.536-17.941334 15.381333-46.698667 39.850667-75.52 55.04-116.96 55.04C230.186667 715.52 149.333333 614.7413329999999 149.333333 469.301333 149.333333 358.4 262.858667 220.75733300000002 493.632 61.17333299999996a32.352 32.352 0 0 1 36.736 0C761.141333 220.746667 874.666667 358.4 874.666667 469.301333c0 145.44-80.853333 246.218667-206.88 246.218667z"  horiz-adv-x="1024" />
      
      <glyph glyph-name="budong1" unicode="&#58984;" d="M512 896c282.794667 0 512-229.205333 512-512s-229.205333-512-512-512S0 101.205333 0 384 229.205333 896 512 896z m4.565333-604.330667h-3.882666c-203.904-2.432-283.861333-176.682667-287.146667-184.106666a32 32 0 1 1 58.453333-26.026667c0.64 1.408 66.133333 144.213333 229.418667 146.090667h2.986667c153.685333 0 219.989333-140.330667 222.72-146.346667a32 32 0 0 1 58.282666 26.453333c-3.413333 7.552-85.376 183.893333-280.832 183.893334z m154.922667 252.16a63.829333 63.829333 0 1 1 0-127.658666 63.829333 63.829333 0 0 1 0 127.658666z m-320 0a63.829333 63.829333 0 1 1 0-127.658666 63.829333 63.829333 0 0 1 0 127.658666z"  horiz-adv-x="1024" />
      
      <glyph glyph-name="zhangwo1" unicode="&#58985;" d="M512 896c282.794667 0 512-229.205333 512-512s-229.205333-512-512-512S0 101.205333 0 384 229.205333 896 512 896z m269.226667-607.146667a31.872 31.872 0 0 1-42.24-16.213333c-0.64-1.408-66.133333-144.213333-229.418667-146.090667h-2.986667c-153.642667 0-219.946667 140.330667-222.72 146.346667a32 32 0 0 1-58.24-26.453333c3.413333-7.552 85.333333-183.893333 280.832-183.893334h3.84c203.946667 2.389333 283.861333 176.64 287.146667 184.021334a32 32 0 0 1-16.213333 42.24z m-109.738667 254.976a63.829333 63.829333 0 1 1 0-127.658666 63.829333 63.829333 0 0 1 0 127.658666z m-320 0a63.829333 63.829333 0 1 1 0-127.658666 63.829333 63.829333 0 0 1 0 127.658666z"  horiz-adv-x="1024" />
      
      <glyph glyph-name="jiexi1" unicode="&#58986;" d="M512 384m-512 0a512 512 0 1 1 1024 0 512 512 0 1 1-1024 0ZM514.839273 11.636364c-56.971636 0-102.586182 49.664-102.586182 111.709091v37.236363c-62.696727 37.236364-102.586182 111.709091-102.586182 186.181818 0 117.899636 91.229091 217.227636 205.172364 217.227637 114.036364 0 205.172364-99.328 205.172363-217.227637 0-74.472727-39.889455-148.945455-102.586181-186.181818v-37.236363c0-55.854545-39.889455-105.518545-91.182546-111.709091h-11.403636z m0 490.263272c-79.778909 0-148.154182-68.235636-148.154182-155.136 0-55.854545 28.485818-105.518545 74.053818-136.517818l28.532364-18.618182v-74.472727c0-24.855273 17.082182-49.664 45.614545-49.664h5.678546c22.807273 0 39.889455 24.808727 39.889454 49.664v74.472727l28.485818 18.618182c45.614545 24.808727 74.100364 80.663273 74.100364 136.517818 0 80.663273-68.421818 155.136-148.200727 155.136z m165.282909 18.618182c-5.678545 0-17.082182 0-22.807273 6.237091a31.883636 31.883636 0 0 0 0 43.426909l85.504 93.090909a26.065455 26.065455 0 0 0 39.889455 0 31.883636 31.883636 0 0 0 0-43.426909l-85.457455-93.090909c-5.725091 0-11.403636-6.237091-17.128727-6.237091z m-330.565818 0c-5.678545 0-11.403636 6.237091-17.082182 6.237091L241.245091 626.036364a31.883636 31.883636 0 0 0 0 43.426909 26.065455 26.065455 0 0 0 39.936 0l85.504-93.090909a31.883636 31.883636 0 0 0 0-43.426909c0-6.190545-5.725091-12.427636-17.128727-12.427637zM514.839273 588.8c-17.082182 0-28.485818 12.427636-28.485818 31.045818V725.317818c0 18.618182 11.403636 31.045818 28.485818 31.045818 17.128727 0 28.485818-12.427636 28.485818-31.045818v-111.709091c0-12.381091-11.357091-24.808727-28.485818-24.808727z"  horiz-adv-x="1024" />
      
      <glyph glyph-name="tijiao" unicode="&#58987;" d="M504.32 601.460364l-170.402909-219.694546a39.424 39.424 0 0 1 6.190545-54.272 38.632727 38.632727 0 0 1 54.784 6.237091l101.608728 130.932364 0.093091-460.613818c0-21.271273 17.687273-38.958545 38.679272-38.958546a39.284364 39.284364 0 0 1 38.679273 38.958546V464.663273l101.608727-130.932364a39.051636 39.051636 0 0 1 53.899637-7.121454 39.563636 39.563636 0 0 1 7.168 55.156363l-170.589091 219.694546c-0.558545 0.651636-1.210182 1.396364-1.722182 2.141091a38.865455 38.865455 0 0 1-60.043636-2.141091zM880.546909-128h-231.563636a34.117818 34.117818 0 1 0 0 68.282182h231.563636c41.472 0 75.170909 33.698909 75.170909 75.170909V752.546909c0 41.472-33.698909 75.170909-75.170909 75.170909H143.453091c-41.472 0-75.170909-33.698909-75.170909-75.170909v-737.093818c0-41.472 33.698909-75.170909 75.170909-75.170909h250.135273a34.117818 34.117818 0 1 0 0-68.282182H143.453091A143.592727 143.592727 0 0 0 0 15.453091V752.546909C0 831.674182 64.325818 896 143.453091 896h737.093818C959.674182 896 1024 831.674182 1024 752.546909v-737.093818c0-79.127273-64.325818-143.453091-143.453091-143.453091z"  horiz-adv-x="1024" />
      
      <glyph glyph-name="budong" unicode="&#58988;" d="M512-128C229.205333-128 0 101.205333 0 384S229.205333 896 512 896s512-229.205333 512-512-229.205333-512-512-512z m0 960C264.96 832 64 631.04 64 384S264.96-64 512-64 960 136.96 960 384 759.04 832 512 832z m0.682667-540.373333h3.84c195.498667 0 277.461333-176.341333 280.874666-183.893334a32 32 0 0 0-58.282666-26.453333c-2.730667 6.016-69.034667 146.346667-222.72 146.346667h-2.986667c-163.285333-1.92-228.778667-144.682667-229.418667-146.090667a32 32 0 1 0-58.453333 26.026667c3.285333 7.424 83.242667 181.674667 287.146667 184.064z m158.805333 124.544a63.829333 63.829333 0 1 0 0 127.701333 63.829333 63.829333 0 0 0 0-127.701333z m-320 0a63.829333 63.829333 0 1 0 0 127.701333 63.829333 63.829333 0 0 0 0-127.701333z"  horiz-adv-x="1024" />
      
      <glyph glyph-name="jiexi" unicode="&#58989;" d="M508.928-128c-78.754909 0-157.556364 18.059636-230.260364 54.225455-12.101818 6.050909-24.203636 24.064-12.101818 42.170181 6.050909 12.008727 24.203636 24.064 42.402909 12.008728 60.602182-30.114909 133.306182-48.174545 199.959273-48.174546 254.464 0 460.427636 198.749091 460.427636 451.770182 0 90.344727-24.203636 174.685091-78.754909 246.970182-12.101818 12.055273-6.050909 30.114909 6.050909 42.170182s30.254545 6.050909 42.402909-6.050909C993.605818 582.795636 1023.906909 486.4 1023.906909 384c6.050909-283.089455-230.260364-512-514.978909-512z m-321.117091 132.514909c-6.050909 0-12.101818 0-18.152727 6.050909C60.602182 106.868364 0 245.434182 0 389.957818 0 667.089455 224.162909 896 502.877091 896c127.208727 0 248.366545-48.174545 339.269818-132.514909 12.101818-12.055273 12.101818-30.114909 0-42.170182a29.416727 29.416727 0 0 0-42.402909 0c-84.852364 78.289455-187.857455 120.459636-296.866909 120.459636-242.362182 0-442.274909-198.749091-442.274909-445.719272 0-132.514909 54.504727-252.974545 151.458909-337.314909 12.101818-12.101818 12.101818-30.114909 0-42.170182-6.050909-12.055273-12.101818-12.055273-24.203636-12.055273zM514.839273 11.636364c-56.971636 0-102.586182 49.664-102.586182 111.709091v37.236363c-62.696727 37.236364-102.586182 111.709091-102.586182 186.181818 0 117.899636 91.229091 217.227636 205.172364 217.227637 114.036364 0 205.172364-99.328 205.172363-217.227637 0-74.472727-39.889455-148.945455-102.586181-186.181818v-37.236363c0-55.854545-39.889455-105.518545-91.182546-111.709091h-11.403636z m0 490.263272c-79.778909 0-148.154182-68.235636-148.154182-155.136 0-55.854545 28.485818-105.518545 74.053818-136.517818l28.532364-18.618182v-74.472727c0-24.855273 17.082182-49.664 45.614545-49.664h5.678546c22.807273 0 39.889455 24.808727 39.889454 49.664v74.472727l28.485818 18.618182c45.614545 24.808727 74.100364 80.663273 74.100364 136.517818 0 80.663273-68.421818 155.136-148.200727 155.136z m165.282909 18.618182c-5.678545 0-17.082182 0-22.807273 6.237091a31.883636 31.883636 0 0 0 0 43.426909l85.504 93.090909a26.065455 26.065455 0 0 0 39.889455 0 31.883636 31.883636 0 0 0 0-43.426909l-85.457455-93.090909c-5.725091 0-11.403636-6.237091-17.128727-6.237091z m-330.565818 0c-5.678545 0-11.403636 6.237091-17.082182 6.237091L241.245091 626.036364a31.883636 31.883636 0 0 0 0 43.426909 26.065455 26.065455 0 0 0 39.936 0l85.504-93.090909a31.883636 31.883636 0 0 0 0-43.426909c0-6.190545-5.725091-12.427636-17.128727-12.427637zM514.839273 588.8c-17.082182 0-28.485818 12.427636-28.485818 31.045818V725.317818c0 18.618182 11.403636 31.045818 28.485818 31.045818 17.128727 0 28.485818-12.427636 28.485818-31.045818v-111.709091c0-12.381091-11.357091-24.808727-28.485818-24.808727z"  horiz-adv-x="1024" />
      
      <glyph glyph-name="zhangwo" unicode="&#58990;" d="M512-128C229.205333-128 0 101.205333 0 384S229.205333 896 512 896s512-229.205333 512-512-229.205333-512-512-512z m0 960C264.96 832 64 631.04 64 384S264.96-64 512-64 960 136.96 960 384 759.04 832 512 832z m-1.706667-769.450667h-3.84c-195.456 0-277.461333 176.341333-280.832 183.893334a32 32 0 0 0 58.24 26.453333c2.773333-6.016 69.077333-146.346667 222.72-146.346667h2.986667c163.328 1.877333 228.778667 144.682667 229.461333 146.090667a32 32 0 1 0 58.453334-26.026667c-3.328-7.424-83.285333-181.674667-287.146667-184.064z m161.194667 353.621334a63.829333 63.829333 0 1 0 0 127.701333 63.829333 63.829333 0 0 0 0-127.701333z m-320 0a63.829333 63.829333 0 1 0 0 127.701333 63.829333 63.829333 0 0 0 0-127.701333z"  horiz-adv-x="1024" />
      
      <glyph glyph-name="tiku" unicode="&#59125;" d="M204.8 256.346V256c-28.275 0-51.2-22.925-51.2-51.183l0.043-68.284c0-28.275 22.92-51.2 51.2-51.2h643.626c-13.76 26.987-20.74 55.51-20.74 85.334 0 29.747 6.942 58.137 20.634 84.949l-251.03 0.15V256h-0.042a25.6 25.6 0 1 0 0.042 51.2h251.14c-13.76 26.987-20.74 55.51-20.74 85.333 0 29.748 6.942 58.138 20.634 84.95l-251.034 0.149v0.235h-0.042a25.6 25.6 0 1 0 0.042 51.2h251.124c-13.752 26.99-20.724 55.509-20.724 85.333 0 29.747 6.938 58.138 20.617 84.95l-643.563 0.383h-0.03c-28.275 0-51.2-22.924-51.2-51.183l0.043-68.283c0-28.276 22.925-51.2 51.2-51.2v-0.346a25.6 25.6 0 1 0 0-50.504v-0.35c-28.275 0-51.2-22.925-51.2-51.183l0.043-68.284c0-28.262 22.899-51.179 51.157-51.2v-0.346a25.6 25.6 0 1 0 0-50.504z m716.885 25.045c0.081-5.7-1.77-11.563-5.999-16.619-24.738-29.61-36.753-60.697-36.753-94.105 0-33.43 12.037-64.696 36.822-94.597 13.824-16.687 1.962-41.937-19.712-41.937h-691.2c-56.555 0-102.4 45.846-102.4 102.383L102.4 204.8c0 30.592 13.414 58.052 34.688 76.817-21.248 18.76-34.645 46.204-34.645 76.766l-0.043 68.284c0 30.583 13.406 58.035 34.667 76.8-21.261 18.76-34.667 46.208-34.667 76.783l-0.043 68.283c0 56.555 45.846 102.4 102.4 102.4h0.06l691.2-0.414c21.705-0.012 33.545-25.34 19.635-42.005-24.712-29.61-36.719-60.706-36.719-94.114 0-33.434 12.028-64.704 36.788-94.61a25.225 25.225 0 0 0 5.9-14.984c0.461-6.186-1.322-12.65-5.93-18.167-24.747-29.61-36.758-60.698-36.758-94.106 0-33.429 12.037-64.695 36.822-94.596 4.177-5.043 6.007-10.867 5.93-16.542z m-585.813-73.788c-17.45-15.838-44.433-14.528-60.267 2.923a42.667 42.667 0 0 0-11.072 28.672V546.133c0 23.565 19.102 42.667 42.667 42.667h187.733c23.565 0 42.667-19.102 42.667-42.667v-306.935c0-23.565-19.102-42.667-42.667-42.667a42.667 42.667 0 0 0-28.672 11.072l-65.194 59.158-65.195-59.158zM315.733 537.6v-279.134l56.662 51.413a42.667 42.667 0 0 0 57.344 0l56.661-51.413V537.6H315.733z"  horiz-adv-x="1024" />
      
      <glyph glyph-name="jianyi" unicode="&#58978;" d="M603.848348-66.782609V-128H420.196174v61.217391h183.652174zM512 667.826087a275.500522 275.500522 0 0 0 153.065739-504.56487v-107.609043c0-33.836522-27.425391-61.217391-61.217391-61.217391H420.196174c-33.836522 0-61.217391 27.425391-61.217391 61.217391v107.564522A275.500522 275.500522 0 0 0 512 667.826087zM603.848348 116.869565H420.196174v-61.217391h183.652174V116.869565z m215.04 133.654261l106.006261-61.217391-30.586435-53.025392-106.050783 61.217392 30.630957 52.980869z m-613.776696 0l30.630957-53.025391-106.050783-61.217392-30.586435 52.98087 106.006261 61.261913zM512 606.608696a214.28313 214.28313 0 0 1-129.78087-384.75687l10.818783-7.702261 27.158261-18.253913v-17.808695h183.652174v17.853217l27.158261 18.209391A214.28313 214.28313 0 0 1 512 606.608696z m459.152696-153.065739v-61.217392h-122.434783V453.542957h122.434783z m-795.826087 0v-61.217392H52.891826V453.542957h122.434783z m639.688348 285.117217l43.27513-43.275131-86.550261-86.594782-43.27513 43.319652 86.550261 86.550261z m-584.347827 8.904348l86.550261-86.461218-43.27513-43.27513-86.594783 86.550261 43.319652 43.27513v-0.044522zM542.630957 851.478261v-122.434783h-61.217392V851.478261h61.217392z"  horiz-adv-x="1024" />
      
      <glyph glyph-name="miaosha" unicode="&#58942;" d="M480 832a480 480 0 1 0 0-960 480 480 0 0 0 0 960z m0-64a416 416 0 1 1 0-832 416 416 0 0 1 0 832zM448 896m32 0l0 0q32 0 32-32l0-64q0-32-32-32l0 0q-32 0-32 32l0 64q0 32 32 32ZM886.618687 771.89719m22.627417-22.627417l0 0q22.627417-22.627417 0-45.254834l-45.254834-45.254834q-22.627417-22.627417-45.254834 0l0 0q-22.627417 22.627417 0 45.254834l45.254834 45.254834q22.627417 22.627417 45.254834 0ZM841.363853 817.152024m22.627417-22.627417l90.509668-90.509668q22.627417-22.627417 0-45.254834l0 0q-22.627417-22.627417-45.254834 0l-90.509668 90.509668q-22.627417 22.627417 0 45.254834l0 0q22.627417 22.627417 45.254834 0ZM480 352m-96 0a96 96 0 1 1 192 0 96 96 0 1 1-192 0ZM448 640m32 0l0 0q32 0 32-32l0-192q0-32-32-32l0 0q-32 0-32 32l0 192q0 32 32 32Z"  horiz-adv-x="1024" />
      
      <glyph glyph-name="kanjia" unicode="&#58941;" d="M882.752 712.32a37.76 37.76 0 0 1-53.312 0L183.872 66.816a37.76 37.76 0 0 1 53.312-53.312L882.752 659.072a37.696 37.696 0 0 1 0 53.248zM253.44 205.76a37.76 37.76 0 0 1 26.624 64.384L76.992 473.344l34.688 311.296 311.296 34.688 202.24-202.24a37.76 37.76 0 0 1 53.312 53.312L471.04 877.76a60.8 60.8 0 0 1-50.56 17.152L90.688 858.176a60.8 60.8 0 0 1-52.608-52.608L1.344 475.584a60.8 60.8 0 0 1 17.216-50.56l208.256-208.256c7.04-7.04 16.64-11.072 26.624-11.072z m598.4 291.2a37.76 37.76 0 0 1-53.312-53.312L908.8 333.44l-345.92-345.984-111.168 111.168a37.76 37.76 0 0 1-53.312-53.312l121.728-121.728a60.288 60.288 0 0 1 85.504 0l367.104 367.104a60.544 60.544 0 0 1 0 85.504L851.84 496.96zM195.2 589.248A112 112 0 0 1 306.944 477.44a112 112 0 0 1 111.808 111.808 112 112 0 0 1-111.808 111.808 112 112 0 0 1-111.872-111.808z m160.768 0a49.024 49.024 0 0 0-97.92 0 49.024 49.024 0 0 0 97.92 0z"  horiz-adv-x="1024" />
      
      <glyph glyph-name="pintuan" unicode="&#58939;" d="M820.032 706.624c42.624 0 78.336-33.408 81.28-75.456l45.44-668.736c1.728-22.4-6.336-44.352-21.888-61.056a77.888 77.888 0 0 0-58.176-25.344H145.536c-22.4 0-43.776 9.216-59.328 25.344a82.368 82.368 0 0 0-21.888 59.904l36.864 668.8a81.024 81.024 0 0 0 81.28 76.544h637.568z m0-64H182.4c-8.064 0-14.656-5.12-16.64-12.352l-0.64-3.776-36.864-668.544a17.92 17.92 0 0 1 4.032-12.16 18.624 18.624 0 0 1 9.6-5.376l3.648-0.384h721.152a14.72 14.72 0 0 1 11.328 4.992 17.344 17.344 0 0 1 4.8 9.6l0.128 3.456-45.504 668.736a17.664 17.664 0 0 1-13.632 15.36l-3.776 0.448zM748.48 384h-473.6C264.512 384 256 391.424 256 400.384v31.232c0 8.96 8.512 16.384 18.88 16.384h474.24c10.368 0 18.88-7.424 18.88-16.384v-31.232c-0.64-8.96-9.152-16.384-19.52-16.384zM576 79.68v480.64C576 569.024 582.4 576 590.4 576h35.2C633.6 576 640 569.024 640 560.32v-480.64c0-8.704-6.4-15.68-14.4-15.68h-35.2C582.4 64 576 70.976 576 79.68zM325.12 181.632L586.368 442.88a17.92 17.92 0 0 0 25.088 0l23.424-23.424a17.92 17.92 0 0 0 0-25.088L373.632 133.12a17.92 17.92 0 0 0-25.088 0l-23.424 23.424a17.92 17.92 0 0 0 0 25.088zM704.832 649.6a34.688 34.688 0 0 0-34.56 34.56c0 78.336-73.728 142.272-164.16 142.272s-164.16-63.936-164.16-142.272c0-19.008-15.552-34.56-34.56-34.56a34.688 34.688 0 0 0-34.56 34.56c0 116.352 104.832 211.392 233.28 211.392s233.28-94.464 233.28-211.392c0-19.008-15.552-34.56-34.56-34.56z"  horiz-adv-x="1024" />
      
      <glyph glyph-name="huiyuanzhuanqu" unicode="&#58938;" d="M762.409725 895.361038c40.701859-1.789093 61.915387-25.17509 77.825534-43.129914 16.293523-17.251966 39.871209-44.280045 65.813054-74.502932l127.153375-150.60327c11.692999-13.418195 20.638462-22.874828 24.600025-28.306003 42.427056-53.86447 33.609385-131.178834-1.789092-174.308748l-58.784476-69.71072a38965.161612 38965.161612 0 0 0-93.927368-110.348683l-96.674903-112.840634-184.020966-215.64957c-31.756396-37.69874-58.337202-43.129914-79.55073-43.129914-19.616124 0-42.171471 4.600524-72.010982 34.951204l-7.603644 8.17871L228.365547 192.503182 30.095735 424.510171l-1.789092 3.578185c-38.912767 57.506552-37.123674 122.233371 1.789092 168.941471l27.475353 33.417696c24.919506 29.647822 57.953825 68.177212 91.05204 106.770498l59.423437 69.391239c14.632223 17.251966 27.603145 32.842631 37.826532 45.621864 31.053538 36.484712 57.506552 42.36316 76.739299 43.066018L762.409725 895.361038z m0-63.896168h-435.132909c-11.309622 0-17.379758-2.555847-31.500811-19.168851l-41.724198-50.222389-128.942469-150.731062c-21.916386-25.750156-35.206789-41.788094-45.941345-55.206289-18.785474-22.555348-20.766255-52.586547-3.194808-83.703981l6.900786-11.373519 252.389866-295.328091L511.16999-41.548484c17.060277-19.168851 22.619244-21.724697 31.948084-21.724697 8.625983 0 14.184949 2.044677 25.622364 14.632223l389.127667 455.707475 48.752777 57.953825c19.807812 24.216648 21.724697 67.985524-0.255585 95.844253l-26.644702 30.478473-109.262448 129.58143c-24.536129 28.881068-44.407837 51.755897-60.062399 69.327343l-18.01872 19.616124c-13.482092 15.271184-19.424435 19.999501-26.708598 21.277424L762.409725 831.46487zM764.83778 530.513915L552.894188 259.274679 342.611897 530.513915c-1.852989 3.578185-3.642082 3.578185-5.431175 3.578185H234.755164v-48.561088c19.807812 0 26.964183-5.367278 34.120554-16.165731 0-1.789093 1.789093-1.789093 3.578185-5.367278 46.771996-62.87383 228.237115-283.954574 280.376389-353.984774 52.139274 68.241108 233.604393 291.110945 280.312492 353.984774l3.642082 3.578186c7.156371 10.798453 16.165731 16.165731 34.120554 16.16573h1.789092v48.561089h-102.425558c-1.789093 1.789093-3.578185 1.789093-5.367278-1.789093z"  horiz-adv-x="1087" />
      
      <glyph glyph-name="youhuiquan" unicode="&#58937;" d="M1001.3184 827.733333c50.9952-2.048 90.794667-43.690667 89.156267-93.3888v-192.238933a60.484267 60.484267 0 0 0-27.989334-62.395733c-70.656-39.799467-92.16-69.973333-92.16-129.8432s23.210667-92.5696 91.682134-129.8432a63.488 63.488 0 0 0 29.696-62.395734v-192.238933c1.706667-49.629867-38.0928-91.3408-89.088-93.3888H90.094933c-51.063467 2.048-90.794667 43.690667-89.156266 93.3888v192.238933c-0.955733 23.620267 9.352533 46.421333 27.989333 61.576534 59.1872 16.384 98.304 70.997333 93.525333 130.6624a151.415467 151.415467 0 0 1-93.525333 130.2528c-24.7808 14.336-28.330667 30.3104-28.740267 53.8624L0.0512 734.344533c-0.8192 23.9616 8.192 47.3088 25.053867 64.853334A94.208 94.208 0 0 0 90.1632 827.733333h911.223467zM92.2112 759.466667a25.941333 25.941333 0 0 1-17.885867-7.645867 20.753067 20.753067 0 0 1-5.666133-12.0832L68.317867 734.276267v-197.154134l12.014933-6.485333a218.658133 218.658133 0 0 0 108.817067-161.792l1.2288-13.5168a193.3312 193.3312 0 0 0-109.021867-188.962133l-12.151467-5.393067-0.068266-197.973333a23.005867 23.005867 0 0 1 16.1792-21.9136l4.778666-0.8192h909.7216a23.7568 23.7568 0 0 1 23.210667 20.0704l0.341333 5.051733v192.238933l0.341334 5.597867-8.055467 4.573867c-74.888533 43.963733-109.704533 93.661867-113.322667 168.618666L901.9904 349.866667c0 82.5344 32.631467 132.846933 110.865067 179.950933l9.8304 5.7344-0.546134 6.5536v194.56c0.341333 10.24-7.304533 19.6608-18.568533 22.186667L999.0656 759.466667H92.2112zM526.3872 83.7632a13.243733 13.243733 0 0 0-13.175467 13.653333v111.752534l-137.352533 2.594133a13.243733 13.243733 0 0 0-12.834133 13.653333v32.768a13.243733 13.243733 0 0 0 12.834133 14.1312h135.168l2.184533 67.447467H375.8592a13.243733 13.243733 0 0 0-12.834133 14.062933v32.836267a13.243733 13.243733 0 0 0 12.834133 14.062933h113.8688L367.735467 548.386133a15.36 15.36 0 0 0 0 19.592534l21.777066 25.6h9.352534l4.3008-4.232534L541.405867 433.629867l140.765866 162.133333h9.4208l4.232534-4.3008 19.182933-22.596267a16.247467 16.247467 0 0 0 0-20.0704l-123.2896-143.36 115.234133-3.822933c7.236267-0.682667 12.834133-6.826667 12.765867-14.062933v-32.904534a13.243733 13.243733 0 0 0-12.765867-14.062933H571.648l-2.048-67.3792h137.352533a13.243733 13.243733 0 0 0 12.765867-14.1312v-32.768a13.243733 13.243733 0 0 0-12.765867-13.653333H571.648l-2.048-116.9408a13.243733 13.243733 0 0 0-13.312-13.653334l-29.832533 1.706667z"  horiz-adv-x="1092" />
      
      <glyph glyph-name="tuwenguanggao" unicode="&#58936;" d="M955.733333 827.733333a136.533333 136.533333 0 0 0 136.533334-136.533333v-682.666667a136.533333 136.533333 0 0 0-136.533334-136.533333H136.533333a136.533333 136.533333 0 0 0-136.533333 136.533333V691.2a136.533333 136.533333 0 0 0 136.533333 136.533333h819.2z m0-68.266666H136.533333a68.266667 68.266667 0 0 1-67.7888-60.279467L68.266667 691.2v-682.666667a68.266667 68.266667 0 0 1 60.279466-67.7888L136.533333-59.733333h819.2a68.266667 68.266667 0 0 1 67.7888 60.279466L1024 8.533333V691.2a68.266667 68.266667 0 0 1-60.279467 67.7888L955.733333 759.466667zM260.232533 145.066667l32.017067 87.927466H438.954667L470.971733 145.066667h55.9104L395.4688 486.263467h-59.255467L204.8 145.066667h55.432533z m162.952534 130.935466H308.0192l56.866133 154.350934h1.911467l56.388267-154.350934zM683.6224 145.066667c54.954667 0 96.529067 15.291733 125.201067 45.8752 27.2384 29.627733 41.096533 71.202133 41.096533 124.7232 0 53.998933-13.380267 95.573333-40.1408 124.245333-28.672 31.061333-70.2464 46.353067-125.201067 46.353067h-124.245333V145.066667h123.2896z m-9.557333 44.4416h-61.6448V441.821867h62.600533c43.008 0 74.5472-10.0352 94.6176-30.583467 19.114667-20.0704 29.149867-51.6096 29.149867-95.573333 0-43.008-10.0352-74.5472-29.627734-95.095467-20.0704-20.548267-52.087467-31.061333-95.095466-31.061333z"  horiz-adv-x="1092" />
      
      <glyph glyph-name="banjiliebiao" unicode="&#58935;" d="M375.466667 281.6a68.266667 68.266667 0 0 0 68.266666-68.266667v-273.066666a68.266667 68.266667 0 0 0-68.266666-68.266667H102.4a68.266667 68.266667 0 0 0-68.266667 68.266667V213.333333a68.266667 68.266667 0 0 0 68.266667 68.266667h273.066667z m0-68.266667H102.4v-273.066666h273.066667V213.333333zM580.266667 759.466667m34.133333 0l341.333333 0q34.133333 0 34.133334-34.133334l0 0q0-34.133333-34.133334-34.133333l-341.333333 0q-34.133333 0-34.133333 34.133333l0 0q0 34.133333 34.133333 34.133334ZM580.266667 213.333333m34.133333 0l341.333333 0q34.133333 0 34.133334-34.133333l0 0q0-34.133333-34.133334-34.133333l-341.333333 0q-34.133333 0-34.133333 34.133333l0 0q0 34.133333 34.133333 34.133333ZM580.266667 554.666667m34.133333 0l341.333333 0q34.133333 0 34.133334-34.133334l0 0q0-34.133333-34.133334-34.133333l-341.333333 0q-34.133333 0-34.133333 34.133333l0 0q0 34.133333 34.133333 34.133334ZM580.266667 8.533333m34.133333 0l341.333333 0q34.133333 0 34.133334-34.133333l0 0q0-34.133333-34.133334-34.133333l-341.333333 0q-34.133333 0-34.133333 34.133333l0 0q0 34.133333 34.133333 34.133333ZM375.466667 827.733333a68.266667 68.266667 0 0 0 68.266666-68.266666v-273.066667a68.266667 68.266667 0 0 0-68.266666-68.266667H102.4a68.266667 68.266667 0 0 0-68.266667 68.266667V759.466667a68.266667 68.266667 0 0 0 68.266667 68.266666h273.066667z m0-68.266666H102.4v-273.066667h273.066667V759.466667z"  horiz-adv-x="1024" />
      
      <glyph glyph-name="kechengliebiao" unicode="&#58934;" d="M873.411765 835.764706a60.235294 60.235294 0 0 0 60.235294-60.235294v-843.294118a60.235294 60.235294 0 0 0-60.235294-60.235294H150.588235a60.235294 60.235294 0 0 0-60.235294 60.235294V775.529412a60.235294 60.235294 0 0 0 60.235294 60.235294h722.82353z m0-60.235294H150.588235v-843.294118h722.82353V775.529412zM271.058824 594.823529m30.117647 0l60.235294 0q30.117647 0 30.117647-30.117647l0 0q0-30.117647-30.117647-30.117647l-60.235294 0q-30.117647 0-30.117647 30.117647l0 0q0 30.117647 30.117647 30.117647ZM271.058824 384m30.117647 0l60.235294 0q30.117647 0 30.117647-30.117647l0 0q0-30.117647-30.117647-30.117647l-60.235294 0q-30.117647 0-30.117647 30.117647l0 0q0 30.117647 30.117647 30.117647ZM271.058824 173.176471m30.117647 0l60.235294 0q30.117647 0 30.117647-30.117647l0 0q0-30.117647-30.117647-30.117648l-60.235294 0q-30.117647 0-30.117647 30.117648l0 0q0 30.117647 30.117647 30.117647ZM451.764706 594.823529m30.117647 0l301.176471 0q30.117647 0 30.117647-30.117647l0 0q0-30.117647-30.117647-30.117647l-301.176471 0q-30.117647 0-30.117647 30.117647l0 0q0 30.117647 30.117647 30.117647ZM451.764706 384m30.117647 0l301.176471 0q30.117647 0 30.117647-30.117647l0 0q0-30.117647-30.117647-30.117647l-301.176471 0q-30.117647 0-30.117647 30.117647l0 0q0 30.117647 30.117647 30.117647ZM451.764706 173.176471m30.117647 0l301.176471 0q30.117647 0 30.117647-30.117647l0 0q0-30.117647-30.117647-30.117648l-301.176471 0q-30.117647 0-30.117647 30.117648l0 0q0 30.117647 30.117647 30.117647Z"  horiz-adv-x="1024" />
      
      <glyph glyph-name="sousuo" unicode="&#58933;" d="M480 832a448 448 0 1 0 0-896A448 448 0 0 0 480 832z m0-64a384 384 0 1 1 0-768A384 384 0 0 1 480 768zM718.862915 67.882251m22.627417 22.627417l0 0q22.627417 22.627417 45.254834 0l135.764502-135.764502q22.627417-22.627417 0-45.254834l0 0q-22.627417-22.627417-45.254834 0l-135.764502 135.764502q-22.627417 22.627417 0 45.254834Z"  horiz-adv-x="1024" />
      
      <glyph glyph-name="tuwendaohang" unicode="&#58932;" d="M0 65.608742m37.745057 0l452.940687 0q37.745057 0 37.745057-37.745058l0 0q0-37.745057-37.745057-37.745057l-452.940687 0q-37.745057 0-37.745057 37.745057l0 0q0 37.745057 37.745057 37.745058ZM679.41103 65.608742m37.745057 0l452.940686 0q37.745057 0 37.745058-37.745058l0 0q0-37.745057-37.745058-37.745057l-452.940686 0q-37.745057 0-37.745057 37.745057l0 0q0 37.745057 37.745057 37.745058ZM1132.351716 820.509886a75.490114 75.490114 0 0 0 75.490115-75.490115v-377.450572a75.490114 75.490114 0 0 0-75.490115-75.490114h-377.450572a75.490114 75.490114 0 0 0-75.490114 75.490114V745.019771a75.490114 75.490114 0 0 0 75.490114 75.490115h377.450572z m0-75.490115h-377.450572v-377.450572h377.450572V745.019771zM452.940686 820.509886a75.490114 75.490114 0 0 0 75.490115-75.490115v-377.450572a75.490114 75.490114 0 0 0-75.490115-75.490114H75.490114a75.490114 75.490114 0 0 0-75.490114 75.490114V745.019771a75.490114 75.490114 0 0 0 75.490114 75.490115h377.450572z m0-75.490115H75.490114v-377.450572h377.450572V745.019771z"  horiz-adv-x="1365" />
      
      <glyph glyph-name="lunbotu" unicode="&#58926;" d="M147.911111 839.111111h728.177778c24.120889 0 47.274667-9.728 64.341333-27.079111 17.066667-17.351111 26.680889-40.846222 26.680889-65.365333v-554.666667c0-24.519111-9.614222-48.014222-26.680889-65.365333-17.066667-17.351111-40.220444-27.079111-64.341333-27.079111H147.911111c-24.120889 0-47.274667 9.728-64.341333 27.079111A93.184 93.184 0 0 0 56.888889 192v554.666667c0 24.519111 9.614222 48.014222 26.680889 65.365333C100.636444 829.383111 123.790222 839.111111 147.911111 839.111111z m10.126222-56.888889A44.487111 44.487111 0 0 1 113.777778 737.507556v-536.348445a44.942222 44.942222 0 0 1 12.970666-31.630222c8.305778-8.362667 19.512889-13.084444 31.288889-13.084445h707.925334c24.462222 0 44.259556 20.024889 44.259555 44.714667V737.507556A44.487111 44.487111 0 0 1 865.962667 782.222222H158.037333zM768 497.777778a85.333333 85.333333 0 1 1 0 170.666666 85.333333 85.333333 0 0 1 0-170.666666zM401.408 583.111111c36.977778 0 71.452444-18.545778 93.297778-49.322667l5.233778-7.964444 154.737777-257.194667 45.226667 55.808a71.68 71.68 0 0 0 47.445333 26.453334l7.964445 0.455111c18.830222 0 36.693333-7.623111 50.062222-20.878222l5.404444-6.030223 121.571556-150.072889a28.444444 28.444444 0 0 0-40.675556-39.480888l-3.584 3.640888-121.514666 150.186667a14.506667 14.506667 0 0 1-11.207111 5.745778 13.710222 13.710222 0 0 1-8.760889-3.299556l-2.446222-2.503111-70.826667-87.438222a28.444444 28.444444 0 0 0-43.349333-0.967111l-3.128889 4.209778-175.672889 292.010666c-11.264 18.773333-29.980444 29.752889-49.777778 29.752889-17.635556 0-34.417778-8.704-45.852444-23.779555l-3.982223-5.973334-213.447111-354.702222a28.444444 28.444444 0 0 0-50.972444 24.746667l2.275555 4.551111 213.333334 354.759111C324.266667 561.379556 361.244444 583.111111 401.464889 583.111111zM170.666667-71.111111a56.888889 56.888889 0 1 1 113.777777 0 56.888889 56.888889 0 0 1-113.777777 0zM455.111111-71.111111a56.888889 56.888889 0 1 1 113.777778 0 56.888889 56.888889 0 0 1-113.777778 0zM739.555556-71.111111a56.888889 56.888889 0 1 1 113.777777 0 56.888889 56.888889 0 0 1-113.777777 0z"  horiz-adv-x="1024" />
      
      <glyph glyph-name="markdone" unicode="&#59146;" d="M512 832a448 448 0 1 1 0-896A448 448 0 0 1 512 832z m-40-644.032l-80 78.464-160 156.8 80 78.336 160-156.8 240 235.2 80-78.336-320-313.6z"  horiz-adv-x="1024" />
      
      <glyph glyph-name="search" unicode="&#59014;" d="M750.4 189.056l136.576-136.64a30.72 30.72 0 1 0-43.392-43.392l-136.64 136.576a350.912 350.912 0 0 0-226.432-82.56A352.896 352.896 0 0 0 128 415.424 352.896 352.896 0 0 0 480.512 768a352.896 352.896 0 0 0 352.448-352.512c0-86.144-31.04-165.12-82.56-226.432zM480.512 706.56A291.392 291.392 0 0 1 189.44 415.488a291.392 291.392 0 0 1 291.072-291.072 291.392 291.392 0 0 1 291.008 291.072A291.392 291.392 0 0 1 480.512 706.56z"  horiz-adv-x="1024" />
      
      <glyph glyph-name="top" unicode="&#59037;" d="M897.33632 266.24c-17.635556-16.440889-44.259556-16.839111-60.359111-1.820444-1.251556 1.194667-2.503111 2.048-3.640889 3.413333L558.221653 524.515556 557.766542-91.591111c0-20.081778-20.252444-36.408889-45.169778-36.408889-24.974222 0-44.088889 16.327111-44.088888 36.408889 0 1.592889-0.284444 2.844444 0 4.494222L468.052764 524.515556l-275.057777-256.739556c-1.024-1.479111-2.275556-2.218667-3.640889-3.413333-16.099556-15.132444-42.723556-14.677333-60.302222 1.763555-17.635556 16.497778-18.944 42.097778-2.730667 57.230222l348.046222 326.200889a42.211556 42.211556 0 0 0 22.016 16.099556 42.609778 42.609778 0 0 0 15.36 2.503111c0.568889 0 0.910222 0.227556 1.479111 0.227556 0.341333 0 0.682667-0.170667 1.080889-0.170667a41.813333 41.813333 0 0 0 15.815111-2.56 43.633778 43.633778 0 0 0 21.731556-15.872l348.16-326.428445c16.213333-15.075556 14.904889-40.732444-2.673778-57.230222z m-28.330667 526.165333H152.660764c-22.072889 0-40.049778 20.366222-40.049777 45.511111 0 25.031111 17.976889 45.511111 40.049777 45.511112h716.344889c22.186667 0 40.049778-20.48 40.049778-45.511112 0-25.144889-17.92-45.511111-40.049778-45.511111z"  horiz-adv-x="1024" />
      
      <glyph glyph-name="more" unicode="&#59021;" d="M128 768h768a64 64 0 0 0 0-128H128a64 64 0 1 0 0 128z m0-320h768a64 64 0 0 0 0-128H128a64 64 0 1 0 0 128z m0-320h768a64 64 0 0 0 0-128H128a64 64 0 0 0 0 128z"  horiz-adv-x="1024" />
      
      <glyph glyph-name="zhibo1" unicode="&#59020;" d="M1024 30.805333V737.28c-0.170667 40.533333-38.229333 73.386667-85.333333 73.472-47.018667-0.085333-85.162667-32.938667-85.333334-73.472v-706.389333c0.170667-40.533333 38.229333-73.386667 85.333334-73.472 47.104 0.085333 85.162667 32.938667 85.333333 73.472m-512 0V737.28C512 777.557333 473.6 810.666667 426.666667 810.666667s-85.333333-33.109333-85.333334-73.472v-706.389334c0-40.362667 38.4-73.472 85.333334-73.472s85.333333 33.109333 85.333333 73.472m256 11.946667V469.248c-0.170667 47.189333-38.229333 85.333333-85.333333 85.504-47.104-0.170667-85.162667-38.4-85.333334-85.504v-426.325333c0.170667-47.189333 38.229333-85.333333 85.333334-85.504 47.018667 0.170667 85.162667 38.4 85.333333 85.504m-512 0V469.162667c-0.170667 47.189333-38.229333 85.333333-85.333333 85.504-47.104-0.170667-85.162667-38.4-85.333334-85.504v-426.325334c0.170667-47.189333 38.229333-85.333333 85.333334-85.504 47.018667 0.170667 85.162667 38.4 85.333333 85.504"  horiz-adv-x="1109" />
      
      <glyph glyph-name="renqi" unicode="&#58940;" d="M1024.306434 18.271122c0 155.668429-89.376559 288.660748-215.729476 342.899551 61.184638 44.126484 101.531771 119.304938 101.53177 204.697856 0 116.444888-75.178454 213.993017-176.097356 239.324887A4.085786 4.085786 0 0 1 731.355611 805.091272C730.334165 805.091272 729.108429 805.397706 727.984838 805.397706c-21.552519 0-39.019252-18.896758-39.019252-42.083591 0-21.041796 14.300249-38.304239 32.890574-41.470723 3.268628-1.430025 7.660848-2.553616 7.865137-2.655761 58.426733-21.348229 100.40818-80.898554 100.408179-151.174065 0-78.344938-52.298055-143.411072-121.245685-156.996309l-0.306434-0.306434c-22.982544-1.53217-41.164289-21.961097-41.16429-46.986534 0-25.53616 18.794613-46.271521 42.185736-47.292967 0.204289 0 0.306434-0.306434 0.510723-0.306434 138.712419-15.321696 237.077706-142.798204 237.077706-297.853766 0-22.982544 17.364589-41.572868 38.610673-41.572868 20.735362 0 37.589227 17.773167 38.406384 39.836409l0.102145 0.715013v0.204289 0.817157z m-462.102344 336.055861c73.135561 52.808778 121.245686 142.593915 121.245686 244.636409C683.449776 761.475511 561.284788 893.344239 410.621446 893.344239c-150.765486 0-272.930474-131.766584-272.930473-294.380847 0-102.042494 48.110125-191.827631 121.245685-244.636409C107.660449 289.260848 0.919302 130.119501 0.919302-56.090175c0-10.418753 0.510723-20.735362 1.225735-31.05197h0.102145c0-22.67611 17.058155-40.96 37.997806-40.96 21.041796 0 38.09995 18.386035 38.09995 40.96 0 1.32788-0.306434 2.553616-0.408579 3.779352a336.668728 336.668728 0 0 0-1.32788 27.272618c0 198.977756 149.539751 360.161995 334.012967 360.161995 184.371072 0 333.808678-161.184239 333.808679-360.161995 0-9.601596-0.612868-18.998903-1.430025-28.396209l-0.102145-1.32788V-87.142145h0.102145c0.612868-22.063242 17.364589-39.836409 37.895661-39.836409 20.633217 0 37.282793 17.773167 37.997805 39.836409 0.715012 10.214464 1.225736 20.633217 1.225736 31.05197 0 186.209676-106.741147 345.351022-257.915212 410.417158zM410.621446 387.52399c-108.273317 0-196.117706 94.68808-196.117705 211.439402 0 116.751322 87.844389 211.439401 196.117705 211.439401s196.117706-94.68808 196.117706-211.439401c0-116.751322-87.844389-211.439401-196.117706-211.439402z"  horiz-adv-x="1123" />
      
      <glyph glyph-name="wo" unicode="&#59049;" d="M967.111111 384c0 250.311111-204.8 455.111111-455.111111 455.111111S56.888889 634.311111 56.888889 384c0-113.777778 39.822222-216.177778 113.777778-295.822222 0 0 5.688889 0 5.688889-5.688889l51.2-51.2C301.511111-31.288889 403.911111-71.111111 512-71.111111s210.488889 39.822222 284.444444 102.4l51.2 51.2s5.688889 0 5.688889 5.688889c73.955556 79.644444 113.777778 182.044444 113.777778 295.822222z m-455.111111-386.844444c-102.4 0-199.111111 39.822222-267.377778 108.088888 22.755556 51.2 79.644444 96.711111 136.533334 96.711112h267.377777c56.888889 0 113.777778-45.511111 136.533334-96.711112-73.955556-68.266667-170.666667-108.088889-273.066667-108.088888z m318.577778 164.977777c-39.822222 62.577778-108.088889 108.088889-182.044445 108.088889H381.155556c-73.955556 0-147.911111-45.511111-182.044445-108.088889-45.511111 62.577778-73.955556 136.533333-73.955555 221.866667 0 216.177778 170.666667 386.844444 386.844444 386.844444s386.844444-170.666667 386.844444-386.844444c0-85.333333-28.444444-159.288889-68.266666-221.866667zM512 662.755556C420.977778 662.755556 347.022222 588.8 347.022222 497.777778S420.977778 332.8 512 332.8s164.977778 73.955556 164.977778 164.977778S603.022222 662.755556 512 662.755556z m0-261.688889C455.111111 401.066667 415.288889 440.888889 415.288889 497.777778S455.111111 594.488889 512 594.488889s96.711111-39.822222 96.711111-96.711111S568.888889 401.066667 512 401.066667z"  horiz-adv-x="1024" />
      
      <glyph glyph-name="wo1" unicode="&#59055;" d="M512 839.111111C261.688889 839.111111 56.888889 634.311111 56.888889 384s204.8-455.111111 455.111111-455.111111 455.111111 204.8 455.111111 455.111111-204.8 455.111111-455.111111 455.111111z m0-176.355555c91.022222 0 164.977778-73.955556 164.977778-164.977778S603.022222 332.8 512 332.8 347.022222 406.755556 347.022222 497.777778 420.977778 662.755556 512 662.755556z m0-665.6c-130.844444 0-244.622222 62.577778-318.577778 164.977777 39.822222 62.577778 113.777778 108.088889 182.044445 108.088889h267.377777c73.955556 0 147.911111-45.511111 182.044445-108.088889-68.266667-102.4-182.044444-164.977778-312.888889-164.977777z"  horiz-adv-x="1024" />
      
      <glyph glyph-name="faxian1" unicode="&#59057;" d="M56.888889 99.555556v-79.644445l455.111111-73.955555 455.111111 73.955555V99.555556l-455.111111-79.644445zM512 748.088889L56.888889 822.044444v-642.844444l455.111111-73.955556 455.111111 73.955556V822.044444L512 748.088889z m-39.822222-568.888889l-352.711111 51.2v512l352.711111-51.2v-512z m426.666666 51.2l-352.711111-51.2V685.511111l352.711111 51.2v-506.311111z"  horiz-adv-x="1024" />
      
      <glyph glyph-name="faxian11" unicode="&#59058;" d="M756.622222 162.133333l210.488889 34.133334V839.111111L512 770.844444 56.888889 839.111111v-642.844444l455.111111-68.266667 244.622222 34.133333zM56.888889 116.622222L512 42.666667v-73.955556L56.888889 42.666667v73.955555z m910.222222 0L512 42.666667v-73.955556l455.111111 73.955556v73.955555z"  horiz-adv-x="1024" />
      
      <glyph glyph-name="dongtai" unicode="&#59051;" d="M56.888889 759.466667h910.222222v-756.622223H56.888889V759.466667z m68.266667-688.355556h773.688888V691.2H125.155556v-620.088889zM682.666667 332.8l113.777777 238.933333-62.577777 28.444445-85.333334-182.044445-290.133333 113.777778-142.222222-364.088889 62.577778-22.755555L398.222222 440.888889l284.444445-108.088889z"  horiz-adv-x="1024" />
      
      <glyph glyph-name="dongtai1" unicode="&#59053;" d="M56.888889 759.466667h910.222222v-756.622223H56.888889V759.466667z m625.777778-426.666667l113.777777 238.933333-62.577777 28.444445-85.333334-182.044445-290.133333 113.777778-142.222222-364.088889 62.577778-22.755555L398.222222 440.888889l284.444445-108.088889z"  horiz-adv-x="1024" />
      
      <glyph glyph-name="fenxiaozhongxin" unicode="&#58954;" d="M823.850667 895.573333 200.064 895.573333c-110.336 0-199.68-89.344-199.68-199.594667l0-623.829333c0-110.250667 89.386667-199.765333 199.68-199.765333l623.744 0c110.250667 0 199.765333 89.514667 199.765333 199.765333L1023.573333 695.978667C1023.573333 806.229333 934.101333 895.573333 823.850667 895.573333zM832.384 121.514667c0-8.32-8.277333-16.512-16.554667-16.512l-132.309333 0c-8.277333 0-16.554667 8.149333-16.554667 16.512l0 132.266667c0 8.234667 8.234667 16.597333 16.554667 16.597333l20.650667 0c-28.970667 53.76-86.826667 107.434667-181.888 111.573333l0-107.477333 53.76 0c8.234667 0 16.554667-8.234667 16.554667-16.512l0-132.352c0-8.234667-8.277333-16.512-16.554667-16.512l-132.309333 0c-8.277333 0-16.554667 8.234667-16.554667 16.512l0 132.352c0 8.234667 8.234667 12.416 16.554667 12.416l53.717333 0 0 111.573333c-99.157333-4.138667-152.917333-61.994667-181.888-111.573333l24.832 0c8.277333 0 16.554667-8.32 16.554667-16.597333l0-132.266667c0-8.32-8.234667-16.512-16.554667-16.512L208.170667 105.002667c-8.234667 0-16.554667 8.149333-16.554667 16.512l0 132.266667c0 8.234667 8.277333 16.597333 16.554667 16.597333l82.688 0c28.928 61.994667 90.922667 132.266667 206.634667 136.405333L497.493333 497.664l-53.717333 0c-8.277333 0-16.554667 8.277333-16.554667 16.554667L427.221333 646.485333c0 12.416 8.234667 16.512 16.554667 16.512l136.405333 0c8.277333 0 16.554667-8.192 16.554667-16.512l0-132.309333c0-8.234667-8.234667-16.554667-16.554667-16.554667L526.506667 497.621333l0-90.922667c111.573333-4.138667 173.568-78.549333 206.634667-136.405333l82.688 0c8.234667 0 16.554667-4.181333 16.554667-16.597333L832.384 121.514667z"  horiz-adv-x="1024" />
      
      <glyph glyph-name="Fail" unicode="&#58885;" d="M696.888889 469.333333a71.395556 71.395556 0 0 0-71.111111 71.111111 71.111111 71.111111 0 1 0 142.222222 0 71.395556 71.395556 0 0 0-71.111111-71.111111z m33.905778-366.933333a21.504 21.504 0 0 0-10.296889-2.844444c-6.257778 0-12.430222 2.844444-16.042667 8.192-42.382222 61.838222-114.346667 98.474667-192.483555 98.474666-78.136889 0-150.044444-36.636444-192.426667-98.474666a19.939556 19.939556 0 0 0-26.339556-5.347556c-8.874667 5.347556-11.406222 16.355556-5.745777 24.519111C336.839111 198.769778 420.807111 241.777778 512 241.777778c91.192889 0 175.160889-43.008 224.568889-114.858667 5.688889-8.163556 3.100444-19.171556-5.745778-24.519111zM327.111111 611.555556a71.111111 71.111111 0 0 0 71.111111-71.111112 71.395556 71.395556 0 0 0-71.111111-71.111111A71.395556 71.395556 0 0 0 256 540.444444a71.111111 71.111111 0 0 0 71.111111 71.111112zM512 896C229.688889 896 0 666.453333 0 384c0-282.026667 229.688889-512 512-512s512 229.973333 512 512c0 282.453333-229.688889 512-512 512z"  horiz-adv-x="1024" />
      
      <glyph glyph-name="cuoti" unicode="&#58951;" d="M958.976 896H254.603636C192.930909 896 142.987636 845.032727 142.987636 782.149818v-723.781818H0v-72.517818C0-77.032727 49.943273-128 111.569455-128h663.831272s6.888727 0.139636 12.241455 0.698182c55.854545 6.237091 99.328 54.458182 99.328 113.105454L884.177455 709.818182H1070.545455V782.149818C1070.545455 845.032727 1020.602182 896 958.976 896z m-851.781818-977.92c-25.367273 0-60.555636 38.167273-60.602182 64.093091V11.636364l605.184-3.537455v-25.925818c0-16.244364-3.909818-49.152 0-64.093091h-544.581818zM1020.602182 756.968727H884.829091v25.181091c0 23.924364 20.852364 63.720727 44.171636 66.280727l2.699637 0.325819h44.125091c25.413818 0 48.407273-40.680727 48.407272-66.56v-25.227637h-3.584zM778.193455-81.454545h-80.058182c-2.653091 14.754909 0 50.920727 0 66.978909v73.169454H186.414545V778.658909c0 25.739636 42.356364 70.097455 67.723637 70.097455h584.052363v-863.232c0-25.693091-34.629818-67.025455-59.950545-67.025455zM300.357818 102.167273c-11.636364 0-21.085091 10.519273-21.085091 24.576 0 14.010182 9.448727 24.529455 21.085091 24.529454h190.557091c11.636364 0 21.085091-10.519273 21.085091-24.529454 0-14.056727-9.448727-24.576-21.085091-24.576H300.357818z m0.930909 139.636363c-12.101818 0-22.016 10.519273-22.016 24.576 0 14.010182 9.867636 24.529455 22.016 24.529455h374.877091c12.101818 0 22.016-10.519273 22.016-24.529455 0-14.056727-9.867636-24.576-22.016-24.576H301.288727z m1.256728 132.654546c-12.8 0-23.272727 13.963636-23.272728 28.020363S289.698909 430.545455 302.545455 430.545455h372.363636c12.846545 0 23.272727-14.010182 23.272727-28.06691 0-14.010182-10.426182-28.020364-23.272727-28.020363h-372.363636zM479.092364 663.272727L387.723636 754.594909c-13.125818 13.172364-16.756364 30.906182-7.354181 40.308364 9.402182 9.448727 27.136 5.771636 40.308363-7.354182L512 696.180364l91.322182 91.368727c13.172364 13.125818 30.906182 16.756364 40.308363 7.354182 9.448727-9.402182 5.771636-27.136-7.354181-40.308364L544.907636 663.272727l91.322182-91.322182c13.172364-13.172364 16.849455-30.906182 7.447273-40.308363-9.448727-9.448727-27.182545-5.771636-40.354909 7.400727L512 630.365091 420.677818 538.996364c-13.172364-13.172364-30.906182-16.849455-40.308363-7.447273-9.448727 9.448727-5.771636 27.182545 7.400727 40.354909L479.092364 663.272727z"  horiz-adv-x="1070" />
      
      <glyph glyph-name="cuoti1" unicode="&#58952;" d="M958.976 896H254.603636C192.930909 896 142.987636 845.032727 142.987636 782.149818v-723.781818H0v-72.517818C0-77.032727 49.943273-128 111.569455-128h663.831272s6.888727 0.139636 12.241455 0.698182c55.854545 6.237091 99.328 54.458182 99.328 113.105454L884.177455 709.818182H1070.545455V782.149818C1070.545455 845.032727 1020.602182 896 958.976 896z m-851.781818-977.92c-25.367273 0-60.555636 38.167273-60.602182 64.093091V11.636364l605.184-3.537455v-25.925818c0-16.244364-3.909818-49.152 0-64.093091h-544.581818zM778.24-81.454545h-80.058182c-2.653091 14.754909 0 50.920727 0 66.978909v73.169454H186.414545V778.658909c0 25.739636 42.356364 70.097455 67.723637 70.097455h584.052363v-863.232c0-25.693091-34.629818-67.025455-59.950545-67.025455z m242.408727 838.423272H884.829091v25.181091c0 23.924364 20.852364 63.720727 44.171636 66.280727l2.699637 0.325819h44.125091c25.413818 0 48.407273-40.680727 48.407272-66.56v-25.227637h-3.584zM300.357818 102.167273c-11.636364 0-21.085091 10.519273-21.085091 24.576 0 14.010182 9.448727 24.529455 21.085091 24.529454h190.557091c11.636364 0 21.085091-10.519273 21.085091-24.529454 0-14.056727-9.448727-24.576-21.085091-24.576H300.357818z m0.930909 139.636363c-12.101818 0-22.016 10.519273-22.016 24.576 0 14.010182 9.867636 24.529455 22.016 24.529455h374.877091c12.101818 0 22.016-10.519273 22.016-24.529455 0-14.056727-9.867636-24.576-22.016-24.576H301.288727z m1.256728 132.654546c-12.8 0-23.272727 13.963636-23.272728 28.020363S289.698909 430.545455 302.545455 430.545455h372.363636c12.846545 0 23.272727-14.010182 23.272727-28.06691 0-14.010182-10.426182-28.020364-23.272727-28.020363h-372.363636zM479.092364 663.272727L387.723636 754.594909c-13.125818 13.172364-16.756364 30.906182-7.354181 40.308364 9.402182 9.448727 27.136 5.771636 40.308363-7.354182L512 696.180364l91.322182 91.368727c13.172364 13.125818 30.906182 16.756364 40.308363 7.354182 9.448727-9.402182 5.771636-27.136-7.354181-40.308364L544.907636 663.272727l91.322182-91.322182c13.172364-13.172364 16.849455-30.906182 7.447273-40.308363-9.448727-9.448727-27.182545-5.771636-40.354909 7.400727L512 630.365091 420.677818 538.996364c-13.172364-13.172364-30.906182-16.849455-40.308363-7.447273-9.448727 9.448727-5.771636 27.182545 7.400727 40.354909L479.092364 663.272727z"  horiz-adv-x="1070" />
      
      <glyph glyph-name="yes" unicode="&#58949;" d="M532.5824-50.176a56.5248 56.5248 0 0 0-40.3456 16.6912L106.496 352.3584a56.9344 56.9344 0 1 0 80.4864 80.6912l345.7024-345.6L1246.72 801.4848a56.9344 56.9344 0 1 0 80.5888-80.6912L572.8256-33.5872a56.832 56.832 0 0 0-40.3456-16.5888z"  horiz-adv-x="1433" />
      
      <glyph glyph-name="no" unicode="&#58950;" d="M964.5056-68.5056a57.7536 57.7536 0 0 0-81.5104 0L59.4944 754.9952a57.7536 57.7536 0 0 0 0 81.5104 57.7536 57.7536 0 0 0 81.5104 0L964.608 12.8a57.6512 57.6512 0 0 0-0.1024-81.3056z m0 905.0112a57.7536 57.7536 0 0 0 0-81.5104L141.0048-68.5056a57.7536 57.7536 0 0 0-81.5104 0 57.7536 57.7536 0 0 0 0 81.5104L883.2 836.608a57.6512 57.6512 0 0 0 81.3056-0.1024z"  horiz-adv-x="1024" />
      
      <glyph glyph-name="About" unicode="&#58946;" d="M317.659429-127.268571a63.853714 63.853714 0 0 0-48.493715 105.545142l347.867429 405.942858L269.165714 790.162286A63.853714 63.853714 0 1 0 366.153143 873.398857l383.634286-447.561143c20.553143-23.917714 20.553143-59.245714 0-83.236571l-383.634286-447.561143a63.707429 63.707429 0 0 0-48.493714-22.308571z"  horiz-adv-x="1024" />
      
      <glyph glyph-name="Questioncard" unicode="&#58947;" d="M384 435.2h-307.2C35.84 435.2 0 471.04 0 512v307.2C0 860.16 35.84 896 76.8 896h307.2C424.96 896 460.8 860.16 460.8 819.2v-307.2c0-40.96-35.84-76.8-76.8-76.8z m-307.2 409.6c-15.36 0-25.6-10.24-25.6-25.6v-307.2c0-15.36 10.24-25.6 25.6-25.6h307.2c15.36 0 25.6 10.24 25.6 25.6v307.2c0 15.36-10.24 25.6-25.6 25.6h-307.2zM384-128h-307.2C35.84-128 0-92.16 0-51.2v307.2c0 40.96 35.84 76.8 76.8 76.8h307.2c40.96 0 76.8-35.84 76.8-76.8v-307.2c0-40.96-35.84-76.8-76.8-76.8z m-307.2 409.6c-15.36 0-25.6-10.24-25.6-25.6v-307.2c0-15.36 10.24-25.6 25.6-25.6h307.2c15.36 0 25.6 10.24 25.6 25.6v307.2c0 15.36-10.24 25.6-25.6 25.6h-307.2z m870.4 153.6h-307.2c-40.96 0-76.8 35.84-76.8 76.8v307.2c0 40.96 35.84 76.8 76.8 76.8h307.2C988.16 896 1024 860.16 1024 819.2v-307.2c0-40.96-35.84-76.8-76.8-76.8z m-307.2 409.6c-15.36 0-25.6-10.24-25.6-25.6v-307.2c0-15.36 10.24-25.6 25.6-25.6h307.2c15.36 0 25.6 10.24 25.6 25.6v307.2c0 15.36-10.24 25.6-25.6 25.6h-307.2z m307.2-972.8h-307.2c-40.96 0-76.8 35.84-76.8 76.8v307.2c0 40.96 35.84 76.8 76.8 76.8h307.2c40.96 0 76.8-35.84 76.8-76.8v-307.2c0-40.96-35.84-76.8-76.8-76.8z m-307.2 409.6c-15.36 0-25.6-10.24-25.6-25.6v-307.2c0-15.36 10.24-25.6 25.6-25.6h307.2c15.36 0 25.6 10.24 25.6 25.6v307.2c0 15.36-10.24 25.6-25.6 25.6h-307.2z"  horiz-adv-x="1024" />
      
      <glyph glyph-name="submit" unicode="&#58948;" d="M741.469091 680.773818a29.230545 29.230545 0 0 0-8.378182-20.526545 28.16 28.16 0 0 0-20.154182-8.471273H260.747636A28.858182 28.858182 0 0 0 232.727273 680.773818 28.858182 28.858182 0 0 0 260.747636 709.818182h452.235637c7.540364 0 14.801455-3.025455 20.107636-8.471273 5.352727-5.445818 8.378182-12.846545 8.378182-20.573091z m-63.906909-171.194182a29.323636 29.323636 0 0 0-8.285091-20.573091 28.113455 28.113455 0 0 0-20.154182-8.471272H296.215273a28.858182 28.858182 0 0 0-28.066909 29.044363 28.858182 28.858182 0 0 0 28.066909 28.997819h352.907636c15.732364-0.093091 28.392727-13.032727 28.392727-28.997819h0.046546z m-71.726546-148.526545a42.356364 42.356364 0 0 0-4.840727-20.573091c-3.118545-5.445818-7.307636-8.471273-11.682909-8.471273H384.465455c-9.122909 0-16.570182 13.032727-16.570182 29.044364s7.447273 28.997818 16.570182 28.997818h204.89309c9.122909-0.046545 16.477091-13.032727 16.477091-28.997818zM718.941091-34.909091h-0.325818a24.669091 24.669091 0 0 0-17.826909 8.005818l-107.194182 116.689455a25.739636 25.739636 0 0 0 1.163636 35.84 24.576 24.576 0 0 0 35.141818-1.163637l89.506909-97.419636 168.913455 174.638546a24.622545 24.622545 0 0 0 35.188364 0.279272c9.774545-9.867636 9.867636-25.879273 0.232727-35.886545l-187.112727-193.349818a24.669091 24.669091 0 0 0-17.687273-7.633455zM841.914182-128H182.132364C107.380364-128 46.545455-70.516364 46.545455 0.139636V767.860364C46.545455 838.516364 107.380364 896 182.132364 896h659.781818C916.666182 896 977.454545 838.516364 977.454545 767.860364v-462.941091c0-13.963636-12.008727-25.181091-26.810181-25.181091-14.801455 0-26.810182 11.264-26.810182 25.134545V767.906909c0 42.728727-36.770909 77.451636-81.92 77.451636H182.132364c-45.195636 0-81.92-34.722909-81.92-77.451636v-767.720727c0-42.728727 36.724364-77.451636 81.92-77.451637h659.781818c75.869091 0 81.92 17.687273 81.92 40.86691 0 13.870545 12.008727 25.134545 26.810182 25.134545 14.801455 0 26.810182-11.264 26.810181-25.134545 0-45.149091-25.274182-66.792727-46.545454-76.986182-26.810182-12.893091-61.672727-14.568727-88.994909-14.568728z"  horiz-adv-x="1024" />
      
      <glyph glyph-name="dingwei" unicode="&#58921;" d="M496.384 71.253333s302.933333 259.669333 302.933333 529.493334C796.672 763.648 661.76 896 496.298667 896c-165.546667 0-302.933333-132.352-302.933334-295.253333 0-279.978667 302.933333-529.493333 302.933334-529.493334zM330.837333 593.066667c0 91.648 73.898667 165.546667 165.546667 165.546666 91.562667 0 165.461333-73.898667 165.461333-165.546666a165.12 165.12 0 0 0-165.546666-165.461334 166.741333 166.741333 0 0 0-165.376 165.546667zM735.573333 231.68c-20.309333-25.514667-38.144-50.944-58.538666-71.338667 211.285333-12.714667 257.109333-55.978667 267.349333-78.848-10.24-25.514667-152.746667-86.528-435.285333-86.528-282.538667-2.56-425.130667 61.013333-432.725334 83.968 7.68 20.394667 40.704 61.098667 234.154667 76.373334a2238.293333 2238.293333 0 0 0-58.538667 71.253333C94.122667 208.725333 0 170.581333 0 81.493333c0-129.877333 320.682667-162.986667 511.658667-162.986666 190.890667 0 511.573333 35.669333 511.573333 162.986666 0 94.122667-117.077333 134.826667-287.573333 150.186667z"  horiz-adv-x="1024" />
      
      <glyph glyph-name="qushengtu" unicode="&#58920;" d="M0 102.18496a822.85568 221.39904 0 1 1 1645.71136 0 822.85568 221.39904 0 1 1-1645.71136 0ZM599.43936 892.1088h-153.6c-25.93792 0-47.872-21.94432-47.872-47.872v-750.04928c0-25.92768 21.93408-47.872 47.872-47.872h151.6032c25.93792 0 47.872 21.94432 47.872 47.872V844.2368c1.9968 25.92768-19.94752 47.872-45.8752 47.872z m-77.79328-771.9936c-23.94112 0-45.88544 19.95776-45.88544 45.88544 0 25.93792 19.94752 45.8752 45.8752 45.8752 23.94112 0 45.88544-19.93728 45.88544-45.8752 0-25.92768-19.94752-45.8752-45.8752-45.8752z m32.1536 277.78048h-62.33088V810.32192h62.34112v-412.42624zM916.62336 892.1088H727.10144c-25.92768 0-47.872-21.94432-47.872-47.872v-750.04928c0-25.92768 21.94432-47.872 47.872-47.872h189.51168c25.92768 0 47.872 21.94432 47.872 47.872V844.2368c0 25.92768-21.94432 47.872-47.872 47.872z m-93.75744-785.95072c-31.91808 0-59.84256 25.92768-59.84256 59.84256 0 33.91488 25.92768 59.84256 59.84256 59.84256 33.91488 0 59.84256-25.92768 59.84256-59.84256 0-33.91488-27.92448-59.84256-59.84256-59.84256z m32.41984 305.4592h-64.82944V808.31488h64.8192v-396.71808zM1199.872 892.1088H1048.2688c-25.92768 0-47.872-21.94432-47.872-47.872v-750.04928c0-25.92768 21.94432-47.872 47.872-47.872h151.6032c25.93792 0 47.88224 21.94432 47.88224 47.872V844.2368c0 25.92768-21.94432 47.872-47.88224 47.872z m-77.79328-771.9936c-23.94112 0-45.8752 19.95776-45.8752 45.88544 0 25.93792 19.93728 45.8752 45.8752 45.8752 23.94112 0 45.8752-19.93728 45.8752-45.8752 0-25.92768-19.94752-45.8752-45.8752-45.8752z m32.16384 277.78048h-62.34112V810.32192h62.34112v-412.42624zM455.81312 842.24h127.67232v-478.75072H455.81312zM759.01952 846.2336h127.67232v-478.76096H759.01952zM1058.24256 842.24h127.67232v-478.75072h-127.67232zM521.64608 120.1152c-23.94112 0-45.88544 19.95776-45.88544 45.88544 0 25.93792 19.94752 45.8752 45.8752 45.8752 23.94112 0 45.88544-19.93728 45.88544-45.8752 0-25.92768-19.94752-45.8752-45.8752-45.8752zM822.85568 106.15808c-31.91808 0-59.84256 25.92768-59.84256 59.84256 0 33.91488 25.92768 59.84256 59.84256 59.84256 33.91488 0 59.84256-25.92768 59.84256-59.84256 0-33.91488-27.92448-59.84256-59.84256-59.84256zM1122.07872 120.1152c-23.94112 0-45.8752 19.95776-45.8752 45.88544 0 25.93792 19.93728 45.8752 45.8752 45.8752 23.94112 0 45.8752-19.93728 45.8752-45.8752 0-25.92768-19.94752-45.8752-45.8752-45.8752zM431.872 223.8464a11.97056 11.97056 0 1 1 23.94112 0 11.97056 11.97056 0 0 1-23.94112 0z"  horiz-adv-x="1648" />
      
      <glyph glyph-name="weixuexi" unicode="&#58919;" d="M512 384m-512 0a512 512 0 1 1 1024 0 512 512 0 1 1-1024 0Z"  horiz-adv-x="1024" />
      
      <glyph glyph-name="flash" unicode="&#58914;" d="M256 896h512a256 256 0 0 0 256-256v-512a256 256 0 0 0-256-256H256a256 256 0 0 0-256 256V640a256 256 0 0 0 256 256z m476.8-322.112a40.128 40.128 0 0 1 32.256 39.232v50.816a40 40 0 0 1-44.16 39.808c-68.48-7.424-198.656-49.856-256.512-257.6-55.36-198.592-133.12-243.84-176.256-252.8a39.936 39.936 0 0 1-32.128-38.976v-50.304c0-24.96 22.656-43.904 47.232-39.424 188.16 34.24 251.072 253.632 251.072 253.632h106.816c22.08 0 40 17.92 40 40.064v50.176a40.064 40.064 0 0 1-40 40h-57.088c34.112 91.392 92.48 117.888 128.768 125.376z"  horiz-adv-x="1024" />
      
      <glyph glyph-name="tuwen" unicode="&#58915;" d="M162.88 688c0-88.32 70.464-160 157.44-160 86.848 0 157.312 71.68 157.312 160S407.232 848 320.256 848c-86.912 0-157.376-71.68-157.376-160zM238.784 396.416c78.72 0 154.88-249.984 261.952-249.984 107.136 0 140.8 421.056 262.336 421.056s214.784-335.68 247.296-480.768c32.512-145.088-4.672-191.232-168.96-191.232-164.224 0-685.888 9.024-751.296 9.024-65.344 0-104.768 63.552-60.16 185.984 44.608 122.496 130.176 305.92 208.832 305.92z"  horiz-adv-x="1024" />
      
      <glyph glyph-name="yinpin" unicode="&#58916;" d="M915.454936 620.416344c-24.639969 0-44.543944-18.047977-44.543945-40.255949V465.280538c0-162.559797-161.087799-294.719632-358.911551-294.719631-197.823753 0-358.911551 132.287835-358.911551 294.719631V584.640389c0 22.271972-19.903975 40.31995-44.543945 40.31995-24.575969 0-44.543944-18.047977-44.543944-40.31995V465.280538c0-198.463752 185.599768-359.80755 418.687477-372.671534v-140.159825h-185.599768a40.447949 40.447949 0 0 1-40.703949-40.319949 40.31995 40.31995 0 0 1 40.639949-40.12795h444.287444c22.399972 0 40.639949 17.919978 40.63995 40.12795a40.511949 40.511949 0 0 1-40.63995 40.319949H571.775365v142.655822C790.399092 119.93697 959.99888 275.456776 959.99888 465.280538V580.160395c0 22.271972-19.839975 40.25595-44.543944 40.255949zM511.039441 256.0008c148.415814 0.128 268.671664 93.631883 268.863664 209.023739V686.976261C779.711105 802.368117 659.455256 895.872 511.039441 896 362.687627 895.872 242.495777 802.304117 242.303777 686.976261v-221.951722C242.559777 349.696683 362.623627 256.1288 511.039441 256.0008z"  horiz-adv-x="1024" />
      
      <glyph glyph-name="ppt" unicode="&#58917;" d="M1022.976 679.168c5.12 25.536-5.888 120.832-111.68 109.888h-307.84v40.512C603.52 866.24 573.824 896 537.088 896 431.232 877.952 278.4 850.56 78.592 813.696A96 96 0 0 1 0 719.36v-642.88a128 128 0 0 1 105.856-126.08c183.36-32.192 325.376-58.24 426.176-78.336 39.552 0 71.616 32 71.616 71.616v45.568h347.712c35.456 0 65.28 26.496 69.44 61.696 1.472 12.16 2.176 22.144 2.176 30.016V679.168zM838.72 519.04c-5.12 81.536-71.552 152.832-153.472 152.832V513.92c51.2 5.12 102.4 5.12 153.472 5.12zM603.52 75.008v82.24h238.912v38.976H603.52v51.84h238.912v38.976H603.52v60.544c39.104-12.928 82.56-12.928 117.312 12.928 39.168 21.76 56.384 64.96 60.8 108.16h-130.368V598.464c-17.408-4.352-30.4-8.576-47.744-8.576V689.408h261.824a64 64 0 0 0 64-64v-486.4a64 64 0 0 0-64-64H603.52z m-326.016 247.04v-179.392c-26.688 0-60.16 6.656-93.44 6.656V647.68c80.192-6.656 180.224 33.28 253.632-26.56 66.56-86.464 46.528-232.64-46.848-285.824-33.408-13.248-73.408-13.248-113.344-13.248z m-21.76 260.608v-191.04c45.376 8.32 90.56 0 117.696 41.6 18.048 41.6 18.048 91.328 0 124.544-27.136 33.28-81.664 24.896-117.76 24.896z"  horiz-adv-x="1024" />
      
      <glyph glyph-name="xiazai" unicode="&#58918;" d="M804.736 146.304v-54.848a18.304 18.304 0 0 0-18.24-18.304H237.888a18.304 18.304 0 0 0-18.24 18.304v54.848c0 40.32-32.768 73.152-73.152 73.152H73.344c-40.384 0-73.152-32.768-73.152-73.152v-164.608C0.192-78.848 49.344-128 109.888-128h804.608c60.544 0 109.696 49.152 109.696 109.696v164.608c0 40.32-32.768 73.152-73.152 73.152h-73.152c-40.32 0-73.152-32.768-73.152-73.152zM640.192 542.528v280.32C640.192 863.232 607.424 896 567.04 896H457.344C416.96 896 384.192 863.232 384.192 822.848v-280.32a18.304 18.304 0 0 0-18.304-18.304H280.32a36.544 36.544 0 0 1-27.776-60.16l231.872-272.768a36.544 36.544 0 0 1 54.848 0l232.576 272.768a36.544 36.544 0 0 1-27.776 60.16h-85.568A18.304 18.304 0 0 0 640.192 542.528z"  horiz-adv-x="1024" />
      
      <glyph glyph-name="taolun" unicode="&#58913;" d="M512 896C226.752 896 0 698.496 0 449.856c0-139.008 73.152-270.656 190.144-351.104V-128l226.752 138.944c29.248-7.296 65.856-7.296 95.104-7.296 285.248 0 512 197.504 512 446.208C1024 698.496 797.248 896 512 896zM256 384a65.536 65.536 0 0 0-65.856 65.856c0 36.544 29.312 65.792 65.856 65.792S321.856 486.4 321.856 449.92C321.856 413.248 292.48 384 256 384z m256 0a65.536 65.536 0 0 0-65.856 65.856c0 36.544 29.312 65.792 65.856 65.792S577.856 486.4 577.856 449.92C577.856 413.248 548.48 384 512 384z m256 0a65.536 65.536 0 0 0-65.856 65.856c0 36.544 29.312 65.792 65.856 65.792s65.856-29.248 65.856-65.792C833.856 413.248 804.48 384 768 384z"  horiz-adv-x="1024" />
      
      <glyph glyph-name="weiwancheng" unicode="&#58911;" d="M512 896C229.12 896 0 666.88 0 384s229.12-512 512-512 512 229.12 512 512-229.12 512-512 512z m408.832-512c0-69.248-17.216-134.4-47.552-191.552L512 383.104V792.832A408.704 408.704 0 0 0 920.832 384z"  horiz-adv-x="1024" />
      
      <glyph glyph-name="yiwanchengliang" unicode="&#58910;" d="M512 896C229.376 896 0 666.624 0 384s229.376-512 512-512 512 229.376 512 512-229.376 512-512 512zM409.6 128l-256 256 72.192 72.192L409.6 272.896l388.608 388.608L870.4 588.8 409.6 128z"  horiz-adv-x="1024" />
      
      <glyph glyph-name="wuzhangjieliang" unicode="&#58909;" d="M933.312-19.616v0.128H206.304c-26.336 0-47.744 18.816-47.744 41.92 0 23.104 21.44 41.92 47.744 41.92h702.944v0.128C955.36 66.624 992 100.096 992 141.12l-0.32 689.728C991.68 866.688 958.304 896 917.44 896H562.784c0.64-2.88 0.96-5.76 0.96-8.64v-371.456c-1.12-17.376-24.192-26.688-40.544-16.8l-90.912 54.72a28.864 28.864 0 0 1-29.28 0l-90.88-54.72c-16.384-9.92-39.424-0.576-40.576 16.8V887.392c0 3.008 0.32 5.888 0.96 8.608H106.24C65.344 896 32 866.72 32 830.848v-893.696C32-98.688 65.344-128 106.24-128h811.2c1.952 0 4.096 0.128 6.048 0.288 1.792-0.16 3.584-0.288 5.408-0.288 34.176 0 61.792 24.256 61.792 54.272 0 28.704-25.184 52.096-57.376 54.08z"  horiz-adv-x="1024" />
      
      <glyph glyph-name="shipin" unicode="&#58894;" d="M512-128A512 512 0 1 0 512 896a512 512 0 0 0 0-1024z m232.704 476.48c11.648 7.04 16.32 20.992 7.04 30.272a18.176 18.176 0 0 1-9.344 9.344L418.88 574.272a32.32 32.32 0 0 1-20.928 0c-4.672 0-9.28-4.672-11.648-9.344C384 562.624 384 560.32 384 555.648v-372.352c0-4.672 0-9.344 2.304-11.648 7.04-11.648 20.992-16.32 32.64-9.344l325.76 186.24z"  horiz-adv-x="1024" />
      
      <glyph glyph-name="wendang" unicode="&#58897;" d="M567.424 679.04h352c14.336 0 21.504 17.344 21.504 34.752V817.92c0 17.28-7.168 34.688-21.568 34.688H502.784c-21.568 0-28.736-34.688-14.336-52.096l64.64-112.768c0-8.704 7.168-8.704 14.336-8.704z m366.336-69.44H567.424a45.12 45.12 0 0 0-43.072 34.752L380.672 869.952C366.336 887.296 352 896 330.432 896H64.64C28.8 896 0 852.608 0 809.216v-850.432C0-93.312 28.736-128 64.64-128h869.12c35.904 0 64.64 43.392 64.64 86.784V522.816c0 52.096-28.736 86.784-64.64 86.784z m-301.696-477.248c0-26.048-14.336-43.392-35.84-43.392h-445.44c-21.504 0-35.84 17.344-35.84 43.392 0 26.048 14.336 43.392 35.84 43.392h452.544c14.4 0 28.8-17.344 28.8-43.392z m186.752 0c0-26.048-14.336-43.392-35.84-43.392h-28.8c-21.568 0-35.904 17.344-35.904 43.392 0 26.048 14.336 43.392 35.904 43.392h28.8c21.504 0 35.84-17.344 35.84-43.392z"  horiz-adv-x="1024" />
      
      <glyph glyph-name="kaoshi" unicode="&#58898;" d="M885.312 793.6H662.144C640.256 852.992 581.632 896 512 896S383.744 852.992 361.856 793.6H138.688C79.808 793.6 32 747.776 32 691.2v-716.8c0-56.576 47.744-102.4 106.688-102.4h746.624c58.88 0 106.688 45.824 106.688 102.4V691.2c0 56.576-47.744 102.4-106.688 102.4zM512 793.6a53.76 53.76 0 0 0 46.208-25.6 49.408 49.408 0 0 0 0-51.2 53.76 53.76 0 0 0-46.208-25.6c-29.44 0-53.312 22.912-53.312 51.2 0 28.288 23.872 51.2 53.312 51.2zM405.312 76.8L192 281.6l75.52 72.448 137.792-132.352 351.232 337.152L832 486.4l-426.688-409.6z"  horiz-adv-x="1024" />
      
      <glyph glyph-name="zuoye" unicode="&#58900;" d="M969.297023-53.128844c0-41.275124-24.63709-74.871156-55.097492-74.871156H544.451208c-30.396409 0-55.097492 33.404054-55.097492 74.871156 0 41.211132 24.573097 74.871156 55.033499 74.871156h369.812316c30.332417-0.25597 55.033499-33.660024 55.033499-74.871156z m-6.783199 211.750987c0-41.275124-24.573097-74.871156-55.033499-74.871156H697.585119c-30.332417 0-55.033499 33.404054-55.0335 74.871156 0 41.211132 24.573097 74.871156 55.0335 74.871156h209.767221c30.396409-0.191977 55.097492-33.660024 55.097491-74.871156z m-248.098693 376.019582L225.704859-14.73338l-206.695584-42.74695c-11.070692-2.36772-20.413589 6.399244-18.749785 17.917883l30.076447 208.295395 483.974831 543.807763c11.134685 12.414534 29.244545 14.590277 40.315238 4.543463l159.789125-142.063218c11.134685-9.598866 11.134685-27.900704 0-40.315238z m140.911354 158.317299l-74.871155-84.15006a16.446057 16.446057 0 0 0-23.165264-1.279848L581.502831 763.606679a16.446057 16.446057 0 0 0-1.279849 23.165264L655.286115 871.11398A73.975262 73.975262 0 0 0 759.657786 877.129269l89.845387-79.798574c30.268425-27.196787 33.0201-73.911269 5.823312-104.371671z"  horiz-adv-x="1024" />
      
      <glyph glyph-name="suo" unicode="&#58902;" d="M798.272 555.136h-68.544V659.264C729.728 789.824 620.032 896 485.12 896 350.336 896 240.64 789.76 240.64 659.264v-104.128H171.328C94.4 555.136 32 493.952 32 418.56v-409.92C32-66.816 94.4-128 171.328-128h626.944c76.928 0 139.328 61.184 139.328 136.64V418.56c0 75.392-62.4 136.576-139.328 136.576zM519.68 220.48v-109.376a34.56 34.56 0 0 0-34.816-34.176 34.56 34.56 0 0 0-34.816 34.176v109.44c-40.448 14.144-69.696 51.072-69.696 95.488 0 51.968 39.936 92.992 91.008 99.84a35.008 35.008 0 0 0 13.504 2.688c57.664 0 104.512-45.952 104.512-102.528 0-44.416-29.248-81.28-69.696-95.552z m140.16 334.72H310.528V659.2c0 93.184 78.336 169.088 174.592 169.088 96.384 0 174.72-75.84 174.72-169.088v-104.128z"  horiz-adv-x="1024" />
      
      <glyph glyph-name="zhibo" unicode="&#58903;" d="M985.846911 529.257077v-556.563809c0-55.528435-45.164833-100.693268-100.757241-100.693268H100.910456A100.821214 100.821214 0 0 0 0.217188-27.306732v556.563809c0 55.528435 45.164833 100.693268 100.693268 100.693268H310.485518L83.509841 853.023678a24.821466 24.821466 0 0 0 34.801231 35.376987l262.928419-258.45032h233.500909l262.928419 258.45032a24.821466 24.821466 0 1 0 34.801232-35.376987l-226.911705-223.073333h199.595297c55.528435 0 100.693268-45.164833 100.693268-100.693268zM748.507632 255.837109a63.972852 63.972852 0 0 1-63.972851-63.972851v-127.945703a63.972852 63.972852 0 0 1 127.945703 0v127.945703a63.972852 63.972852 0 0 1-63.972852 63.972851z m-511.782812 63.972852a63.972852 63.972852 0 0 1-63.972852-63.972852v-191.918554a63.972852 63.972852 0 0 1 127.945703 0v191.918554a63.972852 63.972852 0 0 1-63.972851 63.972852z m255.891406 191.918554a63.972852 63.972852 0 0 1-63.972852-63.972851v-383.837109a63.972852 63.972852 0 0 1 127.945704 0V447.755664a63.972852 63.972852 0 0 1-63.972852 63.972851z"  horiz-adv-x="1024" />
      
      <glyph glyph-name="lianxi" unicode="&#58904;" d="M102.4 691.2H0v-716.8A102.4 102.4 0 0 1 102.4-128h716.8v102.4H102.4V691.2zM921.6 896H307.2a102.4 102.4 0 0 1-102.4-102.4v-614.4a102.4 102.4 0 0 1 102.4-102.4h614.4a102.4 102.4 0 0 1 102.4 102.4V793.6A102.4 102.4 0 0 1 921.6 896z m-51.2-460.8h-512V537.6h512v-102.4z m-204.8-204.8H358.4V332.8h307.2v-102.4zM870.4 640h-512V742.4h512V640z"  horiz-adv-x="1024" />
      
      <glyph glyph-name="wuzhangjie" unicode="&#58906;" d="M933.312-19.616v0.128H206.304c-26.336 0-47.744 18.816-47.744 41.92 0 23.104 21.44 41.92 47.744 41.92h702.944v0.128C955.36 66.624 992 100.096 992 141.12l-0.32 689.728C991.68 866.688 958.304 896 917.44 896H562.784c0.64-2.88 0.96-5.76 0.96-8.64v-371.456c-1.12-17.376-24.192-26.688-40.544-16.8l-90.912 54.72a28.864 28.864 0 0 1-29.28 0l-90.88-54.72c-16.384-9.92-39.424-0.576-40.576 16.8V887.392c0 3.008 0.32 5.888 0.96 8.608H106.24C65.344 896 32 866.72 32 830.848v-893.696C32-98.688 65.344-128 106.24-128h811.2c1.952 0 4.096 0.128 6.048 0.288 1.792-0.16 3.584-0.288 5.408-0.288 34.176 0 61.792 24.256 61.792 54.272 0 28.704-25.184 52.096-57.376 54.08z"  horiz-adv-x="1024" />
      
      <glyph glyph-name="zanting" unicode="&#59048;" d="M153.6 797.814575C153.6 852.040888 196.985769 896 251.345455 896 305.328778 896 349.090909 852 349.090909 797.814575L349.090909-29.814574C349.090909-84.040888 305.70514-128 251.345455-128 197.362131-128 153.6-84 153.6-29.814574L153.6 797.814575ZM674.909092 797.814575C674.909092 852.040888 718.294861 896 772.654546 896 826.63787 896 870.4 852 870.4 797.814575L870.4-29.814574C870.4-84.040888 827.014231-128 772.654546-128 718.671222-128 674.909092-84 674.909092-29.814574L674.909092 797.814575Z"  horiz-adv-x="1024" />
      
      <glyph glyph-name="bofang" unicode="&#59052;" d="M153.6 820.205084C153.6 876.716178 190.753317 896.345061 237.362821 863.498757L819.04468 453.580222C865.30561 420.979563 865.140746 368.444314 818.320241 335.992576L238.087264-66.172457C191.426236-98.513664 153.6-78.380703 153.6-22.409001L153.6 820.205084Z"  horiz-adv-x="1024" />
      
      <glyph glyph-name="check" unicode="&#59097;" d="M452.346875 306.88125l-89.521875 89.4375A42.1875 42.1875 0 0 1 303.171875 336.75L422.5625 217.359375a42.0609375 42.0609375 0 0 1 59.653125 0l238.6546875 238.6546875a42.1875 42.1875 0 1 1-59.653125 59.653125l-208.828125-208.828125zM512-37.875C278.9984375-37.875 90.125 150.99843750000002 90.125 384S278.9984375 805.875 512 805.875s421.875-188.8734375 421.875-421.875-188.8734375-421.875-421.875-421.875z"  horiz-adv-x="1024" />
      
      <glyph glyph-name="dot" unicode="&#59018;" d="M671.045 321.762c0-87.915-71.136-159.047-159.046-159.047-87.912 0-159.047 71.131-159.047 159.047 0 87.907 71.136 159.043 159.047 159.043 87.911 0.003 159.046-71.136 159.046-159.043z"  horiz-adv-x="1024" />
      
      <glyph glyph-name="checked-circle" unicode="&#59079;" d="M528.95744-78.50495999999998c-255.0272 0-462.50496 207.47776-462.50496 462.50496 0 255.0272 207.47776 462.50496 462.50496 462.50496 255.0272 0 462.50496-207.47776 462.50496-462.50496 0.00512-255.0272-207.47776-462.50496-462.50496-462.50496z m0 853.32992c-215.5008 0-390.82496-175.32416-390.82496-390.82496 0-215.5008 175.32416-390.82496 390.82496-390.82496 215.5008 0 390.82496 175.32416 390.82496 390.82496 0.00512 215.5008-175.32416 390.82496-390.82496 390.82496zM827.94496 554.7008000000001L767.0784 615.56736l-323.68128-323.6864-152.55552 152.56064-60.86656-60.86656 213.32992-213.33504 0.09216 0.09216 0.08704-0.09216z"  horiz-adv-x="1024" />
      
      <glyph glyph-name="circle" unicode="&#59080;" d="M528.95744-78.50495999999998c-255.0272 0-462.50496 207.47776-462.50496 462.50496S273.93024 846.50496 528.95744 846.50496 991.4624 639.0272 991.4624 384c0.00512-255.0272-207.47776-462.50496-462.50496-462.50496z m0 853.32992c-215.5008 0-390.82496-175.32416-390.82496-390.82496s175.32416-390.82496 390.82496-390.82496S919.7824 168.49919999999997 919.7824 384c0.00512 215.5008-175.32416 390.82496-390.82496 390.82496z"  horiz-adv-x="1024" />
      
      <glyph glyph-name="qq" unicode="&#59038;" d="M307.027 404.755l-1.099 3.38-0.881 4.434-0.613 2.441v9.968l1.056 3.907 1.097 4.175 1.405 4.346 1.911 4.832 2.525 5.050 3.555 5.049v3.557l0.351 3.294 0.529 4.524 1.538 5.006 1.405 5.491 1.116 2.501 1.298 2.35 1.666 2.612 1.802 1.909v12.493l1.053 6.434 1.055 7.465 1.889 8.937 2.591 9.285 1.932 5.116 1.91 5.579 2.084 5.182 2.507 5.575 2.545 6.061 2.941 5.73 3.295 6.083 4.172 6.082 1.909 3.467 2.064 2.878 4.458 6.413 4.566 6.411 5.227 6.609 5.578 6.433 6.060 6.324 6.324 6.522 7.641 7.027 4.878 4.26 5.905 4.589 5.993 4.083 6.497 3.907 6.24 3.471 7.025 2.853 7.466 3.579 7.424 2.436 7.42 2.505 7.991 2.506 7.991 1.931 8.43 1.557 8.521 1.383 16.816 2.285 8.961 0.483h26.482l8.826-1.097 8.868-1.054 9.050-0.966 8.385-1.999 8.87-1.91 8.324-2.149 9.114-2.438 8.341-2.963 7.993-3.382 8.521-3.555 7.794-3.909 7.551-4.327 7.402-4.785 6.41-4.413 2.945-2.526 3.12-1.823 5.923-5.049 5.010-4.852 4.961-5.028 4.875-5.577 3.993-5.359 4.747-5.578 3.338-5.971 3.359-5.312 3.579-6.148 2.941-5.403 5.006-11.374 2.458-5.884 1.91-5.466 1.911-5.905 1.712-5.556 1.229-4.766 1.539-5.663 2.719-10.057 1.737-8.783 1.119-8.497 0.966-6.848 1.539-10.429 0.351-1.648 1.23-1.91 3.295-5.379 2.106-3.623 1.889-3.842 2.416-4.061 2.107-4.875 1.361-5.051 1.491-5.446 1.141-5.642 0.529-2.789 0.441-3.379v-2.946l-0.442-2.963v-3.666l-0.881-3.535-1.581-6.874-1.803-3.469-1.313-3.907v-0.943l0.612-1.211 1.802-2.877 7.819-11.548 6.19-8.672 2.939-5.821 3.998-6.346 3.472-6.937 3.995-7.462 3.997-8.347 4.501-9.443 2.526-5.814 2.325-5.643 2.020-5.996 1.978-5.382 1.492-5.642 1.536-5.292 1.938-10.34 1.533-10.583 1.053-9.377v-13.195l-0.702-4.701-1.009-8.055-1.405-7.291-2.15-6.583-0.79-2.704-1.492-3.229-1.274-2.238-1.669-2.789-1.492-1.737-1.888-2.259-1.671-1.82-1.797-1.561-2.154-0.946-1.935-0.962-1.581-0.528h-2.413l-1.558 0.528-2.963 1.47-1.362 0.943-1.404 1.056-1.555 1.404-1.559 1.537-2.591 2.875-3.076 4.061-2.412 4.195-2.42 3.358-2.349 3.909-3.314 6.957-3.731 7.226-0.441 0.244h-0.614l-1.538-1.116-0.878-1.911-1.447-2.352-2.547-7.027-3.821-9.991-4.921-11.963-3.689-6.014-3.888-6.239-4.587-7.025-4.877-6.876-2.501-3.116-3.033-3.382-6.959-6.873 0.611-0.592 0.946-0.967 3.472-2.082 14.49-6.942 6.325-3.556 6.015-3.47 5.973-4.347 5.314-4.521 2.593-1.98 1.933-2.352 1.974-2.702 1.669-2.939 0.877-2.436 1.1-2.965 0.441-2.501 0.526-2.946-0.526-1.999v-1.994l-0.441-2.092-1.1-1.905-0.436-1.492-0.97-1.804-2.633-3.559-2.413-2.879-1.889-2.17-1.583-1.559-3.995-2.945-4.525-2.521-4.831-2.435-5.138-2.35-5.798-2.242-3.075-0.967-2.763-0.769-6.676-1.554-6.937-1.495-6.942-1.471-7.553-1.211-7.815-0.351-7.991-0.963h-24.814l-8.959 0.53-8.345 0.785-8.958 1.21-8.913 0.945-9.398 1.313-9.087 2.26-8.875 1.738-8.825 2.501-9.050 3.232-8.868 2.699-4.655 1.533-4.171 1.5-2.638 1.028-2.589 0.506h-7.38l-8.515 0.618-4.329 0.437-5.556 0.617-3.559-3.205-4.871-3.033-6.588-3.229-7.287-3.995-4.437-2.175-4.609-1.714-10.234-4.165-5.556-1.404-5.82-1.564-8.083-1.557-5.047-0.439-5.356-0.439-5.579-0.614-6.499-0.263h-26.544l-14.999 0.263-14.538 1.492-7.374 1.034-14.055 2.089-6.94 1.404-6.433 2.062-6.433 1.495-5.797 2.324-5.486 2.175-5.095 2.438-4.434 2.678-4.437 3.225-1.492 1.561-1.975 1.889-1.494 1.671-1.361 1.905-1.232 1.917-0.963 1.905-1.386 4.065-0.505 2.105-0.614 2.327v2.177l0.614 2.434v2.439l0.505 2.437v4.854l0.242 2.611 1.143 2.942 0.962 2.942 1.757 3.554 1.274 1.406 1.055 1.558 2.766 3.38 2.195 1.738 2.064 1.229 1.911 1.537 3.051 0.967 2.414 1.471 3.033 1.556 3.469 1.059 3.469 1.047 3.998 0.857 3.818 0.506 4.525 0.617 4.875 0.349 1.296 0.444h0.262l0.615 0.519v0.597l-0.88 1.207-2.611 1.232-6.499 5.642-4.349 3.47-5.050 4.409-5.095 4.967-5.313 6.318-6.058 7.114-2.286 3.841-3.031 3.977-2.59 4.609-2.327 5.052-3.164 4.762-2.062 5.467-2.435 5.467-2.441 6.082-1.798 5.797-1.669 7.223-0.527 0.261h-0.506l-0.262 0.507h-0.614l-1.031-0.507-0.527-0.261-0.704-1.209-0.262-1.492-0.526-1.295-0.922-2.175-2.989-5.292-1.536-3.226-2.437-2.77-2.612-3.377-2.854-3.737-3.028-3.295-3.556-3.202-3.315-3.034-3.623-2.369-3.996-2.505-3.821-1.49-4.525-1.121-4.435-0.415h-1.054l-1.012 0.415-0.788 1.735-1.318 0.877-1.711 4.175-1.054 2.238-1.142 3.229-0.944 3.358-0.506 3.316-1.404 7.549-0.527 4.441v14.576l0.527 10.849 0.878 5.551 1.031 5.734 0.944 6.167 1.668 5.707 1.889 6.633 1.931 6.414 2.593 6.588 2.438 6.339 3.358 6.434 3.163 6.937 3.82 6.499 4.499 7.030 4.591 6.347 4.786 7.022 3.998 4.853 5.116 5.665 5.379 5.619 2.505 2.701 3.052 3.052 4.413 3.821 4.524 3.907 7.377 6.588 5.575 4.083zM511.338-124.359c-68.708 0-135.363 13.458-198.124 39.999-60.613 25.638-115.044 62.334-161.782 109.070-46.739 46.741-83.436 101.168-109.073 161.777-26.542 62.755-40.003 129.409-40.003 198.113 0 68.704 13.462 135.36 40.003 198.116 25.637 60.609 62.334 115.037 109.073 161.775 46.739 46.738 101.171 83.434 161.782 109.068 62.761 26.542 129.415 40.002 198.123 40.002s135.362-13.458 198.121-40.002c60.613-25.635 115.044-62.331 161.782-109.068 46.738-46.739 83.436-101.168 109.074-161.774 26.544-62.757 40.003-129.411 40.003-198.116 0-68.703-13.46-135.356-40.003-198.113-25.638-60.611-62.337-115.039-109.074-161.777-46.739-46.738-101.171-83.431-161.782-109.070-62.756-26.54-129.413-39.999-198.121-39.999zM511.338 864.402c-264.574 0-479.822-215.237-479.822-479.799s215.246-479.799 479.822-479.799c264.571 0 479.819 215.237 479.82 479.799 0 264.563-215.246 479.799-479.82 479.799z"  horiz-adv-x="1024" />
      
      <glyph glyph-name="weibo" unicode="&#59039;" d="M445.146218 221.098446C344.252711 216.374421 262.697586 266.973207 262.697586 334.291288 262.697586 401.684004 344.252711 455.743577 445.146218 460.402645 546.093627 465.050657 627.820134 423.452127 627.820134 356.183796 627.820134 288.860186 546.093627 225.671825 445.146218 221.098446M659.97061 439.821751C635.993891 444.469763 647.650545 457.373075 647.650545 457.373075 647.650545 457.373075 671.092392 496.023582 643.002533 524.113441 608.190127 558.914791 523.612345 519.681037 523.612345 519.681037 491.30569 509.660791 499.856761 524.265472 504.42461 549.104623 504.42461 578.372034 494.404364 627.934242 408.331145 598.661304 322.369877 569.243245 248.551764 466.135608 248.551764 466.135608 197.209407 397.646884 204.017646 344.705434 204.017646 344.705434 216.822829 227.809941 341.018591 195.72995 437.61376 188.133914 539.252221 180.164707 676.399669 223.166074 718.002344 311.501794 759.589819 400.006134 684.00676 435.021708 659.97061 439.821751M459.247814 333.556009C452.816889 328.75735 444.908498 329.415231 441.53893 335.181365 437.992455 340.780263 439.320655 349.774987 445.809628 354.499016 453.324123 360.10206 461.153736 358.487763 464.538505 352.87366 467.923274 347.129641 465.499067 338.502557 459.247814 333.556009M399.417965 282.607553C380.467953 280.378223 365.199862 291.299599 365.199862 307.161993 365.199862 322.931785 378.77764 339.463118 397.733181 341.439524 419.484715 343.512678 433.64574 330.964566 433.64574 315.120141 433.64574 299.34482 418.286433 284.745665 399.417965 282.607553M425.013126 415.997063C323.552957 404.124801 335.273189 309.077587 335.273189 309.077587 335.273189 309.077587 334.232466 278.974005 362.478503 263.652012 421.849494 231.486332 482.970228 250.954633 513.878194 290.851797 544.770956 330.743431 526.635001 427.804368 425.013126 415.997063M709.36973 480.966953C717.549016 480.966953 724.492701 487.023329 725.674397 494.901314 725.815372 495.499766 725.880333 496.023582 725.880333 496.677317 738.275031 608.098302 634.591057 588.921625 634.591057 588.921625 625.375196 588.921625 618.005821 581.476237 618.005821 572.185742 618.005821 563.038984 625.375196 555.58945 634.591057 555.58945 709.072579 572.03371 692.622792 497.561861 692.622792 497.561861 692.622792 488.347384 700.138668 480.966953 709.36973 480.966953M697.287389 675.459231C661.434259 683.855505 624.570811 676.60914 614.221626 674.634115 613.432446 674.552571 612.676433 673.807618 611.953595 673.65144 611.591482 673.586481 611.370347 673.218842 611.370347 673.218842 601.177339 670.341304 593.743007 660.904306 593.743007 649.765939 593.743007 636.496369 604.502677 625.579139 617.924278 625.579139 617.924278 625.579139 630.983769 627.328881 639.822316 630.795195 648.595905 634.320939 722.856289 633.423955 759.730794 571.483633 779.862505 526.284724 768.584545 496.023582 767.185857 491.159962 767.185857 491.159962 762.392725 479.421764 762.392725 467.852179 762.392725 454.501065 773.152395 446.111701 786.497982 446.111701 797.636347 446.111701 807.008388 447.644454 809.735277 466.492191L809.874868 466.492191C849.47488 598.466427 761.430782 660.477236 697.287389 675.459231M511.996538 894.651452C238.349895 894.651452 16.493931 672.80104 16.493931 399.191869 16.493931 125.491101 238.345732-96.31629 511.996538-96.31629 785.654285-96.31629 1007.506085 125.491101 1007.506085 399.191869 1007.506085 672.80104 785.654285 894.651452 511.996538 894.651452M511.240469 868.11292C769.41386 868.11292 979.454028 658.115711 979.454028 399.947865 979.454028 141.731516 769.41386-68.292023 511.240469-68.292023 253.029665-68.292023 42.989498 141.731516 42.989498 399.947865 42.989498 658.115711 253.029665 868.11292 511.240469 868.11292"  horiz-adv-x="1024" />
      
      <glyph glyph-name="weixin1" unicode="&#59040;" d="M512-128c-282.368 0-512 229.696-512 512 0 282.304 229.632 512 512 512 282.304 0 512-229.696 512-512C1024 101.696 794.304-128 512-128L512-128zM512 876.288c-271.488 0-492.288-220.8-492.288-492.288 0-271.424 220.8-492.224 492.288-492.224 271.424 0 492.288 220.8 492.288 492.224C1004.288 655.488 783.424 876.288 512 876.288L512 876.288zM629.184 459.328c8 0 15.936-0.64 23.744-1.472-21.376 99.584-127.808 173.44-249.216 173.44-135.808 0-247.04-92.608-247.04-210.176 0-67.776 37.056-123.52 98.816-166.72l-24.704-74.304 86.336 43.392c30.848-6.144 55.616-12.416 86.528-12.416 7.744 0 15.424 0.384 22.976 1.024-4.8 16.576-7.616 33.792-7.616 51.776C419.136 371.712 511.808 459.328 629.184 459.328L629.184 459.328zM496.384 526.272c18.56 0 30.912-12.16 30.912-30.784 0-18.56-12.352-30.912-30.912-30.912s-37.12 12.352-37.12 30.912C459.264 514.048 477.888 526.272 496.384 526.272L496.384 526.272zM323.52 464.512c-18.56 0-37.312 12.352-37.312 30.912 0 18.624 18.688 30.784 37.312 30.784 18.496 0 30.72-12.16 30.72-30.784C354.24 476.928 342.016 464.512 323.52 464.512L323.52 464.512zM854.656 266.688c0 98.816-98.752 179.328-209.728 179.328-117.568 0-210.176-80.512-210.176-179.328 0-98.944 92.608-179.2 210.176-179.2 24.64 0 49.344 6.144 74.048 12.288l67.84-37.12-18.624 61.76C817.728 161.6 854.656 211.008 854.656 266.688L854.656 266.688zM576.704 297.6c-12.288 0-24.704 12.224-24.704 24.704 0 12.352 12.352 24.768 24.704 24.768 18.688 0 30.912-12.352 30.912-24.768C607.616 309.888 595.392 297.6 576.704 297.6L576.704 297.6zM712.576 297.6c-12.16 0-24.512 12.224-24.512 24.704 0 12.352 12.288 24.768 24.512 24.768 18.56 0 30.976-12.352 30.976-24.768C743.552 309.888 731.136 297.6 712.576 297.6L712.576 297.6zM712.576 297.6"  horiz-adv-x="1024" />
      
      <glyph glyph-name="kongjian" unicode="&#59041;" d="M845.016 477.24l-207.789 20.088c-15.904 1.467-19.46 3.975-24.483 16.533l-88.932 192.933c-8.161 16.322-21.343 16.322-29.506 0l-94.791-192.933c-6.486-10.672-9.416-13.184-25.114-14.65l-201.304-22.182c-18.414-1.886-22.599-13.603-9.21-26.157l157.985-142.085c7.532-6.904 7.532-9.627 5.442-19.042l-40.594-208.419c-3.347-17.994 6.904-25.114 23.019-15.904l180.169 101.908c12.764 7.74 24.274 7.954 36.828 0.417l181.214-102.325c16.111-8.997 26.576-1.886 23.227 15.904l-30.968 166.358c18.625 6.068 36.62 13.603 47.29 22.182l-4.395-0.837c-64.031-15.067-152.337-23.854-233.947-23.854-30.135 0-59.428 1.046-87.466 2.929h-0.212c-24.694 1.675-48.337 3.975-70.937 7.116-8.371 1.255 0.63 6.695 0.63 6.695l217.627 151.083c0 0 5.653 3.557 0 4.185-89.35 13.603-188.122 17.159-281.238 17.159-2.09 0-4.185 0-6.486 0 62.777 14.017 141.874 22.389 227.878 22.389 50.64 0 98.978-2.929 143.133-8.161 0 0 24.902-3.347 36.828-5.233 9.21-1.255 0.63-6.486 0.63-6.486l-217.417-147.525c0 0-5.023-2.929 0.417-3.766 66.962-9.21 149.41-12.557 223.485-13.394l-3.347 17.785c-1.675 10.252 0 14.017 7.954 21.343l153.385 140.203c13.603 12.344 9.627 24.065-8.997 25.737zM509.153 894.913c-278.098 0-504.513-226.205-504.513-504.513 0-278.098 226.205-504.513 504.513-504.513 278.098 0 504.513 226.205 504.513 504.513 0 278.098-226.414 504.513-504.513 504.513zM509.153-96.53800000000001c-268.475 0-486.937 218.46-486.937 486.937s218.46 486.937 486.937 486.937c268.475 0 486.937-218.46 486.937-486.937s-218.46-486.937-486.937-486.937z"  horiz-adv-x="1024" />
      
      <glyph glyph-name="lock" unicode="&#59017;" d="M768 458.667h-42.667v85.333c0 117.76-95.573 213.333-213.333 213.333s-213.333-95.573-213.333-213.333v-85.333h-42.667c-46.933 0-85.333-38.4-85.333-85.333v-426.667c0-46.933 38.4-85.333 85.333-85.333h512c46.933 0 85.333 38.4 85.333 85.333v426.667c0 46.933-38.4 85.333-85.333 85.333zM512 74.667c-46.933 0-85.333 38.4-85.333 85.333s38.4 85.333 85.333 85.333 85.333-38.4 85.333-85.333-38.4-85.333-85.333-85.333zM644.267 458.667h-264.533v85.333c0 72.96 59.307 132.267 132.267 132.267s132.267-59.307 132.267-132.267v-85.333z"  horiz-adv-x="1024" />
      
      <glyph glyph-name="cuowu1" unicode="&#59063;" d="M813.568 685.568c-166.4 166.4-436.736 166.4-603.648 0s-166.4-436.736 0-603.648 436.736-166.4 603.648 0S980.48 519.168 813.568 685.568zM666.112 172.032 512 325.632l-154.112-154.112-58.368 58.368L453.632 384 300.032 538.112l58.368 58.368L512 442.368l154.112 154.112 58.368-58.368L570.368 384l154.112-154.112L666.112 172.032z"  horiz-adv-x="1024" />
      
      <glyph glyph-name="zhengque" unicode="&#59134;" d="M390.358187 213.333333L877.142187 700.16a86.058667 86.058667 0 0 0 121.685333-121.728L451.200853 30.805333a86.058667 86.058667 0 0 0-121.685333 0L25.216853 335.018667a86.058667 86.058667 0 0 0 121.685334 121.728L390.358187 213.333333z"  horiz-adv-x="1024" />
      
      <glyph glyph-name="cuowu" unicode="&#59135;" d="M511.996031 543.609022L831.262991 862.932862a112.84975 112.84975 0 1 0 159.60504-159.60504L671.601071 384.003982l319.26696-319.266961a112.84975 112.84975 0 1 0-159.60504-159.60504L511.996031 224.39894200000003 192.72907-94.92489899999998a112.84975 112.84975 0 1 0-159.60504 159.605041L352.39099 384.003982 33.06715 703.270942A112.84975 112.84975 0 0 0 192.72907 862.875982L511.996031 543.609022z"  horiz-adv-x="1024" />
      
      <glyph glyph-name="fenxiang" unicode="&#59130;" d="M646.00226 112.805921L354.138783 281.449526a191.931265 191.931265 0 1 0-6.397709 214.771085l295.638125 170.626894a191.931265 191.931265 0 1 0 41.585107-86.561L382.672565 405.693031a194.042509 194.042509 0 0 0 1.023633-30.772979l309.009336-178.432099a191.931265 191.931265 0 1 0-46.703274-83.618055zM191.956865 288.103143a95.965632 95.965632 0 1 1 0 191.931265 95.965632 95.965632 0 0 1 0-191.931265z m639.770882 319.885441a95.965632 95.965632 0 1 1 0 191.931265 95.965632 95.965632 0 0 1 0-191.931265z m0-639.770882a95.965632 95.965632 0 1 1 0 191.931265 95.965632 95.965632 0 0 1 0-191.931265z"  horiz-adv-x="1024" />
      
      <glyph glyph-name="guanbi" unicode="&#59129;" d="M512 515.630545L841.169455 844.8a93.090909 93.090909 0 0 0 131.630545-131.630545L643.630545 384l329.169455-329.169455a93.090909 93.090909 0 1 0-131.630545-131.630545L512 252.369455 182.830545-76.8A93.090909 93.090909 0 1 0 51.2 54.830545L380.369455 384 51.2 713.169455A93.090909 93.090909 0 1 0 182.830545 844.8L512 515.630545z"  horiz-adv-x="1024" />
      
      <glyph glyph-name="arrow-up" unicode="&#59133;" d="M512.903529 725.654588l-383.337411-383.337412a60.235294 60.235294 0 0 0-85.172706 85.172706l425.863529 425.86353a60.235294 60.235294 0 0 0 85.232941 0l425.86353-425.86353A60.235294 60.235294 0 0 0 896.301176 342.317176L512.903529 725.654588z"  horiz-adv-x="1024" />
      
      <glyph glyph-name="arrow-down" unicode="&#59132;" d="M511.096471 42.34541200000001l383.337411 383.337412a60.235294 60.235294 0 0 0 85.172706-85.172706l-425.863529-425.86353a60.235294 60.235294 0 0 0-85.232941 0l-425.86353 425.86353A60.235294 60.235294 0 0 0 127.698824 425.682824L511.096471 42.34541200000001z"  horiz-adv-x="1024" />
      
      <glyph glyph-name="arrow-left" unicode="&#59126;" d="M170.345412 384.903529l383.337412-383.337411a60.235294 60.235294 0 0 0-85.172706-85.172706l-425.86353 425.863529a60.235294 60.235294 0 0 0 0 85.232941l425.86353 425.86353A60.235294 60.235294 0 0 0 553.682824 768.3011759999999L170.345412 384.903529z"  horiz-adv-x="1024" />
      
      <glyph glyph-name="arrow-right" unicode="&#59131;" d="M853.654588 383.09647099999995l-383.337412 383.337411a60.235294 60.235294 0 0 0 85.172706 85.172706l425.86353-425.863529a60.235294 60.235294 0 0 0 0-85.232941l-425.86353-425.86353A60.235294 60.235294 0 0 0 470.317176-0.30117600000005496L853.654588 383.09647099999995z"  horiz-adv-x="1024" />
      
      <glyph glyph-name="faxian" unicode="&#59122;" d="M512 537.6a153.6 153.6 0 1 1 153.6-153.6V537.6h-153.6z m0-665.6C229.2224-128 0 101.2224 0 384S229.2224 896 512 896s512-229.2224 512-512-229.2224-512-512-512z"  horiz-adv-x="1024" />
      
      <glyph glyph-name="xuexi" unicode="&#59123;" d="M512 736.7168C597.7088 774.6048 683.1616 793.6 768.3584 793.6c61.5424 0 123.0336-9.8816 184.576-29.696A102.4 102.4 0 0 0 1024 666.5216v-556.2368a102.4 102.4 0 0 0-125.184-99.84A592.9984 592.9984 0 0 1 766.5152 25.6c-84.8384 0-169.6768-18.944-254.5152-56.8832C426.496 6.6048 341.1456 25.6 255.8464 25.6c-43.5712 0-87.1424-4.9664-130.7648-14.848A102.4 102.4 0 0 0 0 110.592V666.5728a102.4 102.4 0 0 0 71.0144 97.4848A598.4256 598.4256 0 0 0 255.3344 793.6C340.8896 793.6 426.496 774.656 512 736.7168zM204.8 588.8a51.2 51.2 0 1 1 0-102.4h102.4a51.2 51.2 0 1 1 0 102.4H204.8z"  horiz-adv-x="1024" />
      
      <glyph glyph-name="wode" unicode="&#59124;" d="M512-128C229.2224-128 0 101.2224 0 384S229.2224 896 512 896s512-229.2224 512-512-229.2224-512-512-512z m0 256a153.6 153.6 0 1 1 0 307.2 153.6 153.6 0 0 1 0-307.2zM358.4 588.8a51.2 51.2 0 0 1-51.2-51.2v-51.2a51.2 51.2 0 1 1 102.4 0V537.6a51.2 51.2 0 0 1-51.2 51.2z m307.2 0a51.2 51.2 0 0 1-51.2-51.2v-51.2a51.2 51.2 0 0 1 102.4 0V537.6a51.2 51.2 0 0 1-51.2 51.2z"  horiz-adv-x="1024" />
      
    </font>
</defs>
</svg>
