<svg width="26" height="26" viewBox="0 0 26 26" fill="none" xmlns="http://www.w3.org/2000/svg">
<g id="Frame 33">
<path id="Star 1" d="M11.2815 1.02277C12.3405 0.392515 13.6595 0.392515 14.7184 1.02277L18.5746 3.31784L22.5155 5.53639C23.573 6.13167 24.2273 7.25085 24.2273 8.46432V13V17.5357C24.2273 18.7491 23.573 19.8683 22.5155 20.4636L18.5746 22.6822L14.7184 24.9772C13.6595 25.6075 12.3405 25.6075 11.2815 24.9772L7.4254 22.6822L3.48444 20.4636C2.42701 19.8683 1.77271 18.7491 1.77271 17.5357L1.77274 13L1.77271 8.46433C1.77271 7.25086 2.42701 6.13166 3.48444 5.53638L7.4254 3.31784L11.2815 1.02277Z" fill="#DEFAE6"/>
<path id="Star 2" d="M12.0934 2.53961C12.6521 2.20709 13.3479 2.20709 13.9066 2.53961L17.717 4.8074L21.5969 6.9916C22.1548 7.30567 22.5 7.89615 22.5 8.53637V13V17.4636C22.5 18.1039 22.1548 18.6943 21.5969 19.0084L17.717 21.1926L13.9066 23.4604C13.3479 23.7929 12.6521 23.7929 12.0934 23.4604L8.28305 21.1926L4.40311 19.0084C3.84521 18.6943 3.5 18.1038 3.50001 17.4636L3.50003 13L3.50001 8.53638C3.5 7.89615 3.84521 7.30567 4.40311 6.9916L8.28305 4.8074L12.0934 2.53961Z" stroke="url(#paint0_linear_870_3289)" stroke-width="1.18182"/>
<path id="Star 3" d="M12.3796 4.38269C12.7599 4.14808 13.2401 4.14808 13.6204 4.38269L16.7239 6.29696L19.9137 8.15796C20.2768 8.36976 20.5 8.75844 20.5 9.17875V13V16.8212C20.5 17.2416 20.2768 17.6302 19.9137 17.842L16.7239 19.703L13.6204 21.6173C13.2401 21.8519 12.7599 21.8519 12.3796 21.6173L9.27609 19.703L6.08627 17.842C5.72323 17.6302 5.5 17.2416 5.5 16.8212L5.50002 13L5.5 9.17876C5.5 8.75845 5.72323 8.36976 6.08627 8.15796L9.27609 6.29696L12.3796 4.38269Z" stroke="#6BD88A" stroke-width="0.472727"/>
<path id="O" d="M12.9442 9C14.2066 9 15.2117 9.42453 15.9481 10.2857C16.6494 11.0984 17.0001 12.1779 17.0001 13.5121C17.0001 14.8342 16.6494 15.9016 15.9481 16.7264C15.2117 17.5755 14.2066 18 12.9442 18C11.6702 18 10.665 17.5633 9.94032 16.7143C9.23902 15.8895 8.90006 14.8221 8.90006 13.5121C8.90006 12.19 9.23902 11.1226 9.94032 10.2978C10.665 9.42453 11.6702 9 12.9442 9ZM12.9442 10.1644C12.0559 10.1644 11.3663 10.4677 10.8754 11.0984C10.4079 11.6927 10.1741 12.4933 10.1741 13.5121C10.1741 14.5189 10.4079 15.3194 10.8754 15.9137C11.3663 16.5202 12.0559 16.8356 12.9442 16.8356C13.8325 16.8356 14.5221 16.5323 15.0014 15.938C15.4689 15.3558 15.7143 14.5431 15.7143 13.5121C15.7143 12.469 15.4689 11.6563 15.0014 11.062C14.5221 10.4555 13.8325 10.1644 12.9442 10.1644Z" fill="#0EA538"/>
</g>
<defs>
<linearGradient id="paint0_linear_870_3289" x1="19.5312" y1="20.2393" x2="9.5804" y2="4.46497" gradientUnits="userSpaceOnUse">
<stop stop-color="#0EA538"/>
<stop offset="1" stop-color="#75DD92"/>
</linearGradient>
</defs>
</svg>
