<svg width="26" height="26" viewBox="0 0 26 26" fill="none" xmlns="http://www.w3.org/2000/svg">
<g id="Frame 31">
<g id="Vector">
<path d="M11.2816 1.02274C12.3405 0.392485 13.6595 0.392485 14.7185 1.02274L18.5746 3.31781L22.5156 5.53636C23.573 6.13164 24.2273 7.25082 24.2273 8.46429V17.5356C24.2273 18.7491 23.573 19.8683 22.5156 20.4636L18.5746 22.6821L14.7185 24.9772C13.6595 25.6075 12.3405 25.6075 11.2816 24.9772L7.42545 22.6821L3.48449 20.4636C2.42706 19.8683 1.77276 18.7491 1.77277 17.5356L1.77277 8.4643C1.77276 7.25083 2.42706 6.13163 3.4845 5.53635L7.42545 3.31781L11.2816 1.02274Z" fill="url(#paint0_linear_870_3279)"/>
<path fill-rule="evenodd" clip-rule="evenodd" d="M11.7912 2.0318L7.98699 4.29594L4.11326 6.47664C3.3694 6.8954 2.90912 7.68271 2.90913 8.53635V17.4636C2.90912 18.3172 3.3694 19.1045 4.11326 19.5233L7.98699 21.704L11.7912 23.9681C12.5361 24.4115 13.464 24.4115 14.2089 23.9681L18.0131 21.704L21.8868 19.5233C22.6307 19.1045 23.0909 18.3172 23.0909 17.4636V8.53634C23.0909 7.68271 22.6307 6.8954 21.8868 6.47665L18.0131 4.29595L14.2089 2.0318C13.464 1.58844 12.5361 1.58844 11.7912 2.0318ZM13.6045 3.04736L17.4209 5.31879L21.3071 7.50649C21.679 7.71587 21.9091 8.10952 21.9091 8.53634V17.4636C21.9091 17.8904 21.679 18.2841 21.3071 18.4934L17.4209 20.6811L13.6045 22.9526C13.232 23.1743 12.7681 23.1743 12.3956 22.9526L8.57917 20.6811L4.69301 18.4935C4.32108 18.2841 4.09094 17.8904 4.09094 17.4636V8.53634C4.09094 8.10953 4.32108 7.71587 4.69301 7.50649L8.57917 5.31879L12.3956 3.04736C12.7681 2.82568 13.232 2.82568 13.6045 3.04736Z" fill="url(#paint1_linear_870_3279)"/>
<path fill-rule="evenodd" clip-rule="evenodd" d="M12.2555 4.18149L9.1545 6.09424L5.96719 7.95377C5.53154 8.20793 5.26367 8.67436 5.26367 9.17873V16.8212C5.26367 17.3256 5.53154 17.792 5.96719 18.0462L9.1545 19.9057L12.2555 21.8185C12.7119 22.1 13.2881 22.1 13.7445 21.8185L16.8456 19.9057L20.0329 18.0462C20.4685 17.792 20.7364 17.3256 20.7364 16.8212V9.17872C20.7364 8.67435 20.4685 8.20793 20.0329 7.95377L16.8456 6.09424L13.7445 4.18149C13.2881 3.89996 12.7119 3.89996 12.2555 4.18149ZM13.4964 4.58383L16.5998 6.49817L19.7946 8.36209C20.0851 8.53153 20.2637 8.84248 20.2637 9.17872V16.8212C20.2637 17.1575 20.0851 17.4684 19.7946 17.6379L16.6048 19.4988L13.4964 21.4161C13.1921 21.6038 12.808 21.6038 12.5037 21.4161L9.40024 19.5018L6.20541 17.6379C5.91498 17.4684 5.73639 17.1575 5.7364 16.8212V9.17872C5.73639 8.84248 5.91498 8.53153 6.20541 8.36209L9.39526 6.50115L12.5037 4.58383C12.808 4.39615 13.1921 4.39615 13.4964 4.58383Z" fill="#E2A865"/>
<path d="M12.7334 17.5C11.5334 17.5 10.6267 17.2588 10 16.9414V15.7101C10.7334 16.0148 11.6 16.2433 12.6 16.2433C13.8267 16.2433 14.3467 15.7609 14.3467 14.9739C14.3467 14.2503 14.0134 13.9711 13.0134 13.6791L12.1467 13.4506C10.8534 13.1079 10.0667 12.4478 10.0667 10.9753C10.0667 9.50279 11.0667 8.49997 13.1334 8.49997C14.3334 8.49997 14.9867 8.71577 15.4934 8.96965V10.1883C14.92 9.95977 14.1734 9.75667 13.16 9.75667C12.2 9.75667 11.6667 10.1375 11.6667 10.8357C11.6667 11.5211 11.9334 11.8131 12.84 12.0543L13.6934 12.3082C15.1334 12.7017 16 13.2729 16 14.8215C16 16.4718 14.9467 17.5 12.7334 17.5Z" fill="#885F30"/>
</g>
</g>
<defs>
<linearGradient id="paint0_linear_870_3279" x1="9.00006" y1="2.94426" x2="19.787" y2="21.5536" gradientUnits="userSpaceOnUse">
<stop offset="0.109375" stop-color="#FFE6B1"/>
</linearGradient>
<linearGradient id="paint1_linear_870_3279" x1="20.2668" y1="20.9755" x2="9.35087" y2="3.49982" gradientUnits="userSpaceOnUse">
<stop stop-color="#91693B"/>
<stop offset="1" stop-color="#CDA77B"/>
</linearGradient>
</defs>
</svg>
