<svg width="27" height="26" viewBox="0 0 27 26" fill="none" xmlns="http://www.w3.org/2000/svg">
<g id="Frame 31">
<path id="Star 1" d="M11.7815 1.02277C12.8405 0.392515 14.1595 0.392515 15.2184 1.02277L19.0746 3.31784L23.0155 5.53639C24.073 6.13167 24.7273 7.25085 24.7273 8.46432V13V17.5357C24.7273 18.7491 24.073 19.8683 23.0155 20.4636L19.0746 22.6822L15.2184 24.9772C14.1595 25.6075 12.8405 25.6075 11.7815 24.9772L7.9254 22.6822L3.98444 20.4636C2.92701 19.8683 2.27271 18.7491 2.27271 17.5357L2.27274 13L2.27271 8.46433C2.27271 7.25086 2.92701 6.13166 3.98444 5.53638L7.9254 3.31784L11.7815 1.02277Z" fill="#F3DEFA"/>
<path id="C" d="M15.916 14.7635L17.5457 15.0484C17.3291 15.8689 17.124 16.3134 16.7821 16.7578C16.1326 17.5556 15.0385 18 13.671 18C12.4288 18 11.4373 17.6239 10.7422 16.906C9.94445 16.0741 9.5 14.7863 9.5 13.3276C9.5 11.8233 9.97864 10.5013 10.8333 9.64663C11.5171 8.95147 12.5428 8.564 13.6824 8.564C14.5713 8.564 15.2437 8.73494 15.8704 9.11101C16.3833 9.43011 16.7935 9.85176 17.0784 10.3532C17.2152 10.5925 17.295 10.7976 17.4317 11.2307L15.8476 11.5954C15.6881 11.0939 15.5855 10.8774 15.3576 10.6153C14.9701 10.1481 14.4003 9.90874 13.6938 9.90874C12.0755 9.90874 11.0955 11.1737 11.0955 13.2706C11.0955 15.3561 12.0983 16.6553 13.6938 16.6553C14.4915 16.6553 15.1753 16.3476 15.54 15.8119C15.7337 15.527 15.8249 15.2877 15.916 14.7635Z" fill="#7E0EA5"/>
<path id="Star 2" d="M12.5934 2.53961C13.1521 2.20709 13.8479 2.20709 14.4066 2.53961L18.217 4.8074L22.0969 6.9916C22.6548 7.30567 23 7.89615 23 8.53637V13V17.4636C23 18.1039 22.6548 18.6943 22.0969 19.0084L18.217 21.1926L14.4066 23.4604C13.8479 23.7929 13.1521 23.7929 12.5934 23.4604L8.78305 21.1926L4.90311 19.0084C4.34521 18.6943 4 18.1038 4.00001 17.4636L4.00003 13L4.00001 8.53638C4 7.89615 4.34521 7.30567 4.90311 6.9916L8.78305 4.8074L12.5934 2.53961Z" stroke="url(#paint0_linear_872_3320)" stroke-width="1.18182"/>
<path id="Star 3" d="M12.8796 4.38269C13.2599 4.14808 13.7401 4.14808 14.1204 4.38269L17.2239 6.29696L20.4137 8.15796C20.7768 8.36976 21 8.75844 21 9.17875V13V16.8212C21 17.2416 20.7768 17.6302 20.4137 17.842L17.2239 19.703L14.1204 21.6173C13.7401 21.8519 13.2599 21.8519 12.8796 21.6173L9.77609 19.703L6.58627 17.842C6.22323 17.6302 6 17.2416 6 16.8212L6.00002 13L6 9.17876C6 8.75845 6.22323 8.36976 6.58627 8.15796L9.77609 6.29696L12.8796 4.38269Z" stroke="#BB6BD8" stroke-width="0.472727"/>
</g>
<defs>
<linearGradient id="paint0_linear_872_3320" x1="20.0312" y1="20.2393" x2="10.0804" y2="4.46497" gradientUnits="userSpaceOnUse">
<stop stop-color="#7D0EA5"/>
<stop offset="1" stop-color="#C175DD"/>
</linearGradient>
</defs>
</svg>
