<?xml version="1.0" encoding="utf-8"?>
<!-- Generator: Adobe Illustrator 17.1.0, SVG Export Plug-In . SVG Version: 6.00 Build 0)  -->
<!DOCTYPE svg PUBLIC "-//W3C//DTD SVG 1.1//EN" "http://www.w3.org/Graphics/SVG/1.1/DTD/svg11.dtd">
<svg version="1.1" id="Layer_1" xmlns="http://www.w3.org/2000/svg" xmlns:xlink="http://www.w3.org/1999/xlink" x="0px" y="0px"
	 viewBox="0 0 128 128" enable-background="new 0 0 128 128" xml:space="preserve">
<rect fill="#B9F6CA" width="128" height="128"/>
<g>
	<path fill="none" d="M38.9,47.4C38.9,47.4,38.9,47.4,38.9,47.4C38.9,47.4,38.9,47.4,38.9,47.4z"/>
	<path fill="none" d="M39.6,47.4C39.6,47.4,39.6,47.4,39.6,47.4C39.6,47.4,39.6,47.4,39.6,47.4z"/>
	<path fill="#444444" d="M94.2,44.7c-0.8-2.6-1.8-5-3.2-7.2l-7.2,1.4l-20.4,4C69.7,45.6,79.3,46.9,94.2,44.7z"/>
	<path fill="#FFCC80" d="M69.5,117.4c6.3,0.5,13.8-0.3,22.8-3.6c-0.2-0.7-0.3-1.4-0.5-2.1c0,0,0,0,0,0c-0.3-1.4-4-22.1-4.2-29
		c-0.2-7.6,0.7-12.3,1.9-15.3h9l-2.6-10.4c-0.2-2.4-0.4-4.8-0.7-6.8c-0.2-1.9-0.6-3.6-1.2-5.3c-14.9,2.2-24.5,0.9-30.7-1.8
		l-23.1,4.5c-0.2,0-0.5,0.1-0.7,0.1c0,0-0.1,0-0.1,0c-0.2,0-0.4,0-0.6,0c0,0,0,0,0,0c-0.4-0.1-0.9-0.2-1.2-0.4c-0.4,0-0.9,0-1.4,0.1
		c-4.1,0.6-6.9,4.7-6.3,9.1c0.3,2,1.2,3.8,2.6,5l0,0c0,0,0,0,0,0c0.3,0.1,1.6,0.7,3.4,1.7c0.8,0.4,1.6,1,2.5,1.6
		c1.5,1.1,3.2,2.5,4.9,4.1c6.6,6.8,12.1,18.6,2.4,37C45.7,105.5,53.1,116,69.5,117.4z M79.6,54.9c0.9,0,1.6,0.7,1.6,1.6
		c0,0.9-0.7,1.6-1.6,1.6c-0.9,0-1.6-0.7-1.6-1.6C77.9,55.7,78.7,54.9,79.6,54.9z"/>
	<path fill="#E65100" d="M38.9,47.4c0.2,0,0.4,0,0.6,0c0,0,0.1,0,0.1,0c0.2,0,0.5,0,0.7-0.1l23.1-4.5l20.4-4l23.3-4.5
		c1.9-0.4,3.2-2,2.9-3.6c-0.3-1.6-2.1-2.6-4.1-2.3l-19.6,3.8l-1.3-6.8C83,14.5,70,7.7,55.9,10.5c-14,2.7-23.7,13.9-21.6,24.9l0.1,0
		l1.7,9c0,0.2,0,0.5,0,0.7c0.2,0.8,0.7,1.4,1.4,1.9C38,47.1,38.5,47.3,38.9,47.4C38.9,47.4,38.9,47.4,38.9,47.4z"/>
	<circle fill="#444444" cx="79.6" cy="56.6" r="1.6"/>
	<path fill="#FFCC80" d="M102.8,109.3l0.2,0.2c1-0.4,2-0.9,2.9-1.3C104.8,108.6,103.8,109,102.8,109.3z"/>
	<path fill="#FFCC80" d="M128,97.7c-3.3,1.9-6.6,3.7-9.9,5.3c-3.9,1.8-7.7,3.5-11.4,4.9c-0.1,0-0.2,0.1-0.3,0.1l21.7,18.1V97.7z"/>
	<path fill="#689F38" d="M128,128v-1.8L106.3,108l0,0c-0.1,0.1-0.3,0.1-0.4,0.2c-1,0.4-1.9,0.9-2.9,1.3c-3,1.3-6,2.6-9.2,3.8
		c-0.5,0.2-0.9,0.3-1.4,0.5c-9,3.3-16.5,4.1-22.8,3.6c-16.4-1.3-23.8-11.9-23.8-11.9c-2.2,4.2-5.2,8.7-9.2,13.5
		c-0.1,0.1-0.2,0.3-0.3,0.4c-0.6,0.7-1.1,1.3-1.7,2c-0.9,1.1-2,2.6-3.4,4.5c-0.4,0.6-0.9,1.3-1.4,2H128z"/>
	<path fill="#FFCC80" d="M36.3,119.3c0,0,0,0.1-0.1,0.1c0.1-0.1,0.2-0.3,0.3-0.4C36.4,119.1,36.3,119.2,36.3,119.3z"/>
</g>
</svg>
