<?xml version="1.0" encoding="utf-8"?>
<!-- Generator: Adobe Illustrator 17.1.0, SVG Export Plug-In . SVG Version: 6.00 Build 0)  -->
<!DOCTYPE svg PUBLIC "-//W3C//DTD SVG 1.1//EN" "http://www.w3.org/Graphics/SVG/1.1/DTD/svg11.dtd">
<svg version="1.1" id="Layer_1" xmlns="http://www.w3.org/2000/svg" xmlns:xlink="http://www.w3.org/1999/xlink" x="0px" y="0px"
	 viewBox="0 0 128 128" enable-background="new 0 0 128 128" xml:space="preserve">
<rect fill="#FFFF8D" width="128" height="128"/>
<g>
	<g>
		<g>
			<path fill="#FF5722" d="M109.6,121.5c-1.2-2-2.2-3.6-2.9-4.8c-0.8-1.2-1.2-1.8-1.2-1.8l-0.2-0.3c-0.5-0.8-1.1-1.6-1.8-2.3
				c-3.1-3.3-6.9-5.1-10.8-5.3c0,0,0.1,0,0.1,0.1v0c-0.1,0-0.1-0.1-0.2-0.1c-3.4,3.7-7.8,6.6-12.7,8.5V128h33.4
				C111.9,125.5,110.7,123.3,109.6,121.5z M42,106c-0.1,0.2-0.1,0.3-0.2,0.5c-2.9,0.8-5.6,2.5-7.8,5.1l-0.2,0.2c0,0-0.5,0.6-1.4,1.6
				c-0.9,1-2,2.4-3.5,4.2c-2.1,2.6-4.7,6.1-7.5,10.4h28v-15.7C46.6,110.6,44.1,108.5,42,106z"/>
		</g>
	</g>
	<path fill="#E0F7FA" d="M67.7,117.7c-6.8-0.2-13.1-2.1-18.3-5.4V128h30.5v-12.6C76.1,116.8,72,117.6,67.7,117.7z"/>
	<path fill="#C2C2C2" d="M83.2,26.6c0.1-0.9,0.2-1.8,0.2-2.7C83.4,13.5,75,5,64.6,5c-10.4,0-18.8,8.4-18.8,18.8c0,1.4,0.2,2.7,0.4,4
		c5.4-4,12.2-6.4,19.4-6.4C72.1,21.5,78.1,23.4,83.2,26.6z"/>
	<path fill="#848484" d="M41.4,56.4c9.6-1.9,10.3-10.7,11.7-13.2c4.2,5.4,12.4,16.6,36.8,13.5c1.5-2.5,4.4-4,7.4-3.6
		c0.3,0,0.6,0.1,1,0.2c-0.3-11.3-6.3-21.2-15.2-26.8c-5.1-3.2-11.1-5.1-17.5-5.1c-7.3,0-14,2.4-19.4,6.4
		C38.3,33.7,33.1,43,32.9,53.5c0.4-0.1,0.9-0.3,1.4-0.3C37.1,52.8,39.9,54.2,41.4,56.4z"/>
	<path fill="#FFE0B2" d="M42,106c2.1,2.4,4.6,4.5,7.4,6.3c5.2,3.3,11.5,5.3,18.3,5.4c4.3-0.1,8.4-0.9,12.1-2.3
		c5-1.9,9.3-4.8,12.7-8.5c0.1,0,0.1,0.1,0.2,0.1v0c0,0-0.1,0-0.1-0.1c-15.7-12.3-12-21.7-7.8-26.6c1.3-1.1,2.6-2.3,4.1-3.6
		c0,0,0,0,0,0l12.2-10.3c1.4-1.2,2.4-2.8,2.7-4.8c0.5-3.8-1.9-7.3-5.4-8.2c-0.3-0.1-0.6-0.2-1-0.2c-3.1-0.4-5.9,1.1-7.4,3.6
		c-24.4,3.1-32.7-8.1-36.8-13.5c-1.5,2.4-2.1,11.3-11.7,13.2c-1.6-2.3-4.3-3.6-7.2-3.2c-0.5,0.1-0.9,0.2-1.4,0.3
		c-3.4,1.1-5.5,4.5-5,8.1c0.3,1.9,1.3,3.6,2.6,4.7l10.2,8.7c5.8,6,14.1,18.3,1.4,30.7C42,105.9,42,106,42,106z M79.6,60.7
		c0.8,0,1.5,0.7,1.5,1.5c0,0.8-0.7,1.5-1.5,1.5c-0.8,0-1.5-0.7-1.5-1.5C78,61.3,78.7,60.7,79.6,60.7z M55.6,60.7
		c0.8,0,1.5,0.7,1.5,1.5c0,0.8-0.7,1.5-1.5,1.5c-0.8,0-1.5-0.7-1.5-1.5C54,61.3,54.7,60.7,55.6,60.7z"/>
	<circle fill="#444444" cx="79.6" cy="62.2" r="1.5"/>
	<circle fill="#444444" cx="55.6" cy="62.2" r="1.5"/>
</g>
</svg>
