<?xml version="1.0" encoding="utf-8"?>
<!-- Generator: Adobe Illustrator 17.1.0, SVG Export Plug-In . SVG Version: 6.00 Build 0)  -->
<!DOCTYPE svg PUBLIC "-//W3C//DTD SVG 1.1//EN" "http://www.w3.org/Graphics/SVG/1.1/DTD/svg11.dtd">
<svg version="1.1" id="Layer_1" xmlns="http://www.w3.org/2000/svg" xmlns:xlink="http://www.w3.org/1999/xlink" x="0px" y="0px"
	 viewBox="0 0 128 128" enable-background="new 0 0 128 128" xml:space="preserve">
<rect fill="#DB4437" width="128" height="128"/>
<g>
	<path fill="#E0F7FA" d="M105.3,106.1c-0.9-1.3-1.3-1.9-1.3-1.9l-0.2-0.3c-0.6-0.9-1.2-1.7-1.9-2.4c-3.2-3.5-7.3-5.4-11.4-5.7
		c0,0,0.1,0,0.1,0.1v0l-0.2-0.1c-6.4,6.9-16,11.3-26.7,11.6c-11.2-0.3-21.1-5.1-27.5-12.6c0,0,0,0,0,0c0,0,0,0,0,0
		c-0.1,0.2-0.2,0.4-0.2,0.5c-3.1,0.9-6,2.7-8.4,5.4l-0.2,0.2c0,0-0.5,0.6-1.5,1.7c-0.9,1.1-2.2,2.6-3.7,4.5
		c-3.1,3.9-7.2,9.5-11.7,16.6c-0.9,1.4-1.7,2.8-2.6,4.3h109.6c-3.4-7.1-6.5-12.8-8.9-16.9C107.1,108.9,106,107.3,105.3,106.1z"/>
	<path fill="#FFE0B2" d="M63.6,107.2c10.7-0.3,20.3-4.7,26.7-11.6l0.2,0.1v0C73.5,82.4,77.6,72.3,82,67.1c1.3-1.2,2.8-2.5,4.4-3.9
		c0,0,0,0,0,0l13.1-11c1.5-1.2,2.6-3,2.9-5.1c0.6-4.4-2.5-8.4-6.9-9.1c-1.5-0.2-3,0-4.3,0.6c-0.2-1-0.5-1.9-0.8-2.9
		c-26.9,3.7-37.9-2.5-42.4-8.4c-1.6,2.6-6.3,8.4-17,10.2C31.1,37.8,31,38,31,38.2c-1-0.3-2.1-0.4-3.2-0.2c-4.4,0.6-7.5,4.7-6.9,9.1
		c0.3,2.1,1.3,3.8,2.8,5.1l11,9.3c6.2,6.4,15.1,19.6,1.5,32.9c-0.1,0.1-0.1,0.2-0.1,0.2c0,0,0,0,0,0
		C42.5,102.1,52.4,106.9,63.6,107.2z M76.4,46c0.9,0,1.6,0.7,1.6,1.6c0,0.9-0.7,1.6-1.6,1.6c-0.9,0-1.6-0.7-1.6-1.6
		C74.7,46.7,75.5,46,76.4,46z M50.7,46c0.9,0,1.6,0.7,1.6,1.6c0,0.9-0.7,1.6-1.6,1.6c-0.9,0-1.6-0.7-1.6-1.6
		C49,46.7,49.8,46,50.7,46z"/>
	<circle fill="#444444" cx="76.4" cy="47.6" r="1.6"/>
	<circle fill="#444444" cx="50.7" cy="47.6" r="1.6"/>
	<path fill="#444444" d="M48.1,27.4c4.5,5.9,15.5,12.1,42.4,8.4c-2.2-6.9-6.8-12.6-12.6-16.4C95.1,20.9,92,10,92,10
		c-1.4,5.5-11.1,4.4-11.1,4.4H62.1c0,0,0,0,0,0c-1.7-0.1-3.4,0-5.2,0.3c-12.8,1.8-22.6,11.1-25.7,22.9C41.8,35.7,46.5,30,48.1,27.4z
		"/>
</g>
</svg>
