<?xml version="1.0" encoding="utf-8"?>
<!-- Generator: Adobe Illustrator 17.1.0, SVG Export Plug-In . SVG Version: 6.00 Build 0)  -->
<!DOCTYPE svg PUBLIC "-//W3C//DTD SVG 1.1//EN" "http://www.w3.org/Graphics/SVG/1.1/DTD/svg11.dtd">
<svg version="1.1" id="Layer_1" xmlns="http://www.w3.org/2000/svg" xmlns:xlink="http://www.w3.org/1999/xlink" x="0px" y="0px"
	 viewBox="0 0 128 128" enable-background="new 0 0 128 128" xml:space="preserve">
<rect fill="#B9F6CA" width="128" height="128"/>
<g>
	<path fill="#444444" d="M48.4,74.7c-1.6-1.6-3.2-2.9-4.7-4c-0.9-0.6-1.7-1.1-2.4-1.6c-1.8-1-3.1-1.6-3.3-1.7c0,0,0,0,0,0l0,0
		c-1.3-1.2-2.2-2.9-2.5-4.8c-0.5-4.2,2.2-8.2,6.1-8.8c1-0.1,2-0.1,2.9,0.2c0-0.1,0-0.1,0,0c9.5-1.8,13.8-8,15.3-10.5
		c4,5.7,14.2,12.9,38.2,9.4c2.8-4.7,4.5-10.2,4.5-16C102.4,19.8,88.6,6,71.6,6c-6.7,0-12.8,2.1-17.9,5.7L27.9,30h0
		C16.3,35.6,8.3,47.5,8.3,61.2c0,19.1,15.5,34.6,34.6,34.6c4.6,0,9-0.9,13-2.5C56.1,84.9,52.5,78.8,48.4,74.7z"/>
	<path fill="#444444" d="M44.5,54.1C44.5,54.1,44.5,54.1,44.5,54.1C44.5,54.1,44.5,54.2,44.5,54.1z"/>
	<path fill="#8D6E63" d="M73.7,122c6.1,0.5,13.4-0.3,22-3.5c-0.1-0.7-0.3-1.4-0.5-2.1c0,0,0,0,0,0c-0.3-1.3-3.8-21.4-4-28.1
		C91.1,81,92,76.4,93.2,73.6h8.7l-2.5-10.1c-0.2-2.4-0.4-4.7-0.7-6.6c-0.2-1.8-0.3-2.3-0.8-3.9c0,0,0,0,0,0
		c-24,3.6-34.2-3.7-38.2-9.4c-1.4,2.5-5.7,8.8-15.3,10.5c0,0.1,0,0.1,0,0c-0.9-0.3-1.9-0.3-2.9-0.2c-3.9,0.6-6.7,4.5-6.1,8.8
		c0.3,2,1.2,3.6,2.5,4.8l0,0c0,0,0,0,0,0c0.2,0.1,1.5,0.6,3.3,1.7c0.7,0.4,1.6,0.9,2.4,1.6c1.5,1.1,3.1,2.4,4.7,4
		c4,4.1,7.6,10.2,7.4,18.5c-0.1,4.9-1.6,10.6-5.1,17.2C50.7,110.5,57.9,120.7,73.7,122z M83.5,61.6c0.9,0,1.6,0.7,1.6,1.6
		c0,0.9-0.7,1.6-1.6,1.6c-0.9,0-1.6-0.7-1.6-1.6C81.9,62.3,82.6,61.6,83.5,61.6z"/>
	<path fill="#8D6E63" d="M44.5,54.1C44.5,54.1,44.5,54.1,44.5,54.1C44.5,54,44.5,54,44.5,54.1z"/>
	<path fill="#FFCC80" d="M41.6,123.8c0,0,0,0.1-0.1,0.1c0.1-0.1,0.2-0.3,0.3-0.4C41.7,123.7,41.7,123.7,41.6,123.8z"/>
	<circle fill="#444444" cx="83.5" cy="63.1" r="1.6"/>
	<path fill="#0097A7" d="M73.7,122c-15.9-1.3-23-11.5-23-11.5c-2.1,4-5.1,8.4-8.9,13.1c-0.1,0.1-0.2,0.3-0.3,0.4
		c-0.5,0.6-1.1,1.3-1.7,2c-0.5,0.6-1,1.3-1.6,2.1h59.7c-0.7-3.2-1.5-6.4-2.1-9.5C87.1,121.7,79.8,122.5,73.7,122z"/>
</g>
</svg>
