<?xml version="1.0" encoding="utf-8"?>
<!-- Generator: Adobe Illustrator 17.1.0, SVG Export Plug-In . SVG Version: 6.00 Build 0)  -->
<!DOCTYPE svg PUBLIC "-//W3C//DTD SVG 1.1//EN" "http://www.w3.org/Graphics/SVG/1.1/DTD/svg11.dtd">
<svg version="1.1" id="Layer_1" xmlns="http://www.w3.org/2000/svg" xmlns:xlink="http://www.w3.org/1999/xlink" x="0px" y="0px"
	 viewBox="0 0 128 128" enable-background="new 0 0 128 128" xml:space="preserve">
<rect fill="#B388FF" width="128" height="128"/>
<g>
	<path fill="none" d="M92.9,32.8c-0.1,0-0.1,0.1-0.2,0.1C92.8,32.9,92.9,32.9,92.9,32.8z"/>
	<path fill="none" d="M91.7,33.3c-0.2,0-0.5,0.1-0.7,0.1C91.2,33.4,91.5,33.3,91.7,33.3z"/>
	<path fill="none" d="M92.3,33.1c-0.1,0-0.2,0.1-0.3,0.1C92.1,33.2,92.2,33.1,92.3,33.1z"/>
	<path fill="none" d="M40.3,33.4c-0.2,0-0.5,0-0.7-0.1C39.9,33.3,40.1,33.4,40.3,33.4z"/>
	<path fill="none" d="M39.4,33.2c-0.2,0-0.3-0.1-0.5-0.1C39.1,33.1,39.2,33.2,39.4,33.2z"/>
	<path fill="none" d="M38.7,33c-0.2-0.1-0.4-0.2-0.5-0.3C38.3,32.8,38.5,32.9,38.7,33z"/>
	<path fill="#1C3AA9" d="M71.4,128h11.5c-5.1-15.8-6.2-22.4-6.8-26.9C74.2,109.9,72.6,118.9,71.4,128z"/>
	<path fill="#2A56C6" d="M82.9,90.8c0,0.1,0,0.1,0,0.2L82.9,90.8C82.9,90.8,82.9,90.8,82.9,90.8z"/>
	<path fill="#FFE0B2" d="M31.2,47.2C31.2,47.2,31.2,47.2,31.2,47.2C31.3,47.2,31.2,47.2,31.2,47.2L31.2,47.2z"/>
	<path fill="#FFE0B2" d="M45.8,93c5.8,5.5,13.6,9.1,22.3,9.3c2.8-0.1,5.4-0.5,8-1.2c0.3-1.3,0.5-2.5,0.8-3.8
		c4.3-19.3,9.7-37.4,15-52.9h6.9L94,36.2c-0.2-1.2-0.4-2.5-0.7-3.6c-0.1,0.1-0.3,0.2-0.4,0.3c-0.1,0-0.1,0.1-0.2,0.1
		c-0.1,0.1-0.3,0.1-0.4,0.2c-0.1,0-0.2,0.1-0.3,0.1c-0.1,0-0.2,0.1-0.3,0.1c-0.2,0-0.5,0.1-0.7,0.1H40.3c-0.2,0-0.5,0-0.7-0.1
		c-0.1,0-0.1,0-0.2-0.1c-0.2,0-0.3-0.1-0.5-0.1c-0.1,0-0.1-0.1-0.2-0.1c-0.2-0.1-0.4-0.2-0.5-0.3c0,0-0.1,0-0.1-0.1l0,0
		C38,32.9,38,33.1,38,33.4C37,33.1,36,33,35,33.1c-4.1,0.6-6.9,4.7-6.3,9.1c0.3,2,1.2,3.8,2.6,5c0,0,0,0,0,0
		c0.3,0.1,1.6,0.7,3.4,1.7c0.8,0.4,1.6,1,2.5,1.6c1.5,1.1,3.2,2.5,4.9,4.1c0,0,16.3,12.3,3.4,38C45.6,92.8,45.7,92.9,45.8,93z
		 M79.9,41.1c0.8,0,1.5,0.7,1.5,1.6c0,0.9-0.7,1.6-1.5,1.6c-0.8,0-1.5-0.7-1.5-1.6C78.4,41.8,79,41.1,79.9,41.1z"/>
	<path fill="#2A56C6" d="M68.1,102.3c-8.7-0.2-16.5-3.8-22.3-9.3c-0.1-0.1-0.2-0.2-0.4-0.3c-3-0.2-7.6,0.2-10.8,0.6
		c-4.6,0.6-9.6,1.3-15,2.4c-3.6,0.7-8.1,1.9-19.7,5.3V128h71.4c1.3-9.1,2.9-18.1,4.7-26.9C73.5,101.8,70.9,102.2,68.1,102.3z"/>
	<path fill="#6D4C41" d="M61.8,9.8c-7.3,1.1-13.6,5.1-17.9,10.8h43.7C81.5,12.7,71.9,8.3,61.8,9.8z"/>
	<path fill="#E65100" d="M38.7,33c0.1,0,0.1,0.1,0.2,0.1c0.2,0.1,0.3,0.1,0.5,0.1c0.1,0,0.1,0,0.2,0.1c0.2,0,0.5,0.1,0.7,0.1H91
		c0.2,0,0.5,0,0.7-0.1c0.1,0,0.2-0.1,0.3-0.1c0.1,0,0.2-0.1,0.3-0.1c0.1,0,0.3-0.1,0.4-0.2c0.1,0,0.1-0.1,0.2-0.1
		c0.1-0.1,0.3-0.2,0.4-0.3c1-0.7,1.6-1.9,1.6-3.2v-4.8c0-2.2-1.8-4-4-4h-3.4H43.9h-3.5c-2.2,0-4,1.8-4,4v4.8c0,1.4,0.7,2.6,1.8,3.3
		c0,0,0.1,0,0.1,0.1C38.3,32.8,38.5,32.9,38.7,33z"/>
	<ellipse fill="#444444" cx="79.9" cy="42.7" rx="1.5" ry="1.6"/>
</g>
</svg>
