<?xml version="1.0" encoding="utf-8"?>
<!-- Generator: Adobe Illustrator 17.1.0, SVG Export Plug-In . SVG Version: 6.00 Build 0)  -->
<!DOCTYPE svg PUBLIC "-//W3C//DTD SVG 1.1//EN" "http://www.w3.org/Graphics/SVG/1.1/DTD/svg11.dtd">
<svg version="1.1" id="Layer_1" xmlns="http://www.w3.org/2000/svg" xmlns:xlink="http://www.w3.org/1999/xlink" x="0px" y="0px"
	 viewBox="0 0 128 128" enable-background="new 0 0 128 128" xml:space="preserve">
<rect fill="#84FFFF" width="128" height="128"/>
<g>
	<path fill="none" d="M100.4,53.6C100.3,53.6,100.3,53.6,100.4,53.6C100.3,53.6,100.3,53.6,100.4,53.6z"/>
	<path fill="none" d="M99.6,53.3c0,0-0.1,0-0.1,0C99.5,53.3,99.6,53.3,99.6,53.3z"/>
	<path fill="none" d="M29.1,53.6c-0.1,0-0.2,0.1-0.3,0.1C28.9,53.7,29,53.7,29.1,53.6z"/>
	<path fill="none" d="M28.2,54c-0.1,0-0.1,0.1-0.2,0.1C28,54.1,28.1,54.1,28.2,54z"/>
	<path fill="none" d="M29.9,53.3c-0.1,0-0.2,0.1-0.3,0.1C29.8,53.4,29.9,53.3,29.9,53.3z"/>
	<path fill="#8D6E63" d="M44,103.5l22.2,18.4l21-17c-9.3-10.4-5.8-18.3-2.1-22.7c1.3-1.2,2.8-2.5,4.4-3.9c0,0,0,0,0,0l13.1-11
		c1.5-1.2,2.6-3,2.9-5.1c0.4-3.2-1.1-6.3-3.7-7.9c-0.5-0.3-0.9-0.5-1.5-0.7c0,0,0,0-0.1,0c-0.2-0.1-0.5-0.2-0.7-0.2c0,0-0.1,0-0.1,0
		c-0.3-0.1-0.6-0.1-0.8-0.2c-1.4-0.2-2.8,0-4,0.5c-0.8-14-13.9-11-29.9-11c-14.6,0-26.8-2.5-29.4,7.8c0,0,0,0,0,0
		c-0.2,0.9-0.5,2-0.8,3.1c-1.2-0.4-2.4-0.6-3.8-0.4c-0.3,0-0.6,0.1-0.9,0.2c-0.1,0-0.2,0.1-0.3,0.1c-0.2,0.1-0.4,0.1-0.6,0.2
		c-0.1,0-0.2,0.1-0.3,0.1c-0.2,0.1-0.4,0.2-0.6,0.3c-0.1,0-0.1,0.1-0.2,0.1c-0.3,0.2-0.5,0.3-0.8,0.5l0,0c-2.3,1.7-3.6,4.5-3.2,7.6
		c0.3,2.1,1.3,3.8,2.8,5.1l11,9.3C43.1,82,50.3,92.3,44,103.5L44,103.5z M79.5,61.1c0.9,0,1.6,0.7,1.6,1.6c0,0.9-0.7,1.6-1.6,1.6
		c-0.9,0-1.6-0.7-1.6-1.6C77.9,61.8,78.6,61.1,79.5,61.1z M53.8,61.1c0.9,0,1.6,0.7,1.6,1.6c0,0.9-0.7,1.6-1.6,1.6
		c-0.9,0-1.6-0.7-1.6-1.6C52.1,61.8,52.9,61.1,53.8,61.1z"/>
	<path fill="#8D6E63" d="M39.3,109.5c-0.1,0.1-0.1,0.2-0.1,0.2l0.5-0.6C39.6,109.2,39.5,109.4,39.3,109.5z"/>
	<polygon fill="#FFEB3B" points="62.8,128 69.6,128 66.2,123 	"/>
	<path fill="#FFEB3B" d="M39.2,109.7c-0.1,0.2-0.2,0.4-0.2,0.5c-3.1,0.9-6,2.7-8.4,5.4l-0.2,0.2c0,0-0.5,0.6-1.5,1.7
		c-0.9,1.1-2.2,2.6-3.7,4.5c-1.3,1.6-2.8,3.6-4.4,5.8h8.6h20L39.2,109.7z"/>
	<path fill="#FFEB3B" d="M111.5,126.3c-1.3-2.2-2.3-3.9-3.1-5.1c-0.9-1.3-1.3-2-1.3-2l-0.2-0.3c-0.6-0.9-1.2-1.7-1.9-2.4
		c-3.1-3.4-7-5.2-10.9-5.7l-0.3,0.4L83.6,128h14h14.9C112.2,127.4,111.8,126.8,111.5,126.3z"/>
	<path fill="#444444" d="M28,54.1c0.1,0,0.1-0.1,0.2-0.1c0.2-0.1,0.4-0.2,0.6-0.3c0.1,0,0.2-0.1,0.3-0.1c0.2-0.1,0.4-0.2,0.6-0.2
		c0.1,0,0.2-0.1,0.3-0.1c0.3-0.1,0.6-0.1,0.9-0.2c1.3-0.2,2.6,0,3.8,0.4c0.3-1.1,0.5-2.2,0.8-3.1c0,0,0,0,0,0
		c2.6-10.3,14.8-7.8,29.4-7.8c16,0,29-3,29.9,11c1.2-0.5,2.6-0.7,4-0.5c0.3,0,0.6,0.1,0.8,0.2c0,0,0.1,0,0.1,0
		c0.2,0.1,0.5,0.1,0.7,0.2c0,0,0,0,0.1,0c0.5,0.2,1,0.4,1.5,0.7l0,0c0.8-3.1,1.2-6.4,1.2-9.8c0-21.3-17.3-38.6-38.6-38.6
		c-21.3,0-38.6,17.3-38.6,38.6c0,3.5,0.5,6.9,1.3,10.1l0,0C27.4,54.5,27.7,54.3,28,54.1z"/>
	<circle fill="#444444" cx="79.5" cy="62.7" r="1.6"/>
	<circle fill="#444444" cx="53.8" cy="62.7" r="1.6"/>
	<polygon fill="#F57F17" points="65.7,122.3 66.2,121.9 44,103.5 44,103.5 39.7,109.1 39.2,109.7 49.4,128 62.8,128 66.2,123 	"/>
	<polygon fill="#F57F17" points="65.7,122.3 66.2,123 69.6,128 83.6,128 93.7,111.2 94,110.8 94,110.8 87.6,104.6 87.2,104.9 
		66.2,121.9 	"/>
</g>
</svg>
