<?xml version="1.0" encoding="utf-8"?>
<!-- Generator: Adobe Illustrator 17.1.0, SVG Export Plug-In . SVG Version: 6.00 Build 0)  -->
<!DOCTYPE svg PUBLIC "-//W3C//DTD SVG 1.1//EN" "http://www.w3.org/Graphics/SVG/1.1/DTD/svg11.dtd">
<svg version="1.1" id="Layer_1" xmlns="http://www.w3.org/2000/svg" xmlns:xlink="http://www.w3.org/1999/xlink" x="0px" y="0px"
	 viewBox="0 0 128 128" enable-background="new 0 0 128 128" xml:space="preserve">
<rect fill="#8C9EFF" width="128" height="128"/>
<g>
	<path fill="#CFD8DC" d="M21.9,64.2c0-0.1-0.1-0.2-0.1-0.3c0-0.1,0-0.2-0.1-0.4c0-0.1,0-0.2,0-0.4c0-0.1,0-0.3,0-0.3
		c0-0.1,0-0.2,0-0.3c0-0.1,0.1-0.2,0.1-0.3c0.1-0.1,0.1-0.2,0.1-0.3c0.1-0.1,0.1-0.2,0.1-0.2c0.2-0.4,0.1-0.8-0.2-1.1
		c-0.4-0.4-1-0.4-1.3,0c0,0-0.1,0.1-0.2,0.2c-0.1,0.1-0.1,0.1-0.2,0.2c-0.1,0.1-0.2,0.2-0.3,0.4c-0.1,0.2-0.2,0.4-0.3,0.6
		c-0.1,0.2-0.2,0.4-0.3,0.6c-0.1,0.2-0.2,0.4-0.2,0.7c0,0.2-0.1,0.5-0.1,0.8c0,0.2,0,0.4,0,0.5h3C22.1,64.4,22,64.3,21.9,64.2z"/>
	<path fill="#C2C2C2" d="M34,79.7c-4.6-2.6-6.8-6.9-7.8-10.9l0,0l0,0c-0.3-1.2-0.5-2.3-0.6-3.4l-0.2-0.9h-3.3h-3h-0.6
		c0,0,0,17,17.4,17.3C35,81,34.3,80.3,34,79.7z"/>
	<path fill="#EEEEEE" d="M116.5,65.2c0.1,0.1,0.2,0.1,0.2,0.2C116.7,65.3,116.6,65.2,116.5,65.2z"/>
	<path fill="#EEEEEE" d="M124.7,71.3c0.2,0.1,0.4,0.2,0.6,0.3C125,71.5,124.9,71.4,124.7,71.3z"/>
	<path fill="#EEEEEE" d="M126.4,72.3c0.2,0.1,0.4,0.2,0.6,0.3C126.8,72.6,126.6,72.5,126.4,72.3z"/>
	<path fill="#EEEEEE" d="M123,70.2c0.2,0.1,0.3,0.2,0.5,0.3C123.3,70.5,123.1,70.3,123,70.2z"/>
	<path fill="#EEEEEE" d="M115,63.7C115,63.7,115,63.7,115,63.7C115,63.7,115,63.7,115,63.7z"/>
	<path fill="#EEEEEE" d="M114.9,127.8c-17.3-16.4-8.9-53.7-4.4-69.3l0,0c-3.5-4.6-6.5-10.2-8.9-17.1c-1.7-5-4-8.8-6.4-11.8
		L82.9,41.4c-1.5,2.1-3.3,1.8-4.1-0.6l-8.1-19.3c-0.3-0.9-0.3-1.9,0-2.7l0,0c0.3-1.1,0.9-2.1,1.7-3c-0.7,0-1.3-0.1-2-0.1
		c-1.3,0-2.5,0.1-3.7,0.3c-1.7-0.3-3.4-0.5-5.1-0.5c-11.9,0-21.9,8.1-24.8,19.2l0,0l0,0c-0.5,1.8-0.7,3.7-0.8,5.6
		c-1.2,3.6-4.2,7.7-11.5,8.4c1.3,0.4,2.2,1.9,2,3.6L26,55.1c-0.3,2-1.2,2.4-2.2,0.9l1.6,8.6l0.2,0.9c0.1,1.1,0.3,2.2,0.6,3.4l0,0
		l0,0c1,4,3.2,8.2,7.8,10.9c0.3,0.6,1,1.3,2,2.1c8.2,6.7,36,20.7,27.8,46.1c0,0,0,0,0,0h51.3C115.1,127.9,115,127.9,114.9,127.8z
		 M34.5,59.3c0.5,0,1,0.4,1,1c0,0.5-0.4,1-1,1c-0.5,0-1-0.4-1-1C33.5,59.7,33.9,59.3,34.5,59.3z M41.9,63.2c0.5,0,1,0.4,1,1
		c0,0.5-0.4,1-1,1c-0.5,0-1-0.4-1-1C40.9,63.7,41.4,63.2,41.9,63.2z M40.9,54.7c-0.5,0-1-0.4-1-1c0-0.5,0.4-1,1-1c0.5,0,1,0.4,1,1
		C41.9,54.3,41.4,54.7,40.9,54.7z M44.8,43.8c-0.9,0-1.6-0.7-1.6-1.6c0-0.9,0.7-1.6,1.6-1.6c0.9,0,1.6,0.7,1.6,1.6
		C46.4,43.1,45.7,43.8,44.8,43.8z"/>
	<path fill="#EEEEEE" d="M118.1,66.5c0.1,0.1,0.2,0.2,0.4,0.3C118.3,66.7,118.2,66.6,118.1,66.5z"/>
	<path fill="#EEEEEE" d="M121.3,69.1c0.2,0.1,0.3,0.2,0.5,0.3C121.6,69.3,121.5,69.2,121.3,69.1z"/>
	<path fill="#EEEEEE" d="M119.7,67.8c0.1,0.1,0.3,0.2,0.4,0.3C120,68.1,119.8,68,119.7,67.8z"/>
	<path fill="#C2C2C2" d="M114.9,127.8c0.1,0.1,0.1,0.1,0.2,0.2H128V73.2c-0.3-0.2-0.7-0.4-1-0.6c-0.2-0.1-0.4-0.2-0.6-0.3
		c-0.4-0.2-0.8-0.5-1.2-0.7c-0.2-0.1-0.4-0.2-0.6-0.3c-0.4-0.2-0.8-0.5-1.2-0.7c-0.2-0.1-0.3-0.2-0.5-0.3c-0.4-0.3-0.8-0.5-1.2-0.8
		c-0.2-0.1-0.3-0.2-0.5-0.3c-0.4-0.3-0.8-0.6-1.2-0.9c-0.1-0.1-0.3-0.2-0.4-0.3c-0.4-0.3-0.8-0.7-1.2-1c-0.1-0.1-0.2-0.2-0.4-0.3
		c-0.4-0.4-0.9-0.8-1.3-1.2c-0.1-0.1-0.2-0.1-0.2-0.2c-0.5-0.5-1-1-1.5-1.5c0,0,0,0,0,0c-1.5-1.6-3-3.3-4.4-5.1l0,0
		C106,74.1,97.6,111.4,114.9,127.8z"/>
	<path fill="#646464" d="M26,55.1l0.4-2.8c0.2-1.8-0.6-3.2-2-3.6c-0.3-0.1-0.7-0.2-1.1-0.1c-2,0.1-2.7,1.9-1.6,3.8l1.8,3.3
		c0.1,0.2,0.2,0.3,0.3,0.4C24.8,57.4,25.7,57.1,26,55.1z"/>
	<circle fill="#444444" cx="44.8" cy="42.2" r="1.6"/>
	<circle fill="#CFD8DC" cx="34.5" cy="60.3" r="1"/>
	<circle fill="#CFD8DC" cx="40.9" cy="53.7" r="1"/>
	<circle fill="#CFD8DC" cx="41.9" cy="64.2" r="1"/>
	<path fill="#646464" d="M70.7,18.8c-0.3,0.8-0.3,1.8,0,2.7l8.1,19.3c0.8,2.5,2.6,2.7,4.1,0.6l12.3-11.8l1.4-1.3
		c0.3-0.4,0.5-0.9,0.6-1.3l0,0c0,0,0,0,0,0c0.4-1.2,0.3-2.4-0.1-3.6c-1.1-4.3-5.6-8.9-11.2-10.3c-5.6-1.4-10.9-0.2-13.6,2.7
		C71.5,16.6,71,17.6,70.7,18.8L70.7,18.8z"/>
</g>
</svg>
