<?xml version="1.0" encoding="utf-8"?>
<!-- Generator: Adobe Illustrator 17.1.0, SVG Export Plug-In . SVG Version: 6.00 Build 0)  -->
<!DOCTYPE svg PUBLIC "-//W3C//DTD SVG 1.1//EN" "http://www.w3.org/Graphics/SVG/1.1/DTD/svg11.dtd">
<svg version="1.1" id="Layer_1" xmlns="http://www.w3.org/2000/svg" xmlns:xlink="http://www.w3.org/1999/xlink" x="0px" y="0px"
	 viewBox="0 0 128 128" enable-background="new 0 0 128 128" xml:space="preserve">
<rect fill="#FFFF8D" width="128" height="128"/>
<g>
	<path fill="#F4B400" d="M110.3,91.4c-0.2-0.2-0.3-0.3-0.5-0.5C109.9,91.1,110.1,91.3,110.3,91.4z"/>
	<path fill="#F4B400" d="M105.9,86.9c0.1,0.2,0.3,0.3,0.4,0.5C106.2,87.2,106,87,105.9,86.9z"/>
	<path fill="#F4B400" d="M115.7,96.4c0.2,0.2,0.4,0.4,0.7,0.6C116.1,96.8,115.9,96.6,115.7,96.4z"/>
	<path fill="#F4B400" d="M104.3,85c0.2,0.2,0.3,0.4,0.5,0.5C104.6,85.4,104.4,85.2,104.3,85z"/>
	<path fill="#F4B400" d="M108,89.1C108,89.1,108,89.1,108,89.1C108,89.1,108,89.1,108,89.1z"/>
	<path fill="#F4B400" d="M124.9,103.1c0.3,0.2,0.6,0.4,0.9,0.6C125.5,103.4,125.2,103.3,124.9,103.1z"/>
	<path fill="#F4B400" d="M96.4,74.1c0,0.1,0.1,0.1,0.1,0.2C96.4,74.3,96.4,74.2,96.4,74.1z"/>
	<path fill="#F4B400" d="M111.6,92.7c0.2,0.2,0.4,0.4,0.7,0.6C112.1,93.1,111.8,92.9,111.6,92.7z"/>
	<path fill="#F4B400" d="M121.6,100.9c0.3,0.2,0.6,0.4,0.9,0.6C122.2,101.3,121.9,101.1,121.6,100.9z"/>
	<path fill="#F4B400" d="M102.8,83.2c0.1,0.2,0.3,0.3,0.4,0.5C103.1,83.6,102.9,83.4,102.8,83.2z"/>
	<path fill="#F4B400" d="M101.4,81.5c0.1,0.1,0.1,0.2,0.2,0.2C101.5,81.7,101.5,81.6,101.4,81.5z"/>
	<path fill="#F4B400" d="M128,110.5c-11.9,6.6-27.2,3.5-35.5-7.8c-7.6-10.4-6.9-24.3,1-33.8c-3.1-6-4.8-11.4-5.7-15.9
		c-0.2-0.9-0.3-1.7-0.4-2.6l0,0l-2.2-37.5L77,23.2c-3.7-2.6-8.2-4.2-13.1-4.2c-4.9,0-9.4,1.5-13.1,4.1l-8.1-10.1L40.9,42l-7.7,71.8
		l0.2,0c-0.1,1-0.2,2-0.2,3c0,4,0.8,7.7,2.1,11.2H128V110.5z M55,38.4c-0.9,0-1.6-0.7-1.6-1.6c0-0.9,0.7-1.6,1.6-1.6
		c0.9,0,1.6,0.7,1.6,1.6C56.6,37.6,55.9,38.4,55,38.4z M72.9,38.4c-0.9,0-1.6-0.7-1.6-1.6c0-0.9,0.7-1.6,1.6-1.6
		c0.9,0,1.6,0.7,1.6,1.6C74.5,37.6,73.8,38.4,72.9,38.4z"/>
	<path fill="#F4B400" d="M113.6,94.5c0.2,0.2,0.5,0.4,0.7,0.6C114.1,95,113.8,94.7,113.6,94.5z"/>
	<path fill="#F4B400" d="M98.6,77.7c0.1,0.1,0.1,0.2,0.2,0.2C98.7,77.8,98.7,77.8,98.6,77.7z"/>
	<path fill="#F4B400" d="M97.4,75.9c0.1,0.1,0.1,0.2,0.2,0.3C97.6,76.1,97.5,76,97.4,75.9z"/>
	<path fill="#FF5722" d="M92.5,102.7c8.3,11.3,23.6,14.4,35.5,7.8v-5.6c-0.7-0.4-1.5-0.9-2.2-1.3c-0.3-0.2-0.6-0.4-0.9-0.6
		c-0.8-0.5-1.6-1-2.4-1.5c-0.3-0.2-0.6-0.4-0.9-0.6c-1-0.7-2.1-1.4-3.1-2.2c-0.7-0.6-1.5-1.2-2.2-1.8c-0.2-0.2-0.4-0.4-0.7-0.6
		c-0.5-0.4-1-0.8-1.4-1.2c-0.2-0.2-0.5-0.4-0.7-0.6c-0.4-0.4-0.9-0.8-1.3-1.2c-0.2-0.2-0.5-0.4-0.7-0.6c-0.5-0.4-0.9-0.9-1.3-1.3
		c-0.2-0.2-0.3-0.3-0.5-0.5c-0.6-0.6-1.2-1.2-1.8-1.8c0,0,0,0,0,0c-0.6-0.6-1.1-1.2-1.6-1.8c-0.1-0.2-0.3-0.3-0.4-0.5
		c-0.4-0.4-0.8-0.9-1.2-1.3c-0.2-0.2-0.3-0.4-0.5-0.5c-0.4-0.4-0.7-0.9-1.1-1.3c-0.1-0.2-0.3-0.3-0.4-0.5c-0.4-0.5-0.8-1-1.2-1.5
		c-0.1-0.1-0.1-0.2-0.2-0.2c-0.9-1.2-1.8-2.4-2.6-3.6c-0.1-0.1-0.1-0.2-0.2-0.2c-0.3-0.5-0.7-1-1-1.5c-0.1-0.1-0.1-0.2-0.2-0.3
		c-0.3-0.5-0.6-1-1-1.5c0-0.1-0.1-0.1-0.1-0.2c-1.1-1.8-2-3.5-2.9-5.2l0,0C85.6,78.4,84.9,92.4,92.5,102.7z"/>
	<circle fill="#444444" cx="72.9" cy="36.7" r="1.6"/>
	<circle fill="#444444" cx="55" cy="36.7" r="1.6"/>
	<path fill="#444444" d="M61.6,39.5c-0.5,1-0.1,1.7,1,1.7h4.6c1.1,0,1.6-0.8,1-1.7l-2.3-4c-0.5-1-1.4-1-2,0L61.6,39.5z"/>
</g>
</svg>
