<?xml version="1.0" encoding="utf-8"?>
<!-- Generator: Adobe Illustrator 17.1.0, SVG Export Plug-In . SVG Version: 6.00 Build 0)  -->
<!DOCTYPE svg PUBLIC "-//W3C//DTD SVG 1.1//EN" "http://www.w3.org/Graphics/SVG/1.1/DTD/svg11.dtd">
<svg version="1.1" id="Layer_1" xmlns="http://www.w3.org/2000/svg" xmlns:xlink="http://www.w3.org/1999/xlink" x="0px" y="0px"
	 viewBox="0 0 128 128" enable-background="new 0 0 128 128" xml:space="preserve">
<rect fill="#FF80AB" width="128" height="128"/>
<g>
	<path fill="none" d="M55.5,112.8c-0.9,0-2-0.1-3.1-0.2C53.5,112.7,54.5,112.8,55.5,112.8z"/>
	<path fill="none" d="M70.9,34.6c-0.4-0.6-0.8-1.2-1-1.6C70.1,33.5,70.4,34,70.9,34.6C70.9,34.7,70.9,34.6,70.9,34.6z"/>
	<path fill="#5D4037" d="M85.6,43.9C85.6,43.9,85.6,43.9,85.6,43.9C85.6,44,85.6,43.9,85.6,43.9z"/>
	<path fill="#5D4037" d="M87.3,11.7c-7.6,0-14.1,4.9-16.4,11.7c-2.8-1.6-5.9-2.7-9.1-3.1c-13.9-2.1-26.9,7.1-31.1,21.1
		c5,0.8,9.5,1.1,13.4,1.1c1.4-0.6,3-0.9,4.6-0.9c1.1,0,2.2,0.2,3.3,0.5c10-1.3,15.2-5.2,17.9-9c0.3,0.5,0.6,1,1,1.6c0,0,0,0.1,0,0.1
		c2.1,3.1,6.6,7.7,14.7,9.2c0-0.1,0-0.1,0,0c0.9-0.3,1.9-0.4,3-0.2c1.5,0.2,2.8,0.9,3.8,1.9c7-2.2,12.2-8.8,12.2-16.5
		C104.6,19.5,96.8,11.7,87.3,11.7z"/>
	<path fill="#FFCC80" d="M48.6,63.8c5.6,0,10.1-4.5,10.1-10.1c0-5.6-4.5-10.1-10.1-10.1c-5.6,0-10.1,4.5-10.1,10.1
		C38.6,59.2,43.1,63.8,48.6,63.8z M46.9,53.3c0,0.9-0.7,1.6-1.6,1.6c-0.9,0-1.6-0.7-1.6-1.6c0-0.9,0.7-1.6,1.6-1.6
		C46.2,51.6,46.9,52.4,46.9,53.3z"/>
	<path fill="#FFCC80" d="M36.6,52.7c0.4-4.6,3.3-8.5,7.4-10.2c-3.9,0-8.3-0.4-13.4-1.1c-0.5,1.7-0.9,3.5-1.2,5.3
		c-0.3,2-0.5,4.4-0.7,6.8l0.1-0.9H36.6z"/>
	<path fill="#FFCC80" d="M85.6,43.9C85.6,43.9,85.6,43.9,85.6,43.9C85.6,43.8,85.6,43.8,85.6,43.9z"/>
	<path fill="#FFCC80" d="M85.6,43.9C85.6,43.9,85.6,44,85.6,43.9c-8.1-1.5-12.6-6.1-14.7-9.2c-0.5-0.7-0.8-1.2-1.1-1.7
		c-2.7,3.8-7.9,7.7-17.9,9c5.1,1.4,8.8,6.1,8.8,11.6c0,6.7-5.4,12.1-12.1,12.1c-6.3,0-11.5-4.9-12-11.1l-8.1,0l0.3-1.1L26.2,64h9
		c1.2,3,2.1,7.7,1.9,15.3c-0.2,6.9-3.9,27.7-4.2,29c0,0,0,0,0,0c-0.1,0.7-0.3,1.4-0.5,2.1c2.6,0.9,5.1,1.7,7.4,2.2l0,0
		c0.9,0.2,1.7,0.4,2.6,0.6c4.8,0.9,9,1.1,12.8,0.8c16.4-1.3,23.8-11.9,23.8-11.9c-9.8-18.4-4.3-30.2,2.4-37c1.6-1.7,3.3-3,4.9-4.1
		c0.9-0.6,1.7-1.2,2.5-1.6c1.8-1.1,3.2-1.6,3.4-1.7c0,0,0,0,0,0l0,0c1.3-1.2,2.3-3,2.6-5c0.4-2.8-0.7-5.4-2.5-7.2
		c-1-1-2.4-1.7-3.8-1.9C87.5,43.5,86.5,43.6,85.6,43.9z M52.4,112.6c1.1,0.1,2.1,0.2,3.1,0.2C54.5,112.8,53.5,112.7,52.4,112.6z"/>
	<path fill="#FFCC80" d="M88.6,116c-0.1-0.1-0.2-0.2-0.3-0.3c0.1,0.1,0.2,0.3,0.3,0.4C88.7,116.1,88.6,116.1,88.6,116z"/>
	<circle fill="#444444" cx="45.3" cy="53.3" r="1.6"/>
	<path fill="#FFEE58" d="M55.3,114.1c-3.8,0.3-8,0.1-12.8-0.8h0c1.3,0.8,2.2,2.2,2.2,3.8c0,2.4-2,4.4-4.4,4.4c-2.4,0-4.4-2-4.4-4.4
		c0-2.3,1.8-4.2,4-4.4c-2.4-0.6-4.8-1.3-7.4-2.2c-1.2,5.7-2.6,11.6-4.1,17.5h69c-1.4-2-2.6-3.8-3.7-5.3c-1.1-1.5-2.1-2.8-2.8-3.8
		c0.2,0.3,0.4,0.6,0.7,0.9c-0.8,1-2.1,1.7-3.5,1.7c-2.4,0-4.4-2-4.4-4.4c0-1.8,1-3.3,2.5-4c0,0,0,0,0,0c-3-3.9-5.3-7.5-7.2-11
		C79.2,102.2,71.7,112.7,55.3,114.1z M64.3,121.5c-2.4,0-4.4-2-4.4-4.4c0-2.4,2-4.4,4.4-4.4c2.4,0,4.4,2,4.4,4.4
		C68.7,119.5,66.7,121.5,64.3,121.5z"/>
	<path fill="#FFEE58" d="M87.2,114.3c0.4,0.5,0.7,0.9,1.1,1.4C88,115.3,87.6,114.8,87.2,114.3z"/>
	<path fill="#F9A825" d="M36,117.1c0,2.4,2,4.4,4.4,4.4c2.4,0,4.4-2,4.4-4.4c0-1.6-0.9-3.1-2.2-3.8h0c-0.8-0.2-1.7-0.3-2.6-0.6l0,0
		C37.8,113,36,114.8,36,117.1z"/>
	<circle fill="#F9A825" cx="64.3" cy="117.1" r="4.4"/>
	<path fill="#F9A825" d="M83.8,117.1c0,2.4,2,4.4,4.4,4.4c1.4,0,2.7-0.7,3.5-1.7c-0.2-0.3-0.5-0.6-0.7-0.9c-0.2-0.3-0.4-0.5-0.6-0.8
		c-0.6-0.7-1.2-1.4-1.7-2c-0.1-0.1-0.2-0.3-0.3-0.4c-0.4-0.5-0.8-0.9-1.1-1.4c-0.3-0.4-0.6-0.8-0.9-1.2c0,0,0,0,0,0
		C84.8,113.9,83.8,115.4,83.8,117.1z"/>
	<path fill="#DB4437" d="M36.6,54.7c0.5,6.2,5.7,11.1,12,11.1c6.7,0,12.1-5.4,12.1-12.1c0-5.5-3.7-10.2-8.8-11.6
		c-1-0.3-2.1-0.5-3.3-0.5c-1.6,0-3.2,0.3-4.6,0.9c-4.1,1.7-7.1,5.6-7.4,10.2h-7.7l-0.1,0.9l-0.3,1.1L36.6,54.7z M48.6,43.6
		c5.6,0,10.1,4.5,10.1,10.1c0,5.6-4.5,10.1-10.1,10.1c-5.6,0-10.1-4.5-10.1-10.1C38.6,48.1,43.1,43.6,48.6,43.6z"/>
</g>
</svg>
