<?xml version="1.0" encoding="utf-8"?>
<!-- Generator: Adobe Illustrator 17.1.0, SVG Export Plug-In . SVG Version: 6.00 Build 0)  -->
<!DOCTYPE svg PUBLIC "-//W3C//DTD SVG 1.1//EN" "http://www.w3.org/Graphics/SVG/1.1/DTD/svg11.dtd">
<svg version="1.1" id="Layer_1" xmlns="http://www.w3.org/2000/svg" xmlns:xlink="http://www.w3.org/1999/xlink" x="0px" y="0px"
	 viewBox="0 0 128 128" enable-background="new 0 0 128 128" xml:space="preserve">
<rect fill="#80D8FF" width="128" height="128"/>
<g>
	<path fill="#5D4037" d="M29.3,123.1c4.1-6.9,7.8-12.4,10.5-16.2c1.4-1.9,2.5-3.4,3.3-4.4c0.6-0.7,1.1-1.3,1.7-2c0,0,0-0.1,0.1-0.1
		c0.1-0.1,0.2-0.2,0.3-0.3C49,95.4,51.9,91,54.1,87c9.5-17.8,4.1-29.3-2.3-35.9c-1.6-1.6-3.2-2.9-4.7-4c-0.9-0.6-1.7-1.1-2.4-1.6
		c-1.8-1-3.1-1.6-3.3-1.7c0,0,0,0,0,0l0,0c-1.3-1.2-2.2-2.9-2.5-4.9c-0.5-4.3,2.2-8.2,6.1-8.8c1-0.1,2-0.1,2.9,0.2c0-0.1,0-0.1,0,0
		c9.6-1.8,13.9-8,15.3-10.6c4,5.7,13.9,11.8,38,8.1C97.1,14.3,84.5,5.4,71,7.4c-4.4,0.7-8.3,2.4-11.8,4.9l0,0l-0.1,0.1
		c-1.1,0.8-2.1,1.6-3,2.6l-35,30C12.9,49.8,7.3,58.8,7.3,69.1c0,2.7,0.4,5.3,1.1,7.8c0.3,4.9-0.1,11.7-2.9,18.6
		C5.3,96,5,96.5,4.8,97.1c0,0,0,0,0,0l0,0c-1.2,3.2-1.9,6.6-1.9,10.2c0,8.2,3.5,15.6,9.1,20.7h14.5
		C27.5,126.3,28.4,124.6,29.3,123.1z"/>
	<path fill="#5D4037" d="M47.8,30.3C47.8,30.3,47.8,30.3,47.8,30.3C47.8,30.4,47.8,30.4,47.8,30.3z"/>
	<path fill="#FFCC80" d="M63.1,19.8c-1.4,2.6-5.7,8.8-15.3,10.6c0,0.1,0,0.1,0,0c-0.9-0.3-1.9-0.3-2.9-0.2c-3.9,0.6-6.7,4.5-6.1,8.8
		c0.3,2,1.2,3.7,2.5,4.9l0,0c0,0,0,0,0,0c0.2,0.1,1.5,0.6,3.3,1.7c0.7,0.4,1.6,1,2.4,1.6c1.5,1.1,3.1,2.4,4.7,4
		c6.4,6.6,11.8,18.1,2.3,35.9c0,0,7.2,10.3,23.1,11.6c6.1,0.5,13.4-0.3,22.1-3.5c-0.1-0.7-0.3-1.4-0.5-2.1c0,0,0,0,0,0
		c-0.3-1.3-3.9-21.5-4.1-28.2c-0.2-7.4,0.7-11.9,1.9-14.8h8.8L103,39.7c-0.2-2.4-0.4-4.7-0.7-6.7c-0.2-1.8-0.6-3.5-1.1-5.2
		C77,31.5,67.2,25.5,63.1,19.8z M85.4,39.4c0-0.9,0.7-1.6,1.6-1.6c0.9,0,1.6,0.7,1.6,1.6c0,0.9-0.7,1.6-1.6,1.6
		C86.1,41,85.4,40.3,85.4,39.4z"/>
	<path fill="#FFCC80" d="M47.8,30.3C47.8,30.3,47.8,30.3,47.8,30.3C47.8,30.2,47.8,30.3,47.8,30.3z"/>
	<path fill="#FFCC80" d="M44.9,100.4c0,0,0,0.1-0.1,0.1c0.1-0.1,0.2-0.3,0.3-0.4C45,100.2,45,100.3,44.9,100.4z"/>
	<circle fill="#444444" cx="86.9" cy="39.4" r="1.6"/>
	<path fill="#00BFA5" d="M77.2,98.5C61.3,97.2,54.1,87,54.1,87c-2.2,4-5.1,8.4-8.9,13.1c-0.1,0.1-0.2,0.3-0.3,0.4
		c-0.5,0.7-1.1,1.3-1.7,2c-0.8,1-2,2.5-3.3,4.4c-2.8,3.8-6.5,9.2-10.5,16.2c-0.9,1.6-1.8,3.2-2.8,4.9h80.8c-0.1-0.3-0.2-0.7-0.3-1
		c-2.6-10.3-5.4-21.4-7.7-31.9C90.6,98.2,83.3,99,77.2,98.5z"/>
</g>
</svg>
