<?xml version="1.0" encoding="utf-8"?>
<!-- Generator: Adobe Illustrator 17.1.0, SVG Export Plug-In . SVG Version: 6.00 Build 0)  -->
<!DOCTYPE svg PUBLIC "-//W3C//DTD SVG 1.1//EN" "http://www.w3.org/Graphics/SVG/1.1/DTD/svg11.dtd">
<svg version="1.1" id="Layer_1" xmlns="http://www.w3.org/2000/svg" xmlns:xlink="http://www.w3.org/1999/xlink" x="0px" y="0px"
	 viewBox="0 0 128 128" enable-background="new 0 0 128 128" xml:space="preserve">
<rect fill="#B388FF" width="128" height="128"/>
<g>
	<path fill="none" d="M64.1,32.5c-0.1,0.1-0.2,0.2-0.3,0.2C63.9,32.6,64,32.5,64.1,32.5z"/>
	<path fill="none" d="M65,31.8c-0.1,0.1-0.2,0.1-0.2,0.2C64.9,31.9,65,31.8,65,31.8z"/>
	<path fill="none" d="M63.1,33.1c-0.1,0.1-0.2,0.2-0.4,0.2C62.9,33.3,63,33.2,63.1,33.1z"/>
	<path fill="none" d="M57.7,35.7c-0.2,0.1-0.3,0.1-0.5,0.2C57.4,35.8,57.6,35.7,57.7,35.7z"/>
	<path fill="none" d="M60.5,34.6c-0.1,0-0.1,0.1-0.2,0.1C60.3,34.6,60.4,34.6,60.5,34.6z"/>
	<path fill="none" d="M59.2,35.1c-0.1,0.1-0.3,0.1-0.4,0.2C58.9,35.3,59,35.2,59.2,35.1z"/>
	<path fill="none" d="M68,28.8c-0.1,0.1-0.1,0.2-0.2,0.3C67.9,29,68,28.9,68,28.8z"/>
	<path fill="none" d="M66.1,30.9C66,31,65.9,31,65.8,31.1C65.9,31,66,31,66.1,30.9z"/>
	<path fill="none" d="M67.5,29.4c-0.1,0.1-0.2,0.2-0.3,0.3C67.3,29.6,67.4,29.5,67.5,29.4z"/>
	<path fill="none" d="M66.8,30.1c-0.1,0.1-0.2,0.2-0.3,0.3C66.7,30.3,66.8,30.2,66.8,30.1z"/>
	<path fill="none" d="M62,33.8c-0.1,0.1-0.2,0.1-0.3,0.2C61.8,33.9,61.9,33.9,62,33.8z"/>
	<path fill="none" d="M66,82.8c-0.1,0.5-0.2,1.1-0.3,1.6C65.8,83.9,65.9,83.3,66,82.8z"/>
	<path fill="none" d="M56.2,36.1c-0.2,0-0.3,0.1-0.5,0.1C55.8,36.2,56,36.2,56.2,36.1z"/>
	<path fill="none" d="M65.6,84.6c-0.1,0.5-0.2,1.1-0.4,1.6C65.4,85.7,65.5,85.2,65.6,84.6z"/>
	<path fill="none" d="M66.2,81c-0.1,0.5-0.1,1.1-0.2,1.6C66.1,82.1,66.1,81.6,66.2,81z"/>
	<path fill="none" d="M59.6,60.2c0.1,0.1,0.2,0.3,0.4,0.4C59.8,60.4,59.7,60.3,59.6,60.2z"/>
	<path fill="none" d="M69.1,27.3c-0.2,0.3-0.4,0.6-0.6,0.9c0,0,0,0,0,0c0.5-0.7,0.9-1.3,1.2-1.8c-0.1,0.2-0.3,0.5-0.5,0.7
		C69.2,27.2,69.2,27.3,69.1,27.3z"/>
	<path fill="none" d="M66.2,81c1-10.6-3.4-17.3-6.2-20.4C62.7,63.7,67.2,70.4,66.2,81z"/>
	<path fill="none" d="M65.2,86.5c-0.1,0.6-0.3,1.1-0.5,1.7C64.9,87.6,65.1,87,65.2,86.5z"/>
	<path fill="none" d="M58.6,59.1c0.1,0.1,0.1,0.1,0.2,0.2C58.7,59.3,58.6,59.2,58.6,59.1z"/>
	<path fill="none" d="M58.3,58.9c0,0,0.1,0.1,0.2,0.1C58.4,59,58.4,59,58.3,58.9z"/>
	<path fill="none" d="M58.1,58.8c0,0,0.1,0.1,0.1,0.1C58.2,58.8,58.2,58.8,58.1,58.8z"/>
	<path fill="none" d="M58,58.7C58,58.7,58,58.7,58,58.7C58,58.7,58,58.7,58,58.7z"/>
	<path fill="none" d="M61.7,96.9c-0.1-0.1-0.2-0.2-0.4-0.3l0.1,0.1L61.7,96.9z"/>
	<path fill="none" d="M59.2,59.8c0.1,0.1,0.2,0.2,0.3,0.3C59.4,60,59.3,59.9,59.2,59.8z"/>
	<path fill="none" d="M58.9,59.4c0.1,0.1,0.2,0.2,0.3,0.3C59,59.6,59,59.5,58.9,59.4z"/>
	<path fill="#2A56C6" d="M98.8,94.8c0,0.1,0,0.1,0,0.2L98.8,94.8C98.9,94.8,98.8,94.8,98.8,94.8z"/>
	<polygon fill="#DD2C00" points="89.1,120.1 89.1,120.1 89.1,120.1 	"/>
	<path fill="#FFE0B2" d="M2.8,109.6c-0.9,0.4-1.9,0.8-2.8,1.2V128h15.5L2.8,109.6z"/>
	<path fill="#DD2C00" d="M92.6,107.9c-0.1-0.5-0.5-2.4-0.5-2.9c-2.6,0.7-5.2,1.1-8,1.2c-8.7-0.2-16.5-3.8-22.3-9.3l-0.2-0.2
		l-0.1-0.1c-2.9,0.2-7.6,0.2-10.8,0.6c-4.6,0.6-9.6,1.3-15,2.4c-4.7,0.9-11.2,2.7-33.3,9.3l0.5,0.7L15.5,128h42h28.2
		c0.7-1.9,1.5-3.8,2.5-5.6c0.4-0.8,0.8-1.7,1.1-2.6c0,0,0,0,0,0c0,0.1,0,0.2-0.1,0.3c0,0,0,0,0,0c0,0.1,0,0.1,0,0.2l1.3-3.6
		c0,0,0.5,4.9,1.5,11.3h5.6C93.7,116,93.1,112,92.6,107.9z"/>
	<path fill="#FFEB3B" d="M65.2,86.5c0-0.1,0-0.1,0.1-0.2c0.1-0.6,0.3-1.1,0.4-1.6c0-0.1,0-0.1,0-0.2c0.1-0.5,0.2-1.1,0.3-1.6
		c0,0,0-0.1,0-0.1c0.1-0.5,0.1-1.1,0.2-1.6c0,0,0,0,0,0c1-10.6-3.4-17.3-6.2-20.4c0,0,0,0,0,0c-0.1-0.1-0.2-0.3-0.4-0.4
		c0,0,0,0-0.1-0.1c-0.1-0.1-0.2-0.2-0.3-0.3c0,0-0.1-0.1-0.1-0.1c-0.1-0.1-0.2-0.2-0.3-0.3c0,0-0.1-0.1-0.1-0.1
		c-0.1-0.1-0.1-0.1-0.2-0.2c0,0-0.1-0.1-0.1-0.1c-0.1-0.1-0.1-0.1-0.2-0.1c0,0-0.1,0-0.1-0.1c0,0-0.1-0.1-0.1-0.1c0,0-0.1,0-0.1-0.1
		c0,0,0,0,0,0c0,0,0,0,0,0c-1.6-1.7-3.3-3-4.9-4.1c-0.9-0.6-1.7-1.2-2.5-1.6c-1.8-1.1-3.2-1.6-3.4-1.7c0,0,0,0,0,0
		c-1.3-1.2-2.3-3-2.6-5c-0.6-4.4,2.3-8.4,6.3-9.1c1-0.2,2-0.1,3,0.2c0-0.2,0.1-0.5,0.1-0.7c0.6-0.1,1.1-0.2,1.6-0.4
		c0.2,0,0.3-0.1,0.5-0.1c0.4-0.1,0.7-0.2,1.1-0.3c0.2-0.1,0.3-0.1,0.5-0.2c0.3-0.1,0.7-0.2,1-0.3c0.1-0.1,0.3-0.1,0.4-0.2
		c0.4-0.1,0.7-0.3,1.1-0.5c0.1,0,0.1-0.1,0.2-0.1c0.4-0.2,0.8-0.4,1.2-0.6c0.1-0.1,0.2-0.1,0.3-0.2c0.3-0.1,0.5-0.3,0.8-0.5
		c0.1-0.1,0.3-0.2,0.4-0.2c0.2-0.1,0.4-0.3,0.7-0.4c0.1-0.1,0.2-0.2,0.3-0.2c0.2-0.2,0.5-0.3,0.7-0.5c0.1-0.1,0.2-0.1,0.2-0.2
		c0.3-0.2,0.5-0.4,0.8-0.7c0.1-0.1,0.2-0.1,0.2-0.2c0.2-0.2,0.3-0.3,0.5-0.5c0.1-0.1,0.2-0.2,0.3-0.3c0.1-0.1,0.3-0.3,0.4-0.4
		c0.1-0.1,0.2-0.2,0.3-0.3c0.1-0.1,0.2-0.3,0.3-0.4c0.1-0.1,0.2-0.2,0.2-0.3c0.2-0.2,0.3-0.4,0.4-0.6c0,0,0,0,0,0
		c0.2-0.3,0.4-0.6,0.6-0.9c0-0.1,0.1-0.1,0.1-0.2c0.2-0.3,0.3-0.5,0.5-0.7c4.2,5.9,14.3,12.1,39.1,8.4c-4.2-14-17.1-23.2-31.1-21.1
		c-5.3,0.8-10.1,3.2-14,6.6l0,0c0,0-0.1,0.1-0.2,0.2c-0.5,0.4-1,0.9-1.4,1.4c-5.3,4.8-23.3,19.8-52.2,26.5v0c0,0,0,0,0,0
		c-3.9,0-7.4,1.6-9.9,4.2v19.3c0.3,0.3,0.6,0.6,0.9,0.8l-0.3,0.9c0,0,30.5,22.8,63.6,16.7c0.2-0.6,0.4-1.2,0.6-1.8
		c0-0.1,0-0.1,0.1-0.2C64.9,87.6,65.1,87,65.2,86.5z"/>
	<path fill="#FFE0B2" d="M84,106.2c2.8-0.1,5.4-0.5,8-1.2c0.3-1.3,0.5-2.5,0.8-3.8c4.3-19.3,9.7-37.4,15-52.9h6.9l-4.8-8.2
		c-0.2-1.9-0.6-3.6-1.2-5.3c-24.8,3.7-35-2.5-39.1-8.4c-0.3,0.5-0.7,1.1-1.2,1.8c-0.1,0.2-0.3,0.4-0.4,0.6c-0.1,0.1-0.1,0.2-0.2,0.3
		c-0.1,0.1-0.2,0.3-0.3,0.4c-0.1,0.1-0.2,0.2-0.3,0.3c-0.1,0.1-0.3,0.3-0.4,0.4c-0.1,0.1-0.2,0.2-0.3,0.3c-0.2,0.2-0.3,0.3-0.5,0.5
		C66,31,65.9,31,65.8,31.1c-0.3,0.2-0.5,0.4-0.8,0.7c-0.1,0.1-0.2,0.1-0.2,0.2c-0.2,0.2-0.4,0.3-0.7,0.5c-0.1,0.1-0.2,0.2-0.3,0.2
		c-0.2,0.1-0.4,0.3-0.7,0.4c-0.1,0.1-0.2,0.2-0.4,0.2c-0.3,0.2-0.5,0.3-0.8,0.5c-0.1,0.1-0.2,0.1-0.3,0.2c-0.4,0.2-0.8,0.4-1.2,0.6
		c-0.1,0-0.1,0.1-0.2,0.1c-0.4,0.2-0.7,0.3-1.1,0.5c-0.1,0.1-0.3,0.1-0.4,0.2c-0.3,0.1-0.6,0.2-1,0.3c-0.2,0.1-0.3,0.1-0.5,0.2
		c-0.3,0.1-0.7,0.2-1.1,0.3c-0.2,0-0.3,0.1-0.5,0.1c-0.5,0.1-1.1,0.3-1.6,0.4c-0.1,0.2-0.1,0.5-0.1,0.7c-0.9-0.3-1.9-0.4-3-0.2
		c-4.1,0.6-6.9,4.7-6.3,9.1c0.3,2,1.2,3.8,2.6,5c0,0,0,0,0,0c0.3,0.1,1.6,0.7,3.4,1.7c0.8,0.4,1.6,1,2.5,1.6
		c1.5,1.1,3.2,2.5,4.9,4.1c0,0,0,0,0,0c0,0,0,0,0,0c0,0,0,0,0.1,0.1c0,0,0.1,0.1,0.1,0.1c0,0,0,0,0.1,0.1c0,0,0.1,0.1,0.2,0.1
		c0,0,0.1,0,0.1,0.1c0.1,0.1,0.1,0.1,0.2,0.2c0,0,0.1,0.1,0.1,0.1c0.1,0.1,0.2,0.2,0.3,0.3c0,0,0.1,0.1,0.1,0.1
		c0.1,0.1,0.2,0.2,0.3,0.3c0,0,0,0,0.1,0.1c0.1,0.1,0.2,0.3,0.4,0.4c0,0,0,0,0,0c2.7,3.1,7.2,9.8,6.2,20.4c0,0,0,0,0,0
		c-0.1,0.5-0.1,1.1-0.2,1.6c0,0,0,0.1,0,0.1c-0.1,0.5-0.2,1.1-0.3,1.6c0,0.1,0,0.1,0,0.2c-0.1,0.5-0.2,1.1-0.4,1.6
		c0,0.1,0,0.1-0.1,0.2c-0.1,0.6-0.3,1.1-0.5,1.7c0,0.1,0,0.1-0.1,0.2c-0.8,2.6-1.8,5.3-3.3,8.3c0.1,0.1,0.2,0.2,0.4,0.3
		C67.5,102.5,75.3,106,84,106.2z"/>
	<path fill="#DD2C00" d="M90.5,116.7l-1.3,3.6c0.4,2,0.9,4.7,1.6,7.7h1.2C91,121.5,90.5,116.7,90.5,116.7z"/>
	<path fill="#DD2C00" d="M89.2,120.3c0-0.1,0-0.1,0-0.2l0,0c0,0,0,0,0,0c0-0.1,0-0.2,0.1-0.3c0,0,0,0,0,0c-0.3,1-0.6,1.9-1.1,2.6
		c-1,1.8-1.7,3.7-2.5,5.6h5.1C90.1,125,89.6,122.3,89.2,120.3z"/>
	<path fill="#B1B1B1" d="M89.2,120.3c0-0.1,0-0.1,0-0.2l0,0c0,0,0,0,0,0c0-0.1,0-0.2,0.1-0.3c0,0,0,0,0,0c-0.3,1-0.6,1.9-1.1,2.6
		c-1,1.8-1.7,3.7-2.5,5.6h5.1C90.1,125,89.6,122.3,89.2,120.3z"/>
</g>
<ellipse fill="#444444" cx="95.8" cy="46.7" rx="1.5" ry="1.6"/>
</svg>
