<?xml version="1.0" encoding="utf-8"?>
<!-- Generator: Adobe Illustrator 17.1.0, SVG Export Plug-In . SVG Version: 6.00 Build 0)  -->
<!DOCTYPE svg PUBLIC "-//W3C//DTD SVG 1.1//EN" "http://www.w3.org/Graphics/SVG/1.1/DTD/svg11.dtd">
<svg version="1.1" id="Layer_1" xmlns="http://www.w3.org/2000/svg" xmlns:xlink="http://www.w3.org/1999/xlink" x="0px" y="0px"
	 viewBox="0 0 128 128" enable-background="new 0 0 128 128" xml:space="preserve">
<rect fill="#80D8FF" width="128" height="128"/>
<g>
	<path fill="none" d="M59.5,25.7c-0.1-0.1-0.2-0.3-0.3-0.4C59.2,25.5,59.3,25.6,59.5,25.7z"/>
	<path fill="none" d="M58.5,24.5c-0.2-0.2-0.3-0.4-0.4-0.6C58.2,24.1,58.3,24.3,58.5,24.5z"/>
	<path fill="none" d="M58.9,25.1c-0.1-0.1-0.2-0.3-0.3-0.4C58.7,24.8,58.8,25,58.9,25.1z"/>
	<path fill="none" d="M60,26.3c-0.1-0.1-0.3-0.3-0.4-0.4C59.8,26,59.9,26.2,60,26.3z"/>
	<path fill="none" d="M46.3,56.2C46.3,56.2,46.3,56.2,46.3,56.2C46.3,56.2,46.3,56.2,46.3,56.2z"/>
	<path fill="none" d="M46.8,56.6c0.1,0.1,0.2,0.2,0.3,0.3C47,56.8,46.9,56.7,46.8,56.6z"/>
	<path fill="none" d="M46.6,56.4c0.1,0.1,0.1,0.1,0.2,0.2C46.7,56.5,46.6,56.4,46.6,56.4z"/>
	<path fill="none" d="M46.4,56.2c0,0,0.1,0.1,0.1,0.1C46.5,56.3,46.4,56.2,46.4,56.2z"/>
	<path fill="none" d="M60.7,26.9c-0.1-0.1-0.3-0.3-0.4-0.4C60.4,26.6,60.5,26.8,60.7,26.9z"/>
	<path fill="none" d="M69.3,31.6c-0.3-0.1-0.7-0.2-1-0.3C68.6,31.3,68.9,31.5,69.3,31.6z"/>
	<path fill="none" d="M70.6,31.9c-0.4-0.1-0.8-0.2-1.1-0.3C69.8,31.7,70.2,31.8,70.6,31.9z"/>
	<path fill="none" d="M47.2,56.9c0.1,0.1,0.2,0.2,0.4,0.4C47.4,57.2,47.3,57,47.2,56.9z"/>
	<path fill="none" d="M74.2,32.7c-0.3-0.1-0.6-0.1-0.9-0.2C73.6,32.6,73.9,32.7,74.2,32.7z"/>
	<path fill="none" d="M61.4,27.5c-0.2-0.1-0.3-0.3-0.5-0.4C61,27.2,61.2,27.3,61.4,27.5z"/>
	<path fill="none" d="M68.1,31.2c-0.3-0.1-0.6-0.2-0.9-0.4C67.4,30.9,67.8,31,68.1,31.2z"/>
	<path fill="none" d="M62.2,28.1c-0.2-0.2-0.4-0.3-0.6-0.5C61.8,27.8,62,27.9,62.2,28.1z"/>
	<path fill="none" d="M65.9,30.3c-1.4-0.6-2.6-1.3-3.6-2.1C63.3,28.9,64.5,29.6,65.9,30.3z"/>
	<path fill="none" d="M67,30.7c-0.3-0.1-0.6-0.3-0.9-0.4C66.3,30.5,66.6,30.6,67,30.7z"/>
	<path fill="none" d="M87.1,33.4c-0.3,0-0.6,0-0.8,0C86.5,33.4,86.8,33.4,87.1,33.4z"/>
	<path fill="none" d="M83.9,33.4c0.5,0,0.9,0,1.4,0c-0.3,0-0.5,0-0.8,0C84.3,33.4,84.1,33.4,83.9,33.4z"/>
	<path fill="none" d="M80,33.4c0.6,0,1.3,0.1,1.9,0.1c-0.6,0-1.1,0-1.7-0.1C80.2,33.4,80.1,33.4,80,33.4z"/>
	<path fill="none" d="M82,33.4c0.5,0,1,0,1.6,0c-0.3,0-0.5,0-0.8,0C82.5,33.4,82.3,33.4,82,33.4z"/>
	<path fill="none" d="M88.1,33.3c0.3,0,0.7,0,1-0.1c-0.1,0-0.1,0-0.2,0C88.7,33.3,88.4,33.3,88.1,33.3z"/>
	<path fill="none" d="M94.3,32.7c-0.2,0-0.5,0.1-0.7,0.1c1.2-0.1,2.4-0.3,3.6-0.5c-0.7,0.1-1.5,0.2-2.2,0.3
		C94.8,32.7,94.5,32.7,94.3,32.7z"/>
	<path fill="none" d="M90.9,33.1c-0.3,0-0.6,0-0.8,0.1c0.9-0.1,1.9-0.2,2.9-0.3c-0.3,0-0.5,0.1-0.8,0.1C91.7,33,91.3,33,90.9,33.1z"
		/>
	<path fill="none" d="M51.1,61.9c0.2,0.3,0.4,0.6,0.5,1C51.4,62.5,51.3,62.2,51.1,61.9z"/>
	<path fill="none" d="M47.6,57.3c0.8,0.8,1.8,1.9,2.8,3.5C49.4,59.3,48.4,58.1,47.6,57.3z"/>
	<path fill="none" d="M50.5,60.9c0.2,0.3,0.4,0.6,0.6,0.9C50.8,61.5,50.6,61.2,50.5,60.9z"/>
	<path fill="none" d="M51.7,63c0.2,0.4,0.4,0.7,0.6,1.1C52,63.7,51.9,63.3,51.7,63z"/>
	<path fill="none" d="M78.2,33.2c-0.3,0-0.6-0.1-0.9-0.1c-0.2,0-0.3,0-0.5-0.1c-0.3,0-0.6-0.1-0.9-0.1c-0.1,0-0.2,0-0.2,0
		c1.3,0.2,2.6,0.3,4,0.4c-0.3,0-0.6,0-0.9-0.1C78.6,33.3,78.4,33.3,78.2,33.2z"/>
	<path fill="none" d="M74.4,32.8c0.4,0.1,0.7,0.1,1.1,0.2c-0.3,0-0.6-0.1-0.9-0.1C74.5,32.8,74.4,32.8,74.4,32.8z"/>
	<path fill="none" d="M70.7,32c0.7,0.2,1.5,0.4,2.3,0.5c-0.3-0.1-0.6-0.1-0.9-0.2C71.6,32.2,71.2,32.1,70.7,32z"/>
	<path fill="none" d="M52.2,64.1c0.6,1.2,1.1,2.6,1.5,4.1C53.3,66.7,52.8,65.3,52.2,64.1z"/>
	<path fill="#E65100" d="M101.3,128h0.3c-2.4-9.5-4.8-19.4-6.8-28.7c-7.6,2.7-16.6,4.4-22.4,4.5c0.3,0,0.6,0,0.9,0H73h-1.5
		c0.3,0,0.6,0,0.9,0c-8.9-0.2-16.8-3.9-22.7-9.6c-2.5,4.9-6,10.3-10.8,16.2H97C98.4,116.2,99.9,122.2,101.3,128z"/>
	<path fill="#2A56C6" d="M97.2,92.5l0-0.2c0,0,0,0,0,0C97.2,92.4,97.2,92.4,97.2,92.5z"/>
	<path fill="#FFE0B2" d="M71.5,103.8H73h0.3c-0.3,0-0.6,0-0.9,0C72.1,103.8,71.8,103.8,71.5,103.8z"/>
	<path fill="#00838F" d="M39.2,107.1c0.1-0.1,0.2-0.3,0.3-0.4c-0.1,0.1-0.2,0.2-0.3,0.3C39.2,107,39.2,107,39.2,107.1z"/>
	<path fill="#EE8100" d="M101.6,128c-1.5-5.8-3-11.8-4.3-17.7H38.9l0,0c-0.9,1.1-2.1,2.2-3.1,3.3c-0.2,0.2-0.3,0.4-0.5,0.5
		c-4,4.6-7.5,9.2-10.4,13.8H101.6z"/>
	<path fill="#FFE0B2" d="M72.4,103.8c5.9-0.2,14.8-1.8,22.4-4.5c-0.3-1.4-0.6-2.7-0.8-4.1c-1.9-9.4-3.2-18.1-3.4-25
		C90.1,50.6,97.2,50,97.2,50l2.1,0c0-4.2-0.5-8.8-0.9-12.3c-0.2-1.9-0.6-3.6-1.2-5.3c-1.2,0.2-2.4,0.3-3.6,0.5
		c-0.2,0-0.4,0.1-0.6,0.1c0,0,0,0,0,0c-1,0.1-1.9,0.2-2.9,0.3c0,0,0,0,0,0c-0.3,0-0.6,0-0.9,0.1c-0.3,0-0.7,0-1,0.1c0,0,0,0,0,0
		c-0.3,0-0.7,0-1,0.1c0,0,0,0,0,0c-0.3,0-0.6,0-0.8,0c0,0,0,0,0,0c-0.3,0-0.6,0-1,0c0,0,0,0,0,0c-0.5,0-1,0-1.4,0
		c-0.1,0-0.2,0-0.3,0c0,0,0,0,0,0c-0.5,0-1.1,0-1.6,0c0,0,0,0,0,0l0,0c-0.7,0-1.3,0-1.9-0.1c-0.1,0-0.2,0-0.3,0c0,0,0,0,0,0
		c-1.4-0.1-2.8-0.2-4-0.4c-0.1,0-0.2,0-0.2,0c0,0,0,0,0,0c-0.4-0.1-0.7-0.1-1.1-0.2c-0.1,0-0.1,0-0.2,0c0,0,0,0,0,0
		c-0.3-0.1-0.6-0.1-0.9-0.2c0,0,0,0,0,0c-0.1,0-0.2,0-0.3-0.1c0,0,0,0,0,0c-0.8-0.2-1.5-0.3-2.3-0.5c0,0-0.1,0-0.1,0
		c-0.4-0.1-0.8-0.2-1.1-0.3c-0.1,0-0.1,0-0.2-0.1c-0.3-0.1-0.7-0.2-1-0.3c-0.1,0-0.1,0-0.2-0.1c-0.3-0.1-0.6-0.2-0.9-0.4
		c-0.1,0-0.1,0-0.2-0.1c-0.3-0.1-0.6-0.3-0.9-0.4c0,0-0.1,0-0.1-0.1c-1.4-0.6-2.6-1.3-3.6-2.1c0,0-0.1-0.1-0.1-0.1
		c-0.2-0.2-0.4-0.3-0.6-0.5c-0.1-0.1-0.1-0.1-0.2-0.2c-0.2-0.1-0.3-0.3-0.5-0.4c-0.1-0.1-0.1-0.1-0.2-0.2c-0.1-0.1-0.3-0.3-0.4-0.4
		c-0.1-0.1-0.1-0.1-0.2-0.2c-0.1-0.1-0.3-0.3-0.4-0.4c-0.1-0.1-0.1-0.1-0.2-0.2c-0.1-0.1-0.2-0.3-0.3-0.4c-0.1-0.1-0.1-0.1-0.2-0.2
		c-0.1-0.1-0.2-0.3-0.3-0.4c0-0.1-0.1-0.1-0.1-0.2c-0.2-0.2-0.3-0.4-0.4-0.6l-8,24.9L39.3,34.6c-4.1,0.6-6.9,4.7-6.3,9.1
		c0.3,2,1.2,3.8,2.6,5c0,0,0,0,0,0c0.3,0.1,1.6,0.7,3.4,1.7c0.8,0.4,1.6,1,2.5,1.6c1.5,1.1,3.2,2.5,4.9,4.1c0,0,0,0,0.1,0
		c0,0,0,0,0,0c0,0,0.1,0.1,0.1,0.1c0,0,0,0,0,0c0.1,0.1,0.1,0.1,0.2,0.2c0,0,0,0,0.1,0.1c0.1,0.1,0.2,0.2,0.3,0.3c0,0,0,0,0.1,0.1
		c0.1,0.1,0.2,0.2,0.4,0.4c0,0,0,0,0,0c0.8,0.8,1.8,1.9,2.8,3.5c0,0,0,0,0,0.1c0.2,0.3,0.4,0.6,0.6,0.9c0,0,0,0.1,0.1,0.1
		c0.2,0.3,0.4,0.6,0.5,1c0,0,0,0.1,0.1,0.1c0.2,0.4,0.4,0.7,0.6,1.1c0,0,0,0,0,0c0.6,1.2,1.1,2.6,1.5,4.1c0,0,0,0,0,0l0,0
		c1.7,6.2,1.6,14.8-4,25.9C55.5,99.9,63.5,103.5,72.4,103.8z M84.1,42.6c0.8,0,1.5,0.7,1.5,1.6c0,0.9-0.7,1.6-1.5,1.6
		c-0.8,0-1.5-0.7-1.5-1.6C82.6,43.3,83.3,42.6,84.1,42.6z"/>
	<ellipse fill="#444444" cx="84.1" cy="44.2" rx="1.5" ry="1.6"/>
	<path fill="#5D4037" d="M53.7,68.2c-0.4-1.5-0.9-2.9-1.5-4.1c0,0,0,0,0,0c-0.2-0.4-0.4-0.8-0.6-1.1c0,0,0-0.1-0.1-0.1
		c-0.2-0.3-0.4-0.7-0.5-1c0,0,0-0.1-0.1-0.1c-0.2-0.3-0.4-0.6-0.6-0.9c0,0,0,0,0-0.1c-1-1.5-2-2.7-2.8-3.5c0,0,0,0,0,0
		c-0.1-0.1-0.3-0.3-0.4-0.4c0,0,0,0-0.1-0.1c-0.1-0.1-0.2-0.2-0.3-0.3c0,0,0,0-0.1-0.1c-0.1-0.1-0.1-0.1-0.2-0.2c0,0,0,0,0,0
		c-0.1,0-0.1-0.1-0.1-0.1c0,0,0,0,0,0c0,0-0.1,0-0.1,0c-1.6-1.7-3.3-3-4.9-4.1c-0.9-0.6-1.7-1.2-2.5-1.6c-1.8-1.1-3.2-1.6-3.4-1.7
		c0,0,0,0,0,0c-1.3-1.2-2.3-3-2.6-5c-0.6-4.4,2.3-8.4,6.3-9.1L50,48.9l8-24.9c0.1,0.2,0.3,0.4,0.4,0.6c0,0.1,0.1,0.1,0.1,0.2
		c0.1,0.1,0.2,0.3,0.3,0.4c0.1,0.1,0.1,0.1,0.2,0.2c0.1,0.1,0.2,0.3,0.3,0.4c0.1,0.1,0.1,0.1,0.2,0.2c0.1,0.1,0.2,0.3,0.4,0.4
		c0.1,0.1,0.1,0.1,0.2,0.2c0.1,0.1,0.3,0.3,0.4,0.4c0.1,0.1,0.1,0.1,0.2,0.2c0.2,0.1,0.3,0.3,0.5,0.4c0.1,0.1,0.1,0.1,0.2,0.2
		c0.2,0.2,0.4,0.3,0.6,0.5c0,0,0.1,0.1,0.1,0.1c1,0.7,2.2,1.4,3.6,2.1c0,0,0.1,0,0.1,0.1c0.3,0.1,0.6,0.3,0.9,0.4
		c0.1,0,0.1,0,0.2,0.1c0.3,0.1,0.6,0.2,0.9,0.4c0.1,0,0.1,0,0.2,0.1c0.3,0.1,0.7,0.2,1,0.3c0.1,0,0.1,0,0.2,0.1
		c0.4,0.1,0.7,0.2,1.1,0.3c0,0,0.1,0,0.1,0c0.4,0.1,0.9,0.2,1.3,0.3c0.3,0.1,0.6,0.1,0.9,0.2c0,0,0,0,0,0c0.1,0,0.2,0,0.3,0.1
		c0,0,0,0,0,0c0.3,0.1,0.6,0.1,0.9,0.2c0,0,0,0,0,0c0.1,0,0.1,0,0.2,0c0.1,0,0.1,0,0.2,0c0.3,0,0.6,0.1,0.9,0.1c0,0,0,0,0,0
		c0.1,0,0.2,0,0.2,0c0.1,0,0.2,0,0.2,0c0.3,0,0.6,0.1,0.9,0.1c0.2,0,0.3,0,0.5,0.1c0.3,0,0.6,0.1,0.9,0.1c0.2,0,0.4,0,0.6,0
		c0.3,0,0.6,0,0.9,0.1c0,0,0,0,0,0c0.1,0,0.2,0,0.3,0c0.1,0,0.2,0,0.3,0c0.5,0,1.1,0,1.7,0.1l0,0c0,0,0,0,0,0c0.3,0,0.5,0,0.8,0
		c0.3,0,0.5,0,0.8,0c0,0,0,0,0,0c0.1,0,0.2,0,0.3,0c0.2,0,0.4,0,0.6,0c0.3,0,0.5,0,0.8,0c0,0,0,0,0,0c0.3,0,0.6,0,1,0c0,0,0,0,0,0
		c0.3,0,0.6,0,0.8,0c0,0,0,0,0,0c0.3,0,0.7,0,1-0.1c0,0,0,0,0,0c0.3,0,0.6,0,0.8-0.1c0.1,0,0.1,0,0.2,0c0.3,0,0.6,0,0.9-0.1
		c0,0,0,0,0,0c0.3,0,0.6,0,0.8-0.1c0.4,0,0.8-0.1,1.2-0.1c0.3,0,0.5-0.1,0.8-0.1c0,0,0,0,0,0c0.2,0,0.4-0.1,0.6-0.1
		c0.2,0,0.5-0.1,0.7-0.1c0.2,0,0.5-0.1,0.7-0.1c0.7-0.1,1.4-0.2,2.2-0.3c-3.7-12.4-14.3-21-26.4-21.4l0,0c0,0-50.8-8.1-42.4,56.4
		L53.7,68.2L53.7,68.2C53.7,68.2,53.7,68.2,53.7,68.2z"/>
</g>
</svg>
