<?xml version="1.0" encoding="utf-8"?>
<!-- Generator: Adobe Illustrator 17.1.0, SVG Export Plug-In . SVG Version: 6.00 Build 0)  -->
<!DOCTYPE svg PUBLIC "-//W3C//DTD SVG 1.1//EN" "http://www.w3.org/Graphics/SVG/1.1/DTD/svg11.dtd">
<svg version="1.1" id="Layer_1" xmlns="http://www.w3.org/2000/svg" xmlns:xlink="http://www.w3.org/1999/xlink" x="0px" y="0px"
	 viewBox="0 0 128 128" enable-background="new 0 0 128 128" xml:space="preserve">
<rect fill="#448AFF" width="128" height="128"/>
<g>
	<g>
		<path fill="#00BFA5" d="M56.1,42.2C56.1,42.2,56.1,42.2,56.1,42.2C56.1,42.2,56.1,42.3,56.1,42.2z"/>
		<path fill="#00BFA5" d="M73,18.7c-4.8,0-9.7,0.8-14,2.3c-0.1,0.1-0.2,0.2-0.4,0.3l-7.3,4.6c-0.6,0.4-1.4,0.4-2,0.1
			c-0.3-0.2-0.6-0.4-0.8-0.7l-0.7-1.1c-0.6-1-0.3-2.2,0.6-2.8l7.3-4.6c0.4-0.2,0.8-0.3,1.2-0.3c-5.5-3-23.7-10.7-33.7,10.7
			c-11.8,25.4,11,50.2-14.4,62.6c0,0,26.2,13.7,40.9-24.8c3.7,3.2,8.8,5.8,16,7.4c-0.6-5.6-3.2-9.8-6.1-12.8c-1.3-1.4-2.7-2.5-4-3.4
			c-0.7-0.5-1.4-0.9-2-1.3c-1.5-0.9-2.6-1.3-2.8-1.4c0,0,0,0,0,0l0,0c-1.1-1-1.9-2.4-2.1-4.1c-0.5-3.6,1.8-6.9,5.1-7.4
			c0.8-0.1,1.6-0.1,2.4,0.2c0,0,0-0.1,0,0c8-1.5,11.6-6.7,12.8-8.9c3.4,4.8,11.7,9.8,31.9,6.8c0.3,1.1,0.6,2.2,0.8,3.4l0.5-1.3
			C102.1,29.2,89,18.7,73,18.7z"/>
		<path fill="#00BFA5" d="M61.4,89.7c0,0,6,8.6,19.4,9.7c5.1,0.4,11.3-0.3,18.6-2.9c-0.1-0.6-0.3-1.2-0.4-1.7c0,0,0,0,0,0
			c-0.2-1.1-3.2-18-3.4-23.6c-0.2-6.2,0.6-10,1.6-12.4h7.3l-2.1-8.5c-0.1-2-0.4-3.9-0.6-5.6c0-0.3-0.1-0.7-0.2-1
			c-0.2-1.1-0.4-2.3-0.8-3.4c-20.2,3-28.5-2-31.9-6.8c-1.2,2.1-4.8,7.4-12.8,8.9c0,0.1,0,0,0,0c-0.8-0.2-1.6-0.3-2.4-0.2
			c-3.3,0.5-5.6,3.8-5.1,7.4c0.2,1.7,1,3.1,2.1,4.1l0,0c0,0,0,0,0,0c0.2,0.1,1.3,0.5,2.8,1.4c0.6,0.4,1.3,0.8,2,1.3
			c1.3,0.9,2.6,2,4,3.4c2.9,3,5.6,7.2,6.1,12.8C66.1,77.1,65,82.8,61.4,89.7z M88.9,48.5c0.7,0,1.3,0.6,1.3,1.3s-0.6,1.3-1.3,1.3
			s-1.3-0.6-1.3-1.3S88.2,48.5,88.9,48.5z"/>
		<path fill="#00BFA5" d="M56.1,42.2C56.1,42.2,56.1,42.2,56.1,42.2C56.2,42.1,56.1,42.1,56.1,42.2z"/>
		<path fill="#00BFA5" d="M53.7,100.9C53.7,100.9,53.6,101,53.7,100.9c0,0,0.1-0.1,0.2-0.2C53.8,100.8,53.8,100.8,53.7,100.9z"/>
		<circle fill="#00BFA5" cx="88.9" cy="49.8" r="1.3"/>
		<path fill="#00BFA5" d="M80.8,99.3c-13.3-1.1-19.4-9.7-19.4-9.7c-1.8,3.4-4.3,7.1-7.5,11c-0.1,0.1-0.2,0.2-0.3,0.3
			c-0.4,0.5-0.9,1.1-1.4,1.7c-0.7,0.9-1.6,2.1-2.8,3.7c-2.3,3.2-5.4,7.8-8.8,13.5c-1.4,2.4-2.9,5.1-4.4,8c0,0,0,0.1-0.1,0.1h71.3
			c-0.6-1.6-1.3-3.2-1.7-4.8c-2.2-8.6-4.6-17.9-6.5-26.8C92,99.1,85.9,99.8,80.8,99.3z"/>
		<path fill="#00BFA5" d="M55.7,16.7l-7.3,4.6c-1,0.6-1.3,1.9-0.6,2.8l0.7,1.1c0.2,0.3,0.5,0.6,0.8,0.7c0.6,0.3,1.4,0.3,2-0.1
			l7.3-4.6c0.1-0.1,0.3-0.2,0.4-0.3c0.7-0.7,0.8-1.7,0.3-2.5l-0.7-1.1c-0.4-0.6-1-0.9-1.6-1C56.5,16.3,56,16.4,55.7,16.7z"/>
	</g>
	<g>
		<path fill="#444444" d="M56.1,42.2C56.1,42.2,56.1,42.2,56.1,42.2C56.1,42.2,56.1,42.3,56.1,42.2z"/>
		<path fill="#444444" d="M73,18.7c-4.8,0-9.7,0.8-14,2.3c-0.1,0.1-0.2,0.2-0.4,0.3l-7.3,4.6c-0.6,0.4-1.4,0.4-2,0.1
			c-0.3-0.2-0.6-0.4-0.8-0.7l-0.7-1.1c-0.6-1-0.3-2.2,0.6-2.8l7.3-4.6c0.4-0.2,0.8-0.3,1.2-0.3c-5.5-3-23.7-10.7-33.7,10.7
			c-11.8,25.4,11,50.2-14.4,62.6c0,0,26.2,13.7,40.9-24.8c3.7,3.2,8.8,5.8,16,7.4c-0.6-5.6-3.2-9.8-6.1-12.8c-1.3-1.4-2.7-2.5-4-3.4
			c-0.7-0.5-1.4-0.9-2-1.3c-1.5-0.9-2.6-1.3-2.8-1.4c0,0,0,0,0,0l0,0c-1.1-1-1.9-2.4-2.1-4.1c-0.5-3.6,1.8-6.9,5.1-7.4
			c0.8-0.1,1.6-0.1,2.4,0.2c0,0,0-0.1,0,0c8-1.5,11.6-6.7,12.8-8.9c3.4,4.8,11.7,9.8,31.9,6.8c0.3,1.1,0.6,2.2,0.8,3.4l0.5-1.3
			C102.1,29.2,89,18.7,73,18.7z"/>
		<path fill="#FFE0B2" d="M61.4,89.7c0,0,6,8.6,19.4,9.7c5.1,0.4,11.3-0.3,18.6-2.9c-0.1-0.6-0.3-1.2-0.4-1.7c0,0,0,0,0,0
			c-0.2-1.1-3.2-18-3.4-23.6c-0.2-6.2,0.6-10,1.6-12.4h7.3l-2.1-8.5c-0.1-2-0.4-3.9-0.6-5.6c0-0.3-0.1-0.7-0.2-1
			c-0.2-1.1-0.4-2.3-0.8-3.4c-20.2,3-28.5-2-31.9-6.8c-1.2,2.1-4.8,7.4-12.8,8.9c0,0.1,0,0,0,0c-0.8-0.2-1.6-0.3-2.4-0.2
			c-3.3,0.5-5.6,3.8-5.1,7.4c0.2,1.7,1,3.1,2.1,4.1l0,0c0,0,0,0,0,0c0.2,0.1,1.3,0.5,2.8,1.4c0.6,0.4,1.3,0.8,2,1.3
			c1.3,0.9,2.6,2,4,3.4c2.9,3,5.6,7.2,6.1,12.8C66.1,77.1,65,82.8,61.4,89.7z M88.9,48.5c0.7,0,1.3,0.6,1.3,1.3s-0.6,1.3-1.3,1.3
			s-1.3-0.6-1.3-1.3S88.2,48.5,88.9,48.5z"/>
		<path fill="#FFE0B2" d="M56.1,42.2C56.1,42.2,56.1,42.2,56.1,42.2C56.2,42.1,56.1,42.1,56.1,42.2z"/>
		<path fill="#FFCC80" d="M53.7,100.9C53.7,100.9,53.6,101,53.7,100.9c0,0,0.1-0.1,0.2-0.2C53.8,100.8,53.8,100.8,53.7,100.9z"/>
		<circle fill="#444444" cx="88.9" cy="49.8" r="1.3"/>
		<path fill="#FF5722" d="M80.8,99.3c-13.3-1.1-19.4-9.7-19.4-9.7c-1.8,3.4-4.3,7.1-7.5,11c-0.1,0.1-0.2,0.2-0.3,0.3
			c-0.4,0.5-0.9,1.1-1.4,1.7c-0.7,0.9-1.6,2.1-2.8,3.7c-2.3,3.2-5.4,7.8-8.8,13.5c-1.4,2.4-2.9,5.1-4.4,8c0,0,0,0.1-0.1,0.1h71.3
			c-0.6-1.6-1.3-3.2-1.7-4.8c-2.2-8.6-4.6-17.9-6.5-26.8C92,99.1,85.9,99.8,80.8,99.3z"/>
		<path fill="#00BFA5" d="M55.7,16.7l-7.3,4.6c-1,0.6-1.3,1.9-0.6,2.8l0.7,1.1c0.2,0.3,0.5,0.6,0.8,0.7c0.6,0.3,1.4,0.3,2-0.1
			l7.3-4.6c0.1-0.1,0.3-0.2,0.4-0.3c0.7-0.7,0.8-1.7,0.3-2.5l-0.7-1.1c-0.4-0.6-1-0.9-1.6-1C56.5,16.3,56,16.4,55.7,16.7z"/>
	</g>
</g>
</svg>
