<?xml version="1.0" encoding="utf-8"?>
<!-- Generator: Adobe Illustrator 17.1.0, SVG Export Plug-In . SVG Version: 6.00 Build 0)  -->
<!DOCTYPE svg PUBLIC "-//W3C//DTD SVG 1.1//EN" "http://www.w3.org/Graphics/SVG/1.1/DTD/svg11.dtd">
<svg version="1.1" id="Layer_1" xmlns="http://www.w3.org/2000/svg" xmlns:xlink="http://www.w3.org/1999/xlink" x="0px" y="0px"
	 viewBox="0 0 128 128" enable-background="new 0 0 128 128" xml:space="preserve">
<g>
	<path fill="#FFFF8D" d="M25.7,116.6c1.5-2,2.8-3.5,3.7-4.5c1-1.1,1.5-1.7,1.5-1.7l0.2-0.2c2.5-2.8,5.5-4.6,8.6-5.5c0,0,0,0,0-0.1
		c0-0.1,0-0.1,0.1-0.2c0.2-0.2,0.3-0.4,0.5-0.5l3.5-4.4c9.5-15.3-4.8-32.5-9-37l-7.5-6.4c-1.5-1.2-2.5-3-2.8-5
		c-0.6-4.4,2.5-8.4,6.9-9.1c1.3-0.2,2.6,0,3.8,0.4c0.3-1.1,0.5-2.2,0.8-3.1C32.1,11.9,51.7,9.4,51.7,9.4S94.1-5.2,94.1,39.8
		c0.3,0.9,0.6,1.9,0.8,2.9c1.3-0.6,2.8-0.8,4.3-0.6c4.4,0.6,7.5,4.7,6.9,9.1c-0.3,2-1.3,3.8-2.8,5L90.1,67.3c0,0,0,0,0,0
		c0,0,0,0-0.1,0c-1.1,1-17.4,15.6-2.3,32.5l0,0l6.4,4.4l0,0l33.9,21.4V0H0v128h17.5C20.6,123.3,23.5,119.5,25.7,116.6z"/>
	<path fill="#055524" d="M39.8,104.7C39.8,104.7,39.8,104.6,39.8,104.7C39.8,104.6,39.8,104.7,39.8,104.7
		C39.8,104.7,39.8,104.7,39.8,104.7L39.8,104.7z"/>
	<polygon fill="#055524" points="94.1,104.3 93.3,105.8 86.5,117.9 86.5,128 103.4,128 128,128 128,125.7 	"/>
	<path fill="#C2C2C2" d="M51.7,31.4v-22c0,0-19.6,2.5-15.8,29.9C46.6,37.5,50.1,34,51.7,31.4z"/>
	<path fill="#848484" d="M94.1,39.8c0-45-42.4-30.3-42.4-30.3v22C56.2,37.3,67.3,43.5,94.1,39.8z"/>
	<path fill="#FFE0B2" d="M66.8,116.8l21-17c-15.1-17,1.2-31.6,2.3-32.5c0,0,0,0,0.1,0c0,0,0,0,0,0l13.2-11.1c1.5-1.2,2.5-3,2.8-5
		c0.6-4.4-2.5-8.4-6.9-9.1c-1.5-0.2-3,0-4.3,0.6c-0.2-1-0.5-1.9-0.8-2.9c-26.9,3.7-37.9-2.5-42.4-8.4c-1.6,2.6-5.1,6.1-15.8,7.9
		c-0.2,0.9-0.5,2-0.8,3.1c-1.2-0.4-2.4-0.6-3.8-0.4c-4.4,0.6-7.5,4.7-6.9,9.1c0.3,2,1.3,3.8,2.8,5l7.5,6.4c4.2,4.5,18.4,21.7,9,37
		l0,0L66.8,116.8z M80,50c0.9,0,1.6,0.7,1.6,1.6c0,0.9-0.7,1.6-1.6,1.6c-0.9,0-1.6-0.7-1.6-1.6C78.4,50.8,79.1,50,80,50z M54.3,50
		c0.9,0,1.6,0.7,1.6,1.6c0,0.9-0.7,1.6-1.6,1.6c-0.9,0-1.6-0.7-1.6-1.6C52.7,50.8,53.4,50,54.3,50z M65.3,58.6L65.3,58.6
		C65.3,58.6,65.3,58.6,65.3,58.6C65.3,58.6,65.3,58.6,65.3,58.6L65.3,58.6C83.7,58.6,79.8,77,79.8,77c-11.8,0-14.5-9.8-14.5-9.8
		c0,0-2.7,9.8-14.5,9.8C50.8,77,46.9,58.6,65.3,58.6z"/>
	<path fill="#FFE0B2" d="M40.4,103.9c-0.2,0.2-0.3,0.4-0.5,0.5c0,0-0.1,0.1-0.1,0.2c0,0,0,0,0,0.1L40.4,103.9z"/>
	<circle fill="#444444" cx="80" cy="51.7" r="1.6"/>
	<circle fill="#444444" cx="54.3" cy="51.7" r="1.6"/>
	<path fill="#055524" d="M39.8,104.7C39.8,104.7,39.8,104.7,39.8,104.7c-3.2,0.9-6.1,2.7-8.6,5.5l-0.2,0.2c0,0-0.5,0.6-1.5,1.7
		c-0.9,1.1-2.2,2.6-3.7,4.5c-2.3,2.9-5.1,6.7-8.3,11.4h31v-7.8L39.8,104.7z"/>
	<polygon fill="#848484" points="65.3,58.6 65.3,58.6 65.3,58.6 	"/>
	<path fill="#848484" d="M65.3,67.3c0,0,2.7,9.8,14.5,9.8c0,0,3.9-18.5-14.5-18.5L65.3,67.3L65.3,67.3z"/>
	<path fill="#C2C2C2" d="M65.3,67.3L65.3,67.3l0-8.7l0,0c0,0,0,0,0,0s0,0,0,0C46.9,58.6,50.8,77,50.8,77
		C62.6,77,65.3,67.3,65.3,67.3z"/>
	<polygon fill="#A7FFEB" points="80.9,128 86.5,128 86.5,117.9 	"/>
	<polygon fill="#A7FFEB" points="59.9,128 73.7,128 66.8,118 	"/>
	<polygon fill="#A7FFEB" points="48.4,128 52.7,128 48.4,120.2 	"/>
	<polygon fill="#1DE9B6" points="66.8,118 66.3,117.2 66.8,116.8 43.9,99.5 43.8,99.5 40.4,103.9 39.8,104.7 39.8,104.7 48.4,120.2 
		52.7,128 59.9,128 	"/>
	<polygon fill="#1DE9B6" points="93.3,105.8 94.1,104.3 94.1,104.3 87.7,99.9 87.7,99.9 66.8,116.8 66.3,117.2 66.8,118 73.7,128 
		80.9,128 86.5,117.9 	"/>
</g>
</svg>
