<?xml version="1.0" encoding="utf-8"?>
<!-- Generator: Adobe Illustrator 17.1.0, SVG Export Plug-In . SVG Version: 6.00 Build 0)  -->
<!DOCTYPE svg PUBLIC "-//W3C//DTD SVG 1.1//EN" "http://www.w3.org/Graphics/SVG/1.1/DTD/svg11.dtd">
<svg version="1.1" id="Layer_1" xmlns="http://www.w3.org/2000/svg" xmlns:xlink="http://www.w3.org/1999/xlink" x="0px" y="0px"
	 viewBox="0 0 128 128" enable-background="new 0 0 128 128" xml:space="preserve">
<rect fill="#B388FF" width="128" height="128"/>
<g>
	<path fill="#689F38" d="M72.7,101.3C56.3,100,48.8,89.4,48.8,89.4c-2.2,4.2-5.2,8.7-9.2,13.5c-0.1,0.1-0.2,0.3-0.3,0.4
		c-0.6,0.7-1.1,1.3-1.7,2c-0.9,1.1-2,2.6-3.4,4.5c-2.8,3.9-6.6,9.5-10.8,16.6c-0.3,0.5-0.5,0.9-0.8,1.4h80.1
		c-2.5-9.8-5.1-20.3-7.3-30.2C86.5,101,78.9,101.9,72.7,101.3z"/>
	<path fill="#444444" d="M58.2,20.3c4.2,5.9,14.3,12.1,39.1,8.4c-4.2-14-17.1-23.2-31.1-21.1C54.5,9.3,45.4,18.7,42.5,30.4
		C52.4,28.6,56.7,22.9,58.2,20.3z"/>
	<path fill="#FFCC80" d="M101.8,51.3l-2.6-10.4C99,38.4,98.7,36,98.5,34c-0.2-1.9-0.6-3.6-1.2-5.3c-24.8,3.7-35-2.5-39.1-8.4
		c-1.5,2.6-5.8,8.4-15.6,10.2c-0.1,0.2-0.1,0.5-0.1,0.7c-0.9-0.3-1.9-0.4-3-0.2c-4.1,0.6-6.9,4.7-6.3,9.1c0.3,2,1.2,3.8,2.6,5l0,0
		c0,0,0,0,0,0c0.3,0.1,1.6,0.7,3.4,1.7c0.8,0.4,1.6,1,2.5,1.6c1.5,1.1,3.2,2.5,4.9,4.1c6.6,6.8,12.1,18.6,2.4,37
		c0,0,7.4,10.6,23.8,11.9c6.3,0.5,13.8-0.3,22.8-3.6c-0.2-0.7-0.3-1.4-0.5-2.1c0,0,0,0,0,0c-0.3-1.4-4-22.1-4.2-29
		c-0.2-7.6,0.7-12.3,1.9-15.3H101.8z M81.1,40.5c0-0.9,0.7-1.6,1.6-1.6c0.9,0,1.6,0.7,1.6,1.6c0,0.9-0.7,1.6-1.6,1.6
		C81.8,42.2,81.1,41.4,81.1,40.5z"/>
	<path fill="#FFCC80" d="M39.4,103.3c0,0,0,0.1-0.1,0.1c0.1-0.1,0.2-0.3,0.3-0.4C39.6,103.1,39.5,103.2,39.4,103.3z"/>
	<circle fill="#444444" cx="82.7" cy="40.5" r="1.6"/>
</g>
</svg>
