<svg width="24" height="24" viewBox="0 0 24 24" fill="none" xmlns="http://www.w3.org/2000/svg">
<path d="M22.0829 11.3958C21.259 9.66002 20.2786 8.2444 19.1415 7.14893L17.949 8.34143C18.9215 9.27073 19.7685 10.4864 20.5009 12.0005C18.5509 16.0364 15.7829 17.9536 12.0001 17.9536C10.8647 17.9536 9.81881 17.7788 8.86256 17.4291L7.57045 18.7212C8.89857 19.3345 10.3751 19.6411 12.0001 19.6411C16.5048 19.6411 19.8658 17.295 22.0829 12.6028C22.1721 12.4141 22.2183 12.208 22.2183 11.9993C22.2183 11.7906 22.1721 11.5845 22.0829 11.3958ZM20.593 3.8808L19.5939 2.88049C19.5765 2.86306 19.5558 2.84923 19.533 2.83979C19.5103 2.83036 19.4859 2.8255 19.4612 2.8255C19.4366 2.8255 19.4122 2.83036 19.3894 2.83979C19.3667 2.84923 19.346 2.86306 19.3286 2.88049L16.7652 5.44268C15.3519 4.7208 13.7636 4.35987 12.0001 4.35987C7.49545 4.35987 4.13451 6.70596 1.91732 11.3981C1.8282 11.5869 1.78198 11.793 1.78198 12.0017C1.78198 12.2104 1.8282 12.4165 1.91732 12.6052C2.8031 14.4708 3.86951 15.9662 5.11654 17.0914L2.63639 19.5708C2.60125 19.606 2.58151 19.6536 2.58151 19.7033C2.58151 19.7531 2.60125 19.8007 2.63639 19.8359L3.63693 20.8364C3.67209 20.8716 3.71976 20.8913 3.76947 20.8913C3.81918 20.8913 3.86685 20.8716 3.90201 20.8364L20.593 4.14612C20.6105 4.1287 20.6243 4.10802 20.6337 4.08526C20.6432 4.0625 20.648 4.0381 20.648 4.01346C20.648 3.98882 20.6432 3.96442 20.6337 3.94166C20.6243 3.9189 20.6105 3.89822 20.593 3.8808ZM3.49935 12.0005C5.4517 7.96455 8.21967 6.04737 12.0001 6.04737C13.2784 6.04737 14.4407 6.26674 15.4951 6.71276L13.8475 8.36041C13.0672 7.94408 12.1737 7.78956 11.2989 7.91966C10.4241 8.04976 9.61425 8.45759 8.98887 9.08297C8.36348 9.70836 7.95565 10.5182 7.82555 11.393C7.69546 12.2678 7.84997 13.1613 8.26631 13.9416L6.31115 15.8967C5.22904 14.9417 4.29623 13.6477 3.49935 12.0005ZM9.28139 12.0005C9.2818 11.5872 9.37969 11.1798 9.56711 10.8115C9.75454 10.4432 10.0262 10.1242 10.3601 9.88059C10.6939 9.63697 11.0805 9.47553 11.4885 9.40939C11.8964 9.34325 12.3142 9.37427 12.7079 9.49995L9.40584 12.8021C9.32307 12.5429 9.28109 12.2725 9.28139 12.0005Z" fill="black" fill-opacity="0.45"/>
<path d="M11.9066 14.6253C11.8255 14.6253 11.7456 14.6215 11.6664 14.6143L10.4284 15.8522C11.173 16.1374 11.9842 16.2008 12.7641 16.0347C13.5439 15.8686 14.2589 15.4802 14.8227 14.9164C15.3865 14.3526 15.7749 13.6376 15.941 12.8578C16.1071 12.0779 16.0437 11.2667 15.7585 10.5221L14.5206 11.7601C14.5278 11.8393 14.5316 11.9192 14.5316 12.0003C14.5318 12.3451 14.464 12.6865 14.3322 13.0051C14.2003 13.3236 14.007 13.6131 13.7632 13.8569C13.5194 14.1006 13.2299 14.294 12.9114 14.4258C12.5928 14.5577 12.2514 14.6255 11.9066 14.6253Z" fill="black" fill-opacity="0.45"/>
</svg>
