<svg width="24" height="24" viewBox="0 0 24 24" fill="none" xmlns="http://www.w3.org/2000/svg">
<path d="M22.0829 11.3953C19.861 6.71484 16.5024 4.35938 12.0001 4.35938C7.49539 4.35938 4.13914 6.71484 1.91726 11.3977C1.82814 11.5864 1.78192 11.7925 1.78192 12.0012C1.78192 12.2099 1.82814 12.416 1.91726 12.6047C4.13914 17.2852 7.49773 19.6406 12.0001 19.6406C16.5048 19.6406 19.861 17.2852 22.0829 12.6023C22.2634 12.2227 22.2634 11.782 22.0829 11.3953ZM12.0001 17.9531C8.21961 17.9531 5.45164 16.0359 3.49929 12C5.45164 7.96406 8.21961 6.04688 12.0001 6.04688C15.7805 6.04688 18.5485 7.96406 20.5009 12C18.5509 16.0359 15.7829 17.9531 12.0001 17.9531ZM11.9063 7.875C9.6282 7.875 7.78132 9.72188 7.78132 12C7.78132 14.2781 9.6282 16.125 11.9063 16.125C14.1844 16.125 16.0313 14.2781 16.0313 12C16.0313 9.72188 14.1844 7.875 11.9063 7.875ZM11.9063 14.625C10.4555 14.625 9.28132 13.4508 9.28132 12C9.28132 10.5492 10.4555 9.375 11.9063 9.375C13.3571 9.375 14.5313 10.5492 14.5313 12C14.5313 13.4508 13.3571 14.625 11.9063 14.625Z" fill="black" fill-opacity="0.45"/>
</svg>
