<svg width="26" height="26" viewBox="0 0 26 26" fill="none" xmlns="http://www.w3.org/2000/svg">
<g id="Frame 32">
<path id="Star 1" d="M11.2816 1.02274C12.3405 0.392485 13.6595 0.392485 14.7185 1.02274L18.5746 3.31781L22.5156 5.53636C23.573 6.13164 24.2273 7.25082 24.2273 8.46429V13V17.5356C24.2273 18.7491 23.573 19.8683 22.5156 20.4636L18.5746 22.6821L14.7185 24.9772C13.6595 25.6075 12.3405 25.6075 11.2816 24.9772L7.42545 22.6821L3.48449 20.4636C2.42706 19.8683 1.77276 18.7491 1.77277 17.5356L1.77279 13L1.77277 8.4643C1.77276 7.25083 2.42706 6.13163 3.4845 5.53635L7.42545 3.31781L11.2816 1.02274Z" fill="#EFF3FD"/>
<g id="Star 2 (Stroke)">
<path d="M11.7912 2.03186C12.5361 1.5885 13.464 1.5885 14.2089 2.03186L18.0131 4.29601L21.8868 6.47671C22.6307 6.89546 23.0909 7.68277 23.0909 8.5364V17.4637C23.0909 18.3173 22.6307 19.1046 21.8868 19.5234L18.0131 21.7041L14.2089 23.9682C13.464 24.4116 12.5361 24.4116 11.7912 23.9682L7.98698 21.7041L4.11326 19.5234C3.36939 19.1046 2.90911 18.3173 2.90912 17.4636V8.53641C2.90911 7.68277 3.36939 6.89546 4.11326 6.4767L7.98698 4.29601L11.7912 2.03186ZM13.6045 3.04742C13.232 2.82574 12.7681 2.82574 12.3956 3.04742L8.57916 5.31886L4.69301 7.50655C4.32107 7.71593 4.09093 8.10959 4.09094 8.5364V17.4637C4.09093 17.8905 4.32107 18.2841 4.69301 18.4935L8.57916 20.6812L12.3956 22.9526C12.7681 23.1743 13.232 23.1743 13.6045 22.9526L17.4209 20.6812L21.307 18.4935C21.679 18.2841 21.9091 17.8905 21.9091 17.4637V8.5364C21.9091 8.10959 21.679 7.71593 21.307 7.50655L17.4209 5.31886L13.6045 3.04742Z" fill="url(#paint0_linear_870_3284)"/>
</g>
<g id="Star 3 (Stroke)">
<path d="M12.2555 4.18154C12.7119 3.90002 13.2881 3.90002 13.7445 4.18154L16.8455 6.0943L20.0328 7.95383C20.4685 8.20799 20.7363 8.67441 20.7363 9.17878V16.8213C20.7363 17.3256 20.4685 17.7921 20.0328 18.0462L16.8455 19.9058L13.7445 21.8185C13.2881 22.1 12.7119 22.1 12.2555 21.8185L9.15444 19.9058L5.96714 18.0462C5.53149 17.7921 5.26361 17.3256 5.26361 16.8213V9.17878C5.26361 8.67441 5.53149 8.20799 5.96714 7.95383L9.15444 6.09429L12.2555 4.18154ZM13.4963 4.58389C13.192 4.3962 12.8079 4.3962 12.5036 4.58389L9.39521 6.50121L6.20535 8.36214C5.91492 8.53159 5.73634 8.84253 5.73634 9.17878V16.8213C5.73634 17.1575 5.91492 17.4685 6.20535 17.6379L9.40019 19.5018L12.5036 21.4162C12.8079 21.6038 13.192 21.6038 13.4963 21.4162L16.6047 19.4988L19.7946 17.6379C20.085 17.4685 20.2636 17.1575 20.2636 16.8213V9.17878C20.2636 8.84253 20.085 8.53159 19.7946 8.36214L16.5998 6.49822L13.4963 4.58389Z" fill="#B3CAFF"/>
</g>
<path id="C" d="M15.416 14.7635L17.0457 15.0484C16.8291 15.8689 16.624 16.3133 16.2821 16.7578C15.6326 17.5555 14.5385 18 13.171 18C11.9288 18 10.9373 17.6239 10.2422 16.9059C9.44445 16.074 9 14.7863 9 13.3275C9 11.8233 9.47864 10.5013 10.3333 9.6466C11.0171 8.95143 12.0428 8.56396 13.1824 8.56396C14.0713 8.56396 14.7437 8.73491 15.3704 9.11098C15.8833 9.43007 16.2935 9.85173 16.5784 10.3532C16.7152 10.5925 16.795 10.7976 16.9317 11.2307L15.3476 11.5953C15.1881 11.0939 15.0855 10.8774 14.8576 10.6153C14.4701 10.148 13.9003 9.90871 13.1938 9.90871C11.5755 9.90871 10.5955 11.1737 10.5955 13.2706C10.5955 15.3561 11.5983 16.6552 13.1938 16.6552C13.9915 16.6552 14.6753 16.3475 15.04 15.8119C15.2337 15.527 15.3249 15.2877 15.416 14.7635Z" fill="#2B64E5"/>
</g>
<defs>
<linearGradient id="paint0_linear_870_3284" x1="19.5313" y1="20.2393" x2="9.58042" y2="4.465" gradientUnits="userSpaceOnUse">
<stop stop-color="#3B73F3"/>
<stop offset="1" stop-color="#A6C1FF"/>
</linearGradient>
</defs>
</svg>
