<?xml version="1.0" encoding="utf-8"?>
<!-- Generator: Adobe Illustrator 17.0.0, SVG Export Plug-In . SVG Version: 6.00 Build 0)  -->
<!DOCTYPE svg PUBLIC "-//W3C//DTD SVG 1.1//EN" "http://www.w3.org/Graphics/SVG/1.1/DTD/svg11.dtd">
<svg version="1.1" id="图形" xmlns="http://www.w3.org/2000/svg" xmlns:xlink="http://www.w3.org/1999/xlink" x="0px" y="0px"
	 width="1024px" height="1024px" viewBox="0 0 1024 1024" enable-background="new 0 0 1024 1024" xml:space="preserve">
<path fill="#10BE8B" d="M637.024,434.112c8.928-15.232,3.84-34.848-11.392-43.808c-15.168-8.928-34.816-3.84-43.776,11.392
	c-25.76,43.84-99.456,79.488-164.352,79.488c-65.12,0-138.976-35.936-164.64-80.096c-8.896-15.296-28.48-20.48-43.744-11.584
	c-15.296,8.864-20.48,28.48-11.584,43.744c42.24,72.704,144.864,111.968,220,111.968C492.32,545.184,594.656,506.24,637.024,434.112
	z"/>
<path fill="#272A41" d="M704,704c52.928,0,96-43.072,96-96V192c0-52.928-43.072-96-96-96H128c-52.928,0-96,43.072-96,96v416
	c0,52.928,43.072,96,96,96h0.416L128,863.904c-0.032,13.152,8,24.992,20.192,29.856c3.84,1.504,7.84,2.24,11.808,2.24
	c8.672,0,17.184-3.52,23.36-10.112L353.568,704H704z M192.512,676.224c0.16-1.44,0.832-2.72,0.832-4.224c0-17.696-14.336-32-32-32
	H128c-17.632,0-32-14.336-32-32V192c0-17.632,14.368-32,32-32h576c17.664,0,32,14.368,32,32v416c0,17.664-14.336,32-32,32H339.872
	c-0.224,0-0.416,0.128-0.64,0.128c-3.136,0.032-6.144,0.896-9.184,1.856c-0.928,0.32-1.952,0.288-2.816,0.672
	c-2.688,1.12-5.024,3.072-7.392,4.96c-0.864,0.704-1.984,1.152-2.752,1.984c-0.224,0.256-0.544,0.32-0.768,0.576l-124.096,132.64
	L192.512,676.224z"/>
<path fill="#272A41" d="M895.808,288.416c-17.696,0-31.712,14.336-31.712,32s14.592,32,32.288,32c17.6,0,31.904,14.368,31.904,32
	v352c0,17.664-14.304,32-31.904,32H864c-17.696,0-32,14.304-32,32c0,0.096,0.032,0.16,0.032,0.224c0,0.256-0.128,0.448-0.128,0.672
	l-0.16,49.536l-72.512-73.344c-6.272-6.368-14.592-9.472-22.912-9.44c-0.096,0-0.192-0.064-0.32-0.064H576
	c-17.696,0-32,14.304-32,32s14.304,32,32,32h147.136l117.632,119.008c6.112,6.176,14.368,9.504,22.752,9.504
	c4.096,0,8.192-0.768,12.128-2.368c11.968-4.896,19.84-16.576,19.872-29.536l0.32-96.192h0.576c52.864,0,95.904-43.072,95.904-96
	v-352C992.288,331.456,949.248,288.416,895.808,288.416z"/>
</svg>
