<?xml version="1.0" encoding="utf-8"?>
<!-- Generator: Adobe Illustrator 17.0.0, SVG Export Plug-In . SVG Version: 6.00 Build 0)  -->
<!DOCTYPE svg PUBLIC "-//W3C//DTD SVG 1.1//EN" "http://www.w3.org/Graphics/SVG/1.1/DTD/svg11.dtd">
<svg version="1.1" id="图形" xmlns="http://www.w3.org/2000/svg" xmlns:xlink="http://www.w3.org/1999/xlink" x="0px" y="0px"
	 width="1024px" height="1024px" viewBox="0 0 1024 1024" enable-background="new 0 0 1024 1024" xml:space="preserve">
<path fill="#272A41" d="M686.016,96H337.984C292.768,96,256,132.768,256,177.984v668C256,891.232,292.768,928,337.984,928h348
	C731.232,928,768,891.232,768,846.016V177.984C768,132.768,731.232,96,686.016,96z M704,846.016c0,9.92-8.064,17.984-17.984,17.984
	H337.984c-9.92,0-17.984-8.064-17.984-17.984V177.984c0-9.92,8.064-17.984,17.984-17.984h348c9.952,0,18.016,8.064,18.016,17.984
	V846.016z"/>
<path fill="#272A41" d="M464,784c0,26.51,21.49,48,48,48c26.51,0,48-21.49,48-48s-21.49-48-48-48C485.49,736,464,757.49,464,784z"/>
<path fill="#10BE8B" d="M128,513.12c0-57.92,21.056-121.696,57.76-175.008c10.016-14.56,6.336-34.464-8.224-44.512
	s-34.496-6.304-44.48,8.224C89.184,365.568,64,442.592,64,513.12c0,85.376,24.096,168.384,69.696,240.064
	c6.08,9.568,16.448,14.816,27.008,14.816c5.888,0,11.808-1.632,17.152-4.992c14.912-9.504,19.328-29.248,9.824-44.192
	C148.64,657.44,128,586.304,128,513.12z"/>
<path fill="#10BE8B" d="M892.512,301.824c-9.984-14.528-29.856-18.208-44.512-8.224c-14.56,10.016-18.208,29.952-8.192,44.512
	c36.672,53.344,57.76,117.12,57.76,175.008c0,73.184-20.64,144.32-59.68,205.696c-9.504,14.944-5.088,34.688,9.824,44.192
	c5.312,3.36,11.264,4.992,17.12,4.992c10.592,0,20.928-5.248,27.04-14.816c45.6-71.68,69.696-154.688,69.696-240.064
	C961.568,442.592,936.416,365.568,892.512,301.824z"/>
<path fill="#272A41" d="M640,192H384c-17.664,0-32,14.336-32,32v448c0,17.696,14.336,32,32,32h256c17.696,0,32-14.304,32-32V224
	C672,206.336,657.696,192,640,192z M608,640H416V256h192V640z"/>
</svg>
