<svg width="25" height="25" viewBox="0 0 25 25" fill="none" xmlns="http://www.w3.org/2000/svg">
<g opacity="0.56">
<path d="M22.793 11.9715C20.5711 7.29102 17.2125 4.93555 12.7102 4.93555C8.20547 4.93555 4.84922 7.29102 2.62734 11.9738C2.53822 12.1625 2.492 12.3686 2.492 12.5773C2.492 12.786 2.53822 12.9921 2.62734 13.1809C4.84922 17.8613 8.20781 20.2168 12.7102 20.2168C17.2148 20.2168 20.5711 17.8613 22.793 13.1785C22.9734 12.7988 22.9734 12.3582 22.793 11.9715ZM12.7102 18.5293C8.92969 18.5293 6.16172 16.6121 4.20938 12.5762C6.16172 8.54023 8.92969 6.62305 12.7102 6.62305C16.4906 6.62305 19.2586 8.54023 21.2109 12.5762C19.2609 16.6121 16.493 18.5293 12.7102 18.5293ZM12.6164 8.45117C10.3383 8.45117 8.49141 10.298 8.49141 12.5762C8.49141 14.8543 10.3383 16.7012 12.6164 16.7012C14.8945 16.7012 16.7414 14.8543 16.7414 12.5762C16.7414 10.298 14.8945 8.45117 12.6164 8.45117ZM12.6164 15.2012C11.1656 15.2012 9.99141 14.027 9.99141 12.5762C9.99141 11.1254 11.1656 9.95117 12.6164 9.95117C14.0672 9.95117 15.2414 11.1254 15.2414 12.5762C15.2414 14.027 14.0672 15.2012 12.6164 15.2012Z" fill="black" fill-opacity="0.45"/>
</g>
</svg>
