<svg width="25" height="25" viewBox="0 0 25 25" fill="none" xmlns="http://www.w3.org/2000/svg">
<g opacity="0.56">
<path d="M22.1151 11.7163C21.2911 9.98052 20.3107 8.56489 19.1736 7.46942L17.9811 8.66192C18.9536 9.59122 19.8006 10.8069 20.533 12.321C18.583 16.3569 15.8151 18.2741 12.0322 18.2741C10.8968 18.2741 9.85091 18.0993 8.89466 17.7496L7.60255 19.0417C8.93068 19.655 10.4072 19.9616 12.0322 19.9616C16.5369 19.9616 19.8979 17.6155 22.1151 12.9233C22.2042 12.7346 22.2504 12.5285 22.2504 12.3198C22.2504 12.1111 22.2042 11.905 22.1151 11.7163ZM20.6251 4.2013L19.626 3.20099C19.6086 3.18355 19.5879 3.16972 19.5651 3.16029C19.5424 3.15085 19.518 3.146 19.4933 3.146C19.4687 3.146 19.4443 3.15085 19.4215 3.16029C19.3988 3.16972 19.3781 3.18355 19.3607 3.20099L16.7973 5.76317C15.384 5.0413 13.7957 4.68036 12.0322 4.68036C7.52755 4.68036 4.16662 7.02646 1.94943 11.7186C1.86031 11.9074 1.81409 12.1135 1.81409 12.3222C1.81409 12.5309 1.86031 12.737 1.94943 12.9257C2.83521 14.7913 3.90162 16.2867 5.14865 17.4118L2.66849 19.8913C2.63335 19.9265 2.61362 19.9741 2.61362 20.0238C2.61362 20.0735 2.63335 20.1212 2.66849 20.1564L3.66904 21.1569C3.7042 21.1921 3.75187 21.2118 3.80158 21.2118C3.85128 21.2118 3.89896 21.1921 3.93411 21.1569L20.6251 4.46661C20.6426 4.4492 20.6564 4.42852 20.6658 4.40576C20.6753 4.383 20.6801 4.3586 20.6801 4.33396C20.6801 4.30932 20.6753 4.28492 20.6658 4.26215C20.6564 4.23939 20.6426 4.21871 20.6251 4.2013ZM3.53146 12.321C5.4838 8.28505 8.25177 6.36786 12.0322 6.36786C13.3105 6.36786 14.4728 6.58724 15.5272 7.03325L13.8796 8.68091C13.0993 8.26457 12.2058 8.11006 11.331 8.24016C10.4562 8.37026 9.64636 8.77808 9.02097 9.40347C8.39558 10.0289 7.98776 10.8387 7.85766 11.7135C7.72756 12.5883 7.88208 13.4818 8.29841 14.2621L6.34326 16.2172C5.26115 15.2622 4.32833 13.9682 3.53146 12.321ZM9.31349 12.321C9.3139 11.9077 9.41179 11.5003 9.59922 11.132C9.78664 10.7637 10.0583 10.4447 10.3922 10.2011C10.726 9.95746 11.1126 9.79602 11.5206 9.72988C11.9285 9.66374 12.3463 9.69477 12.7401 9.82044L9.43794 13.1226C9.35518 12.8634 9.31319 12.593 9.31349 12.321Z" fill="black" fill-opacity="0.45"/>
<path d="M11.9387 14.9458C11.8576 14.9458 11.7777 14.942 11.6985 14.9348L10.4605 16.1727C11.2051 16.4579 12.0163 16.5213 12.7962 16.3552C13.576 16.1891 14.291 15.8007 14.8548 15.2369C15.4186 14.6731 15.807 13.9581 15.9731 13.1782C16.1392 12.3984 16.0758 11.5872 15.7906 10.8426L14.5527 12.0806C14.5599 12.1598 14.5637 12.2397 14.5637 12.3208C14.5639 12.6656 14.4961 13.007 14.3643 13.3256C14.2324 13.6441 14.0391 13.9336 13.7953 14.1774C13.5515 14.4211 13.262 14.6145 12.9435 14.7463C12.6249 14.8782 12.2835 14.946 11.9387 14.9458Z" fill="black" fill-opacity="0.45"/>
</g>
</svg>
