<svg width="20" height="21" viewBox="0 0 20 21" fill="none" xmlns="http://www.w3.org/2000/svg">
<g opacity="0.7">
<path fill-rule="evenodd" clip-rule="evenodd" d="M2.2438 9.72985L0.567333 8.21613C0.217277 7.90006 0.135651 7.38236 0.37147 6.97392L1.55648 4.92142C1.79517 4.508 2.29278 4.32094 2.7447 4.47475L4.8881 5.20425L6.96069 4.00764L7.40062 1.78665C7.49338 1.31838 7.90419 0.980957 8.38156 0.980957H10.7516C11.2232 0.980957 11.6307 1.31049 11.7294 1.77169L12.2021 3.98038L14.266 5.17199L16.4653 4.42348C16.9172 4.26967 17.4148 4.45673 17.6535 4.87015L18.8385 6.92265C19.0743 7.3311 18.9927 7.84879 18.6426 8.16486L16.9662 9.67853V12.1679L18.6724 13.6689C19.0302 13.9836 19.1162 14.5071 18.878 14.9197L17.6894 16.9783C17.4548 17.3848 16.969 17.5734 16.5216 17.4317L14.3468 16.7433L12.2244 17.9686L11.7332 20.1963C11.6322 20.6546 11.226 20.981 10.7567 20.981H8.3796C7.90311 20.981 7.4928 20.6448 7.39912 20.1776L6.95236 17.9494L4.80587 16.7102L2.68837 17.3804C2.24094 17.5221 1.75521 17.3335 1.52056 16.9271L0.332015 14.8685C0.0937669 14.4558 0.179774 13.9324 0.537539 13.6176L2.2438 12.1166V9.72985ZM13.5601 10.9297C13.5601 13.1388 11.7692 14.9297 9.56007 14.9297C7.35093 14.9297 5.56007 13.1388 5.56007 10.9297C5.56007 8.72052 7.35093 6.92966 9.56007 6.92966C11.7692 6.92966 13.5601 8.72052 13.5601 10.9297Z" fill="#313131"/>
</g>
</svg>
