<?xml version="1.0" encoding="UTF-8"?>
<svg width="71px" height="55px" viewBox="0 0 71 55" version="1.1" xmlns="http://www.w3.org/2000/svg" xmlns:xlink="http://www.w3.org/1999/xlink">
    <!-- Generator: Sketch 56.2 (81672) - https://sketch.com -->
    <title>Path 4</title>
    <desc>Created with Sketch.</desc>
    <defs>
        <filter x="-8.9%" y="-62.2%" width="117.8%" height="224.4%" filterUnits="objectBoundingBox" id="filter-1">
            <feGaussianBlur stdDeviation="1.86662946" in="SourceGraphic"></feGaussianBlur>
        </filter>
        <circle id="path-2" cx="10" cy="10" r="10"></circle>
        <ellipse id="path-4" cx="7.27118644" cy="7.1059322" rx="7.27118644" ry="7.1059322"></ellipse>
        <linearGradient x1="50%" y1="0%" x2="50%" y2="100%" id="linearGradient-6">
            <stop stop-color="#74C2FD" offset="0%"></stop>
            <stop stop-color="#408FFB" offset="100%"></stop>
        </linearGradient>
        <linearGradient x1="50%" y1="0%" x2="50%" y2="100%" id="linearGradient-7">
            <stop stop-color="#ACDFFF" offset="0%"></stop>
            <stop stop-color="#74BCFF" offset="100%"></stop>
        </linearGradient>
        <circle id="path-8" cx="6.5" cy="6.5" r="6.5"></circle>
        <ellipse id="path-10" cx="4.84745763" cy="4.73728814" rx="4.84745763" ry="4.73728814"></ellipse>
    </defs>
    <g id="学习卡" stroke="none" stroke-width="1" fill="none" fill-rule="evenodd">
        <g id="充值成功" transform="translate(-103.000000, -357.000000)">
            <g id="Group-2" transform="translate(103.000000, 355.000000)">
                <g id="编组-3">
                    <g id="Path-4">
                        <ellipse id="Oval-4" fill="#F4F4F4" filter="url(#filter-1)" cx="35.5" cy="48.5" rx="31.5" ry="4.5"></ellipse>
                        <g id="金币1-copy-2" opacity="0.400000006" transform="translate(6.000000, 27.000000)">
                            <g id="路径-24">
                                <mask id="mask-3" fill="white">
                                    <use xlink:href="#path-2"></use>
                                </mask>
                                <use id="Mask" fill="#FFEF5C" xlink:href="#path-2"></use>
                                <path d="M16.779661,1.3559322 L0.508474576,17.9661017 C10.1129944,22.6331915 15.7627119,23.5048283 17.4576271,20.5810121 C20,16.1952878 22.5423729,8.68451812 21.8644068,6.88463194 C21.4124294,5.68470782 19.7175141,3.84180791 16.779661,1.3559322 Z" fill="#FED734" mask="url(#mask-3)"></path>
                            </g>
                            <g id="路径-23" transform="translate(3.000000, 3.000000)">
                                <mask id="mask-5" fill="white">
                                    <use xlink:href="#path-4"></use>
                                </mask>
                                <use id="Mask" fill="#FDA417" xlink:href="#path-4"></use>
                                <path d="M6.46934376,9.17269765 L4.8052983,9.17269765 C4.65009853,9.16165342 4.53083068,9.09940045 4.44749474,8.98595899 C4.3641588,8.87251752 4.31383939,8.74662343 4.29661017,8.60829699 C4.31383939,8.46993002 4.3641588,8.35648856 4.44749474,8.26795234 C4.53083068,8.17941612 4.65009853,8.12962589 4.8052983,8.11858166 L6.46934376,8.11858166 L6.46934376,7.59562219 L4.8052983,7.58735422 C4.65009853,7.57626946 4.53083068,7.52371311 4.44749474,7.42963451 C4.3641588,7.33555591 4.31383939,7.21657207 4.29661017,7.07269312 C4.31383939,6.93436667 4.3641588,6.82092521 4.44749474,6.73238899 C4.53083068,6.64385277 4.65009853,6.59406254 4.8052983,6.58297778 L6.04686487,6.58297778 L4.89150753,4.62407595 C4.8340312,4.55769912 4.77943869,4.47331716 4.72771946,4.37093005 C4.67595814,4.26857335 4.65297182,4.15648962 4.65872892,4.03478018 C4.68747235,3.8798266 4.74494868,3.75392238 4.83115791,3.65710806 C4.91736714,3.56026333 5.07832402,3.49800023 5.31398643,3.47033898 C5.45195698,3.48142375 5.57555055,3.52704959 5.68474611,3.60727731 C5.79398376,3.68754555 5.88306628,3.77469364 5.95201471,3.86874184 L7.26257182,6.1762563 L8.70241646,3.85215523 C8.771407,3.75807663 8.86050004,3.67508279 8.96972717,3.60312305 C9.07892272,3.53121397 9.20250577,3.48692559 9.34044475,3.47033898 C9.42669608,3.47588136 9.50571682,3.48692559 9.57758065,3.5035426 C9.64940238,3.52012921 9.71263581,3.54779045 9.76723885,3.58654657 C9.82184189,3.62529257 9.8678461,3.68062517 9.9052094,3.75253424 C9.94258322,3.82449399 9.96988475,3.91857258 9.98710343,4.03478017 C9.98710343,4.19523561 9.9296271,4.34741293 9.81467445,4.49129188 L8.47827878,6.58297779 L9.74570496,6.58297779 C9.89514763,6.59406255 10.0129841,6.64385278 10.0991933,6.732389 C10.1854026,6.82092522 10.2342906,6.93436668 10.2457627,7.07269312 C10.2342906,7.21657208 10.1840133,7.33831192 10.0948781,7.43793289 C10.0057851,7.53751334 9.88651724,7.59288648 9.73707458,7.60393071 L8.09030042,7.61223921 L8.09030042,8.11858168 L9.74570497,8.11858168 C9.89514764,8.12962591 10.0129841,8.18495851 10.0991933,8.28457949 C10.1854026,8.38415994 10.2342906,8.50313365 10.2457627,8.64151076 C10.2342906,8.78537958 10.1854131,8.90574141 10.0991933,9.00255574 C10.0129841,9.09941059 9.89514764,9.15335507 9.74570497,9.16443983 L8.09030042,9.15613133 L8.09030042,10.0359815 C8.067272,10.5063441 7.80000339,10.7415254 7.28843145,10.7415254 C7.03553981,10.7415254 6.83865103,10.6834267 6.69783876,10.5671786 C6.55699492,10.450971 6.48084747,10.2739391 6.46934378,10.0359815 L6.46934376,9.17269765 L6.46934376,9.17269765 Z" id="路径" fill="#FFE431" fill-rule="nonzero" mask="url(#mask-5)"></path>
                                <path d="M1.70501082,11.787811 L14.2643329,3.52509918 C16.4677227,9.25391273 15.9168752,12.889506 12.6117905,14.4318788 C10.5423679,15.3976094 7.00815642,16.3580832 4.67958709,15.4234043 C3.7526538,15.0513367 2.76112838,13.8394723 1.70501082,11.787811 Z" fill="#F9A343" opacity="0.5" mask="url(#mask-5)" transform="translate(8.645689, 9.664818) rotate(-11.000000) translate(-8.645689, -9.664818) "></path>
                            </g>
                        </g>
                        <g id="Group-3" transform="translate(18.000000, 0.000000)">
                            <g id="Group-16" transform="translate(43.500000, 10.000000) rotate(-330.000000) translate(-43.500000, -10.000000) translate(34.000000, 5.000000)" fill="#FED734">
                                <rect id="Rectangle-10" transform="translate(3.000000, 4.000000) rotate(-30.000000) translate(-3.000000, -4.000000) " x="2" y="1" width="2" height="6" rx="1"></rect>
                                <rect id="Rectangle-10-Copy" transform="translate(9.742383, 3.156597) rotate(-345.000000) translate(-9.742383, -3.156597) " x="8.74238296" y="0.156596524" width="2" height="6" rx="1"></rect>
                                <rect id="Rectangle-10-Copy-2" transform="translate(15.098076, 7.366025) rotate(-300.000000) translate(-15.098076, -7.366025) " x="14.0980762" y="4.3660254" width="2" height="6" rx="1"></rect>
                            </g>
                            <path d="M6.43003023,11.6267294 L32.4300302,11.6267294 C33.5345997,11.6267294 34.4300302,12.5221599 34.4300302,13.6267294 L34.4300302,19.2085223 L19.345534,26.6267294 L6.43003023,26.6267294 C5.32546073,26.6267294 4.43003023,25.7312989 4.43003023,24.6267294 L4.43003023,13.6267294 C4.43003023,12.5221599 5.32546073,11.6267294 6.43003023,11.6267294 Z" id="Rectangle-3" fill="url(#linearGradient-6)" transform="translate(19.430030, 19.126729) rotate(-345.000000) translate(-19.430030, -19.126729) "></path>
                            <path d="M42,35.9205085 L27.6896919,35.9205085 C25.0977093,35.9205085 23,34.1265037 23,31.9205085 C23,29.7145132 25.1033324,27.9205085 27.6896919,27.9205085 L42,27.9205085 L42,35.9205085 Z M4.4000805,47 C1.92317763,46.9151443 -0.0269731568,45.2310678 -3.55271368e-15,43.1894995 L-3.55271368e-15,21.2374944 C0.0709237452,19.5355776 1.47763548,18.0703876 3.47673472,17.61912 L3.24311711,17.61912 L39.2135538,17.7977515 C40.8269059,18.4143847 41.8317397,19.7633842 41.7610982,21.2285743 L41.9947158,25.990785 L27.8335952,25.990785 C24.0745766,25.9191952 20.9566159,28.371776 20.8751279,31.4629473 L20.8751279,31.7177431 C20.7883556,34.7956485 23.7705956,37.3598455 27.5293361,37.4268609 L41.9947158,37.4268609 L41.9947158,43.1403244 C42.0436642,45.1997329 40.0879511,46.9151443 37.5893552,47 L4.4000805,47 Z" id="Fill-1" fill="url(#linearGradient-7)"></path>
                            <path d="M25.5305149,31.8244007 C25.5305149,32.9303533 26.4264144,33.820633 27.5288751,33.820633 C28.6358994,33.820633 29.5272352,32.9255552 29.5272352,31.8244007 C29.5882429,30.7796234 28.7908203,29.8845456 27.7445635,29.8236102 C27.6741885,29.8190521 27.59925,29.8190521 27.5288751,29.8284083 C26.4218508,29.8284083 25.5305149,30.7232462 25.5305149,31.8244007 Z" id="Path" fill="#FFFFFF"></path>
                        </g>
                        <g id="金币1-copy" transform="translate(13.000000, 35.000000)">
                            <g id="路径-24">
                                <mask id="mask-9" fill="white">
                                    <use xlink:href="#path-8"></use>
                                </mask>
                                <use id="Mask" fill="#FFEF5C" xlink:href="#path-8"></use>
                                <path d="M10.9067797,0.881355932 L0.330508475,11.6779661 C6.57344633,14.7115745 10.2457627,15.2781384 11.3474576,13.3776579 C13,10.5269371 14.6525424,5.64493678 14.2118644,4.47501076 C13.9180791,3.69506008 12.8163842,2.49717514 10.9067797,0.881355932 Z" fill="#FED734" mask="url(#mask-9)"></path>
                            </g>
                            <g id="路径-23" transform="translate(1.652542, 1.762712)">
                                <mask id="mask-11" fill="white">
                                    <use xlink:href="#path-10"></use>
                                </mask>
                                <use id="Mask" fill="#FDA417" xlink:href="#path-10"></use>
                                <path d="M4.31289584,6.11513177 L3.2035322,6.11513177 C3.10006569,6.10776895 3.02055378,6.06626697 2.96499649,5.99063932 C2.9094392,5.91501168 2.87589292,5.83108229 2.86440678,5.73886466 C2.87589292,5.64662001 2.9094392,5.57099237 2.96499649,5.51196822 C3.02055378,5.45294408 3.10006569,5.41975059 3.2035322,5.41238777 L4.31289584,5.41238777 L4.31289584,5.06374813 L3.2035322,5.05823615 C3.10006569,5.05084631 3.02055378,5.01580874 2.96499649,4.95308967 C2.9094392,4.89037061 2.87589292,4.81104805 2.86440678,4.71512874 C2.87589292,4.62291111 2.9094392,4.54728347 2.96499649,4.48825933 C3.02055378,4.42923518 3.10006569,4.39604169 3.2035322,4.38865186 L4.03124325,4.38865186 L3.26100502,3.0827173 C3.22268747,3.03846608 3.18629246,2.98221144 3.15181297,2.91395337 C3.11730543,2.84571557 3.10198121,2.77099308 3.10581928,2.68985345 C3.12498157,2.58655107 3.16329912,2.50261492 3.22077194,2.43807204 C3.27824476,2.37350889 3.38554934,2.33200015 3.54265762,2.31355932 C3.63463799,2.32094917 3.7170337,2.35136639 3.78983074,2.40485154 C3.86265584,2.4583637 3.92204419,2.51646243 3.96800981,2.57916123 L4.84171455,4.1175042 L5.80161097,2.56810349 C5.84760466,2.50538442 5.90700003,2.45005519 5.97981811,2.40208203 C6.05261515,2.35414264 6.13500385,2.32461706 6.22696317,2.31355932 C6.28446405,2.31725424 6.33714455,2.32461706 6.38505377,2.33569507 C6.43293492,2.34675281 6.47509054,2.36519363 6.51149257,2.39103105 C6.54789459,2.41686171 6.57856407,2.45375011 6.60347294,2.5016895 C6.62838882,2.54966266 6.64658983,2.61238172 6.65806896,2.68985345 C6.65806896,2.79682374 6.6197514,2.89827528 6.5431163,2.99419459 L5.65218585,4.38865186 L6.49713664,4.38865186 C6.59676508,4.3960417 6.67532273,4.42923518 6.73279555,4.48825933 C6.79026837,4.54728348 6.82286039,4.62291112 6.83050847,4.71512875 C6.82286039,4.81104805 6.78934219,4.89220794 6.72991876,4.95862193 C6.67052339,5.0250089 6.59101149,5.06192432 6.49138305,5.06928714 L5.39353361,5.07482614 L5.39353361,5.41238779 L6.49713665,5.41238779 C6.59676509,5.41975061 6.67532274,5.45663901 6.73279556,5.52305299 C6.79026838,5.58943996 6.8228604,5.66875577 6.83050847,5.76100717 C6.8228604,5.85691972 6.79027539,5.93716094 6.73279556,6.00170383 C6.67532274,6.06627373 6.59676509,6.10223671 6.49713665,6.10962656 L5.39353361,6.10408755 L5.39353361,6.69065436 C5.37818134,7.00422942 5.20000226,7.16101695 4.8589543,7.16101695 C4.69035988,7.16101695 4.55910069,7.12228446 4.46522584,7.04478572 C4.37132994,6.967314 4.32056498,6.84929273 4.31289585,6.69065436 L4.31289584,6.11513177 L4.31289584,6.11513177 Z" id="路径" fill="#FFE431" fill-rule="nonzero" mask="url(#mask-11)"></path>
                                <path d="M1.13667388,7.85854069 L9.50955524,2.35006612 C10.9784818,6.16927516 10.6112502,8.59300397 8.40786032,9.62125256 C7.02824527,10.2650729 4.67210428,10.9053888 3.11972473,10.2822695 C2.5017692,10.0342245 1.84075225,9.22631488 1.13667388,7.85854069 Z" fill="#F9A343" opacity="0.5" mask="url(#mask-11)" transform="translate(5.763793, 6.443212) rotate(-11.000000) translate(-5.763793, -6.443212) "></path>
                            </g>
                        </g>
                    </g>
                </g>
            </g>
        </g>
    </g>
</svg>