<svg width="17" height="17" viewBox="0 0 17 17" fill="none" xmlns="http://www.w3.org/2000/svg">
<path d="M13.8091 3.24063C13.8091 3.24063 13.8091 3.24064 13.8091 3.24063C14.1299 3.56149 14.1299 4.0817 13.8091 4.40255L13.2281 4.98349L12.0662 3.82157L12.6471 3.24063C12.6471 3.24064 12.6472 3.24063 12.6471 3.24063M12.6471 3.24063C12.968 2.9198 13.4883 2.9198 13.8091 3.24063H12.6471ZM12.521 5.69059L9.38531 8.8263C8.66925 9.54237 8.37521 9.83027 8.0251 10.0259C7.87145 10.1118 7.56884 10.2175 7.14228 10.3362C6.96001 10.3869 6.7645 10.4376 6.5615 10.4882C6.61214 10.2852 6.66279 10.0897 6.71351 9.90743C6.83222 9.48087 6.93794 9.17826 7.02379 9.02462C7.21943 8.67451 7.50736 8.38049 8.22343 7.6644C8.22342 7.6644 8.22343 7.6644 8.22343 7.6644L11.3591 4.52869L12.521 5.69059ZM14.5162 5.10965C15.2275 4.39827 15.2275 3.24491 14.5162 2.53354C13.8048 1.82217 12.6514 1.82215 11.9401 2.53351L11.0056 3.46803L7.51631 6.9573C7.49807 6.97554 7.48002 6.99359 7.46216 7.01144C6.81676 7.6567 6.42221 8.05117 6.15083 8.53682C5.99942 8.80778 5.86715 9.21877 5.75012 9.63934C5.62971 10.072 5.51118 10.5699 5.39804 11.0451L5.39666 11.0508C5.35645 11.2198 5.40674 11.3974 5.52951 11.5202C5.65229 11.643 5.82997 11.6933 5.99888 11.6531L6.00429 11.6518C6.47963 11.5386 6.9776 11.42 7.41038 11.2996C7.83096 11.1825 8.24195 11.0503 8.5129 10.8989C8.99868 10.6274 9.3932 10.2328 10.0388 9.58705C10.0565 9.56936 10.0743 9.55148 10.0924 9.53341L14.5162 5.10965Z" fill="#278BF5"/>
<path d="M5.32486 3.10538C4.56336 3.20776 4.11324 3.40128 3.78228 3.73223C3.45133 4.06319 3.25781 4.51331 3.15543 5.27481C3.05111 6.05069 3.05005 7.07165 3.05005 8.5C3.05005 9.92834 3.05111 10.9493 3.15543 11.7252C3.25781 12.4867 3.45133 12.9368 3.78228 13.2678C4.11323 13.5987 4.56336 13.7922 5.32486 13.8946C6.10074 13.9989 7.1217 14 8.55005 14C9.97838 14 10.9994 13.9989 11.7752 13.8946C12.5368 13.7922 12.9869 13.5987 13.3178 13.2678C13.6488 12.9368 13.8423 12.4867 13.9447 11.7252C14.049 10.9493 14.05 9.92834 14.05 8.5C14.05 8.22386 14.2739 8 14.55 8C14.8262 8 15.05 8.22386 15.05 8.5V8.53798C15.0501 9.91999 15.0501 11.0082 14.9358 11.8584C14.8185 12.7308 14.5727 13.4272 14.0249 13.9749C13.4772 14.5226 12.7809 14.7684 11.9085 14.8857C11.0583 15 9.97004 15 8.58803 15H8.51207C7.13005 15 6.04184 15 5.19161 14.8857C4.31923 14.7684 3.6229 14.5226 3.07518 13.9749C2.52745 13.4272 2.28163 12.7308 2.16434 11.8584C2.05003 11.0082 2.05004 9.91998 2.05005 8.53796V8.46203C2.05004 7.08001 2.05003 5.99179 2.16434 5.14156C2.28163 4.26918 2.52745 3.57285 3.07518 3.02513C3.6229 2.4774 4.31922 2.23158 5.19161 2.11429C6.04184 1.99998 7.13006 1.99999 8.51208 2L8.55005 2C8.82619 2 9.05005 2.22386 9.05005 2.5C9.05005 2.77614 8.82619 3 8.55005 3C7.1217 3 6.10074 3.00106 5.32486 3.10538Z" fill="#278BF5"/>
</svg>
