<?xml version="1.0" encoding="UTF-8"?>
<svg width="103px" height="133px" viewBox="0 0 103 133" version="1.1" xmlns="http://www.w3.org/2000/svg" xmlns:xlink="http://www.w3.org/1999/xlink">
    <!-- Generator: Sketch 46.2 (44496) - http://www.bohemiancoding.com/sketch -->
    <title>Lock</title>
    <desc>Created with Sketch.</desc>
    <defs>
        <linearGradient x1="22.0261507%" y1="0%" x2="51.1852093%" y2="64.1490224%" id="linearGradient-1">
            <stop stop-color="#FFFFFF" stop-opacity="0" offset="0%"></stop>
            <stop stop-color="#E2E5ED" offset="100%"></stop>
        </linearGradient>
        <linearGradient x1="50%" y1="10.7780009%" x2="37.7025856%" y2="88.2061516%" id="linearGradient-2">
            <stop stop-color="#383A40" offset="0%"></stop>
            <stop stop-color="#4F535E" offset="100%"></stop>
        </linearGradient>
        <linearGradient x1="50%" y1="0%" x2="50%" y2="100%" id="linearGradient-3">
            <stop stop-color="#3F4249" offset="0%"></stop>
            <stop stop-color="#FFFFFF" offset="52.0069356%"></stop>
            <stop stop-color="#494D55" offset="100%"></stop>
        </linearGradient>
        <linearGradient x1="16.2861593%" y1="47.4264396%" x2="98.1897816%" y2="47.8677545%" id="linearGradient-4">
            <stop stop-color="#42464D" offset="0%"></stop>
            <stop stop-color="#141415" offset="54.8270089%"></stop>
            <stop stop-color="#353941" offset="100%"></stop>
        </linearGradient>
        <filter x="-124.6%" y="-23.3%" width="349.2%" height="146.5%" filterUnits="objectBoundingBox" id="filter-5">
            <feGaussianBlur stdDeviation="4.62058056" in="SourceGraphic"></feGaussianBlur>
        </filter>
        <filter x="-29.3%" y="-13.0%" width="158.5%" height="126.0%" filterUnits="objectBoundingBox" id="filter-6">
            <feGaussianBlur stdDeviation="2.00012598" in="SourceGraphic"></feGaussianBlur>
        </filter>
        <filter x="-12.2%" y="-8.4%" width="124.4%" height="116.8%" filterUnits="objectBoundingBox" id="filter-7">
            <feGaussianBlur stdDeviation="1.16942109" in="SourceGraphic"></feGaussianBlur>
        </filter>
    </defs>
    <g id="订单中心" stroke="none" stroke-width="1" fill="none" fill-rule="evenodd">
        <g id="修改支付密码／选择方式" transform="translate(-1101.000000, -229.000000)">
            <g id="Group-3" transform="translate(1060.000000, 208.000000)">
                <g id="Lock" transform="translate(41.000000, 21.000000)">
                    <polygon id="shadow" fill="url(#linearGradient-1)" transform="translate(67.342387, 106.616270) scale(-1, 1) translate(-67.342387, -106.616270) " points="56.7411009 122.232539 31 106.61627 76.9068173 91 103.684775 113.85904"></polygon>
                    <g id="Group" transform="translate(0.000000, 38.002394)">
                        <polygon id="Path" fill="url(#linearGradient-2)" points="66.6888642 22.4004951 66.6888642 85.4881659 83.8141269 77.4680048 83.8141269 14.0341189"></polygon>
                        <path d="M1.95620733,67.4734939 L1.95620733,67.4734939 L1.95620733,67.4734939 C7.00868917,63.3650293 13.5977143,61.6560627 20.0101351,62.7909257 L79.7385001,73.3615842 L79.7385001,73.3615842 C82.2836552,73.8120229 83.9817583,76.2404314 83.5313196,78.7855864 C83.3352584,79.8934095 82.7466872,80.8935324 81.8733907,81.6028034 L81.8733907,81.6028034 L81.8733907,81.6028034 C76.8245386,85.703363 70.2438151,87.4093237 63.8386831,86.2780497 L4.09834178,75.7267138 L4.09834178,75.7267138 C1.54887188,75.2764265 -0.152851888,72.8446429 0.297435348,70.295173 C0.493362575,69.1858576 1.08220806,68.1841931 1.95620733,67.4734939 Z" id="Path" fill="#4E525D"></path>
                        <polygon id="Path" fill="url(#linearGradient-2)" points="0.0233201693 8.35937131 0.0233201693 70.4181561 5.54628738 72.1597661 5.54628738 11.1159215"></polygon>
                        <polygon id="Rectangle" fill="url(#linearGradient-2)" points="3 11.0006929 69 22.966107 69 86.5586582 3 74.5932442"></polygon>
                        <path d="M33,45.9799284 C31.8043973,44.9921549 31,43.5007078 31,42.0210242 C31,39.8131998 32.790861,38.4664446 35,39.0129621 C37.209139,39.5594797 39,41.7934935 39,44.0027717 C39,45.4834296 38.1956027,46.57667 37,46.9717662 L37,58.5058118 C37,59.6102692 36.1045695,60.2825419 35,60.007375 C33.8954305,59.7322081 33,58.6140963 33,57.5100024 L33,45.9799284 Z" id="Shape" fill="#333538"></path>
                        <path d="M37.5000315,47.3128468 L37.5000315,58.5058118 C37.5000315,59.9402419 36.2946623,60.845211 34.8791279,60.4925775 C33.5541125,60.1624938 32.4999685,58.8461986 32.5028661,57.4562496 L34.5644019,38.3900942 L35.1200824,38.5275636 C37.5501139,39.1287276 39.5000315,41.561157 39.5000315,44.0027717 C39.5000315,45.5229028 38.7365198,46.753737 37.5000315,47.3128468 Z" id="Shape" stroke="url(#linearGradient-3)" stroke-width="1.00006299" opacity="0.0995219216"></path>
                        <path d="M1.95620733,5.46958835 L1.95620733,5.46958835 L1.95620733,5.46958835 C7.01598852,1.35518826 13.5960895,-0.394230755 20.0311193,0.664100585 L79.3994429,10.4280581 L79.3994429,10.4280581 C82.116224,10.874871 83.9563967,13.4394707 83.5095838,16.1562517 C83.3219405,17.2971895 82.7435358,18.3374226 81.8733907,19.0988664 L81.8733907,19.0988664 L81.8733907,19.0988664 C76.8472684,23.4971096 70.0982329,25.3797055 63.5212228,24.2180743 L4.09834178,13.7228083 L4.09834178,13.7228083 C1.54887188,13.272521 -0.152851888,10.8407374 0.297435348,8.29126751 C0.493362575,7.18195211 1.08220806,6.18028759 1.95620733,5.46958835 Z" id="Path" fill="#4B5059"></path>
                        <path d="M66.6888642,29.6976524 L66.6888642,81.208283 L66.6888642,81.208283 C66.6888642,82.8652416 68.0320946,84.2084719 69.6890532,84.2084719 C70.0467827,84.2084719 70.4016291,84.1444948 70.7368338,84.019562 L75.8617184,82.1094867 L75.8617184,82.1094867 C77.0356556,81.6719533 77.8141269,80.5510301 77.8141269,79.2982077 L77.8141269,27.6230718 L77.8141269,27.6230718 C77.8141269,25.9661131 76.4708965,24.6228828 74.8139379,24.6228828 C74.4280816,24.6228828 74.0458478,24.6973143 73.6881849,24.8420982 L68.5633003,26.9166788 L68.5633003,26.9166788 C67.4303403,27.3753071 66.6888642,28.4753849 66.6888642,29.6976524 Z" id="Path" fill="url(#linearGradient-4)" opacity="0.579990672" filter="url(#filter-5)"></path>
                    </g>
                    <g id="Group" transform="translate(16.000000, 0.000000)">
                        <ellipse id="Oval" fill="#393B40" cx="46" cy="53.0033386" rx="5" ry="3.00018898"></ellipse>
                        <ellipse id="Oval" fill="#393B40" cx="5" cy="46.0028976" rx="5" ry="3.00018898"></ellipse>
                        <ellipse id="Oval" fill="#BABABA" cx="46" cy="51.5032441" rx="4" ry="2.50015748"></ellipse>
                        <ellipse id="Oval" fill="#BABABA" cx="5" cy="44.5028031" rx="4" ry="2.50015748"></ellipse>
                        <path d="M5.00025197,40.5042528 L45.999748,47.5650232 L45.999748,29.4443471 C45.999748,17.0129227 37.06032,6.38246399 24.814004,4.25078703 C23.8562509,4.08407402 22.8859088,4.00025197 21.9137568,4.00025197 C12.5727424,4.00025197 5.00025197,11.5732194 5.00025197,20.9150742 L5.00025197,40.5042528 Z" id="Combined-Shape" stroke="#BBBBBB" stroke-width="8.00050394"></path>
                        <path d="M25.5,7.28471127 C37.3499711,9.54676977 46,18.8271982 46,32.0187579 C46,41.7555227 46,48.8893879 46,53.4203537 C46,53.7509726 45.2982762,52.6286542 43.8948287,50.0533986 M43.8948287,50.0533986 L42.9879634,28.5775367 C42.9879634,19.1232565 35.0377816,8.90590964 25.5,7.28471127" id="Combined-Shape" fill="#FFFFFF" filter="url(#filter-6)"></path>
                        <path d="M31.4945757,9.78975714 C28.7242185,7.62960759 25.5220363,6.10448125 22.0324662,5.40747421 C21.0656988,5.21437198 20.1489004,5.29050759 19.1675979,5.29050759 C9.73874161,5.29050759 2.70169875,13.7718283 2.70169875,24.5920384 L2.70169875,46.0987472 L12.5588659,47.0780859 L7.69277102,46.0987472 L7.69277102,21.7942619 C7.69277102,13.8447198 14.5720429,7.34373955 22.3508494,7.34373955 C23.160424,7.34373955 24.773255,7.49511795 25.5708382,7.63698897 C27.6918522,8.01426678 29.6819938,8.75581187 31.4945795,9.78975931 Z" id="Combined-Shape" fill="#999999" opacity="0.601096082" filter="url(#filter-7)"></path>
                    </g>
                </g>
            </g>
        </g>
    </g>
</svg>