<?xml version="1.0" encoding="UTF-8"?>
<svg width="78px" height="126px" viewBox="0 0 78 126" version="1.1" xmlns="http://www.w3.org/2000/svg" xmlns:xlink="http://www.w3.org/1999/xlink">
    <!-- Generator: Sketch 46.2 (44496) - http://www.bohemiancoding.com/sketch -->
    <title>Phone</title>
    <desc>Created with Sketch.</desc>
    <defs>
        <linearGradient x1="22.0261507%" y1="0%" x2="51.1852093%" y2="64.1490224%" id="linearGradient-1">
            <stop stop-color="#FFFFFF" stop-opacity="0" offset="0%"></stop>
            <stop stop-color="#E2E5ED" offset="100%"></stop>
        </linearGradient>
    </defs>
    <g id="订单中心" stroke="none" stroke-width="1" fill="none" fill-rule="evenodd">
        <g id="修改支付密码／选择方式" transform="translate(-746.000000, -229.000000)">
            <g id="Group-2" transform="translate(692.000000, 208.000000)">
                <g id="Phone" transform="translate(54.000000, 21.000000)">
                    <polygon id="shadow" fill="url(#linearGradient-1)" transform="translate(42.657613, 110.252416) scale(-1, 1) translate(-42.657613, -110.252416) " points="32.0563264 125.868686 6.31522546 110.252416 52.2220428 94.6361467 79 117.495187"></polygon>
                    <path d="M13.4359227,0.215901037 L52.0859778,7.0038086 L52.0859778,7.0038086 C56.8791615,7.84561045 60.375,12.0089083 60.375,16.8754512 L60.375,117.676041 L60.375,117.676041 C60.375,121.629898 57.1697658,124.835132 53.2159091,124.835132 C52.8198685,124.835132 52.4245108,124.802269 52.0339055,124.73688 L7.17250483,117.226961 L7.17250483,117.226961 C3.03286132,116.533973 5.14014477e-16,112.9512 0,108.753954 L0,11.4977784 L1.77635684e-15,11.4977784 C1.00162436e-15,5.17160758 5.12837468,0.043232896 11.4545455,0.043232896 C12.1187616,0.043232896 12.7817191,0.101006667 13.4359227,0.215901037 Z" id="Rectangle" fill="#E3E3E3"></path>
                    <path d="M8.38543164,1.97584722 L50.3806998,9.27749315 L50.3806998,9.27749315 C54.4958141,9.99298109 57.5,13.5645701 57.5,17.7414217 L57.5,118.402697 L57.5,118.402697 C57.5,122.356554 54.2947658,125.561788 50.3409091,125.561788 C49.929849,125.561788 49.5195526,125.526385 49.1145684,125.455971 L7.11930022,118.154325 L7.11930022,118.154325 C3.00418588,117.438837 9.70745248e-15,113.867248 1.77635684e-15,109.690396 L0,9.02912101 L-1.77635684e-15,9.02912101 C-2.26056464e-15,5.07526428 3.20523418,1.8700301 7.15909091,1.8700301 C7.57015099,1.8700301 7.98044736,1.9054333 8.38543164,1.97584722 Z" id="body" fill="#132244"></path>
                    <path d="M28.0256177,117.457009 C30.0072803,117.801654 31.6137353,116.480938 31.6137353,114.507108 C31.6137353,112.533278 30.0072803,110.652057 28.0256177,110.305282 C26.043955,109.958508 24.4375,111.279224 24.4375,113.255183 C24.4375,115.231143 26.043955,117.112365 28.0256177,117.457009 Z" id="home-btn" fill="#233151"></path>
                    <path d="M4.44923441,15.1654682 L51.8770489,23.5207608 L51.8770489,23.5207608 C52.219247,23.5810454 52.46875,23.8783451 52.46875,24.2258127 L52.46875,110.112855 L52.46875,110.112855 C52.46875,110.508241 52.1482266,110.828764 51.7528409,110.828764 C51.7112013,110.828764 51.669641,110.825131 51.6286329,110.817907 L4.20081837,102.462614 L4.20081837,102.462614 C3.85862028,102.40233 3.6091173,102.10503 3.6091173,101.757562 L3.6091173,15.8705201 L3.6091173,15.8705201 C3.6091173,15.4751344 3.92964072,15.154611 4.32502639,15.154611 C4.36666602,15.154611 4.40822627,15.1582438 4.44923441,15.1654682 Z" id="Screen" fill="#ECF0FF"></path>
                    <path d="M10.5287091,25.0946785 L42.8951863,30.5691487 L42.8951863,30.5691487 C44.2728718,30.8021706 45.28125,31.9954283 45.28125,33.3926815 L45.28125,44.7658806 L45.28125,44.7658806 C45.28125,46.3474233 43.9991563,47.629517 42.4176136,47.629517 C42.2575818,47.629517 42.0978316,47.6161022 41.9400409,47.5894135 L9.57356366,42.1149433 L9.57356366,42.1149433 C8.19587818,41.8819214 7.1875,40.6886637 7.1875,39.2914105 L7.1875,27.9182113 L7.1875,27.9182113 C7.1875,26.3366686 8.46959367,25.054575 10.0511364,25.054575 C10.2111682,25.054575 10.3709184,25.0679898 10.5287091,25.0946785 Z" id="messages" fill="#FFFFFF"></path>
                    <path d="M11.014125,29.9706847 L10.85025,31.5641345 L11.186625,31.6155051 C11.247,31.5096283 11.341875,31.4336268 11.462625,31.3944099 C11.5790625,31.3503831 11.7084375,31.3412047 11.8550625,31.3634451 C12.0793125,31.3974599 12.256125,31.4861208 12.3811875,31.6370899 C12.5105625,31.7846879 12.5795625,31.9767919 12.5795625,32.2120117 C12.5795625,32.4183449 12.50625,32.5761794 12.36825,32.6867702 C12.2259375,32.7965832 12.049125,32.8349769 11.8335,32.8013614 C11.64375,32.7717798 11.4841875,32.7016562 11.3634375,32.5964952 C11.2254375,32.4763859 11.1478125,32.3205071 11.1305625,32.1329223 L10.78125,32.0790373 C10.8028125,32.3492057 10.91925,32.5808051 11.134875,32.7705232 C11.324625,32.9399409 11.5575,33.0463383 11.8291875,33.0889229 C12.1310625,33.1362391 12.3898125,33.0860596 12.5968125,32.9409947 C12.81675,32.7853378 12.928875,32.5590412 12.928875,32.2616185 C12.928875,31.9435415 12.834,31.6812516 12.652875,31.4720766 C12.47175,31.267219 12.2345625,31.1448006 11.9413125,31.1005564 C11.799,31.0790849 11.669625,31.0801439 11.548875,31.1112894 C11.4151875,31.1404435 11.3030625,31.1974906 11.2168125,31.2830748 L11.1995625,31.2804574 L11.3030625,30.3135637 L12.8038125,30.5369534 L12.8038125,30.2355098 L11.014125,29.9706847 Z M14.8048125,30.5316034 L15.136875,30.5807396 L15.136875,32.5971096 L15.637125,32.6740552 L15.637125,32.953009 L15.136875,32.8756597 L15.136875,33.5491689 L14.8005,33.4965018 L14.8005,32.823649 L13.2523125,32.5842663 L13.2523125,32.2617545 L14.8048125,30.5316034 Z M14.7875625,30.9734493 L13.549875,32.3530063 L14.8005,32.5453704 L14.8005,30.9753804 L14.7875625,30.9734493 Z M16.189125,30.736444 L16.02525,32.3544515 L16.361625,32.4058221 C16.422,32.2982001 16.516875,32.2208274 16.637625,32.1807378 C16.7540625,32.1357761 16.8834375,32.1261614 17.0300625,32.1484018 C17.2543125,32.1824166 17.431125,32.2720124 17.5561875,32.4249761 C17.6855625,32.5745063 17.7545625,32.7693528 17.7545625,33.0081254 C17.7545625,33.217575 17.68125,33.3779651 17.54325,33.4905504 C17.4009375,33.6023579 17.224125,33.641749 17.0085,33.6081335 C16.81875,33.5785518 16.6591875,33.5077426 16.5384375,33.4012726 C16.4004375,33.2796675 16.3228125,33.1216071 16.3055625,32.9312175 L15.95625,32.8773326 C15.9778125,33.1515523 16.09425,33.3863928 16.309875,33.5784795 C16.499625,33.7500164 16.7325,33.8574734 17.0041875,33.900058 C17.3060625,33.9473742 17.5648125,33.8958234 17.7718125,33.7480783 C17.99175,33.5895543 18.103875,33.3595803 18.103875,33.0576699 C18.103875,32.7347935 18.009,32.4687638 17.827875,32.2568464 C17.64675,32.0493086 17.4095625,31.9255812 17.1163125,31.881337 C16.974,31.8598655 16.844625,31.8612362 16.723875,31.8931296 C16.5901875,31.9230317 16.4780625,31.9812008 16.3918125,32.0682808 L16.3745625,32.0656635 L16.4780625,31.0838729 L17.9788125,31.3072626 L17.9788125,31.001269 L16.189125,30.736444 Z M19.6606875,31.1911735 C19.3501875,31.1452803 19.09575,31.2085969 18.906,31.3822335 C18.71625,31.5514501 18.6170625,31.805408 18.6170625,32.1413584 L18.9706875,32.1947459 C18.975,31.9305643 19.0396875,31.7384667 19.1604375,31.6219455 C19.2725625,31.4956327 19.4364375,31.4526759 19.64775,31.4840869 C19.846125,31.5135748 20.0056875,31.5878866 20.1178125,31.7057888 C20.2299375,31.8237559 20.286,31.9713728 20.286,32.15703 C20.286,32.3511262 20.2040625,32.5201611 20.0488125,32.6611094 C19.966875,32.7329808 19.8073125,32.8309124 19.5658125,32.962533 C19.2380625,33.1311732 19.018125,33.2781856 18.897375,33.3940717 C18.690375,33.5847165 18.5911875,33.8170796 18.5911875,34.0900191 L20.6439375,34.4114232 L20.6439375,34.1030863 L19.02675,33.8513012 C19.0828125,33.6581902 19.3070625,33.4615518 19.6995,33.2652073 C20.018625,33.1034495 20.2299375,32.9712713 20.33775,32.8780057 C20.536125,32.6971 20.639625,32.4762746 20.639625,32.2144027 C20.639625,31.9525307 20.54475,31.7229885 20.363625,31.5356343 C20.1781875,31.3478076 19.9453125,31.2332422 19.6606875,31.1911735 Z M21.364125,31.5022032 L21.20025,33.1447686 L21.536625,33.1961392 C21.597,33.0867719 21.691875,33.0080279 21.812625,32.9670658 C21.9290625,32.9211691 22.0584375,32.9111181 22.2050625,32.9333586 C22.4293125,32.9673733 22.606125,33.0579041 22.7311875,33.2128623 C22.8605625,33.3643247 22.9295625,33.5619138 22.9295625,33.8042391 C22.9295625,34.0168052 22.85625,34.1797508 22.71825,34.2943307 C22.5759375,34.4081327 22.399125,34.448521 22.1835,34.4149055 C21.99375,34.3853239 21.8341875,34.313829 21.7134375,34.2060501 C21.5754375,34.0829491 21.4978125,33.9227072 21.4805625,33.7295127 L21.13125,33.6756278 C21.1528125,33.9538989 21.26925,34.1919806 21.484875,34.3864358 C21.674625,34.5600919 21.9075,34.6686085 22.1791875,34.7111931 C22.4810625,34.7585093 22.7398125,34.7055872 22.9468125,34.555162 C23.16675,34.3937709 23.278875,34.1601193 23.278875,33.8537212 C23.278875,33.5260455 23.184,33.256276 23.002875,33.0416161 C22.82175,32.8313982 22.5845625,32.7063619 22.2913125,32.6621177 C22.149,32.6406462 22.019625,32.6423285 21.898875,32.6749699 C21.7651875,32.7056199 21.6530625,32.7649109 21.5668125,32.8534869 L21.5495625,32.8508695 L21.6530625,31.8541822 L23.1538125,32.0775719 L23.1538125,31.7670283 L21.364125,31.5022032 Z M25.1548125,32.0631218 L25.486875,32.1122581 L25.486875,34.1890877 L25.987125,34.2660333 L25.987125,34.5533392 L25.486875,34.4759899 L25.486875,35.1696939 L25.1505,35.1170268 L25.1505,34.4239792 L23.6023125,34.1845965 L23.6023125,33.8523614 L25.1548125,32.0631218 Z M25.1375625,32.5183063 L23.899875,33.9449844 L25.1505,34.1373484 L25.1505,32.5202374 L25.1375625,32.5183063 Z" id="545254" fill="#000000" opacity="0.15963153"></path>
                    <path d="M23.503125,10.7911175 L32.559375,12.43957 C32.8372433,12.4904826 33.0625,12.6752397 33.0625,12.8522187 L33.0625,13.3328918 C33.0625,13.5098707 32.8372433,13.6119701 32.559375,13.560955 L23.503125,11.909072 C23.2252567,11.8587194 23,11.6749327 23,11.4985553 L23,11.0195157 C23,10.8431383 23.2252567,10.7408729 23.503125,10.7911175 Z" id="micro" fill="#233151"></path>
                </g>
            </g>
        </g>
    </g>
</svg>