<svg width="311" height="76" viewBox="0 0 311 76" fill="none" xmlns="http://www.w3.org/2000/svg">
<path d="M54.68 47.4L62.2 49.4C60.28 55.48 57.96 61 55.24 65.88L71.08 65.88L71.08 72.92L3.08 72.92L3.08 65.88L47.08 65.88C49.96 60.68 52.44 54.52 54.68 47.4ZM18.36 48.12C20.6 52.36 22.6 57.24 24.44 62.76L17.56 64.52C15.96 59.56 13.96 54.84 11.4 50.36L18.36 48.12ZM36.84 46.52C38.68 51 40.28 56.2 41.72 62.04L34.92 63.72C33.56 58.52 31.88 53.56 29.8 48.76L36.84 46.52ZM16.04 39.48C12.2 41.08 8.2 42.68 4.04 44.2L0.36 37.56C14.12 33.08 25.48 27.56 34.6 21L39.4 21C49.32 28.04 60.68 33.64 73.64 37.72L69.96 44.28C65.72 42.84 61.72 41.24 58.04 39.56L58.04 45.16L16.04 45.16L16.04 39.48ZM55.8 38.52C48.76 35.16 42.44 31.4 37 27.16C31.72 31.32 25.4 35.08 18.12 38.52L55.8 38.52ZM13.96 14.44C11.96 18.28 9.72 21.88 7.24 25.08L0.68 20.92C5.64 14.76 9.08 8.2 11.16 1.16L18.52 2.76C17.96 4.52 17.4 6.12 16.84 7.72L36.76 7.72L36.76 14.44L26.76 14.44C27.88 16.84 28.76 19.08 29.48 21.16L22.6 23.64C21.64 20.44 20.52 17.4 19.24 14.44L13.96 14.44ZM47.48 14.44C46.2 17 44.76 19.48 43.16 21.72L36.76 17.64C40.44 12.52 43.16 7.08 44.76 1.16L51.96 2.76C51.48 4.52 50.92 6.12 50.36 7.72L72.84 7.72L72.84 14.44L61.56 14.44C63.08 17.08 64.28 19.56 65.24 21.8L58.28 24.44C57 20.92 55.48 17.64 53.8 14.44L47.48 14.44ZM151.4 9.16L151.4 27.88L143.72 27.88L143.72 16.36L90.28 16.36L90.28 27.88L82.6 27.88L82.6 9.16L113.16 9.16C112.04 6.6 110.92 4.2 109.64 2.04L118.36 0.599997C119.48 3.16 120.6 5.96 121.64 9.16L151.4 9.16ZM95.16 23.48L138.68 23.48V30.52C133.64 34.04 128.04 37.56 121.8 41L121.8 44.92L152.68 44.92V52.28L121.8 52.28L121.8 67.32C121.8 72.36 119.16 74.92 113.88 74.92L104.04 74.92L102.2 68.04C105 68.12 108.04 68.2 111.32 68.2C113.24 68.2 114.2 67 114.2 64.68L114.2 52.28L81.4 52.28V44.92L114.2 44.92L114.2 37.88C119.8 34.92 124.2 32.44 127.4 30.52L95.16 30.52L95.16 23.48ZM161.56 8.04L179.64 8.04L179.64 1.32L187.4 1.32L187.4 8.04L206.6 8.04L206.6 1.32L214.36 1.32L214.36 8.04L232.44 8.04V15L214.36 15V21.8L206.6 21.8V15L187.4 15V21.8L179.64 21.8V15L161.56 15V8.04ZM172.76 20.28C177.8 23.8 182.04 27.24 185.56 30.76L180.36 35.96C177.32 32.6 173 29.08 167.48 25.32L172.76 20.28ZM167.72 33.88C172.68 37.32 176.92 40.76 180.44 44.2L175.32 49.4C172.28 46.12 167.96 42.6 162.52 38.92L167.72 33.88ZM175.72 51.4L182.2 54.52C179.24 61.8 175.4 68.84 170.68 75.64L163.64 71.96C168.68 65.08 172.68 58.2 175.72 51.4ZM218.52 30.52L197.56 30.52L197.56 63.08C197.56 65.48 198.92 66.76 201.64 66.76L216.92 66.76C220.36 66.76 222.44 66.04 223.16 64.6C224.04 63 224.68 59.8 225.16 55L232.44 57.32C231.64 65.32 230.44 70.12 228.76 71.72C227 73.16 223.8 73.96 219.16 73.96L198.36 73.96C192.6 73.96 189.8 71.24 189.8 65.88L189.8 23.8L226.04 23.8L226.04 46.36C225.96 50.68 223.48 52.92 218.6 53.16C215.24 53.16 211.96 53.08 208.76 52.92L207 45.8C210.28 46.12 213.16 46.28 215.64 46.28C217.56 46.28 218.52 45.4 218.52 43.72L218.52 30.52ZM255.32 18.28L272.92 18.28V13.16L280.28 13.16V18.28L298.44 18.28V24.68L280.28 24.68V29.48L295 29.48L295 35.72L280.28 35.72V40.52L299.32 40.52C299.08 49.16 298.36 54.6 297.24 56.84C295.96 59.16 293 60.36 288.44 60.44C287.48 60.44 286.36 60.28 285.08 60.12L283 53.96C284.76 54.12 286.36 54.28 287.64 54.28C289.72 54.28 291 53.8 291.48 52.92C291.96 52.12 292.2 50.12 292.28 46.92L280.28 46.92V63.32L272.92 63.32V46.92L254.2 46.92V40.52L272.92 40.52V35.72L258.76 35.72L258.76 29.48L272.92 29.48V24.68L255.32 24.68V18.28ZM310.52 4.12L310.52 75.32L303.24 75.32V72.28L250.76 72.28L250.76 75.32L243.48 75.32L243.48 4.12L310.52 4.12ZM250.76 65.56L303.24 65.56L303.24 10.84L250.76 10.84L250.76 65.56Z" fill="#F2F3F5"/>
</svg>
