<svg width="404" height="78" viewBox="0 0 404 78" fill="none" xmlns="http://www.w3.org/2000/svg">
<path d="M383.588 16.3457C390.312 16.3457 395.515 18.6691 399.037 23.4818C402.239 27.7967 403.92 33.7711 404 41.405L372.621 41.405C372.941 45.5539 373.982 48.7901 375.903 51.0305C377.824 53.1879 380.466 54.3496 383.828 54.3496C386.79 54.3496 389.191 53.6028 391.032 52.1922C392.473 51.0305 393.674 49.122 394.794 46.6326L403.28 46.6326C402.319 50.6156 400.478 54.0177 397.596 56.673C393.994 59.9091 389.431 61.5687 383.908 61.5687C377.824 61.5687 372.941 59.5772 369.419 55.6772C365.577 51.5283 363.656 45.9688 363.656 38.9157C363.656 32.5264 365.417 27.2158 369.099 22.901C372.621 18.5031 377.504 16.3457 383.588 16.3457ZM383.828 23.5648C380.626 23.5648 378.144 24.4775 376.223 26.469C374.462 28.3775 373.262 31.1158 372.781 34.7668L395.115 34.7668C394.314 27.2988 390.552 23.5648 383.828 23.5648Z" fill="#F2F3F5"/>
<path d="M335.348 16.3457C340.791 16.3457 344.954 18.5861 347.996 23.2329V17.5074L356.481 17.5074L356.481 57.5857C356.481 71.1941 349.997 77.9983 337.189 77.9983C331.426 77.9983 327.023 76.8366 323.981 74.5962C320.94 72.2728 319.098 68.7877 318.298 64.058L326.783 64.058C327.263 66.5473 328.224 68.3728 329.825 69.4516C331.346 70.4473 333.827 71.0281 337.189 71.0281C344.394 71.0281 347.996 66.9622 347.996 58.9134V52.2751C344.954 57.0049 340.791 59.4112 335.348 59.4112C329.745 59.4112 325.182 57.4198 321.74 53.5198C318.218 49.6198 316.537 44.4752 316.537 38.0029C316.537 31.5307 318.218 26.386 321.74 22.4031C325.182 18.3372 329.745 16.3457 335.348 16.3457ZM336.629 23.4818C333.027 23.4818 330.225 24.7265 328.304 27.3818C326.223 29.8711 325.262 33.4391 325.262 38.0029C325.262 42.1518 326.063 45.4709 327.664 47.8773C329.505 50.6985 332.466 52.1922 336.629 52.1922C340.231 52.1922 343.033 50.9475 345.114 48.4581C347.035 45.8858 348.076 42.4008 348.076 38.0029C348.076 33.5221 347.035 29.9541 345.114 27.3818C343.033 24.7265 340.231 23.4818 336.629 23.4818Z" fill="#F2F3F5"/>
<path d="M292.989 16.3457C303.235 16.3457 308.438 22.1542 308.438 33.937L308.438 60.407L299.953 60.407V34.6838C299.953 27.3818 296.671 23.7307 290.267 23.7307C287.866 23.7307 285.705 24.5605 283.944 26.386C282.022 28.3775 280.822 31.1158 280.501 34.6008V60.407L272.016 60.407L272.016 17.5074L280.501 17.5074V22.818C282.102 20.6606 283.944 19.084 286.025 18.0053C288.106 16.8436 290.427 16.3457 292.989 16.3457Z" fill="#F2F3F5"/>
<path d="M245.093 16.3457C251.177 16.3457 255.66 17.9223 258.542 21.0754C261.023 23.8137 262.304 27.7967 262.304 33.0243L262.304 60.407L254.459 60.407L254.459 54.3496C252.858 56.507 250.857 58.2495 248.455 59.4942C245.734 60.8219 242.532 61.5687 238.85 61.5687C234.527 61.5687 231.165 60.407 228.764 58.1666C226.122 55.9262 224.841 53.0219 224.841 49.4539C224.841 44.6412 226.682 40.9072 230.365 38.3348C233.727 35.8455 238.53 34.6008 244.613 34.4349L253.899 34.1859V32.4434C253.899 26.469 250.777 23.4818 244.533 23.4818C241.892 23.4818 239.73 23.9797 238.129 24.9754C236.208 26.1371 235.007 27.8796 234.527 30.286L226.122 29.5392C227.003 24.8924 229.244 21.4074 232.766 19.2499C235.808 17.2585 239.97 16.3457 245.093 16.3457ZM253.899 40.5752L245.174 40.8242C237.409 40.9901 233.567 43.8114 233.567 49.122C233.567 50.7815 234.207 52.1092 235.568 53.1879C236.849 54.2666 238.61 54.8474 240.771 54.8474C244.373 54.8474 247.415 53.6858 249.976 51.4454C252.538 49.2049 253.899 46.3837 253.899 43.0646V40.5752Z" fill="#F2F3F5"/>
<path d="M215.87 16.3457C217.951 16.3457 219.793 16.6776 221.233 17.4244L221.233 26.2201C219.152 25.5563 217.151 25.3073 215.23 25.3073C212.668 25.3073 210.347 26.386 208.346 28.5435C206.184 30.8668 205.144 33.937 205.144 37.671L205.144 60.407L196.659 60.407L196.659 17.5074L205.144 17.5074V23.9797C206.184 21.6563 207.545 19.9138 209.146 18.7521C211.067 17.0925 213.309 16.3457 215.87 16.3457Z" fill="#F2F3F5"/>
<path d="M144.853 16.3457C155.099 16.3457 160.302 22.1542 160.302 33.937L160.302 60.407L151.817 60.407L151.817 34.6838C151.817 27.3818 148.535 23.7307 142.132 23.7307C139.73 23.7307 137.569 24.5605 135.808 26.386C133.887 28.3775 132.686 31.1158 132.366 34.6008L132.366 60.407L123.881 60.407L123.881 17.5074L132.366 17.5074V22.818C133.967 20.6606 135.808 19.084 137.889 18.0053C139.97 16.8436 142.292 16.3457 144.853 16.3457Z" fill="#F2F3F5"/>
<path d="M93.1716 16.3457C98.6149 16.3457 102.777 18.5861 105.819 23.2329L105.819 17.5074L114.304 17.5074L114.304 57.5857C114.304 71.1941 107.82 77.9983 95.0128 77.9983C89.2493 77.9983 84.8466 76.8366 81.8048 74.5962C78.763 72.2728 76.9219 68.7877 76.1214 64.058L84.6065 64.058C85.0868 66.5473 86.0474 68.3728 87.6483 69.4516C89.1692 70.4473 91.6507 71.0281 95.0128 71.0281C102.217 71.0281 105.819 66.9622 105.819 58.9134L105.819 52.2751C102.777 57.0049 98.6149 59.4112 93.1716 59.4112C87.5683 59.4112 83.0055 57.4198 79.5635 53.5198C76.0414 49.6198 74.3604 44.4752 74.3604 38.0029C74.3604 31.5307 76.0414 26.386 79.5635 22.4031C83.0055 18.3372 87.5683 16.3457 93.1716 16.3457ZM94.4524 23.4818C90.8503 23.4818 88.0486 24.7265 86.1274 27.3818C84.0462 29.8711 83.0856 33.4391 83.0856 38.0029C83.0856 42.1518 83.8861 45.4709 85.487 47.8773C87.3281 50.6985 90.2899 52.1922 94.4524 52.1922C98.0546 52.1922 100.856 50.9475 102.938 48.4581C104.859 45.8858 105.899 42.4008 105.899 38.0029C105.899 33.5221 104.859 29.9541 102.938 27.3818C100.856 24.7265 98.0546 23.4818 94.4524 23.4818Z" fill="#F2F3F5"/>
<path d="M60.2332 0.332031C61.9142 0.332031 63.355 0.829897 64.4757 1.99159C65.5964 3.0703 66.1567 4.48092 66.1567 6.22346C66.1567 7.966 65.5163 9.37662 64.3957 10.5383C63.275 11.617 61.8341 12.1979 60.2332 12.1979C58.5521 12.1979 57.1913 11.617 56.0707 10.5383C54.95 9.37662 54.3896 7.88302 54.3896 6.22346C54.3896 4.48092 54.95 3.0703 56.0707 1.99159C57.1913 0.829897 58.5521 0.332031 60.2332 0.332031ZM55.9906 17.5085L64.4757 17.5085L64.4757 60.408L55.9906 60.408L55.9906 17.5085Z" fill="#F2F3F5"/>
<path d="M23.2139 0C29.8579 0 35.061 1.41063 38.8233 4.39783C42.8257 7.46801 45.0671 12.1978 45.6274 18.67L36.9822 18.67C36.1817 14.853 34.7409 12.0318 32.4995 10.3722C30.2582 8.6297 27.0562 7.79992 22.7336 7.79992C18.9714 7.79992 16.0897 8.38077 14.0885 9.54246C11.607 10.8701 10.4062 13.0275 10.4062 16.0147C10.4062 18.67 11.7671 20.7445 14.6488 22.3211C15.9296 23.0679 19.2115 24.3125 24.5748 25.9721C32.2594 28.4614 37.3024 30.3699 39.5437 31.7805C44.4267 34.8507 46.9082 39.0826 46.9082 44.5591C46.9082 49.8697 44.907 54.0186 40.9045 57.0888C36.9021 60.076 31.2988 61.5696 24.0945 61.5696C17.1303 61.5696 11.687 60.076 7.76466 57.2547C3.04183 53.7697 0.480288 48.2931 0 40.8251L8.64519 40.8251C9.28557 45.4719 10.8865 48.874 13.4481 50.8655C15.7695 52.691 19.2916 53.6037 24.0945 53.6037C28.4171 53.6037 31.8591 52.7739 34.4207 51.2803C36.9822 49.7867 38.263 47.7123 38.263 45.057C38.263 41.7379 36.4219 39.1656 32.8197 37.2571C31.5389 36.5933 27.7767 35.2656 21.4529 33.2741C14.4086 30.9508 10.0861 29.3742 8.325 28.3784C3.92235 25.6402 1.76106 21.6572 1.76106 16.5126C1.76106 11.285 3.84231 7.21908 8.08485 4.23187C12.0873 1.41063 17.1303 0 23.2139 0Z" fill="#F2F3F5"/>
</svg>
