<?xml version="1.0" standalone="no"?>
<!DOCTYPE svg PUBLIC "-//W3C//DTD SVG 1.1//EN" "http://www.w3.org/Graphics/SVG/1.1/DTD/svg11.dtd" >
<!--
2013-9-30: Created.
-->
<svg>
<metadata>
Created by iconfont
</metadata>
<defs>

<font id="es-icon" horiz-adv-x="1024" >
  <font-face
    font-family="es-icon"
    font-weight="500"
    font-stretch="normal"
    units-per-em="1024"
    ascent="896"
    descent="-128"
  />
    <missing-glyph />
    
    <glyph glyph-name="inspection-result" unicode="&#59198;" d="M907.32894746 482.72368389c15.86842119 0 26.38421016-10.42105254 26.38421015-26.19473642l0.5684212-468.28421104c0-15.77368388-10.56315761-26.24210508-26.28947373-26.24210508H107.98684238c-15.77368388 0-26.33684239 10.42105254-26.33684238 26.24210508V504.32368389c0 15.72631612 4.40526357 26.24210508 20.17894746 26.24210595h26.62105254V767.26578984c0 47.36842119-0.18947373 47.36842119 48.45789492 47.36842032h567.14210508c48.26842119 0 47.27368388 0 47.27368388-47.36842032v-94.83157968h47.60526358c47.46315762 0 47.88947373 1.04210508 47.36842119-48.78947373l0.09473643-140.87368389h20.93684238zM838.64473642 483.67105254V625.77631612H270.22368388v-94.40526358h113.73157969c7.91052627 0 15.82105254-2.60526357 23.68421016-5.21052627l84.22105253-37.27894745c7.91052627-2.55789492 15.77368388-5.21052627 23.63684239-5.21052628H838.64473642zM175.48684238 767.88157882v-236.84210508h47.51052627V623.3131576200001c0 49.87894746-1.27894746 49.5 43.62631523 49.5H743.90789492V767.88157882H175.48684238z m65.08421015-473.68421016h201.31578985c9.94736865 0 17.81052627 11.51052627 17.81052627 24.34736777 0 12.88421016-7.81578984 23.02105253-17.85789492 23.02105341H240.61842118c-9.94736865 0-17.76315762-11.51052627-17.76315761-24.3947373 0-12.78947373 7.81578984-22.97368388 17.76315761-22.97368388z m0.09473731-94.73684239c-9.94736865 0-17.81052627-10.65789492-17.81052627-23.58947373 0-12.78947373 7.76842119-23.77894746 17.81052627-23.77894746h390.6c9.99473643 0 17.90526357 10.08947373 17.90526269 22.97368476 0 12.93157881-7.91052627 24.39473643-17.90526269 24.39473643H240.66578984z"  horiz-adv-x="1024" />

    
    <glyph glyph-name="living" unicode="&#59199;" d="M910.222222 54.44266700000003V713.671111c-0.170667 37.831111-32.426667 68.494222-72.419555 68.551111-39.879111-0.056889-72.248889-30.72-72.362667-68.551111v-659.342222c0.113778-37.831111 32.426667-68.494222 72.362667-68.551111 39.992889 0.056889 72.248889 30.72 72.419555 68.551111m-434.403555 0V713.671111c0 37.546667-32.597333 68.494222-72.419556 68.494222s-72.419556-30.890667-72.419555-68.608v-659.228444c0-37.660444 32.597333-68.551111 72.419555-68.551111s72.419556 30.890667 72.419556 68.551111m217.201777 11.150222V463.530667c-0.170667 44.032-32.426667 79.644444-72.419555 79.815111-39.936-0.170667-72.248889-35.84-72.419556-79.815111v-397.824c0.170667-44.032 32.426667-79.644444 72.419556-79.758223 39.879111 0.170667 72.248889 35.84 72.419555 79.758223m-434.460444 0V463.473778c-0.113778 44.032-32.426667 79.644444-72.362667 79.758222-39.992889-0.113778-72.248889-35.84-72.419555-79.758222v-397.824c0.170667-44.032 32.426667-79.644444 72.419555-79.815111 39.879111 0.170667 72.248889 35.84 72.362667 79.815111"  horiz-adv-x="1024" />

    
    <glyph glyph-name="markdone" unicode="&#59146;" d="M512 832a448 448 0 1 1 0-896A448 448 0 0 1 512 832z m-40-644.032l-80 78.464-160 156.8 80 78.336 160-156.8 240 235.2 80-78.336-320-313.6z"  horiz-adv-x="1024" />

    
    <glyph glyph-name="tip" unicode="&#59194;" d="M512 832C265.6 832 64 630.4 64 384s201.6-448 448-448 448 201.6 448 448-201.6 448-448 448z m-56-224h112v-112h-112V608z m168-448h-224v56h56V384H400v56h168v-224h56v-56z"  horiz-adv-x="1024" />

    
    <glyph glyph-name="switch" unicode="&#59196;" d="M512 768C300.416 768 128 595.7760000000001 128 384c0.128-211.776 172.352-384 384-384 211.776 0 384 172.224 384 384 0 211.648-172.224 384-384 384z m210.24-470.784v-1.664l-0.128-1.536-0.064-0.832c0-0.512-0.128-0.96-0.192-1.472l-0.128-0.96-0.192-1.152a5.632 5.632 0 0 1-0.192-1.28c-0.064-0.256-0.064-0.576-0.192-0.768l-0.384-1.728-0.064-0.256a48.96 48.96 0 0 0-12.8-22.4l-112.384-112.384c-19.2-19.264-50.752-19.264-69.888 0-19.264 19.2-19.264 50.752 0 69.888l27.84 27.84h-202.24a49.6 49.6 0 0 0-49.472 49.472c0 27.264 22.272 49.472 49.536 49.472h321.536a49.408 49.408 0 0 0 49.472-49.472l-0.064-0.768z m0.064 172.8a49.6 49.6 0 0 0-49.472-49.472H351.296a49.408 49.408 0 0 0-49.536 49.472V472.32l0.128 1.536 0.064 0.896 0.192 1.408 0.128 0.96 0.192 1.152a5.632 5.632 0 0 1 0.192 1.28c0.064 0.32 0.064 0.64 0.192 0.768 0.064 0.64 0.256 1.152 0.384 1.728l0.064 0.32c2.112 8.192 6.4 16 12.8 22.4l112.256 112.256A49.536 49.536 0 0 0 498.24 547.2l-27.584-27.712h202.176c27.136 0 49.472-22.272 49.472-49.408z"  horiz-adv-x="1024" />

    
    <glyph glyph-name="site" unicode="&#59197;" d="M317.952 486.72l164.928 176.64A39.808 39.808 0 0 0 512 676.2239999999999a39.68 39.68 0 0 0 29.12-12.864l165.568-177.28L879.68 300.79999999999995c1.728-1.792 4.544-1.28 5.504 1.024A144 144 0 0 1 896 356.736c0 36.352-13.184 70.4-37.12 96.128L601.728 728.256a121.344 121.344 0 0 1-179.648 0L165.184 452.928c-24-25.6-37.184-59.712-37.184-96.128 0-19.2 3.712-37.888 10.816-54.848 0.96-2.304 3.84-2.88 5.504-1.088l173.632 185.856zM233.536 333.44000000000005a28.416 28.416 0 0 1-7.488-19.392v-220.16c0-51.84 39.232-93.888 87.68-93.888H405.76c9.28 0 16.832 8 16.832 18.048V231.03999999999996c0 10.88 12.544 15.744 21.568 15.744h135.744c10.368 0 21.568-6.016 21.568-15.744v-212.992c0-9.92 7.488-18.048 16.896-18.048H710.4c48.448 0 87.68 42.112 87.68 93.824V314.048a28.416 28.416 0 0 1-7.552 19.392L522.688 620.1600000000001a14.4 14.4 0 0 1-21.504 0L233.6 333.44000000000005z"  horiz-adv-x="1024" />

    
    <glyph glyph-name="tiku" unicode="&#59195;" d="M204.8 256.3456V256c-28.2752 0-51.2-22.9248-51.2-51.182933L153.642667 136.533333c0-28.2752 22.920533-51.2 51.2-51.2H848.469333c-13.76 26.986667-20.740267 55.509333-20.740266 85.333334 0 29.7472 6.941867 58.1376 20.6336 84.949333L597.333333 255.765333V256h-0.042666a25.6 25.6 0 1 0 0.042666 51.2h251.140267c-13.76 26.986667-20.740267 55.509333-20.740267 85.333333 0 29.7472 6.941867 58.1376 20.6336 84.949334L597.333333 477.632V477.866667h-0.042666a25.6 25.6 0 1 0 0.042666 51.2h251.1232C834.705067 556.0576 827.733333 584.576 827.733333 614.4c0 29.7472 6.9376 58.1376 20.616534 84.949333L204.7872 699.733333h-0.029867c-28.2752 0-51.2-22.9248-51.2-51.182933L153.6 580.266667c0-28.2752 22.9248-51.2 51.2-51.2v-0.3456a25.6 25.6 0 1 0 0-50.504534V477.866667c-28.2752 0-51.2-22.9248-51.2-51.182934L153.642667 358.4c0-28.2624 22.8992-51.178667 51.157333-51.2v-0.3456a25.6 25.6 0 1 0 0-50.504533z m716.885333 25.045333c0.081067-5.700267-1.770667-11.562667-5.998933-16.618666C890.948267 235.1616 878.933333 204.074667 878.933333 170.666667c0-33.429333 12.036267-64.695467 36.821334-94.596267 13.824-16.686933 1.962667-41.937067-19.712-41.937067h-691.2c-56.554667 0-102.4 45.845333-102.4 102.382934L102.4 204.8c0 30.592 13.4144 58.052267 34.688 76.817067-21.248 18.760533-34.645333 46.203733-34.645333 76.765866L102.4 426.666667c0 30.583467 13.405867 58.0352 34.666667 76.8C115.805867 522.2272 102.4 549.674667 102.4 580.2496L102.357333 648.533333c0 56.554667 45.845333 102.4 102.4 102.4h0.059734l691.2-0.413866c21.704533-0.0128 33.544533-25.339733 19.6352-42.005334C890.939733 678.903467 878.933333 647.808 878.933333 614.4c0-33.4336 12.027733-64.704 36.7872-94.609067a25.224533 25.224533 0 0 0 5.9008-14.984533c0.4608-6.186667-1.322667-12.650667-5.930666-18.167467C890.944 457.028267 878.933333 425.941333 878.933333 392.533333c0-33.429333 12.036267-64.695467 36.821334-94.596266 4.177067-5.0432 6.007467-10.8672 5.930666-16.541867z m-585.813333-73.787733c-17.450667-15.837867-44.433067-14.528-60.266667 2.922667a42.666667 42.666667 0 0 0-11.072 28.672V546.133333c0 23.5648 19.101867 42.666667 42.666667 42.666667h187.733333c23.5648 0 42.666667-19.101867 42.666667-42.666667v-306.935466c0-23.5648-19.101867-42.666667-42.666667-42.666667a42.666667 42.666667 0 0 0-28.672 11.072L401.066667 266.760533l-65.194667-59.157333zM315.733333 537.6v-279.133867l56.661334 51.413334a42.666667 42.666667 0 0 0 57.344 0l56.661333-51.413334V537.6H315.733333z"  horiz-adv-x="1024" />

    
    <glyph glyph-name="placeholder" unicode="&#59193;" d="M276.443429 800.566857h-157.988572c-26.678857 0-49.225143-22.564571-49.225143-49.243428v-771.474286c0-26.660571 22.546286-49.243429 49.225143-49.243429h155.940572c26.697143 0 49.243429 22.582857 49.243428 49.243429V751.323429c2.048 26.678857-20.516571 49.243429-47.177143 49.243428z m-80-794.057143c-24.630857 0-47.195429 20.534857-47.195429 47.213715 0 26.678857 20.516571 47.177143 47.177143 47.177142 24.630857 0 47.195429-20.498286 47.195428-47.177142s-20.516571-47.177143-47.177142-47.177143v-0.036572z m42.075428 285.732572H165.394286V716.4342859999999h73.142857v-424.228572z m364.178286 508.342857H407.771429c-26.678857 0-49.243429-22.582857-49.243429-49.261714v-771.474286c0-26.660571 22.564571-49.243429 49.225143-49.243429h194.925714c26.678857 0 49.243429 22.582857 49.243429 49.243429V751.323429c0 26.678857-22.564571 49.243429-49.243429 49.243428h0.018286z m-96.438857-808.411429c-32.822857 0-61.549714 26.660571-61.549715 61.549715 0 34.870857 26.660571 61.549714 61.549715 61.549714 34.889143 0 61.549714-26.678857 61.549714-61.549714 0-34.889143-28.708571-61.568-61.549714-61.568z m58.093714 283.373715h-109.714286V714.386286h109.714286v-438.857143 0.018286z m329.691429 525.019428h-155.940572c-26.660571 0-49.243429-22.564571-49.243428-49.243428v-771.474286c0-26.660571 22.582857-49.243429 49.243428-49.243429h155.940572c26.678857 0 49.243429 22.582857 49.243428 49.243429V751.323429c0 26.678857-22.564571 49.243429-49.243428 49.243428z m-80.018286-794.057143c-24.630857 0-47.177143 20.534857-47.177143 47.213715 0 26.678857 20.48 47.177143 47.177143 47.177142 24.630857 0 47.177143-20.498286 47.177143-47.177142s-20.516571-47.177143-47.177143-47.177143v-0.036572z m42.093714 285.732572h-73.142857V716.4342859999999h73.142857v-424.228572z"  horiz-adv-x="1024" />

    
    <glyph glyph-name="entry-receipt" unicode="&#59192;" d="M841.142857 416.036571a274.285714 274.285714 0 0 1-280.868571-465.846857c-15.286857-6.765714-33.097143-4.388571-46.08 6.144l-62.537143 49.810286-56.027429-49.810286c-7.972571-6.948571-18.249143-10.752-28.854857-10.605714-10.459429-0.146286-20.626286 3.620571-28.562286 10.496l-55.917714 49.810286-56.539428-50.249143c-7.972571-6.948571-18.212571-10.715429-28.818286-10.605714a42.788571 42.788571 0 0 0-28.635429 10.496l-65.609143 58.368a31.378286 31.378286 0 0 0-5.376 6.034285A57.709714 57.709714 0 0 0 73.142857 66.23085700000001V778.825143C73.142857 803.108571 92.891429 822.857143 116.662857 822.857143h680.96c24.027429 0 43.52-19.565714 43.52-44.032v-362.788572zM160.914286 454.729143c0-11.593143 9.581714-21.613714 21.394285-21.613714h198.582858a21.211429 21.211429 0 0 1 21.394285 21.577142 21.76 21.76 0 0 1-21.394285 21.686858h-198.582858a21.284571 21.284571 0 0 1-21.394285-21.650286z m0-173.202286a21.577143 21.577143 0 0 1 21.101714-21.650286h155.245714a21.394286 21.394286 0 0 1 21.138286 21.650286 21.613714 21.613714 0 0 1-21.138286 21.613714H182.016a21.394286 21.394286 0 0 1-21.101714-21.577142z m0 368.091429c0-11.629714 9.654857-21.650286 21.613714-21.650286h285.915429a21.577143 21.577143 0 0 1 21.613714 21.650286 21.833143 21.833143 0 0 1-21.613714 21.686857H182.528a21.504 21.504 0 0 1-21.613714-21.686857zM731.428571-54.85714299999995a219.428571 219.428571 0 1 0 0 438.857143 219.428571 219.428571 0 0 0 0-438.857143z m103.497143 222.390857a18.212571 18.212571 0 1 1 0 36.315429h-47.286857l47.177143 47.067428a18.102857 18.102857 0 0 1 0 25.782858 18.358857 18.358857 0 0 1-25.782857 0l-67.072-66.816-67.035429 66.779428a18.358857 18.358857 0 0 1-31.305143-12.909714c0-4.827429 1.974857-9.508571 5.412572-12.873143l47.286857-47.030857h-44.251429a18.212571 18.212571 0 0 1 0-36.352h73.142858v-36.388572h-73.142858a18.212571 18.212571 0 0 1 0-36.425142h73.142858v-42.422858a18.285714 18.285714 0 0 1 36.571428 0v42.422858h73.142857a18.212571 18.212571 0 1 1 0 36.425142h-73.142857v36.425143h73.142857z"  horiz-adv-x="1024" />

    
    <glyph glyph-name="entry-coin" unicode="&#59191;" d="M413.696 485.814857c0-31.597714 21.065143-56.173714 77.238857-73.728V556.0319999999999c-49.152-3.510857-73.728-28.086857-77.238857-70.217143z m112.347429-126.390857v-161.499429c56.173714 3.510857 87.771429 31.597714 91.282285 80.749715 3.510857 35.108571-24.576 63.195429-91.282285 80.749714zM512 822.857143C269.750857 822.857143 73.142857 626.249143 73.142857 384s196.608-438.857143 438.857143-438.857143 438.857143 196.608 438.857143 438.857143S754.249143 822.857143 512 822.857143z m14.043429-670.573714v-66.706286h-35.108572v70.217143c-77.238857 3.510857-122.88 49.152-136.923428 129.901714l45.641142 14.043429c10.532571-63.195429 38.619429-98.304 94.793143-105.325715V366.44571399999995c-87.771429 21.065143-126.390857 59.684571-122.88 119.369143 3.510857 70.217143 42.130286 108.836571 122.88 115.858286V647.314286h35.108572v-49.152c70.217143-7.021714 112.347429-45.641143 126.390857-115.858286l-45.641143-14.043429c-10.532571 52.662857-35.108571 80.749714-80.749714 91.282286v-150.966857c94.793143-24.576 140.434286-66.706286 136.923428-129.901714-7.021714-77.238857-52.662857-115.858286-140.434285-126.390857z"  horiz-adv-x="1024" />

    
    <glyph glyph-name="entry-bill" unicode="&#59190;" d="M786.285714 758.857143h-146.285714c0 20.114286-16.457143 36.571429-36.571429 36.571428h-219.428571c-20.114286 0-36.571429-16.457143-36.571429-36.571428h-146.285714c-31.085714 0-54.857143-23.771429-54.857143-54.857143v-676.571429c0-31.085714 23.771429-54.857143 54.857143-54.857142h585.142857c31.085714 0 54.857143 23.771429 54.857143 54.857142V704c0 31.085714-23.771429 54.857143-54.857143 54.857143z m-95.085714-447.524572c13.165714 0 21.942857-8.045714 21.942857-20.150857 0-12.068571-8.777143-20.150857-21.942857-20.150857h-175.542857v-161.28c0-12.068571-8.777143-20.150857-21.942857-20.150857s-21.942857 8.045714-21.942857 20.150857v161.28H296.228571c-13.165714 0-21.942857 8.045714-21.942857 20.114286 0 12.141714 8.777143 20.187429 21.942857 20.187428h175.542858V432.274286H296.228571c-13.165714 0-21.942857 8.045714-21.942857 20.150857 0 12.105143 8.777143 20.150857 21.942857 20.150857h122.88L315.977143 567.3325709999999a18.432 18.432 0 0 0 0 28.233143c8.777143 8.045714 21.942857 8.045714 30.72 0l133.851428-122.989714h26.331429l133.851429 122.989714c8.777143 8.045714 21.942857 8.045714 30.72 0s8.777143-20.187429 0-28.233143l-103.131429-94.72h122.88c13.165714 0 21.942857-8.082286 21.942857-20.187428 0-12.068571-8.777143-20.114286-21.942857-20.114286h-175.542857v-120.978286h175.542857z"  horiz-adv-x="1024" />

    
    <glyph glyph-name="entry-refund" unicode="&#59135;" d="M146.285714-54.85714299999995V822.857143h601.965715L877.714286 692.0045709999999V-54.85714299999995H146.285714zM292.571429 633.014857L253.805714 594.212571l90.477715-90.514285 38.765714 38.765714L292.571429 633.051429zM384 457.142857h-146.285714v-54.857143H329.142857v-182.857143l-91.428571-73.142857 36.571428-54.857143 73.142857 54.857143L402.285714 91.42857100000003h384v54.857143H438.857143l-54.857143 73.142857V457.142857z m371.785143-99.986286l-43.008 34.084572-56.795429-71.68-85.979428 68.132571-34.084572-43.008 215.04-170.313143 34.011429 43.008-85.942857 68.132572 56.758857 71.68zM420.571429 256l36.571428-73.142857 149.028572 51.931428L585.142857 292.57142899999997l-91.428571-20.333715V402.285714h256v219.428572H438.857143v-361.654857l-18.285714-4.059429z m310.857142 548.571429V676.571429h128L731.428571 804.571429zM694.857143 530.285714h-201.142857V585.142857H694.857143V530.285714z m0-91.428571h-201.142857V493.714286H694.857143v-54.857143z"  horiz-adv-x="1024" />

    
    <glyph glyph-name="guide" unicode="&#59189;" d="M749.76 389.504l-252.608 270.08a66.368 66.368 0 0 0-15.296 61.056 61.248 61.248 0 0 0 41.728 44.672 56.32 56.32 0 0 0 56.96-16.32l293.76-314.752c11.2-11.84 17.408-27.968 17.408-44.736 0-16.768-6.208-32.896-17.344-44.672l-293.76-314.816a56.32 56.32 0 0 0-57.024-16.32 61.248 61.248 0 0 0-41.728 44.672c-5.44 21.824 0.384 45.12 15.296 61.056l252.608 270.08zM397.248 389.504l-252.672 270.08a66.432 66.432 0 0 0 0 89.408 56.256 56.256 0 0 0 83.456 0l293.76-314.752c11.136-11.84 17.408-27.968 17.408-44.736 0-16.768-6.272-32.896-17.408-44.672l-293.76-314.816a56.256 56.256 0 0 0-83.456 0 66.432 66.432 0 0 0 0 89.408l252.672 270.08z"  horiz-adv-x="1024" />

    
    <glyph glyph-name="app" unicode="&#59188;" d="M788.48 711.5776V56.32000000000005c0-22.2208-8.7552-41.472-26.4192-57.6512-17.6128-16.0768-38.4-24.2688-62.464-24.2688H344.9344a89.088 89.088 0 0 0-62.464 24.3712C264.704 14.950399999999945 256 34.201599999999985 256 56.32000000000005V711.5776c0 22.2208 8.7552 41.2672 26.4192 57.6512A89.088 89.088 0 0 0 344.8832 793.6h354.816c24.064 0 44.7488-8.0896 62.464-24.3712 17.5616-16.384 26.3168-35.5328 26.3168-57.6512z m-66.6624-552.7552V609.0752a19.3024 19.3024 0 0 1-6.5536 14.4384 22.528 22.528 0 0 1-15.6672 6.0416H344.9344a22.6816 22.6816 0 0 1-15.6672-6.0416 19.1488 19.1488 0 0 1-6.5536-14.4384V158.72000000000003c0-5.5296 2.2528-10.3424 6.5536-14.4384a22.528 22.528 0 0 1 15.6672-6.0416h354.816c6.0416 0 11.264 2.048 15.6672 6.0416a19.456 19.456 0 0 1 6.4512 14.5408z m-133.12 542.5152c0 6.8608-3.6864 10.24-11.1104 10.24H466.7904c-7.4752 0-11.1104-3.3792-11.1104-10.24s3.6864-10.24 11.1104-10.24h110.7968c7.424 0 11.1104 3.3792 11.1104 10.24z m-27.1872-681.0624a47.8208 47.8208 0 0 1 16.3328 36.2496 47.7184 47.7184 0 0 1-16.3328 36.2496 56.5248 56.5248 0 0 1-39.2704 15.0528c-15.3088 0-28.2624-5.0176-39.2704-15.0528a47.36 47.36 0 0 1-16.3328-36.2496c0-14.1312 5.4784-26.112 16.3328-36.2496 10.752-10.1376 23.9616-15.0528 39.2704-15.0528s28.3136 5.0176 39.2704 15.0528z"  horiz-adv-x="1024" />

    
    <glyph glyph-name="website" unicode="&#59187;" d="M219.0336 675.6864h585.5744v-409.9072H219.0336V675.6864zM837.0176 793.6H186.6752C140.1344 793.6 102.4 755.7632 102.4 709.12v-475.4944c0-46.6432 37.7344-84.48 84.3264-84.48h204.3904v-116.6336H246.9888a29.0304 29.0304 0 0 1 0-58.112h527.9744a29.0304 29.0304 0 0 1 0 58.112h-145.8688v116.6336h207.872c46.592 0 84.3264 37.8368 84.3264 84.48V709.12c0 46.6432-37.7344 84.48-84.3264 84.48z m27.2896-586.8544H160.6656V733.6448H864.256v-526.8992z"  horiz-adv-x="1024" />

    
    <glyph glyph-name="entry-money" unicode="&#59186;" d="M418.011429 621.6045710000001h187.977142s118.966857 31.341714 75.117715 106.496c-18.797714 43.849143-50.102857 56.356571-87.661715 43.849143-6.290286 0-6.290286-6.290286-18.797714-6.290285 12.507429 25.051429-18.797714 56.393143-50.102857 56.393142H512c-37.595429 6.253714-62.646857-25.051429-75.154286-50.102857v-12.544c-31.341714 18.797714-62.646857 12.544-87.698285-12.507428 0 0-6.253714-6.290286-6.253715-12.544-37.595429-81.408 75.154286-112.749714 75.154286-112.749715z m194.194285-18.797714h-200.411428c-162.852571-62.610286-300.653714-206.701714-300.653715-369.554286C111.140571 26.587429000000043 280.246857-54.85714299999995 512-54.85714299999995c231.753143 0 400.859429 81.444571 400.859429 281.856 0 169.106286-137.801143 306.907429-300.617143 375.808z m37.595429-350.72c12.507429 0 18.797714-6.290286 18.797714-18.834286 0-12.507429-6.290286-18.761143-18.797714-18.761142h-119.003429v-131.547429c0-12.544-12.544-18.797714-31.341714-18.797714-12.507429 0-18.761143 6.253714-18.761143 18.797714v125.257143h-106.496c-12.507429 0-18.797714 6.290286-18.797714 18.797714 0 12.544 6.290286 18.797714 18.797714 18.797714h125.257143v75.154286h-125.257143c-12.507429 0-25.051429 6.253714-25.051428 18.797714 0 12.544 6.253714 18.797714 18.797714 18.797715h93.952l-87.698286 100.205714c-6.253714 6.253714-6.253714 12.544 0 18.797714l6.253714 6.253715c6.290286 6.290286 18.797714 6.290286 37.595429 0l100.205714-106.459429 100.205715 106.459429c6.290286 6.290286 18.797714 6.290286 37.595428 0 0-6.253714 0-18.797714-6.253714-31.305143l-87.698286-93.988572h87.698286c12.507429 0 18.797714-6.217143 18.797714-18.761143 6.253714-12.544-6.290286-18.797714-12.544-18.797714h-125.257143v-62.610286h119.003429v-6.290285z"  horiz-adv-x="1024" />

    
    <glyph glyph-name="entry-operation" unicode="&#59185;" d="M923.465143 749.714286H100.534857A27.611429 27.611429 0 0 1 73.142857 721.92c0-15.36 12.251429-27.830857 27.392-27.830857h27.392v-528.091429c0-30.646857 24.502857-55.588571 54.857143-55.588571h125.805714l-96.987428-98.267429a28.416 28.416 0 0 1-7.533715-27.062857 27.794286 27.794286 0 0 1 19.565715-19.894857c9.618286-2.56 19.785143 0.292571 26.660571 7.606857l135.899429 137.581714h251.611428l135.789715-137.508571a27.209143 27.209143 0 0 1 38.509714 0.365714 28.050286 28.050286 0 0 1 0.292571 38.912l-97.060571 98.230857H841.142857c30.244571 0 54.893714 24.868571 54.893714 55.661715V694.089143h27.392a27.611429 27.611429 0 0 1 27.392 27.794286c0 15.36-12.251429 27.830857-27.392 27.830857z m-165.741714-262.509715l-149.430858-147.858285a27.684571 27.684571 0 0 0-39.131428 0l-110.08 108.946285-153.673143-151.990857a28.086857 28.086857 0 0 0-26.88-7.497143 27.245714 27.245714 0 1 0-12.251429 46.226286l173.238858 171.337143a27.904 27.904 0 0 0 39.131428 0l110.08-108.836571 129.865143 128.365714a27.940571 27.940571 0 0 0 26.770286 7.094857 27.172571 27.172571 0 1 0 12.361143-45.787429z"  horiz-adv-x="1024" />

    
    <glyph glyph-name="entry-course-setting" unicode="&#59184;" d="M809.252571 822.857143H388.059429v-240.896L326.363429 646.838857 264.667429 581.961143V822.857143H214.857143C177.152 822.857143 146.285714 796.4159999999999 146.285714 764.086857v-760.173714C146.285714-28.416000000000054 177.152-54.85714299999995 214.857143-54.85714299999995h594.285714C846.848-54.85714299999995 877.714286-28.416000000000054 877.714286 3.913142999999991V764.086857C877.824 796.4159999999999 846.994286 822.857143 809.252571 822.857143z m-119.296-500.077714l-26.843428-39.862858c-3.657143-5.412571-11.666286-7.277714-17.92-4.132571l-26.624 13.238857a14.701714 14.701714 0 0 1-14.628572-0.987428c-12.909714-8.704-27.428571-15.579429-43.190857-20.260572-5.266286-1.572571-8.704-5.888-8.704-10.605714v-27.611429c0-6.180571-5.851429-11.264-13.165714-11.264H485.302857c-7.168 0-13.129143 5.010286-13.129143 11.264v27.318857c0 4.827429-3.547429 9.142857-8.777143 10.605715a156.525714 156.525714 0 0 0-43.776 20.260571 14.701714 14.701714 0 0 1-14.628571 0.877714l-26.185143-12.909714c-6.253714-3.145143-14.262857-1.28-17.92 4.096l-26.843428 39.862857c-3.657143 5.412571-1.499429 12.251429 4.754285 15.36l21.065143 10.496c5.010286 2.56 7.68 7.68 6.290286 12.434286a108.726857 108.726857 0 0 0-2.998857 49.188571c0.731429 4.498286-1.718857 9.033143-6.4 11.337143l-18.029715 8.96c-6.290286 3.108571-8.484571 9.984-4.827428 15.36l26.88 39.789715c3.657143 5.376 11.629714 7.241143 17.92 4.096l13.494857-6.656c5.010286-2.450286 11.410286-1.828571 15.542857 1.572571 15.652571 12.8 34.486857 22.820571 55.405714 29.001143 5.266286 1.572571 8.777143 5.851429 8.777143 10.678857v11.629714c0 6.217143 5.851429 11.300571 13.165715 11.300572h53.613714c7.168 0 13.129143-5.010286 13.129143-11.300572v-11.922285c0-4.827429 3.437714-9.033143 8.667428-10.605715a157.184 157.184 0 0 0 54.966857-28.891428 14.628571 14.628571 0 0 1 15.542858-1.572572l14.189714 6.948572c6.253714 3.145143 14.262857 1.28 17.92-4.096l26.843428-39.862857c3.657143-5.376 1.499429-12.251429-4.754285-15.36l-18.870857-9.435429c-4.681143-2.230857-7.204571-6.765714-6.4-11.264a109.348571 109.348571 0 0 0-2.852572-48.493714c-1.389714-4.790857 1.243429-9.801143 6.144-12.324572l22.052572-10.971428c6.070857-3.035429 8.228571-9.874286 4.681142-15.286857z"  horiz-adv-x="1024" />

    
    <glyph glyph-name="entry-setting" unicode="&#59183;" d="M643.657143-14.482286000000045l-523.958857 1.462857A395.117714 395.117714 0 0 0 362.788571 398.738286 218.624 218.624 0 0 1 512 340.114286a218.477714 218.477714 0 0 1 131.657143 43.885714v-398.482286zM512 384a219.428571 219.428571 0 1 0 0 438.857143 219.428571 219.428571 0 0 0 0-438.857143z m175.542857 0h87.771429v-43.885714h-87.771429V384z m0-117.028571h131.657143v-43.885715h-131.657143v43.885715z m0-117.028572h175.542857v-43.885714h-175.542857v43.885714z m0-117.028571h219.428572v-43.885715h-219.428572v43.885715z"  horiz-adv-x="1024" />

    
    <glyph glyph-name="entry-brance" unicode="&#59182;" d="M905.142857 73.14285700000005H877.714286V457.142857c0 60.342857-49.371429 109.714286-109.714286 109.714286h-164.571429v-466.285714c0-15.36-12.068571-27.428571-27.428571-27.428572s-27.428571 12.068571-27.428571 27.428572V621.714286c0 60.342857-49.371429 109.714286-109.714286 109.714285H274.285714c-60.342857 0-109.714286-49.371429-109.714285-109.714285v-548.571429h-27.428572c-15.36 0-27.428571-12.068571-27.428571-27.428571s12.068571-27.428571 27.428571-27.428572h768c15.36 0 27.428571 12.068571 27.428572 27.428572s-12.068571 27.428571-27.428572 27.428571z m-493.714286 109.714286h-109.714285c-15.36 0-27.428571 12.068571-27.428572 27.428571s12.068571 27.428571 27.428572 27.428572h109.714285c15.36 0 27.428571-12.068571 27.428572-27.428572s-12.068571-27.428571-27.428572-27.428571z m0 164.571428h-109.714285c-15.36 0-27.428571 12.068571-27.428572 27.428572s12.068571 27.428571 27.428572 27.428571h109.714285c15.36 0 27.428571-12.068571 27.428572-27.428571s-12.068571-27.428571-27.428572-27.428572z m0 164.571429h-109.714285c-15.36 0-27.428571 12.068571-27.428572 27.428571S286.354286 566.857143 301.714286 566.857143h109.714285c15.36 0 27.428571-12.068571 27.428572-27.428572s-12.068571-27.428571-27.428572-27.428571z m384-329.142857h-109.714285c-15.36 0-27.428571 12.068571-27.428572 27.428571s12.068571 27.428571 27.428572 27.428572h109.714285c15.36 0 27.428571-12.068571 27.428572-27.428572s-12.068571-27.428571-27.428572-27.428571z m0 164.571428h-109.714285c-15.36 0-27.428571 12.068571-27.428572 27.428572s12.068571 27.428571 27.428572 27.428571h109.714285c15.36 0 27.428571-12.068571 27.428572-27.428571s-12.068571-27.428571-27.428572-27.428572z"  horiz-adv-x="1024" />

    
    <glyph glyph-name="entry-info" unicode="&#59181;" d="M512 211.60228600000005v-57.490286H282.112v287.341714H512v-229.851428z m229.888 344.795428v-57.453714H282.112V613.8879999999999h459.776v-57.490286zM109.714286 786.285714h804.571428v-804.571428H109.714286V786.285714z m114.944-114.944v-574.683428h574.683428V671.341714H224.658286z m344.795428-402.285714h172.434286v-114.944H569.417143v114.944z m0 172.397714h172.434286v-114.907428H569.417143V441.417143z"  horiz-adv-x="1024" />

    
    <glyph glyph-name="entry-goods" unicode="&#59180;" d="M323.108571 680.338286h378.770286a22.564571 22.564571 0 0 1 22.491429 22.528V800.365714A22.564571 22.564571 0 0 1 701.878857 822.857143H323.108571a22.564571 22.564571 0 0 1-22.491428-22.491429v-97.499428c0-12.397714 10.130286-22.528 22.491428-22.528z m488.082286 73.508571h-64.292571V702.902857c0-24.832-20.224-45.019429-45.019429-45.019428H323.108571c-24.795429 0-44.982857 20.187429-44.982857 44.982857V753.883429h-64.365714C176.713143 753.846857 146.285714 723.492571 146.285714 686.336v-673.682286C146.285714-24.50285699999995 176.64-54.85714299999995 213.796571-54.85714299999995H811.154286c37.12 0 67.510857 30.354286 67.510857 67.510857V686.336c0 37.156571-30.354286 67.510857-67.510857 67.510857z m-39.497143-605.732571a31.232 31.232 0 0 0-31.158857-31.158857H285.330286a31.232 31.232 0 0 0-31.158857 31.158857v5.193143c0 17.115429 14.006857 31.122286 31.158857 31.122285h455.204571c17.152 0 31.158857-14.006857 31.158857-31.122285v-5.193143z m0 184.100571a31.232 31.232 0 0 0-31.158857-31.158857H285.330286a31.232 31.232 0 0 0-31.158857 31.158857v5.193143c0 17.152 14.006857 31.158857 31.158857 31.158857h455.204571c17.152 0 31.158857-14.006857 31.158857-31.158857v-5.193143z m0 184.137143a31.232 31.232 0 0 0-31.158857-31.158857H285.330286a31.232 31.232 0 0 0-31.158857 31.158857v5.193143c0 17.115429 14.006857 31.158857 31.158857 31.158857h455.204571c17.152 0 31.158857-14.043429 31.158857-31.158857v-5.193143z"  horiz-adv-x="1024" />

    
    <glyph glyph-name="entry-teacher" unicode="&#59179;" d="M705.974857 520.5211429999999h82.578286a27.501714 27.501714 0 1 0 0-55.003429h-82.578286a27.501714 27.501714 0 1 0 0 55.003429z m0 110.08h137.581714a27.501714 27.501714 0 1 0 0-55.04h-137.581714a27.501714 27.501714 0 1 0 0 55.04zM375.808 713.142857h165.083429a82.541714 82.541714 0 0 0 82.541714-82.541714v-165.083429a82.541714 82.541714 0 0 0-82.541714-82.541714h-165.083429a82.541714 82.541714 0 0 0-82.541714 82.541714V630.601143A82.541714 82.541714 0 0 0 375.808 713.142857z m426.459429-423.753143l101.632 101.668572a27.501714 27.501714 0 1 0 38.912-38.948572l-104.704-104.667428c3.620571-9.435429 5.485714-19.456 5.485714-29.586286v-192.585143H73.142857v192.585143a82.541714 82.541714 0 0 0 82.541714 82.541714H761.051429c14.994286 0 29.110857-3.986286 41.252571-10.971428z"  horiz-adv-x="1024" />

    
    <glyph glyph-name="entry-approve" unicode="&#59178;" d="M292.571429 640a131.657143 131.657143 0 0 0 131.657142-131.620571 131.657143 131.657143 0 0 0-263.314285 0A131.657143 131.657143 0 0 0 292.571429 640zM73.142857 113.37142900000003c0 78.994286 9.947429 95.122286 43.812572 129.316571C154.331429 280.612571 225.426286 288.91428599999995 289.060571 288.91428599999995c57.453714 0 140.544-9.654857 179.638858-46.226286 43.227429-40.521143 42.971429-64.987429 42.971428-129.316571H73.142857z m789.942857 175.542857h-263.387428V201.14285700000005H863.085714v87.771429z m87.771429 175.616h-351.085714v-87.771429H950.857143v87.771429zM950.857143 640h-351.085714v-87.734857H950.857143V640z"  horiz-adv-x="1024" />

    
    <glyph glyph-name="entry-user" unicode="&#59177;" d="M949.942857 174.51885700000003c-1.097143 14.006857-3.657143 15.286857-17.517714 14.153143-15.250286-1.206857-28.233143 6.436571-33.536 19.748571-5.412571 13.641143-1.462857 27.721143 10.459428 37.522286 8.045714 6.582857 9.033143 11.922286 1.718858 19.638857-10.971429 11.593143-22.381714 22.820571-34.340572 33.389715-9.252571 8.228571-13.531429 7.131429-21.430857-2.742858a31.524571 31.524571 0 0 0-38.802286-9.179428c-13.056 6.070857-19.126857 17.261714-18.212571 33.024 0.731429 10.825143-2.486857 14.701714-13.275429 15.469714-8.411429 0.694857-16.932571 1.097143-24.832 1.609143-8.301714-0.914286-16.091429-1.609143-23.771428-2.633143-10.715429-1.462857-13.129143-4.571429-12.178286-15.652571 1.462857-16.713143-5.595429-29.257143-19.382857-34.998857-13.494857-5.595429-27.392-1.536-38.034286 10.898285-6.253714 7.387429-11.776 8.484571-18.651428 1.901715-11.629714-10.898286-23.04-22.235429-33.645715-34.157715-9.069714-10.24-8.045714-13.677714 2.450286-22.418285 9.947429-8.338286 14.262857-18.980571 11.483429-31.744a30.281143 30.281143 0 0 0-24.027429-24.502858c-4.754286-1.097143-9.947429-0.365714-14.994286-0.292571-6.802286 0.073143-11.117714-3.035429-12.068571-9.728a176.713143 176.713143 0 0 1 0.804571-55.442286c1.28-7.314286 5.229714-10.130286 12.507429-9.618285 3.876571 0.256 7.826286 1.097143 11.593143 0.804571 13.568-1.389714 24.210286-10.386286 27.904-23.04 3.657143-12.580571-0.694857-25.453714-11.593143-34.230857-8.923429-7.204571-9.947429-12.178286-2.157714-20.48 10.825143-11.52 21.979429-22.674286 33.828571-33.060572 10.057143-8.850286 13.897143-7.826286 22.308571 2.925715a31.744 31.744 0 0 0 46.262858 4.608c9.435429-8.155429 12.032-18.358857 10.752-30.281143-0.950857-8.850286 2.304-13.897143 10.020571-14.006857 17.334857-0.329143 34.742857-0.402286 52.004571 0.621714 11.264 0.694857 13.494857 4.717714 12.214858 16.054857-1.901714 16.457143 5.046857 29.330286 18.870857 35.254857 13.970286 5.924571 28.050286 1.901714 38.436571-10.898285 6.363429-7.789714 11.922286-8.996571 19.053714-2.157715 11.922286 11.337143 23.405714 23.113143 34.340572 35.364572 7.899429 8.923429 6.765714 13.750857-2.742857 20.955428a31.195429 31.195429 0 0 0-13.056 23.954286c-1.206857 20.260571 15.36 35.693714 35.876571 33.645714 10.459429-1.024 15.616 1.974857 15.872 11.044572 0.512 16.310857 0.694857 32.548571-0.512 48.676571z m-186.331428-106.788571c-45.056 0.548571-81.261714 37.193143-80.676572 81.810285 0.621714 44.032 36.937143 80.237714 80.457143 80.091429 44.873143-0.182857 81.92-37.083429 81.408-81.298286-0.402286-44.690286-37.083429-81.005714-81.188571-80.566857z m-151.734858 259.547428l-50.212571 15.469715-52.516571 26.258285v59.574857s39.643429 25.307429 44.873142 62.72c1.974857 0.109714 4.022857 0.256 6.546286 0.621715 28.562286 3.437714 49.371429 73.728 49.371429 73.728s1.353143 32.841143-15.981715 32.841143c-1.974857 0-21.284571-0.256-22.930285-0.841143l4.388571 58.258285 0.512 44.470858s0.365714 121.088-147.821714 122.477714C274.322286 821.577143 303.177143 756.443429 303.177143 756.443429l0.073143-0.438858c-19.126857-10.971429-28.854857-27.904-28.854857-62.390857 0-75.008 9.435429-101.961143 9.435428-101.961143l-21.577143 6.838858s-24.868571-2.486857-22.674285-31.414858c2.121143-29.001143 26.514286-71.68 55.076571-75.081142 2.157714-0.256 4.022857-0.438857 5.741714-0.512 0.109714-45.677714 40.082286-63.926857 40.082286-63.926858l0.365714-56.905142-53.577143-27.648-158.244571-50.102858S72.777143 275.931429 73.142857 205.05600000000004l1.097143-87.113143h457.654857c-1.389714 10.386286-3.181714 20.736-3.181714 31.561143 0 71.497143 32.694857 134.765714 83.163428 177.737143z"  horiz-adv-x="1024" />

    
    <glyph glyph-name="entry-faq" unicode="&#59176;" d="M811.154286 8.082285999999954H225.865143c2.048-2.194286 3.474286-5.193143 4.425143-8.667429-4.059429-26.697143-4.388571-53.028571-4.388572-53.028571H869.668571V69.85142900000005h-58.514285c-16.822857 0 0-61.769143 0-61.769143z m-56.393143 483.254857c-25.014857 0-45.275429-9.069714-60.781714-27.245714-15.506286-18.139429-23.259429-41.910857-23.259429-71.387429 0-29.622857 7.570286-53.394286 22.674286-71.314286 15.177143-17.846857 34.925714-26.806857 59.318857-26.806857 26.148571 0 46.701714 8.557714 61.622857 25.709714 14.957714 17.152 22.418286 41.142857 22.418286 71.936 0 31.670857-7.314286 56.100571-21.942857 73.289143-14.628571 17.188571-34.633143 25.819429-60.050286 25.819429z m-247.552-6.948572h-0.804572a94.500571 94.500571 0 0 0-3.949714-17.115428l-36.717714-101.924572h82.285714l-37.010286 101.924572a115.638857 115.638857 0 0 0-3.803428 17.078857z m362.459428-352.768v105.837715h-31.012571l-46.555429 34.486857c-11.995429-3.657143-25.161143-5.558857-39.387428-5.558857-34.816 0-62.72 11.483429-83.748572 34.377143-20.992 22.893714-31.451429 52.699429-31.451428 89.417142 0 39.570286 10.678857 71.058286 32.109714 94.500572 21.394286 23.405714 50.432 35.108571 87.04 35.108571 34.084571 0 61.513143-11.446857 82.285714-34.340571 18.285714-20.077714 28.489143-45.494857 30.72-76.214857V748.982857h-58.514285V810.788571H225.901714v-61.769142H167.277714v-740.937143s39.570286 1.755429 58.550857 0v61.805714h585.252572v61.732571h58.550857zM379.318857 487.497143H284.672v-81.993143h87.698286v-27.867429H284.672v-107.154285h-31.670857v245.174857h126.317714v-28.16z m203.556572-217.014857l-25.014858 67.108571h-102.070857l-23.588571-67.108571h-34.998857l93.403428 245.174857h33.865143l93.366857-245.174857h-34.962285z m286.793142 111.616c-2.267429-33.28-12.726857-60.233143-31.488-80.749715-5.083429-5.485714-10.496-10.313143-16.310857-14.555428l47.798857-34.267429v129.572572z"  horiz-adv-x="1024" />

    
    <glyph glyph-name="entry-wechat" unicode="&#59175;" d="M683.52 527.835429c4.498286 0 8.850286-0.073143 13.238857-0.292572C673.645714 653.348571 543.670857 749.714286 386.779429 749.714286 213.540571 749.714286 73.142857 632.2834290000001 73.142857 487.424c0-84.955429 48.274286-160.475429 123.099429-208.384l2.889143-1.828571-30.317715-94.902858 113.371429 57.746286 5.339428-1.536a370.249143 370.249143 0 0 1 120.32-12.726857 203.483429 203.483429 0 0 0-9.947428 62.537143c0 132.278857 127.926857 239.506286 285.622857 239.506286z m-187.611429 92.525714c24.32 0 43.995429-19.017143 43.995429-42.605714 0-23.552-19.675429-42.642286-43.995429-42.642286-24.356571 0-44.032 19.090286-44.032 42.642286 0 23.552 19.675429 42.642286 44.032 42.642285zM277.577143 535.149714c-24.32 0-43.995429 19.090286-43.995429 42.642286 0 23.552 19.675429 42.642286 43.995429 42.642286 24.356571 0 44.105143-19.090286 44.105143-42.642286 0-23.552-19.748571-42.642286-44.105143-42.642286z m143.36-248.32c0-122.368 118.637714-221.622857 264.96-221.622857a311.844571 311.844571 0 0 1 88.32 12.690286l95.780571-48.822857-25.6 80.201143 2.450286 1.536C910.043429 151.25942899999995 950.857143 215.00342899999998 950.857143 286.793143c0 122.368-118.601143 221.586286-264.923429 221.586286-146.322286 0-264.996571-99.218286-264.996571-221.586286z m319.926857 76.324572c0 19.894857 16.64 35.986286 37.193143 35.986285 20.589714 0 37.229714-16.091429 37.229714-35.986285s-16.64-36.022857-37.229714-36.022857c-20.553143 0-37.193143 16.091429-37.193143 36.022857z m-184.393143 0c0 19.894857 16.676571 35.986286 37.193143 35.986285 20.589714 0 37.229714-16.091429 37.229714-35.986285s-16.64-36.022857-37.229714-36.022857c-20.516571 0-37.193143 16.091429-37.193143 36.022857z"  horiz-adv-x="1024" />

    
    <glyph glyph-name="entry-group" unicode="&#59174;" d="M932.571429 7.753143000000023h-124.269715c0 182.125714-247.222857 290.157714-249.782857 345.344-2.596571 55.222857 93.805714 107.154286 95.744 208.64 2.157714 107.337143-63.561143 153.088-100.754286 170.532571 16.676571 5.997714 34.377143 9.325714 52.809143 9.325715 94.427429 0 170.971429-85.467429 170.971429-190.793143 0-77.421714-103.570286-134.838857-103.570286-183.296-0.146286-48.457143 258.852571-176.237714 258.852572-359.753143z m-481.426286 369.371428c-10.788571-24.685714 7.68-46.445714 7.68-46.445714 203.922286-137.508571 248.612571-322.852571 248.612571-322.852571H54.857143c0 162.377143 227.510857 302.262857 248.576 322.889143 16.749714 16.420571 12.873143 34.852571 7.387428 46.628571-59.172571 29.988571-100.571429 96.182857-100.571428 173.458286 0 105.398857 76.580571 190.793143 170.934857 190.793143 94.427429 0 170.971429-85.467429 170.971429-190.793143-0.073143-77.421714-41.581714-143.725714-101.010286-173.641143z"  horiz-adv-x="1024" />

    
    <glyph glyph-name="entry-article" unicode="&#59173;" d="M803.84 822.857143H224.475429C142.336 822.857143 73.142857 753.664 73.142857 671.524571v-514.523428C73.142857 74.861714 142.336-54.85714299999995 224.475429-54.85714299999995h540.452571l190.244571 190.244572V671.524571C955.172571 753.664 886.016 822.857143 803.84 822.857143z m-285.366857-566.418286H254.756571c-30.281143 0-56.210286 30.281143-56.210285 64.877714 0 34.596571 25.929143 64.841143 56.210285 64.841143h263.716572c30.281143 0 56.210286-30.244571 56.210286-64.841143 4.352-38.912-21.577143-64.877714-56.210286-64.877714z m0 250.770286H254.756571c-30.281143 0-56.210286 30.281143-56.210285 64.877714 0 34.596571 25.929143 64.841143 56.210285 64.841143h263.716572c30.281143 0 56.210286-30.244571 56.210286-64.841143 4.352-34.596571-21.577143-64.877714-56.210286-64.877714z m121.051428-501.540572v125.403429c0 69.156571-8.630857 125.366857 60.562286 125.366857h185.929143l-246.491429-250.770286z"  horiz-adv-x="1024" />

    
    <glyph glyph-name="entry-site" unicode="&#59172;" d="M890.477714 628.0411429999999c17.371429 60.891429 23.954286 178.285714-84.736 193.462857-86.966857 10.861714-191.268571-45.641143-245.686857-82.651429-17.371429 2.194286-36.937143 4.388571-56.502857 4.388572-141.348571 2.194286-232.594286-45.641143-310.857143-147.858286-28.269714-36.937143-54.308571-100.022857-63.085714-171.702857 39.131429 67.401143 160.914286 191.268571 289.206857 241.298286 0 0-193.462857-139.190857-289.206857-334.848v-2.194286c-4.388571-8.667429-8.704-17.371429-13.092572-28.233143-93.44-232.594286-17.371429-332.653714 54.418286-349.988571 65.170286-17.371429 156.525714 15.140571 230.4 93.403428 123.867429-28.233143 247.844571 4.388571 293.485714 28.269715 86.930286 47.798857 147.821714 132.571429 160.914286 219.611428h-239.177143s-10.898286-76.068571-139.154285-76.068571c-117.394286 0-123.904 136.96-123.904 136.96h506.514285s8.704 147.858286-63.085714 245.686857c-41.325714 54.308571-95.634286 102.217143-171.702857 128.292571 23.954286 17.371429 63.085714 43.52 97.828571 52.187429 65.206857 17.371429 108.726857 6.509714 136.96-41.325714 36.937143-65.170286-21.76-215.222857-21.76-215.222858s34.852571 43.410286 52.224 106.532572zM366.592 51.82171400000004c-100.022857-82.651429-182.601143-71.789714-215.222857-23.954285-28.269714 43.52-32.658286 119.588571 0 226.084571a315.172571 315.172571 0 0 1 73.874286-115.2c43.52-43.410286 91.318857-71.68 141.348571-86.930286z m-4.388571 423.972572s4.388571 97.828571 110.884571 106.496c91.355429 8.704 139.190857-32.621714 154.331429-110.884572l-265.216 4.388572z"  horiz-adv-x="1024" />

    
    <glyph glyph-name="entry-webmix" unicode="&#59171;" d="M825.453714 822.857143H198.582857A125.366857 125.366857 0 0 1 73.142857 697.453714v-438.857143h877.714286v438.857143A125.366857 125.366857 0 0 1 825.453714 822.857143zM198.582857 70.54628600000001h250.770286v-62.72H261.046857V-54.85714299999995h501.540572v62.683429h-187.904V70.58285699999999h250.770285A125.366857 125.366857 0 0 1 950.857143 195.913143H73.142857a125.366857 125.366857 0 0 1 125.403429-125.366857z"  horiz-adv-x="1024" />

    
    <glyph glyph-name="entry-app" unicode="&#59170;" d="M503.588571 467.053714v-73.581714h21.028572c28.525714 0 42.788571 12.434286 42.788571 37.229714 0 24.246857-14.08 36.352-42.349714 36.352h-21.504z m283.172572 95.451429v205.531428c0 30.281143-24.502857 54.820571-54.784 54.820572H293.522286c-30.244571 0-54.784-24.502857-54.784-54.820572v-205.531428H136.484571v-342.491429h102.253715v-219.245714c0-30.244571 24.502857-54.784 54.784-54.784h438.454857c30.244571 0 54.784 24.502857 54.784 54.784v219.245714h101.266286V562.541714h-101.266286z m-54.784 191.853714v-191.817143H293.522286V754.358857h438.454857z m-113.444572-321.718857c0-23.369143-8.557714-42.057143-25.709714-56.173714-17.115429-14.08-38.509714-20.845714-64.256-20.224h-25.014857v-79.469715h-48.566857v227.986286h78.482286c56.685714 0 85.065143-24.064 85.065142-72.118857z m-351.634285-103.643429l-16.749715-52.224H197.449143l83.419428 227.986286h57.124572l81.846857-227.986286h-53.028571l-17.042286 52.224H266.898286z m245.869714-355.620571a27.428571 27.428571 0 1 0 0 54.857143 27.428571 27.428571 0 0 0 0-54.857143z m219.209143 82.212571H293.522286v164.425143h438.454857v-164.425143z m52.662857 320.877715c-17.152-14.08-38.546286-20.845714-64.256-20.224h-25.014857v-79.469715h-48.566857v227.986286h78.409143c56.722286 0 85.065143-24.064 85.065142-72.118857 0-23.369143-8.521143-42.057143-25.673142-56.173714zM716.8 467.053714h-21.467429v-73.581714h21.028572c28.525714 0 42.825143 12.434286 42.825143 37.229714 0 24.246857-14.116571 36.352-42.386286 36.352z m-407.990857-1.609143H307.565714a84.187429 84.187429 0 0 0-3.986285-19.273142l-26.038858-79.616H338.285714l-25.892571 78.994285a87.259429 87.259429 0 0 0-3.547429 19.894857z"  horiz-adv-x="1024" />

    
    <glyph glyph-name="entry-miniprogram" unicode="&#59169;" d="M512-54.85714299999995C269.641143-54.85714299999995 73.142857 141.64114300000006 73.142857 384S269.641143 822.857143 512 822.857143s438.857143-196.498286 438.857143-438.857143-196.498286-438.857143-438.857143-438.857143z m140.324571 694.857143a152.246857 152.246857 0 0 1-78.555428-20.992c-44.982857-24.868571-72.155429-68.900571-72.155429-116.845714v-235.885715c0-27.721143-16.091429-53.101714-43.264-68.315428a106.203429 106.203429 0 0 0-50.724571-12.946286c-51.858286 0-93.988571 36.571429-93.988572 81.225143 0 13.531429 3.474286 26.587429 10.971429 38.436571 10.971429 18.029714 30.500571 32.182857 55.332571 39.497143 2.852571 1.097143 5.229714 1.097143 6.363429 1.097143a28.306286 28.306286 0 0 1 28.781714 28.233143c0 15.725714-12.580571 28.16-28.781714 28.16-6.875429 0-13.860571-1.097143-24.210286-3.949714-36.864-10.678857-67.437714-33.28-86.491428-63.744A131.291429 131.291429 0 0 1 256 266.31314299999997c0-76.178286 68.096-137.801143 151.734857-137.801143 27.684571 0 54.857143 6.875429 79.030857 20.406857 44.982857 24.868571 72.192 68.900571 72.192 116.845714v236.507429c0 27.721143 16.091429 53.101714 43.264 68.315429a106.203429 106.203429 0 0 0 50.688 12.946285c51.382857 0 93.513143-36.571429 93.513143-81.261714 0-13.531429-3.474286-26.587429-10.971428-38.4-10.971429-18.651429-30.537143-32.731429-55.332572-39.533714-2.889143-1.097143-5.229714-1.097143-6.363428-1.097143a28.16 28.16 0 1 1 0-56.356572c8.192 0.146286 16.347429 1.462857 24.173714 3.913143 36.937143 10.752 67.437714 33.28 86.528 63.780572 12.580571 20.845714 19.565714 44.032 19.565714 67.693714 0 76.141714-68.022857 137.728-151.698286 137.728z"  horiz-adv-x="1024" />

    
    <glyph glyph-name="entry-miniweb" unicode="&#59168;" d="M750.482286 822.857143H115.456C92.050286 822.857143 73.142857 803.949714 73.142857 780.544V145.55428600000005c0-23.405714 18.907429-42.313143 42.313143-42.313143h42.276571V716.946286c0 11.702857 9.508571 21.101714 21.211429 21.211428h613.851429V780.434286c0 23.405714-18.907429 42.422857-42.313143 42.422857z m157.988571-158.171429H273.371429c-23.405714 0-42.313143-18.944-42.313143-42.313143v-634.916571c0-23.405714 18.907429-42.313143 42.313143-42.313143h634.916571c23.405714 0 42.313143 18.907429 42.313143 42.313143V622.372571a42.093714 42.093714 0 0 1-42.203429 42.313143zM442.660571 262.546286l67.986286 67.986285a21.138286 21.138286 0 0 0 31.524572-1.718857l50.432-63.049143c4.388571-5.485714 11.227429-8.374857 18.212571-7.899428a21.248 21.248 0 0 1 16.749714 10.642286l69.229715 121.161142 63.524571 21.211429c42.276571 112.896 63.488 155.209143 63.488 127.012571V121.41714300000001h-441.417143l0.219429 63.634286 60.050285 77.458285z m381.037715-211.602286H336.896a21.174857 21.174857 0 0 0-21.211429 21.211429V537.7828569999999a21.211429 21.211429 0 0 0 42.422858 0v-443.977143l465.627428-0.438857a21.211429 21.211429 0 0 0 0-42.422857z"  horiz-adv-x="1024" />

    
    <glyph glyph-name="entry-retail" unicode="&#59167;" d="M889.417143 280.868571h-109.714286v82.285715c0 30.244571-24.576 54.857143-54.857143 54.857143h-192v82.285714h82.285715a54.857143 54.857143 0 0 1 54.857142 54.857143v219.428571a54.857143 54.857143 0 0 1-54.857142 54.857143h-219.428572a54.857143 54.857143 0 0 1-54.857143-54.857143v-219.428571a54.857143 54.857143 0 0 1 54.857143-54.857143h82.285714v-82.285714H285.988571a54.857143 54.857143 0 0 1-54.857142-54.857143v-82.285715h-109.714286a54.857143 54.857143 0 0 1-54.857143-54.857142v-219.428572a54.857143 54.857143 0 0 1 54.857143-54.857143h219.428571a54.857143 54.857143 0 0 1 54.857143 54.857143v219.428572a54.857143 54.857143 0 0 1-54.857143 54.857142h-54.857143v82.285715h438.857143v-82.285715h-54.857143a54.857143 54.857143 0 0 1-54.857142-54.857142v-219.428572a54.857143 54.857143 0 0 1 54.857142-54.857143h219.428572a54.857143 54.857143 0 0 1 54.857143 54.857143v219.428572a54.857143 54.857143 0 0 1-54.857143 54.857142"  horiz-adv-x="1024" />

    
    <glyph glyph-name="entry-combmarket" unicode="&#59166;" d="M637.366857 739.254857H177.627429v-459.702857h208.969142v-250.806857h459.776V488.484571h-209.005714V739.254857z m-167.168-292.571428H303.030857l68.790857 68.827428L235.264 652.068571l29.549714 29.549715 136.557715-136.557715 68.827428 68.827429v-167.204571z m261.924572-125.366858l-73.398858-73.398857 145.664-145.700571-31.524571-31.488-145.700571 145.627428-73.362286-73.362285v178.322285h178.322286z m-11.154286 242.944V822.857143H94.061714v-619.081143h208.969143V-54.85714299999995h626.907429V564.260571h-208.969143z m167.131428-577.316571H344.868571V237.71428600000002H135.826286V781.056h543.341714V530.285714h208.969143v-543.341714z"  horiz-adv-x="1024" />

    
    <glyph glyph-name="entry-crm" unicode="&#59165;" d="M175.140571 183.186286c53.467429-120.393143 180.553143-207.323429 320.987429-207.323429 140.434286 0 267.483429 86.930286 320.987429 207.323429H175.140571z m641.974858 287.524571C763.611429 633.563429 636.562286 751.177143 496.128 751.177143c-140.434286 0-267.52-117.613714-320.987429-280.466286h641.974858zM496.128-24.137143000000037c140.434286 0 267.483429 86.930286 320.987429 207.323429H175.140571c60.16-120.393143 180.553143-207.323429 320.987429-207.323429zM71.68 513.9748569999999h877.714286v-365.714286h-877.714286v365.714286zM258.194286 457.142857c-37.522286 0-66.157714-13.129143-85.906286-40.082286-17.444571-23.405714-26.002286-54.308571-26.002286-91.940571 0-38.326857 8.228571-68.827429 25.014857-91.538286 19.090286-26.258286 48.384-39.753143 87.552-39.753143 25.344 0 47.067429 7.789714 65.170286 23.405715 19.456 16.676571 31.634286 39.753143 36.900572 69.558857H323.364571c-4.608-19.163429-12.507429-33.718857-23.698285-43.300572-10.532571-8.484571-24.356571-13.129143-41.142857-13.129142-25.673143 0-44.763429 8.886857-56.941715 25.929142-11.190857 15.945143-16.786286 39.021714-16.786285 68.827429 0 29.110857 5.595429 51.821714 17.115428 68.132571 12.507429 18.468571 30.939429 27.355429 55.625143 27.355429 16.457143 0 29.988571-3.547429 40.484571-11.373714 10.861714-7.789714 18.102857-19.858286 22.052572-36.571429H357.668571c-3.657143 25.6-13.824 46.153143-30.976 61.074286-17.773714 15.616-40.813714 23.405714-68.461714 23.405714z m138.934857-4.973714v-253.366857h38.509714V302.08000000000004h60.891429c13.165714 0 23.369143-2.852571 30.281143-9.252571 6.582857-6.034286 10.532571-15.945143 11.849142-29.805715l2.962286-31.232c1.316571-14.189714 4.608-25.197714 10.24-32.987428h41.764572c-7.899429 9.216-12.8 21.650286-14.153143 37.266285l-3.949715 40.813715c-2.633143 24.832-14.153143 39.387429-34.56 44.361143v0.694857c12.507429 3.547429 22.710857 10.971429 29.988572 22.345143 6.582857 10.313143 9.874286 22.016 9.874286 35.108571 0 24.137143-7.606857 42.605714-22.089143 55.405714-13.824 11.702857-32.914286 17.371429-56.941715 17.371429h-104.667428z m38.509714-35.474286h60.891429c15.798857 0 27.318857-2.852571 34.56-9.216 7.241143-6.034286 10.861714-15.981714 10.861714-29.842286 0-12.763429-3.620571-22.674286-10.861714-29.805714-7.899429-6.729143-19.419429-10.276571-34.56-10.276571h-60.891429v79.140571z m190.902857 35.474286v-253.366857h38.509715V373.39428599999997h1.316571l69.12-174.592h33.28l69.12 174.592h1.316571v-174.592H877.714286v253.366857h-45.092572l-79.652571-198.729143h-1.316572l-80.018285 198.729143h-45.092572z"  horiz-adv-x="1024" />

    
    <glyph glyph-name="entry-market" unicode="&#59164;" d="M143.872 81.66399999999999h216.978286v348.672L301.458286 471.771429l-157.622857-134.107429v-256z m268.178286 0H629.028571v346.624L524.214857 340.114286l-112.164571 60.964571v-319.414857z m268.178285 387.657143v-387.657143h216.978286V466.907429L804.571429 588.8l-124.342858-119.478857zM179.712 434.688l117.979429 98.742857 225.462857-137.252571 267.337143 251.794285c0.987429 0.877714 1.755429 1.938286 2.56 2.925715l45.056-45.494857 72.521142 204.068571L702.610286 742.4l49.737143-50.358857c-0.621714-0.512-1.316571-0.914286-1.974858-1.499429l-234.861714-221.257143-223.158857 135.862858-150.198857-125.586286a29.257143 29.257143 0 1 1 37.558857-44.909714zM892.342857 41.47199999999998H142.628571a29.257143 29.257143 0 0 1 0-58.514286h749.714286a29.257143 29.257143 0 0 1 0 58.514286z"  horiz-adv-x="1024" />

    
    <glyph glyph-name="entry-vip" unicode="&#59163;" d="M512-18.249143000000004a133.595429 133.595429 0 0 0-100.205714 45.348572l-305.005715 346.587428a135.314286 135.314286 0 0 0-10.642285 164.717714L222.829714 727.04A133.376 133.376 0 0 0 333.677714 786.285714h356.571429c44.470857 0 85.906286-22.125714 110.811428-59.245714l126.793143-188.635429a135.314286 135.314286 0 0 0-10.605714-164.717714l-305.005714-346.587428A133.595429 133.595429 0 0 0 512-18.249143000000004z m0 176.896a106.24 106.24 0 0 1 79.542857 35.986286l218.806857 248.649143a36.571429 36.571429 0 0 1-3.145143 51.419428 36.022857 36.022857 0 0 1-51.126857-3.181714l-218.806857-248.612571a33.170286 33.170286 0 0 0-25.270857-11.446858 33.170286 33.170286 0 0 0-25.234286 11.483429L267.885714 491.52a36.022857 36.022857 0 0 1-51.126857 3.181714 36.571429 36.571429 0 0 1-3.145143-51.456l218.806857-248.685714c20.114286-22.784 49.115429-35.876571 79.542858-35.913143z"  horiz-adv-x="1024" />

    
    <glyph glyph-name="entry-reward" unicode="&#59162;" d="M169.910857 642.304c0-84.224 141.019429-152.502857 314.953143-152.502857 173.970286 0 314.989714 68.278857 314.989714 152.502857 0 84.187429-141.019429 152.466286-314.989714 152.466286-173.933714 0-314.953143-68.278857-314.953143-152.502857zM169.910857 505.380571v-97.28c301.933714-179.565714 629.430857 0 629.430857 0v97.28c-350.573714-154.989714-629.430857 0-629.430857 0zM169.910857 340.37028599999996v-97.28c301.933714-179.565714 629.430857 0 629.430857 0v97.28c-350.573714-154.989714-629.430857 0-629.430857 0zM169.910857 180.37028599999996v-97.28c301.933714-179.565714 629.430857 0 629.430857 0v97.28c-350.573714-154.989714-629.430857 0-629.430857 0z"  horiz-adv-x="1024" />

    
    <glyph glyph-name="entry-card" unicode="&#59161;" d="M501.284571 602.3314290000001a1.170286 1.170286 0 0 1-2.304 0c-2.816-17.298286-99.84-284.233143-99.84-284.233143a0.950857 0.950857 0 0 1 0.877715-1.28h200.594285a0.950857 0.950857 0 0 1 0.877715 1.28s-96.914286 265.142857-100.205715 284.233143zM863.926857 822.857143H160.073143c-35.986286 0-65.170286-29.184-65.170286-65.170286v-747.373714c0-35.986286 29.184-65.170286 65.170286-65.170286h703.853714c35.986286 0 65.170286 29.184 65.170286 65.170286V757.686857A65.170286 65.170286 0 0 1 863.926857 822.857143z m-118.162286-734.244572h-44.251428a19.565714 19.565714 0 0 0-18.285714 12.617143l-52.187429 136.338286a19.565714 19.565714 0 0 1-18.249143 12.580571h-225.024a19.565714 19.565714 0 0 1-18.432-12.946285l-48.932571-135.68a19.565714 19.565714 0 0 0-18.432-12.909715H257.974857a19.565714 19.565714 0 0 0-18.212571 26.697143l212.48 543.524572a31.268571 31.268571 0 0 0 29.147428 19.894857h40.630857c13.092571 0 24.868571-8.045714 29.622858-20.260572l212.370285-543.158857a19.565714 19.565714 0 0 0-18.285714-26.697143z m116.114286 419.84c0-5.851429-4.754286-10.605714-10.642286-10.605714h-44.580571a10.642286 10.642286 0 0 1-10.605714-10.678857v-43.154286a10.642286 10.642286 0 0 0-10.678857-10.642285h-13.019429a10.642286 10.642286 0 0 0-10.605714 10.642285v43.154286a10.642286 10.642286 0 0 1-10.715429 10.678857h-44.544a10.642286 10.642286 0 0 0-10.605714 10.605714v11.629715a10.642286 10.642286 0 0 0 10.605714 10.678857h44.544c5.851429 0 10.642286 4.754286 10.642286 10.605714v43.154286a10.642286 10.642286 0 0 0 10.678857 10.642286h13.019429a10.642286 10.642286 0 0 0 10.642285-10.605715v-43.154285c0-5.888 4.754286-10.642286 10.642286-10.642286h44.580571a10.642286 10.642286 0 0 0 10.605715-10.678857v-11.593143z"  horiz-adv-x="1024" />

    
    <glyph glyph-name="entry-discount" unicode="&#59160;" d="M950.747429 517.705143l-9.142858 200.448a100.096 100.096 0 0 1-95.488 95.451428l-200.411428 9.142858a100.132571 100.132571 0 0 1-75.373714-29.220572L102.4 325.66857100000004a100.205714 100.205714 0 0 1 0-141.568L312.064-25.600000000000023a100.132571 100.132571 0 0 1 141.568 0l467.894857 467.894857a100.059429 100.059429 0 0 1 29.257143 75.337143z m-491.885715-336.64c-16.603429-16.603429-37.302857-28.672-49.993143-32.329143l-20.48 33.828571c13.348571 4.315429 31.414857 13.385143 45.421715 27.392 15.140571 15.067429 16.859429 29.293714 7.350857 38.802286-9.033143 9.033143-21.101714 7.314286-44.836572-3.913143-32.548571-15.725714-61.622857-18.102857-82.761142 3.035429-24.795429 24.795429-23.04 64.438857 11.190857 98.706286 16.457143 16.384 31.926857 25.014857 44.434285 29.769142l19.163429-33.865142a98.011429 98.011429 0 0 1-37.302857-23.478858c-14.189714-14.262857-14.628571-27.574857-7.058286-35.145142 9.216-9.252571 21.504-5.12 47.396572 6.509714 35.145143 16.128 60.562286 14.811429 81.042285-5.632 24.356571-24.393143 26.294857-63.817143-13.604571-103.68z m154.550857 158.939428l-48.457142 26.038858-41.581715-41.581715 26.88-47.652571-34.011428-34.048-100.827429 189.696 43.081143 43.117714 190.281143-100.205714-35.364572-35.364572zM657.481143 384l-145.261714 145.298286 32.950857 32.950857 117.723428-117.686857 57.782857 57.782857 27.574858-27.611429-90.770286-90.697143z m99.401143 99.474286L611.657143 628.662857l89.636571 89.673143 26.916572-26.916571-56.685715-56.685715 30.208-30.208 53.467429 53.467429 26.697143-26.733714L728.502857 577.828571l34.413714-34.523428 59.684572 59.684571 26.989714-26.916571-92.708571-92.672z m-253.366857-129.682286l32.109714 32.109714-39.862857 21.76c-11.190857 6.034286-24.539429 14.189714-35.364572 20.699429l-0.438857-0.438857c6.509714-10.788571 15.323429-23.917714 21.357714-34.742857l22.198858-39.387429z"  horiz-adv-x="1024" />

    
    <glyph glyph-name="entry-coupon" unicode="&#59159;" d="M904.338286 458.971429A62.390857 62.390857 0 0 1 950.857143 518.729143V591.36A158.573714 158.573714 0 0 1 792.502857 749.714286H231.497143A158.573714 158.573714 0 0 1 73.142857 591.36v-72.667429c0-27.721143 19.126857-52.297143 46.482286-59.684571a76.763429 76.763429 0 0 0 56.539428-73.984c0-34.523429-23.259429-64.950857-56.539428-73.947429A62.390857 62.390857 0 0 1 73.142857 251.35542899999996v-72.630858a158.573714 158.573714 0 0 1 158.354286-158.354285h561.005714a158.573714 158.573714 0 0 1 158.354286 158.354285v72.630858c0 27.757714-19.126857 52.297143-46.518857 59.721142a76.763429 76.763429 0 0 0-56.502857 73.947429c0 34.523429 23.222857 64.950857 56.502857 73.984z m-261.668572 81.188571l-89.051428-103.972571h49.334857a26.404571 26.404571 0 0 0 0-52.809143h-64.548572v-44.032h64.548572a26.404571 26.404571 0 0 0 0-52.809143h-64.548572v-73.801143a26.404571 26.404571 0 0 0-52.809142 0v73.801143h-64.548572a26.404571 26.404571 0 0 0 0 52.809143h64.548572v44.032h-64.548572a26.404571 26.404571 0 0 0 0 52.809143h49.334857L381.330286 540.1600000000001a26.404571 26.404571 0 1 0 40.118857 34.340571L512 468.736l90.550857 105.764571a26.404571 26.404571 0 1 0 40.118857-34.377142z"  horiz-adv-x="1024" />

    
    <glyph glyph-name="entry-exchange" unicode="&#59158;" d="M73.142857 532.699429v-110.226286c0-7.460571 1.755429-12.653714 5.229714-15.616 1.353143-1.462857 3.291429-2.779429 5.741715-3.876572s5.412571-2.084571 8.923428-2.779428c9.033143-1.536 17.737143-6.729143 26.075429-15.652572 7.68-8.886857 11.556571-21.138286 11.556571-36.681142 0-5.229714-0.365714-10.020571-1.097143-14.482286a35.84 35.84 0 0 0-4.132571-12.288 45.385143 45.385143 0 0 0-11.556571-17.810286l-3.108572-2.267428a6.912 6.912 0 0 0-3.145143-3.291429 29.110857 29.110857 0 0 1-6.217143-4.498286 17.481143 17.481143 0 0 0-4.242285-1.718857c-1.353143-0.365714-2.56-0.731429-3.657143-1.097143a8.594286 8.594286 0 0 0-2.56-0.585143 11.264 11.264 0 0 1-5.266286-1.097142 34.633143 34.633143 0 0 0-3.657143-1.682286 12.909714 12.909714 0 0 1-3.108571-1.645714 3.913143 3.913143 0 0 1-1.572572-3.328c-2.779429-3.766857-4.132571-9.325714-4.132571-16.713143L73.142857 137.252571c0-38.765714 31.451429-70.217143 70.253714-70.217142H252.416V583.8628570000001H129.389714C98.267429 583.826286 73.142857 560.932571 73.142857 532.699429z m275.163429 180.297142H193.755429c-22.857143 0-41.289143-18.432-41.289143-41.179428v-41.216h195.84V713.033143zM949.284571 578.925714a161.024 161.024 0 0 1-3.657142 10.532572 35.035429 35.035429 0 0 1-15.689143 16.713143 19.675429 19.675429 0 0 0-10.459429 13.385142 53.028571 53.028571 0 0 0-3.181714 17.810286l1.097143 3.876572V644.0228569999999l2.084571 4.498286v2.230857a12.141714 12.141714 0 0 0 2.121143 3.328c1.353143 3.035429 2.925714 5.595429 4.717714 7.826286 1.682286 2.194286 3.657143 4.022857 5.741715 5.558857 2.048 2.267429 3.803429 4.498286 5.229714 6.656a29.732571 29.732571 0 0 1 3.108571 6.729143 53.028571 53.028571 0 0 1 1.609143 7.204571 29.915429 29.915429 0 0 1 0 7.826286 20.406857 20.406857 0 0 1-6.326857 12.288 15.616 15.616 0 0 1-5.229714 3.876571 17.554286 17.554286 0 0 1-6.765715 1.097143h-535.04v-81.298286h456.667429c2.048 0 4.169143-0.219429 6.253714-0.512a25.965714 25.965714 0 0 0 5.741715-1.718857c1.755429-0.768 3.547429-1.682286 5.229714-2.779428 1.755429-1.097143 3.291429-2.377143 4.754286-3.876572 5.558857-5.193143 9.398857-11.154286 11.52-17.810285 0.658286-2.962286 1.170286-6.180571 1.536-9.508572 0.365714-3.328 0.548571-6.473143 0.548571-9.435428v-11.227429a20.918857 20.918857 0 0 0-2.596571-9.435429 40.777143 40.777143 0 0 0-6.326858-8.923428 25.6 25.6 0 0 0-8.850285-6.107429c-4.900571-3.766857-8.777143-8.521143-11.556572-14.482285a52.004571 52.004571 0 0 1-4.132571-20.114286c0-6.656 1.353143-13.312 4.132571-20.041143 2.779429-6.656 7.314286-11.849143 13.604572-15.616a23.954286 23.954286 0 0 0 11.52-12.251429 29.988571 29.988571 0 0 0 3.145143-16.713142 50.102857 50.102857 0 0 0-4.205715-15.616c-2.779429-4.388571-5.924571-8.192-9.398857-11.154286a50.907429 50.907429 0 0 1-7.314286-7.204572 44.946286 44.946286 0 0 1-5.229714-8.338285l-4.169143-20.077715c0-7.424 1.389714-13.714286 4.169143-18.944a29.513143 29.513143 0 0 1 12.544-12.214857c3.474286-2.267429 6.253714-5.961143 8.374857-11.154285 2.084571-5.924571 3.108571-11.52 3.108572-16.713143v-4.498286l-2.084572-4.388571v-4.498286l-2.121143-4.498286a24.685714 24.685714 0 0 0-11.483428-11.154286 12.214857 12.214857 0 0 1-3.657143-2.779428 19.602286 19.602286 0 0 1-2.56-3.291429 19.638857 19.638857 0 0 1-2.121143-5.046857c-2.121143-4.425143-3.291429-9.837714-3.657143-16.091428-0.365714-6.4 0.877714-12.507429 3.657143-18.432a24.868571 24.868571 0 0 1 10.459429-12.251429c7.606857-5.193143 13.019429-11.154286 16.201143-17.846857 3.108571-6.692571 3.291429-14.848 0.512-24.539429-2.048-2.962286-3.84-5.595429-5.229715-7.753143l-5.193143-5.595428c-0.731429-1.499429-0.914286-2.56-0.548571-3.291429 0.329143-0.804571 2.267429-1.170286 5.741714-1.170285h51.2c6.217143 0 10.788571 1.865143 13.568 5.558857l2.121143 4.498285a13.129143 13.129143 0 0 1 1.024 5.485715v4.498285c0 2.962286-0.182857 5.741714-0.512 8.374858a28.050286 28.050286 0 0 1-2.633143 8.301714c-2.084571 5.924571-4.205714 9.691429-6.290285 11.190857a69.485714 69.485714 0 0 0-11.483429 10.532571 38.436571 38.436571 0 0 0-6.326857 10.605715 29.403429 29.403429 0 0 0-2.084572 9.984c0 3.035429 0.548571 5.632 1.572572 7.826285 1.024 2.230857 2.267429 4.644571 3.657143 7.277715a25.709714 25.709714 0 0 0 5.741714 7.204571 32 32 0 0 0 8.923429 5.558857l2.084571 2.230857 2.121143 4.498286 2.084571 2.230857 2.121143 4.425143c1.389714 6.656 2.084571 13.385143 2.084572 20.041143 0 6.729143-1.718857 13.458286-5.229715 20.114286a23.771429 23.771429 0 0 1-11.483428 12.251428 20.333714 20.333714 0 0 1-3.657143 1.682286 7.387429 7.387429 0 0 0-3.108572 2.230857 29.074286 29.074286 0 0 0-4.717714 7.204572 41.545143 41.545143 0 0 0-3.181714 15.652571 36.205714 36.205714 0 0 0 0.585143 5.010286l1.024 5.046857a21.321143 21.321143 0 0 0 1.572571 4.461714 20.297143 20.297143 0 0 0 11.483429 8.923429l-0.036572 0.109714c5.558857 0.731429 9.691429 4.022857 12.544 9.984l5.156572 18.980571c0 7.424-1.353143 14.445714-4.132572 21.138286a38.107429 38.107429 0 0 1-13.568 16.713143 33.389714 33.389714 0 0 0-13.604571 14.482286 44.251429 44.251429 0 0 0-4.205714 18.944 47.542857 47.542857 0 0 0 5.229714 16.713143 18.102857 18.102857 0 0 0 2.633143 3.876571 13.275429 13.275429 0 0 0 3.657143 2.779429 24.064 24.064 0 0 1 4.169142 2.779428 17.481143 17.481143 0 0 0 5.229715 2.742857 26.368 26.368 0 0 1 14.628571 13.385143l3.145143 5.558857c0.731429 2.267429 1.206857 4.681143 1.536 7.204572a38.4 38.4 0 0 1-1.024 17.883428z m-166.070857-174.994285c1.024 1.901714 2.194286 3.876571 3.657143 6.144a26.843429 26.843429 0 0 0 17.700572 11.117714l0.073142-0.109714a23.588571 23.588571 0 0 1 13.531429 11.154285 27.940571 27.940571 0 0 1 3.181714 16.713143 33.499429 33.499429 0 0 1-5.229714 16.713143 25.197714 25.197714 0 0 1-5.741714 7.826286 18.578286 18.578286 0 0 1-7.862857 4.461714l-7.314286 3.328a35.620571 35.620571 0 0 0-5.229714 4.498286 36.937143 36.937143 0 0 0-4.169143 5.485714 27.501714 27.501714 0 0 0-3.108572 16.749714 22.674286 22.674286 0 0 0 1.536 8.338286 22.930286 22.930286 0 0 0 4.717715 7.204571 25.673143 25.673143 0 0 0 13.568 10.605715 21.065143 21.065143 0 0 1 12.580571 11.702857c2.084571 5.193143 3.108571 10.752 3.108571 16.713143a35.913143 35.913143 0 0 1-5.229714 14.482285 10.422857 10.422857 0 0 1-3.108571 3.876572 10.971429 10.971429 0 0 1-4.205715 2.194286 13.750857 13.750857 0 0 1-4.169142 0.621714H297.801143V66.92571399999997h497.371428a13.824 13.824 0 0 1 12.580572 6.729143 29.732571 29.732571 0 0 1 3.145143 6.729143c0.731429 2.230857 1.426286 4.827429 2.084571 7.826286v4.388571a20.077714 20.077714 0 0 1-0.512 4.498286 57.709714 57.709714 0 0 1-1.024 3.876571 11.300571 11.300571 0 0 0-0.548571 3.876572 41.618286 41.618286 0 0 1-4.754286 7.826285 21.504 21.504 0 0 1-6.729143 5.558858 44.288 44.288 0 0 0-19.894857 21.76 24.429714 24.429714 0 0 0-1.536 6.107428 21.796571 21.796571 0 0 0 0 6.656c0.292571 2.230857 0.621714 4.315429 1.024 6.180572a22.601143 22.601143 0 0 0 5.741714 10.532571 31.890286 31.890286 0 0 0 17.737143 12.288 23.661714 23.661714 0 0 1 12.544 11.154286c2.121143 5.229714 3.145143 10.788571 3.145143 16.713143a46.518857 46.518857 0 0 1-6.253714 18.907428 13.494857 13.494857 0 0 1-3.181715 5.558857 21.577143 21.577143 0 0 1-4.754285 3.876572c-1.682286 1.097143-3.620571 2.450286-5.705143 3.876571-12.507429 6.729143-18.432 16.018286-17.737143 27.867429 0.694857 11.154286 9.033143 21.211429 25.051429 30.098285a19.931429 19.931429 0 0 1 10.459428 12.251429c0.731429 1.499429 1.426286 2.779429 2.121143 3.876571 0.731429 1.097143 1.097143 2.413714 1.097143 3.876572 0 1.499429 0.146286 3.035429 0.475428 4.461714a25.161143 25.161143 0 0 1 0.512 5.595429 46.336 46.336 0 0 1-5.156571 16.713143 33.206857 33.206857 0 0 1-14.665143 13.312 26.148571 26.148571 0 0 0-15.689143 13.385142 35.108571 35.108571 0 0 0-5.229714 17.810286c0.694857 2.230857 1.206857 4.498286 1.609143 6.729143a18.395429 18.395429 0 0 0 2.084571 6.107429z m-122.221714 36.498285a206.262857 206.262857 0 0 0-10.496-15.616c-2.048-2.962286-5.412571-7.643429-9.874286-13.897143a316.525714 316.525714 0 0 1-8.96-12.8c-6.217143-8.192-12.141714-16.713143-17.737143-25.6l-8.338285-14.518857h-1.097143c-1.353143-3.730286-0.329143-5.997714 3.181714-6.692571 3.474286-0.731429 6.582857-1.097143 9.398857-1.097143h32.402286c3.437714 0 6.217143-1.28 8.338286-3.876571a13.056 13.056 0 0 0 3.145143-8.374858v-24.502857c0-2.998857-0.877714-4.973714-2.633143-6.144a12.434286 12.434286 0 0 0-6.765715-1.645714h-56.466285l-7.314286-2.194286c-2.084571-0.804571-3.145143-2.633143-3.145143-5.595428l1.097143-8.923429v-7.789714c0-2.267429 0.804571-3.766857 2.56-4.498286 1.718857-0.731429 4.022857-0.731429 6.802286 0h55.332571c6.326857 0 9.435429-2.962286 9.435429-8.886857v-23.405714c0-6.656-4.534857-9.984-13.568-9.984h-27.245715a33.024 33.024 0 0 0-8.338285-1.133715h-15.689143c-2.779429 0-4.900571-0.914286-6.253714-2.742857a11.702857 11.702857 0 0 1-2.084572-7.277714v-41.179429c-0.731429-2.962286-3.181714-4.827429-7.314286-5.558857h-30.354285c-8.338286 0-12.544 3.766857-12.544 11.154286v17.846857a83.858286 83.858286 0 0 1 0 18.907429l-1.024 6.729143a4.388571 4.388571 0 0 0-2.084572 0.548571 10.715429 10.715429 0 0 1-4.205714 0.512h-56.429714c-4.205714 0.073143-7.314286 1.170286-9.435429 3.401143-2.048 2.194286-3.145143 5.522286-3.145143 9.984l-0.987428 7.826286v9.984a25.6 25.6 0 0 1 1.572571 5.046857 7.753143 7.753143 0 0 0 1.536 3.876571c1.426286 2.962286 3.876571 4.096 7.314286 3.401143h63.780571c1.353143 0 2.084571 1.828571 2.084572 5.485714v20.114286c0 2.962286-3.84 4.425143-11.52 4.425143h-55.369143a13.385143 13.385143 0 0 0-6.290286 1.170286c-1.353143 0.731429-2.450286 2.56-3.108571 5.485714v12.288c0 5.229714-0.365714 9.289143-1.024 12.251428-1.462857 4.498286-0.585143 8.009143 2.596571 10.605715a19.858286 19.858286 0 0 0 13.056 3.876571 23.771429 23.771429 0 0 0 4.754286-0.548571c1.682286-0.438857 3.620571-0.621714 5.705143-0.621715a18.651429 18.651429 0 0 1 6.253714 1.097143h25.124571c1.426286 0 2.450286 0.438857 3.145143 1.170286 0.658286 0.731429 0.658286 1.828571 0 3.291429a230.034286 230.034286 0 0 0-11.483428 15.652571 310.381714 310.381714 0 0 1-19.894857 27.794286c-3.474286 5.229714-7.68 10.971429-12.507429 17.261714-4.900571 6.290286-10.130286 13.165714-15.689143 20.589714-4.205714 7.460571-3.108571 13.750857 3.145143 18.980572a22.381714 22.381714 0 0 0 6.217143 4.461714 6.656 6.656 0 0 1 3.145143 3.328l12.544 8.923429c6.253714 3.657143 12.178286 0 17.737143-11.154286 2.121143-3.766857 5.961143-8.96 11.556571-15.616 3.437714-5.156571 6.4-9.472 8.850286-12.8 2.450286-3.291429 4.717714-6.912 6.802285-10.605714l16.713143-22.308572c2.048-2.925714 3.803429-5.302857 5.229715-7.168a30.061714 30.061714 0 0 0 3.145142-5.046857l2.084572-2.194286a6.729143 6.729143 0 0 1 5.229714-2.267428c3.474286-0.731429 5.924571 0.365714 7.314286 3.328 0 0.731429 2.450286 4.827429 7.350857 12.288 6.253714 8.923429 11.483429 17.078857 15.616 24.502857a54.491429 54.491429 0 0 1 5.814857 8.338286c2.450286 4.096 4.534857 7.460571 6.217143 10.057142a148.114286 148.114286 0 0 1 4.754286 7.204572c2.084571 2.962286 5.229714 7.789714 9.435428 14.482286 2.779429 4.388571 5.558857 7.753143 8.338286 9.984 2.121143 0.768 5.595429 0.402286 10.459429-1.097143 2.121143-0.804571 4.022857-1.682286 5.741714-2.779429 1.755429-1.097143 3.291429-2.377143 4.754286-3.876571 2.084571-1.462857 3.766857-2.779429 5.193142-3.876572a32.694857 32.694857 0 0 0 3.145143-2.779428 24.576 24.576 0 0 0 6.802286-13.385143 6.217143 6.217143 0 0 0-1.536-5.595429z"  horiz-adv-x="1024" />

    
    <glyph glyph-name="entry-invite" unicode="&#59157;" d="M863.085714 471.771429V822.857143H160.914286v-351.085714H73.142857V-54.85714299999995h877.714286V471.771429h-87.771429zM248.685714 735.085714h526.628572v-263.314285l-263.314286-219.428572-263.314286 219.428572V735.085714z m87.771429-87.771428h351.085714v-87.771429H336.457143V647.314286z m0-131.657143h351.085714v-87.771429H336.457143v87.771429z"  horiz-adv-x="1024" />

    
    <glyph glyph-name="entry-share" unicode="&#59156;" d="M908.214857 304.786286c-25.051429 0-42.605714-20.041143-42.605714-45.129143v-52.662857c0-92.781714-2.523429-165.522286-175.542857-165.522286h-351.085715c-178.066286 0-175.542857 77.750857-175.542857 175.542857V435.2c-12.544 137.910857 52.662857 168.009143 132.900572 173.019429h2.486857c25.088 0 42.642286 20.077714 42.642286 45.165714 0 25.051429-20.041143 45.129143-42.642286 45.129143H248.685714A174.445714 174.445714 0 0 1 73.142857 522.971429v-393.728a174.445714 174.445714 0 0 1 175.542857-175.542858h526.628572a174.445714 174.445714 0 0 1 175.542857 175.542858V259.657143c0 25.088-20.077714 45.129143-42.642286 45.129143z m-682.093714-20.041143c0-45.165714 7.533714-85.284571 20.041143-125.403429 50.176 145.444571 183.076571 250.770286 341.065143 250.770286V347.42857100000003c0-22.564571 12.544-45.129143 32.621714-55.186285 7.497143-5.010286 17.554286-7.497143 27.574857-7.497143 12.544 0 25.088 5.010286 35.108571 12.544l240.749715 188.050286c15.030857 12.544 25.051429 30.098286 25.051428 50.176 0 20.041143-10.020571 37.595429-25.051428 50.139428l-240.749715 188.086857C674.998857 783.762286 662.454857 786.285714 649.874286 786.285714c-10.020571 0-17.554286-2.523429-27.574857-7.533714-20.041143-10.020571-32.585143-32.585143-32.585143-55.149714V660.845714c-200.630857 0-363.629714-168.009143-363.629715-376.137143z"  horiz-adv-x="1024" />

    
    <glyph glyph-name="entry-cloud" unicode="&#59155;" d="M751.872 509.952v11.958857c0 135.936-107.410286 246.125714-239.872 246.125714-132.461714 0-239.835429-110.189714-239.835429-246.125714v-11.958857c-120.612571-17.664-207.286857-128.146286-198.4-252.818286 8.886857-124.672 110.299429-221.001143 232.118858-220.525714h413.366857c121.6 0.109714 222.427429 96.621714 231.021714 221.074286 8.594286 124.489143-78.043429 234.605714-198.4 252.269714z m-260.425143-130.816c0 3.803429 2.998857 6.875429 6.729143 6.875429h178.834286c1.828571 0 3.510857-0.731429 4.754285-2.011429a6.985143 6.985143 0 0 0 1.974858-4.864v-42.203429a6.802286 6.802286 0 0 0-6.729143-6.875428H498.834286a6.802286 6.802286 0 0 0-6.692572 6.875428l-0.694857 42.203429z m-157.074286 0.731429a6.948571 6.948571 0 0 0 6.729143 6.985142h75.52a6.948571 6.948571 0 0 0 6.692572-7.021714v-42.203428c0-1.828571-0.694857-3.584-1.938286-4.864a6.619429 6.619429 0 0 0-4.754286-2.011429H341.101714a6.619429 6.619429 0 0 0-4.754285 2.011429 6.985143 6.985143 0 0 0-1.974858 4.864v42.203428z m356.352-203.410286a13.897143 13.897143 0 0 0-13.714285-14.08H348.086857a13.897143 13.897143 0 0 0-13.714286 14.08v28.123428a13.897143 13.897143 0 0 0 13.714286 14.043429h328.923429a13.897143 13.897143 0 0 0 13.714285-14.043429v-28.16z"  horiz-adv-x="1024" />

    
    <glyph glyph-name="entry-feedback" unicode="&#59154;" d="M135.826286 749.714286h752.347428C922.770286 749.714286 950.857143 718.518857 950.857143 680.045714v-592.091428C950.857143 49.481142999999975 922.770286 18.285713999999984 888.173714 18.285713999999984H135.826286C101.229714 18.285713999999984 73.142857 49.481142999999975 73.142857 87.95428600000002V680.045714C73.142857 718.518857 101.229714 749.714286 135.826286 749.714286z m12.909714-167.497143l307.931429-248.832c32.987429-26.660571 77.677714-26.660571 110.665142 0l307.931429 248.832a36.571429 36.571429 0 0 1 12.726857 31.817143 34.742857 34.742857 0 0 1-18.432 28.16 28.745143 28.745143 0 0 1-31.158857-3.620572l-307.968-248.868571a28.854857 28.854857 0 0 0-36.864 0l-307.931429 248.905143a28.745143 28.745143 0 0 1-31.195428 3.657143 34.742857 34.742857 0 0 1-18.432-28.16 36.571429 36.571429 0 0 1 12.726857-31.853715v-0.036571z"  horiz-adv-x="1024" />

    
    <glyph glyph-name="entry-topic" unicode="&#59153;" d="M512 822.857143C269.641143 822.857143 73.142857 650.934857 73.142857 438.857143c0-121.197714 64.329143-229.12 164.571429-299.52V-54.85714299999995l192.256 116.662857c26.624-4.388571 53.979429-6.948571 82.029714-6.948571 242.395429 0 438.857143 171.958857 438.857143 384C950.857143 650.971429 754.432 822.857143 512 822.857143z m137.142857-521.142857h-274.285714a27.428571 27.428571 0 0 0 0 54.857143h274.285714a27.428571 27.428571 0 0 0 0-54.857143z m54.857143 164.571428H320a27.428571 27.428571 0 0 0 0 54.857143h384a27.428571 27.428571 0 0 0 0-54.857143z"  horiz-adv-x="1024" />

    
    <glyph glyph-name="entry-qaq" unicode="&#59152;" d="M512 822.857143c242.358857 0 438.857143-196.498286 438.857143-438.857143s-196.498286-438.857143-438.857143-438.857143a436.918857 436.918857 0 0 0-225.389714 62.244572 2866.029714 2866.029714 0 0 1-20.626286 12.068571l-107.373714-29.257143a32.914286 32.914286 0 0 0-40.411429 40.411429l29.257143 107.264c-11.337143 19.2-18.761143 32.109714-22.454857 38.985143A437.028571 437.028571 0 0 0 73.142857 384C73.142857 626.358857 269.641143 822.857143 512 822.857143z m0-603.428572a32.914286 32.914286 0 1 1 0-65.828571 32.914286 32.914286 0 0 1 0 65.828571zM509.44 603.4285709999999c-49.810286 0-95.451429-24.868571-122.038857-65.206857-6.985143-10.605714-12.507429-22.125714-16.457143-34.194285a32.914286 32.914286 0 0 1 62.683429-20.260572 74.971429 74.971429 0 0 0 8.777142 18.212572 79.945143 79.945143 0 0 0 66.998858 35.620571c44.032 0 79.396571-34.56 79.396571-76.8 0-42.24-35.364571-76.8-79.396571-76.8a32.914286 32.914286 0 0 1-32.914286-32.914286v-65.828571a32.914286 32.914286 0 1 1 65.828571 0v36.571428c64.256 14.628571 112.310857 71.204571 112.310857 138.971429 0 78.957714-65.206857 142.628571-145.225142 142.628571z"  horiz-adv-x="1024" />

    
    <glyph glyph-name="entry-note" unicode="&#59151;" d="M838.180571-54.85714299999995h-629.028571C170.605714-54.85714299999995 146.285714-32 146.285714 8.045713999999975V761.417143C147.748571 798.537143 170.569143 822.857143 209.188571 822.857143h188.708572v-313.051429L460.8 384l62.902857 125.805714V822.857143h314.477714c34.304 0 62.902857-29.988571 62.902858-62.902857v-753.371429c-1.462857-41.435429-18.614857-61.44-62.902858-61.44z m-384.548571 104.338286c22.857143-22.857143 58.624 31.451429 125.805714 34.340571 1.426286 0 1.426286 0 2.852572 1.426286-2.852571 0-5.741714 0-8.594286 2.852571l-88.612571 87.186286c-4.278857 4.278857-2.852571 10.020571 1.426285 15.725714a44.726857 44.726857 0 0 1-7.168-14.262857c-12.836571-78.628571-47.177143-105.801143-25.709714-127.268571z m48.603429 158.72c-2.852571-2.889143-8.594286-7.168-12.873143-12.909714 5.705143 5.741714 14.299429 5.741714 18.578285 1.462857l88.649143-87.222857c4.278857-4.278857 2.852571-10.020571 0-14.262858 2.852571 2.816 5.705143 7.131429 7.131429 8.557715l208.713143 194.413714c-5.705143-2.852571-11.446857-2.852571-14.262857 0L709.485714 386.852571c-4.315429 4.278857-2.889143 10.020571 0 15.725715l-207.286857-194.413715z m311.625142 191.524571a73.728 73.728 0 0 1-90.038857 11.446857c2.852571 0 5.705143 0 8.557715-2.889142l88.649142-87.186286c2.852571-2.852571 2.852571-5.705143 2.852572-8.557714 17.152 25.709714 14.262857 62.902857-10.020572 87.186285z"  horiz-adv-x="1024" />

    
    <glyph glyph-name="entry-application" unicode="&#59150;" d="M343.222857 822.857143H208.164571A135.424 135.424 0 0 1 73.142857 687.835429v-135.058286a135.424 135.424 0 0 1 135.021714-135.021714h135.058286a135.424 135.424 0 0 1 135.021714 135.021714V687.835429A135.424 135.424 0 0 1 343.222857 822.857143z m472.612572 0h-135.058286a135.424 135.424 0 0 1-135.021714-135.021714v-135.058286a135.424 135.424 0 0 1 135.021714-135.021714h135.058286A135.424 135.424 0 0 1 950.857143 552.777143V687.835429A135.424 135.424 0 0 1 815.835429 822.857143zM343.222857 350.24457099999995H208.164571A135.424 135.424 0 0 1 73.142857 215.22285699999998v-135.058286A135.424 135.424 0 0 1 208.164571-54.85714299999995h135.058286a135.424 135.424 0 0 1 135.021714 135.021714v135.058286a135.424 135.424 0 0 1-135.021714 135.021714z m472.612572 0h-135.058286a135.424 135.424 0 0 1-135.021714-135.021714v-135.058286A135.424 135.424 0 0 1 680.777143-54.85714299999995h135.058286A135.424 135.424 0 0 1 950.857143 80.16457100000002v135.058286a135.424 135.424 0 0 1-135.021714 135.021714z"  horiz-adv-x="1024" />

    
    <glyph glyph-name="entry-reserve" unicode="&#59149;" d="M927.817143-0.9874290000000201H445.659429a23.113143 23.113143 0 0 0-23.04 23.149715v53.942857a264.777143 264.777143 0 0 0 166.473142 246.784l6.107429 2.450286-5.156571 4.096a157.622857 157.622857 0 0 0-60.269715 124.16c0 87.113143 70.436571 157.988571 156.964572 157.988571 86.564571 0 156.964571-70.875429 156.964571-157.988571 0-48.64-21.942857-93.878857-60.233143-124.16l-5.12-4.096 6.070857-2.450286A264.777143 264.777143 0 0 0 950.857143 76.105143v-53.942857c0-12.8-10.313143-23.149714-23.04-23.149715zM472.868571 498.395429c-8.594286-55.259429 0.182857-114.980571 35.474286-157.330286l5.851429-4.681143-6.948572-2.779429c-86.198857-34.852571-128.914286-112.018286-145.078857-200.996571-15.652571-0.585143-24.832-0.512-24.832-0.512-128.621714 25.014857-229.266286 124.781714-256.841143 254.866286a331.410286 331.410286 0 0 0 44.982857 248.32c47.286857 74.093714 120.100571 125.074286 204.982858 143.579428A323.364571 323.364571 0 0 0 399.213714 786.285714c94.683429 0 187.172571-43.739429 248.612572-117.321143 0 0 3.181714-5.339429 8.374857-14.884571-98.852571-0.365714-172.690286-87.405714-183.332572-155.684571z m-72.411428 132.205714H355.474286v-171.410286l-102.729143-103.570286 33.28-24.722285 114.432 115.419428V630.601143z"  horiz-adv-x="1024" />

    
    <glyph glyph-name="entry-open" unicode="&#59148;" d="M811.885714 768h58.514286a58.514286 58.514286 0 0 0 58.514286-58.514286v-705.828571a58.514286 58.514286 0 0 0-58.514286-58.514286H226.742857a58.514286 58.514286 0 0 0-58.514286 58.514286V54.85714299999995h585.142858a58.514286 58.514286 0 0 1 58.514285 58.514286V768zM168.228571 822.857143H694.857143a58.514286 58.514286 0 0 0 58.514286-58.514286v-596.114286a58.514286 58.514286 0 0 0-58.514286-58.514285H168.228571A58.514286 58.514286 0 0 0 109.714286 168.228571V764.342857A58.514286 58.514286 0 0 0 168.228571 822.857143z m409.6-158.500572a29.257143 29.257143 0 0 1-29.257142-29.257142v-311.222858a29.257143 29.257143 0 1 1 58.514285 0V635.099429a29.257143 29.257143 0 0 1-29.257143 29.257142z"  horiz-adv-x="1024" />

    
    <glyph glyph-name="entry-class" unicode="&#59147;" d="M952.064 94.13485700000001H374.272a4.571429 4.571429 0 0 1-4.534857-4.352c-0.256-4.388571-0.621714-8.740571-1.133714-13.092571a185.782857 185.782857 0 0 0-11.117715-43.52 20.955429 20.955429 0 0 1 19.456-28.672h575.122286a34.998857 34.998857 0 0 1 35.364571 34.486857v20.626286a34.889143 34.889143 0 0 1-35.364571 34.486857z m-504.685714 238.738286c1.316571 1.792 8.192 12.617143 9.508571 14.409143l96.146286 131.108571c11.812571 16.091429 9.289143 37.851429-5.668572 48.457143l-6.619428 4.827429c-14.957714 10.788571-36.498286 6.290286-48.310857-9.801143l-87.296-119.186286a23.515429 23.515429 0 0 0-15.616-9.325714l-125.549715-18.139429a81.188571 81.188571 0 0 0-10.861714-0.329143l-16.457143 0.292572H183.954286c-4.937143-0.109714-8.301714 0-12.8 0-11.264 0-13.860571 0.109714-28.854857 0H119.954286C73.874286 375.186286 36.571429 338.13942899999995 36.571429 292.681143v-206.189714c0-36.571429 24.173714-67.181714 57.417142-77.970286a17.92 17.92 0 0 0 2.194286-0.841143c4.681143-2.194286 20.918857-3.657143 23.734857-3.657143h116.553143c45.970286 0 83.309714 37.010286 83.309714 82.468572v185.746285c0 10.898286 7.533714 20.370286 18.139429 22.857143l90.221714 21.284572a24.978286 24.978286 0 0 1 1.682286 0.438857c4.315429 1.353143 10.349714 2.925714 17.554286 16.054857z m-269.165715 92.050286c55.259429 0 99.913143 44.361143 99.913143 98.925714S233.252571 622.848 178.212571 622.848c-55.296 0-99.949714-44.361143-99.949714-98.962286 0-54.564571 44.653714-98.962286 99.949714-98.962285z m148.845715 101.266285a145.481143 145.481143 0 0 0-40.594286-100.681143 4.534857 4.534857 0 0 1 4.278857-7.533714h0.182857a375.369143 375.369143 0 0 0 69.558857 8.411429 19.931429 19.931429 0 0 1 15.579429 8.118857l85.833143 115.748571c25.417143 34.194286 71.862857 43.52 103.936 20.699429l14.409143-10.203429c32.073143-22.747429 37.522286-69.010286 12.141714-103.094857l-110.921143-149.723428c-2.669714-3.657143-5.595429-7.204571-8.667428-10.569143-57.051429-62.427429-101.449143-4.608-105.472-74.093715v-0.292571l-0.292572-72.667429a4.534857 4.534857 0 0 1 4.534857-4.534857h35.913143c17.408-0.146286 34.194286 0 51.968 0h200.996572a29.001143 29.001143 0 0 0-29.403429 28.708572v20.114285c0 15.725714 13.129143 28.562286 29.403429 28.562286h113.005714c16.091429 0 29.403429-12.8 29.403428-28.598857v-20.077714a29.074286 29.074286 0 0 0-29.403428-28.708572h95.451428c36.498286 0 66.048 28.379429 66.048 63.561143V649.581714c0 35.181714-29.549714 63.561143-66.048 63.561143H208.237714a66.267429 66.267429 0 0 1-57.856-33.206857 4.534857 4.534857 0 0 1 4.571429-6.729143c6.729143 0.950857 13.494857 1.426286 20.260571 1.426286 83.785143-0.182857 151.881143-66.413714 151.881143-148.406857l-0.036571-0.036572z"  horiz-adv-x="1024" />

    
    <glyph glyph-name="entry-course" unicode="&#59145;" d="M190.171429 325.48571400000003v146.285715h73.142857a102.4 102.4 0 0 1 0 204.8h-73.142857V764.342857A58.514286 58.514286 0 0 0 248.685714 822.857143h585.142857a58.514286 58.514286 0 0 0 58.514286-58.514286v-760.685714a58.514286 58.514286 0 0 0-58.514286-58.514286h-585.142857a58.514286 58.514286 0 0 0-58.514285 58.514286v117.028571h73.142857a102.4 102.4 0 0 1 0 204.8h-73.142857z m497.371428 292.571429a29.257143 29.257143 0 0 1-29.257143-29.257143v-409.6a29.257143 29.257143 0 1 1 58.514286 0V588.8a29.257143 29.257143 0 0 1-29.257143 29.257143z m-570.514286 0h146.285715a43.885714 43.885714 0 1 0 0-87.771429h-146.285715a43.885714 43.885714 0 1 0 0 87.771429z m0-351.085714h146.285715a43.885714 43.885714 0 0 0 0-87.771429h-146.285715a43.885714 43.885714 0 1 0 0 87.771429z"  horiz-adv-x="1024" />

    
    <glyph glyph-name="manage" unicode="&#59144;" d="M985.090162 313.603911c-82.654964 0-149.893895-66.158102-149.893895-147.56158 0-81.346592 67.238931-147.56158 149.893895-147.56158 82.654964 0 149.893895 66.214988 149.893894 147.56158s-67.238931 147.56158-149.893894 147.56158z m-2.161658-202.513194a56.316871 56.316871 0 0 0-56.715071 55.861786 56.316871 56.316871 0 0 0 56.715071 55.861785c31.287151 0 56.715071-25.029721 56.715071-55.861785a56.316871 56.316871 0 0 0-56.715071-55.861786z m267.761124 83.280707c0 8.760402-3.982001 16.724404-12.51486 19.17049l-35.326037 8.760403a216.734626 216.734626 0 0 1-24.460864 61.265929l16.041776 27.418921a22.24232 22.24232 0 0 1-3.356258 25.31415l-35.951781 35.610466a22.697406 22.697406 0 0 1-15.700461 5.916115 20.933948 20.933948 0 0 1-9.898117-2.275429l-28.329092-15.359146a226.974057 226.974057 0 0 1-61.322816 24.688406l-9.215488 25.02972c-2.502972 8.419088-11.604689 16.496861-20.478862 16.496862l-51.310927-0.910172a23.380034 23.380034 0 0 1-20.877063-15.643575l-9.443031-28.784179a223.73157 223.73157 0 0 1-59.616243-23.209377l-29.921893 16.895061a22.071663 22.071663 0 0 1-10.353203 2.446086c-5.688573 0-11.490917-1.934115-15.359147-5.688572l-36.122437-35.439809a22.185434 22.185434 0 0 1-3.697573-25.200378l16.667519-29.978779c-10.808288-18.032776-18.942948-37.487695-24.233321-57.739015l-31.400922-9.670573c-8.532859-2.446086-20.080662-11.604689-20.080662-20.421977l0.455086-50.34387c0-8.760402 11.092717-17.97589 19.625576-20.421976l28.385979-9.670574c5.290373-20.535748 15.074718-39.933781 25.712349-57.7959l-15.928004-29.978779a22.469863 22.469863 0 0 1 4.095773-25.257264l36.406866-35.610466c3.86823-3.925115 9.898117-5.973001 15.757347-5.973001a21.04772 21.04772 0 0 1 9.955002 2.275429l29.978779 16.155547c18.601633-11.035831 38.682295-19.341148 59.616244-24.688407l9.499916-29.751236c2.502972-8.419088 11.149603-20.592634 20.023777-20.592633h52.33487c8.874174 0 17.805233 12.173546 20.308205 20.592633l9.215488 25.996778a230.842287 230.842287 0 0 1 61.322816 26.167436l28.442864-14.562747c2.844286-1.535915 6.086773-2.275429 9.443031-2.275429 6.029887 0 12.230432 2.275429 16.212433 6.25743l36.179323 35.838009c6.314316 6.200544 7.964002 17.634576 3.697572 25.371035l-15.245375 27.475807c11.71846 18.999833 20.478862 39.706239 25.939892 61.26593l32.36798 8.760402c8.532859 2.502972 13.254375 11.71846 13.254375 20.478862l-0.796401 51.595356z m-265.599466-183.854675c-87.09205 0-158.028554 69.741903-158.028554 155.525582s70.879618 155.582468 158.028554 155.582468 158.028554-69.798789 158.028554-155.582468c0-85.783679-70.879618-155.525582-158.028554-155.525582zM562.884284 892.586856c-23.892006 6.541859-49.490584 3.413144-70.993389-8.760402l-0.170657-0.113771h92.666852c-6.712516 0-13.823232 6.826287-21.502806 8.874173z m162.124327-799.358258c-20.080662 6.200544-41.071496 25.371035-41.071496 49.14927l-0.511972 53.301928c0 3.071829 0.3982 11.604689 1.023943 11.604688H484.89395a9.329259 9.329259 0 0 0-8.532859 4.437087 9.044831 9.044831 0 0 0 0 9.443031 9.329259 9.329259 0 0 0 8.532859 4.437087h208.599967c8.191545 0 20.251319 16.212433 31.856008 19.56869l15.529804 3.47003c3.86823 11.434031 8.532859 21.957891 13.993889 32.823065l-8.646631 15.074718a51.822899 51.822899 0 0 0 8.93106 61.26593l35.894895 35.269152a52.33487 52.33487 0 0 0 36.861952 14.676518c8.987945 0 16.951947-2.161658 25.02972-6.541859l13.481918-8.419088c10.466974 4.949058 18.829176 9.329259 31.628465 13.254375l-5.347259 13.083717c6.598745 21.104605 15.643575 37.203266 34.245209 37.203267v0.341314l82.711849 6.541859h0.511972c21.730348 0 42.948725-19.170491 49.888784-40.502639l-2.616744-5.06283c2.275429 3.413144-0.568857 4.835287-0.568857 5.46103V756.686851c0 50.230098-32.76618 108.822399-85.385478 108.822398h-355.649575c-2.275429 0-4.550858-0.511972-6.655631-1.365257-0.455086 0.511972-0.910172 1.365257-1.365257 1.365257H475.621577c-26.394978 0-50.059441-37.772124-50.059442-70.026331v-734.963614c0-32.993723 33.505694-54.268985 69.343704-54.268985h246.940947c-4.095772 0-3.128715 24.23332 3.413144 36.122438l8.191545 13.709461a244.722404 244.722404 0 0 0-15.58669 33.676351l-12.91306 3.526915zM484.837065 664.475085h467.71446a9.329259 9.329259 0 0 0 8.532859-4.437087 9.044831 9.044831 0 0 0 0-9.443031 9.329259 9.329259 0 0 0-8.532859-4.437087H484.89395a9.329259 9.329259 0 0 0-8.532859 4.437087 9.044831 9.044831 0 0 0 0 9.443031 9.329259 9.329259 0 0 0 8.532859 4.437087z m0-164.570413h355.535803a9.329259 9.329259 0 0 0 8.532859-4.380201 9.044831 9.044831 0 0 0 0-9.499917 9.329259 9.329259 0 0 0-8.532859-4.380201h-355.535803a9.329259 9.329259 0 0 0-8.53286 4.380201 9.044831 9.044831 0 0 0 0 9.499917 9.329259 9.329259 0 0 0 8.53286 4.380201z m0-127.992889h243.186489a9.329259 9.329259 0 0 0 8.53286-4.380201 9.044831 9.044831 0 0 0 0-9.443031 9.329259 9.329259 0 0 0-8.53286-4.437087H484.89395a9.329259 9.329259 0 0 0-8.532859 4.437087 9.044831 9.044831 0 0 0 0 9.443031 9.329259 9.329259 0 0 0 8.532859 4.437086z m-77.933449-311.335593V795.482918c0 16.667518 5.916116 34.074551 13.538804 48.921726L46.816955 633.756791A91.301594 91.301594 0 0 1 12.401089 508.039331l342.508972-589.677462c12.344203-21.218377 32.76618-36.748181 56.771957-43.062497 8.248431-2.218543 16.610633-3.299372 24.915949-3.299372 16.041775 0 31.856008 7.508916 46.134326 15.529804l172.306871 100.403311H494.848953c-46.760069 0-87.888451 28.784179-87.888451 72.529304z m-31.68535 166.845842l-45.793012-25.769235a9.443031 9.443031 0 0 0-12.742403 3.413144 9.101717 9.101717 0 0 0 3.470029 12.571746l45.793012 25.769235a9.443031 9.443031 0 0 0 12.742403-3.413144 9.101717 9.101717 0 0 0-3.470029-12.51486z m1.080828 159.28004l-116.331314-65.418588a9.499917 9.499917 0 0 0-12.742404 3.413144 9.101717 9.101717 0 0 0 3.47003 12.571746l116.331315 65.418588a9.443031 9.443031 0 0 0 12.742403-3.413144 9.101717 9.101717 0 0 0-3.47003-12.51486z m2.787401 189.088162L177.995445 462.530748a9.443031 9.443031 0 0 0-12.742404 3.413144 9.101717 9.101717 0 0 0 3.413144 12.571746l201.147936 113.2026a9.499917 9.499917 0 0 0 9.386146 0 9.158602 9.158602 0 0 0-0.056886-15.928004z"  horiz-adv-x="1251" />

    
    <glyph glyph-name="Explain" unicode="&#59140;" d="M512 835.38a451.38 451.38 0 1 0 0-902.76 451.38 451.38 0 0 0 0 902.76z m40.96-690.313v245.76a40.96 40.96 0 1 1-81.92 0v-245.76a40.96 40.96 0 0 1 81.92 0zM512 614.74a54.613 54.613 0 1 1 0-109.226 54.613 54.613 0 0 1 0 109.226z"  horiz-adv-x="1024" />

    
    <glyph glyph-name="Jurisdiction" unicode="&#59141;" d="M512 577.434c-35.748 0-64.835-29.087-64.835-64.835 0-35.753 29.087-64.835 64.835-64.835s64.835 29.082 64.835 64.835c0 35.753-29.087 64.835-64.835 64.835z m271.478 204.549c-100.531 0-195.328 32.66-271.478 89.108-76.155-56.448-170.952-89.108-271.478-89.108-34.934 0-71.086 6.477-108.293 19.358v-426.455c0-39.572 14.106-88.16 40.796-140.508 27.76-54.451 69.207-113.04 119.844-169.436 44.974-50.084 97.49-98.565 147.87-136.504 22.155-16.686 40.628-28.913 55.087-37.612a22.072 22.072 0 0 1 23.153 0.23c14.643 9.212 33.31 21.924 55.71 38.948 51.979 39.522 105.81 88.704 151.573 138.502 52.444 57.062 95.257 115.732 123.822 169.666 27.274 51.523 41.692 98.796 41.692 136.714V801.346c-37.212-12.881-73.364-19.363-108.298-19.363z m-230.549-442.01v-186.127a40.934 40.934 0 0 0-81.863 0V339.973c-78.152 18.53-136.469 88.888-136.469 172.626 0 97.818 79.58 177.398 177.398 177.398 97.817 0 177.398-79.58 177.398-177.398 0.005-83.732-58.312-154.097-136.464-172.626z"  horiz-adv-x="1024" />

    
    <glyph glyph-name="Promote" unicode="&#59142;" d="M833.437 692.792c-2.814 21.391-21.873 37.481-45.636 35.738-135.134-9.083-256.737-68.731-342.413-168.016-8.861-10.271-18.242-21.17-27.767-32.513l-125.978-19.354c-10.308-1.595-19.65-6.713-26.284-14.424l-86.197-99.91c-9.527-10.974-12.309-26.175-7.307-39.671 5.009-13.457 17.242-23.578 31.886-26.396l93.758-18.238c-6.229-64.396 26.508-105.289 56.354-128.721 2.63-2.003 5.263-3.968 7.896-5.82 39.927-27.992 85.232-35.703 133.424-22.653l35.37-80.744c5.783-13.122 18.537-22.577 33.365-24.688 2.116-0.297 4.192-0.409 6.229-0.409 12.904 0 25.025 5.411 33.218 14.901l86.162 99.913c6.672 7.712 10.157 17.427 9.788 27.436l-4.192 114.741c10.641 11.978 20.947 23.916 31.516 36.148 85.64 99.283 123.565 224.515 106.808 352.68zM615.668 425.307c-32.922 0.517-59.173 26.359-58.651 57.688 0.518 31.401 27.655 56.424 60.541 55.906 32.92-0.48 59.168-26.32 58.647-57.727-0.556-31.362-27.615-56.352-60.537-55.867z m-243.28-314.313l-103.248 92.24c-3.819 3.484-9.382 4.746-14.496 3.227-5.114-1.481-8.97-5.414-10.196-10.343l-31.287-127.682c-1.226-2.04-1.891-4.377-1.891-6.935 0-7.896 6.152-13.866 15.199-14.199h0.296a15.69 15.69 0 0 1 4.301 0.629l135.468 39.113c5.078 1.483 8.973 5.414 10.16 10.382 1.218 4.93-0.45 10.085-4.306 13.568z"  horiz-adv-x="1024" />

    
    <glyph glyph-name="efficiency" unicode="&#59143;" d="M511.766 831.924c-247.25 0-447.685-200.436-447.685-447.687s200.436-447.685 447.685-447.685c247.251 0 447.687 200.434 447.687 447.685S759.017 831.924 511.766 831.924z m241.927-327.681c12.114 4.84 25.846-1.051 30.691-13.16a294.55 294.55 0 0 0 6.139-16.807c4.1-12.375-2.61-25.724-14.987-29.837-7.386-2.442-15.124-1.038-21.042 3.127a23.553 23.553 0 0 0-8.802 11.863 239.84 239.84 0 0 1-5.152 14.122c-4.848 12.111 1.052 25.85 13.153 30.692zM487.146 112.147c-2.3-12.829-14.558-21.377-27.398-19.07-42.304 7.593-81.695 24.07-117.073 48.996a298.137 298.137 0 0 0-37.616 31.438c-0.032 0.036-0.075 0.056-0.105 0.098-0.105 0.103-0.204 0.208-0.303 0.312-42.96 42.554-71.631 97.243-82.168 158.016a290.487 290.487 0 0 0-2.52 17.862c-0.07 0.382-0.15 0.742-0.185 1.124a288.817 288.817 0 0 0-1.371 17.836c-0.008 0.205 0.004 0.405 0 0.607-2.75 60.629 13.284 120.184 46.526 171.696 0.221 0.38 0.409 0.755 0.663 1.127a277.675 277.675 0 0 0 6.235 9.231 302.579 302.579 0 0 0 3.968 5.494c0.322 0.441 0.672 0.833 1.008 1.234 40.284 53.848 96.744 91.584 161.444 108.2 0.275 0.076 0.568 0.168 0.851 0.241 0.043 0.01 0.09 0.016 0.146 0.023a296.566 296.566 0 0 0 22.36 4.771c75.033 13.018 150.635-3.12 213.666-45.43l18.488 26.716c5.135 7.418 11.304 6.376 13.711-2.315l21.518-77.526c2.415-8.68-2.96-16.458-11.948-17.266l-80.128-7.174c-8.979-0.804-12.136 4.6-7.006 12.019l18.445 26.654c-85.892 57.266-195.719 53.514-276.608-2.218-0.28-0.2-0.564-0.396-0.844-0.59-22.961-15.967-43.547-36.104-60.558-60.247-78.246-111.067-51.542-265.082 59.523-343.316a250.347 250.347 0 0 1 23.493-14.685c0.024-0.011 0.054-0.02 0.066-0.039a260.498 260.498 0 0 1 13.424-6.799c0.24-0.104 0.44-0.24 0.668-0.357 19.202-9.008 39.453-15.456 60.562-19.25 12.836-2.298 21.37-14.57 19.066-27.413z m-8.98 251.292V553.76c0 10.542 8.552 19.104 19.111 19.104 10.546 0 19.088-8.558 19.09-19.1v-167.06l153.409-79.315c9.374-4.839 13.038-16.353 8.2-25.733-3.403-6.565-10.077-10.333-16.99-10.333-2.954 0-5.956 0.686-8.754 2.133L478.166 363.44z m104.336-266.302a295.66 295.66 0 0 0-17.492-3.8c-6.5-1.21-12.88 0.385-17.894 3.912-4.867 3.431-8.448 8.685-9.617 14.994-2.37 12.826 6.1 25.147 18.91 27.53a243.69 243.69 0 0 1 14.685 3.179c12.66 3.155 25.467-4.552 28.613-17.205 3.156-12.644-4.55-25.46-17.205-28.61z m91.343 40.134a293.076 293.076 0 0 0-15.227-9.41c-8.237-4.746-18.123-3.976-25.41 1.144a23.59 23.59 0 0 0-6.839 7.502c-6.52 11.297-2.647 25.736 8.651 32.255a245.361 245.361 0 0 1 12.797 7.903c10.88 7.189 25.52 4.202 32.708-6.678 7.192-10.884 4.2-25.534-6.68-32.716z m72.714 68.452a296.045 296.045 0 0 0-11.207-14.015c-7.977-9.359-21.685-10.962-31.552-4.003a21.568 21.568 0 0 0-1.735 1.335c-9.922 8.448-11.114 23.354-2.666 33.28 3.231 3.8 6.388 7.745 9.386 11.736 7.829 10.434 22.608 12.561 33.061 4.717 10.42-7.826 12.538-22.62 4.713-33.05z m45.454 88.812a300.7 300.7 0 0 0-5.862-16.897c-4.643-12.191-18.287-18.3-30.466-13.648a23.18 23.18 0 0 0-5.211 2.767c-8.611 6.067-12.369 17.4-8.452 27.693a249.05 249.05 0 0 1 4.938 14.21c3.899 12.442 17.15 19.368 29.594 15.467 12.438-3.904 19.358-17.146 15.459-29.592z m13.35 81.04c-0.289-13.037-11.088-23.375-24.122-23.084a23.531 23.531 0 0 0-13.06 4.291c-6.211 4.38-10.211 11.664-10.025 19.835 0.111 4.978 0.062 10.031-0.132 15.013-0.515 13.024 9.638 24.006 22.658 24.52 13.036 0.507 24.013-9.637 24.523-22.664 0.234-5.943 0.287-11.969 0.158-17.91z"  horiz-adv-x="1024" />

    
    <glyph glyph-name="logout" unicode="&#59139;" d="M574.36012344 283.05230812H313.46166125c-12.48 0-20.67692344 4.65230813-22.5969225 13.07076844-0.44307656 1.69846125-0.36923062 3.47076938-0.36923062 5.16923156V485.76c0 11.59384594 7.68 17.79692344 22.15384593 17.79692344h261.78461531v5.61230718 164.16000001c0 7.53230812 4.43076938 13.51384594 11.81538469 15.87692343a22.15384594 22.15384594 0 0 0 22.52307657-4.20923062c3.69230812-3.17538469 7.68-6.12923062 11.52-9.23076938l143.18769281-117.26769281 183.8769225-150.57230719c10.19076937-8.34461531 10.33846125-17.13230813 0.22153875-25.4030775L684.16935406 166.89230812000005l-74.95384593-61.14461624a22.52307656 22.52307656 0 0 0-22.37538469-4.87384594c-8.49230813 2.65846125-12.55384594 8.12307656-12.55384688 16.83692344V276.62769187000004v6.42461625zM472.37858469 837.93230812v-93.63692343h-232.61538469c-47.33538469 0-82.26461531-37.14461531-82.26461531-87.50769282 0-174.42461531 0.29538469-348.77538469-0.22153875-523.12615312-0.14769188-46.15384594 32.93538469-79.38461531 63.50769281-85.51384687 6.79384594-1.32923062 13.80923062-1.92 20.6769225-1.92000001 74.14153875-0.14769188 148.28307656-0.07384594 222.42461531-0.07384593h8.34461532v-93.04615406c-1.03384594-0.29538469-2.21538469-0.73846125-3.54461532-0.73846125-78.79384594 0-157.66153875-0.88615406-236.45538468 0.36923062-77.09538469 1.10769187-145.25538469 63.13846125-159.95076844 143.40923062a193.62461531 193.62461531 0 0 0-3.10153875 34.56c-0.22153875 176.27076937-0.66461531 352.61538469 0.07384594 528.88615407C69.54781531 733.21846125 104.03396937 786.09230812 164.29243063 820.43076938c21.19384594 12.11076938 44.67692344 17.57538469 68.89846124 17.64923062C311.24627656 838.30153875 389.5232 838.15384594 467.65243063 838.15384594l4.72615406-0.22153781z"  horiz-adv-x="1024" />

    
    <glyph glyph-name="toggle" unicode="&#59134;" d="M512 8.999999709999997v-74.99999971l-150.37499971 150.00000029L512 233.99999971v-74.99999971h225a225 225 0 0 1 135.74999971 404.47500029l0.82500029 1.04999942 105.75 105.75A375.00000029 375.00000029 0 0 0 737.07499971 8.999999709999997l-225.14999942-0.07499971L512 8.999999709999997zM662.00000029 759.00000029V834l153.52499971-150.00000029L662.00000029 534.00000029V609H437.00000029a225 225 0 0 1-135.60000029-404.55L194.75 97.79999999999995A375.00000029 375.00000029 0 0 0 437.00000029 759.00000029h225.07499971z"  horiz-adv-x="1194" />

    
    </font>
</defs>
</svg>
