<?xml version="1.0" encoding="UTF-8" standalone="no"?>
<svg width="79px" height="131px" viewBox="0 0 79 131" version="1.1" xmlns="http://www.w3.org/2000/svg" xmlns:xlink="http://www.w3.org/1999/xlink">
    <!-- Generator: Sketch 46.1 (44463) - http://www.bohemiancoding.com/sketch -->
    <title>1 copy</title>
    <desc>Created with Sketch.</desc>
    <defs>
        <linearGradient x1="14.7179615%" y1="21.2521005%" x2="30.1383186%" y2="50%" id="linearGradient-1">
            <stop stop-color="#FFFFFF" stop-opacity="0" offset="0%"></stop>
            <stop stop-color="#E2E5ED" offset="100%"></stop>
        </linearGradient>
    </defs>
    <g id="Page" stroke="none" stroke-width="1" fill="none" fill-rule="evenodd">
        <g id="修改支付密码／选择方式" transform="translate(-1650.000000, -468.000000)">
            <g id="1-copy" transform="translate(1601.000000, 453.000000)">
                <rect id="box-copy-2" x="0" y="0" width="160" height="160"></rect>
                <rect id="box" x="16" y="16" width="128" height="128"></rect>
                <path d="M62.7196178,16.1529647 L102.516064,23.0947819 L102.516064,23.0947819 C107.420608,23.9502968 111,28.2080996 111,33.1867004 L111,135.961094 L111,135.961094 C111,140.002359 107.723907,143.278452 103.682642,143.278452 C103.280546,143.278452 102.879135,143.245309 102.482484,143.179359 L56.34064,135.507502 L56.34064,135.507502 C52.105081,134.803269 49,131.139289 49,126.845584 L49,27.6865859 L49,27.6865859 C49,21.2205616 54.2417483,15.9788133 60.7077725,15.9788133 C61.3821517,15.9788133 62.0552699,16.0370805 62.7196178,16.1529647 Z" id="Rectangle" fill="#E3E3E3"></path>
                <polygon id="shadow" fill="url(#linearGradient-1)" transform="translate(93.292880, 130.624810) scale(-1, 1) translate(-93.292880, -130.624810) " points="85.6127541 145.613474 54.3152255 128.790167 105.492578 115.636147 132.270535 138.495187"></polygon>
                <path d="M57.567452,17.8177542 L100.719284,25.2997885 L100.719284,25.2997885 C104.927233,26.0293989 108,29.6807956 108,33.9515298 L108,136.65452 L108,136.65452 C108,140.695785 104.723907,143.971878 100.682642,143.971878 C100.278597,143.971878 99.8752451,143.938412 99.4767241,143.871825 L56.3337278,136.663189 L56.3337278,136.663189 C52.1013458,135.956013 49,132.293479 49,128.002424 L49,25.0275385 L49,25.0275385 C49,20.9862734 52.2760927,17.7101807 56.3173578,17.7101807 C56.7363673,17.7101807 57.1546025,17.7461708 57.567452,17.8177542 Z" id="body" fill="#132244"></path>
                <path d="M77.5,134.947299 C79.4329966,135.279524 81,134.006402 81,132.1037 C81,130.200999 79.4329966,128.387568 77.5,128.05329 C75.5670034,127.719012 74,128.992135 74,130.896889 C74,132.801644 75.5670034,134.615074 77.5,134.947299 Z" id="home-btn" fill="#233151"></path>
                <path d="M53.8591638,30.8689606 L102.395692,39.4525015 L102.395692,39.4525015 C102.745236,39.5143173 103,39.818089 103,40.1730564 L103,128.410484 L103,128.410484 C103,128.814611 102.672391,129.14222 102.268264,129.14222 C102.225543,129.14222 102.182904,129.138479 102.140836,129.131039 L53.6043078,120.547498 L53.6043078,120.547498 C53.2547642,120.485683 53,120.181911 53,119.826944 L53,31.5895155 L53,31.5895155 C53,31.185389 53.3276093,30.8577797 53.7317358,30.8577797 C53.7744567,30.8577797 53.8170956,30.861521 53.8591638,30.8689606 Z" id="Screen" fill="#ECF0FF"></path>
                <path d="M60.4128674,41.0372628 L93.5589811,46.6175417 L93.5589811,46.6175417 C94.9681389,46.854779 96,48.0748789 96,49.503867 L96,61.0764119 L96,61.0764119 C96,62.6929179 94.6895629,64.003355 93.0730569,64.003355 C92.9102343,64.003355 92.7476957,63.9897686 92.5871326,63.9627372 L59.4410189,58.3824583 L59.4410189,58.3824583 C58.0318611,58.145221 57,56.9251211 57,55.496133 L57,43.9235881 L57,43.9235881 C57,42.3070821 58.3104371,40.996645 59.9269431,40.996645 C60.0897657,40.996645 60.2523043,41.0102314 60.4128674,41.0372628 Z" id="messages" fill="#FFFFFF"></path>
                <path d="M60.2450369,46 L60.0726035,47.5324552 L60.4265457,47.5818594 C60.4900737,47.4800354 60.5899036,47.4069432 60.7169597,47.3692274 C60.8394782,47.3268858 60.9756098,47.3180588 61.1298922,47.3394479 C61.3658537,47.3721607 61.5519002,47.4574278 61.683494,47.6026181 C61.8196256,47.7445662 61.8922292,47.9293169 61.8922292,48.1555329 C61.8922292,48.3539679 61.8150879,48.5057608 61.6698809,48.6121184 C61.5201361,48.7177279 61.3340896,48.754652 61.1072036,48.7223233 C60.907544,48.693874 60.7396483,48.6264345 60.6125922,48.5252989 C60.4673851,48.4097873 60.3857062,48.2598752 60.3675553,48.0794708 L60,48.0276485 C60.0226886,48.2874752 60.145207,48.5102094 60.372093,48.6926655 C60.5717527,48.8555982 60.8167896,48.9579228 61.1026659,48.9988774 C61.4203063,49.0443824 61.6925695,48.9961236 61.91038,48.8566116 C62.1418037,48.706913 62.2597845,48.4892786 62.2597845,48.2032408 C62.2597845,47.8973392 62.1599546,47.6450893 61.9693704,47.4439212 C61.7787862,47.2469052 61.5292116,47.1291727 61.2206466,47.0866221 C61.0709019,47.0659725 60.9347703,47.066991 60.8077141,47.0969443 C60.6670448,47.1249824 60.5490641,47.1798459 60.4583097,47.262154 L60.4401588,47.2596369 L60.5490641,46.3297541 L62.1281906,46.5445928 L62.1281906,46.254688 L60.2450369,46 Z M64.2336926,46.5394476 L64.583097,46.586703 L64.583097,48.5258899 L65.1094725,48.5998901 L65.1094725,48.8681661 L64.583097,48.7937776 L64.583097,49.441506 L64.2291548,49.3908549 L64.2291548,48.7437577 L62.6001134,48.5135381 L62.6001134,48.2033716 L64.2336926,46.5394476 Z M64.2155417,46.9643805 L62.9132161,48.2911304 L64.2291548,48.4761311 L64.2291548,46.9662376 L64.2155417,46.9643805 Z M65.6903006,46.7364473 L65.5178673,48.2925203 L65.8718094,48.3419245 C65.9353375,48.2384221 66.0351673,48.164011 66.1622235,48.1254561 C66.2847419,48.0822154 66.4208735,48.0729687 66.575156,48.0943578 C66.8111174,48.1270706 66.9971639,48.2132368 67.1287578,48.3603453 C67.2648894,48.5041517 67.3374929,48.6915399 67.3374929,48.9211727 C67.3374929,49.1226049 67.2603517,49.2768555 67.1151446,49.3851313 C66.9653999,49.492659 66.7793534,49.5305422 66.5524674,49.4982135 C66.3528077,49.4697641 66.1849121,49.4016653 66.0578559,49.2992709 C65.9126489,49.1823206 65.8309699,49.0303105 65.8128191,48.8472086 L65.4452638,48.7953863 C65.4679524,49.0591094 65.5904708,49.2849607 65.8173568,49.4696946 C66.0170164,49.6346653 66.2620533,49.7380091 66.5479297,49.7789636 C66.8655701,49.8244686 67.1378332,49.7748911 67.3556438,49.6328015 C67.5870675,49.4803455 67.7050482,49.2591744 67.7050482,48.9688207 C67.7050482,48.6583035 67.6052184,48.4024569 67.4146341,48.1986513 C67.2240499,47.9990577 66.9744753,47.8800664 66.6659104,47.8375158 C66.5161656,47.8168662 66.380034,47.8181844 66.2529779,47.848857 C66.1123086,47.8776145 65.9943279,47.9335569 65.9035735,48.0173037 L65.8854226,48.0147866 L65.9943279,47.0705773 L67.5734543,47.285416 L67.5734543,46.9911353 L65.6903006,46.7364473 Z M69.3431651,47.1737705 C69.0164492,47.1296341 68.7487238,47.190527 68.5490641,47.3575171 C68.3494044,47.5202564 68.2450369,47.7644932 68.2450369,48.0875841 L68.6171299,48.1389279 C68.6216676,47.8848588 68.6897334,47.7001143 68.8167896,47.5880533 C68.9347703,47.4665756 69.1072036,47.4252631 69.3295519,47.4554717 C69.538287,47.4838309 69.7061826,47.5552982 69.8241634,47.6686873 C69.9421441,47.7821388 70.0011344,47.9241052 70.0011344,48.1026558 C70.0011344,48.2893223 69.9149178,48.4518868 69.7515598,48.5874398 C69.6653432,48.6565602 69.4974475,48.750743 69.2433352,48.8773255 C68.8984685,49.0395104 68.6670448,49.1808955 68.5399887,49.2923456 C68.3221781,49.4756928 68.2178106,49.6991615 68.2178106,49.9616533 L70.3777652,50.2707547 L70.3777652,49.9742204 L68.6761202,49.7320731 C68.7351106,49.5463541 68.971072,49.3572427 69.3840045,49.1684139 C69.7197958,49.0128479 69.9421441,48.8857292 70.0555871,48.7960337 C70.2643222,48.6220528 70.3732275,48.4096802 70.3732275,48.1578323 C70.3732275,47.9059843 70.2733976,47.6852286 70.0828134,47.505046 C69.8876914,47.324409 69.6426546,47.214229 69.3431651,47.1737705 Z M71.1355644,47.4728946 L70.963131,49.0525854 L71.3170732,49.1019896 C71.3806012,48.9968087 71.4804311,48.9210789 71.6074872,48.8816847 C71.7300057,48.8375449 71.8661373,48.8278787 72.0204197,48.8492678 C72.2563812,48.8819805 72.4424277,48.9690459 72.5740216,49.1180726 C72.7101531,49.2637373 72.7827567,49.453763 72.7827567,49.6868125 C72.7827567,49.8912419 72.7056154,50.0479502 72.5604084,50.1581442 C72.4106636,50.2675901 72.2246171,50.3064324 71.9977311,50.2741036 C71.7980715,50.2456543 71.6301758,50.1768961 71.5031197,50.0732429 C71.3579126,49.954854 71.2762337,49.8007458 71.2580828,49.6149465 L70.8905275,49.5631242 C70.9132161,49.8307436 71.0357345,50.0597119 71.2626205,50.2467237 C71.4622802,50.4137325 71.7073171,50.5180953 71.9931934,50.5590498 C72.3108338,50.6045549 72.583097,50.5536586 72.8009075,50.4089914 C73.0323313,50.253778 73.150312,50.0290703 73.150312,49.7344006 C73.150312,49.4192677 73.0504821,49.1598245 72.8598979,48.9533814 C72.6693137,48.7512102 72.4197391,48.6309601 72.1111741,48.5884095 C71.9614294,48.5677599 71.8252978,48.5693778 71.6982416,48.6007698 C71.5575723,48.6302466 71.4395916,48.687268 71.3488372,48.7724534 L71.3306863,48.7699363 L71.4395916,47.8114005 L73.0187181,48.0262392 L73.0187181,47.7275826 L71.1355644,47.4728946 Z M75.1242201,48.0123422 L75.4736245,48.0595976 L75.4736245,50.0569298 L76,50.13093 L76,50.4072384 L75.4736245,50.3328499 L75.4736245,51 L75.1196824,50.9493489 L75.1196824,50.28283 L73.490641,50.0526105 L73.490641,49.7330927 L75.1242201,48.0123422 Z M75.1060692,48.450103 L73.8037436,49.8221703 L75.1196824,50.007171 L75.1196824,48.4519601 L75.1060692,48.450103 Z" id="545254" fill="#000000" opacity="0.15963153"></path>
                <path d="M73.5,27.013724 L82.5,28.7826003 C82.7761424,28.8372322 83,29.0354863 83,29.225394 L83,29.7411816 C83,29.9310893 82.7761424,30.0406473 82.5,29.9859055 L73.5,28.213348 C73.2238576,28.159317 73,27.9621042 73,27.7728419 L73,27.2588073 C73,27.069545 73.2238576,26.9598088 73.5,27.013724 Z" id="micro" fill="#233151"></path>
            </g>
        </g>
    </g>
</svg>